<svg preserveAspectRatio="none" width="100%" height="100%" overflow="visible" style="display: block;" viewBox="0 0 31.4912 25.09" fill="none" xmlns="http://www.w3.org/2000/svg">
<path id="&#209;&#129;&#208;&#190;&#208;&#187;&#208;&#190;" d="M8.22569 3.09815C8.64543 1.28438 10.261 0 12.1227 0L27.4912 0C29.7003 0 31.4912 1.79086 31.4912 4V23.09C31.4912 24.1946 30.5958 25.09 29.4912 25.09H28.1458C27.0412 25.09 26.1458 24.1946 26.1458 23.09V6.76151C26.1458 6.20923 25.698 5.76152 25.1458 5.76152H13.7797C13.3173 5.76152 12.9152 6.07859 12.8073 6.52828L9.11248 21.9329C8.68105 23.7317 7.07256 25 5.2228 25H2.00658C0.905431 25 0.0114246 24.1099 0.00659657 23.0088L1.96443e-05 21.5088C-0.00483846 20.4008 0.892005 19.5 2 19.5H3.63498C4.1004 19.5 4.50429 19.1789 4.60923 18.7255L8.22569 3.09815Z" fill="var(--fill-0, white)"/>
</svg>
