<svg preserveAspectRatio="none" width="100%" height="100%" overflow="visible" style="display: block;" viewBox="0 0 46 46" fill="none" xmlns="http://www.w3.org/2000/svg">
<g id="Group 318">
<circle id="Ellipse 134" cx="23" cy="23" r="23" fill="var(--fill-0, #FF5C00)"/>
<path id="Union" d="M32.8168 11.0873C35.2985 10.1836 37.0994 9.51013 36.4252 13.3402L31.4682 35.8764C29.8905 37.0019 28.9939 35.8757 28.0902 35.2016L22.683 31.144L18.8578 34.519C18.4684 34.9084 18.0783 35.1251 17.6889 35.1781C17.3856 35.2784 17.0516 35.2693 16.8676 34.9154C16.5704 34.3436 14.7408 28.625 14.0746 25.6342L6.90956 23.0297H6.90272C5.77695 22.8073 6.67298 21.6819 7.57655 21.2299L32.8168 11.0873ZM31.476 15.3695C31.0242 15.3695 30.5723 15.5994 30.1205 15.8217L15.4066 25.0678L17.517 33.0727L18.182 27.767L18.1781 27.7641C21.1045 24.3787 26.7422 20.0967 30.1205 17.1703C30.5724 16.7256 31.476 16.0437 31.476 15.3695Z" fill="var(--fill-0, white)"/>
</g>
</svg>
