<svg preserveAspectRatio="none" width="100%" height="100%" overflow="visible" style="display: block;" viewBox="0 0 28.585 25.1175" fill="none" xmlns="http://www.w3.org/2000/svg">
<path id="Vector" d="M28.585 3.83604C28.585 4.93954 27.6912 5.83453 26.5877 5.83604L6.49902 5.86357C6.19394 5.86357 5.94415 5.98045 5.71582 6.23564C5.47412 6.50615 5.35743 6.82067 5.35742 7.20244V17.9398C5.35743 18.3215 5.47412 18.638 5.71582 18.9066C5.94415 19.1599 6.19202 19.2786 6.49902 19.2786L26.5823 19.2511C27.6879 19.2496 28.585 20.1455 28.585 21.2511V23.0899C28.585 24.1934 27.6912 25.0884 26.5877 25.0899L6.37402 25.1175C4.61465 25.1175 3.09292 24.4138 1.84961 23.0286C0.621596 21.6587 0 19.9943 0 18.0775V7.0667C0 5.14988 0.621596 3.48358 1.84961 2.11552C3.09293 0.72847 4.61655 0.0266571 6.37402 0.0266571L26.5824 1.77798e-06C27.688 -0.00145654 28.585 0.8944 28.585 2V3.83604Z" fill="var(--fill-0, white)"/>
</svg>
