<svg preserveAspectRatio="none" width="100%" height="100%" overflow="visible" style="display: block;" viewBox="0 0 20 13.75" fill="none" xmlns="http://www.w3.org/2000/svg">
<g id="Group 126">
<path id="Vector" d="M10 0C14.7692 0 18.7693 3.07421 19.8525 7.21642C19.9427 7.56122 19.6722 7.88461 19.3159 7.88461C19.0442 7.88461 18.8123 7.69267 18.7422 7.43024C17.7656 3.76982 14.2219 1.05769 10 1.05769C5.77803 1.05769 2.23439 3.76982 1.25773 7.43025C1.18772 7.69267 0.955735 7.88461 0.684136 7.88461C0.327756 7.88461 0.0573192 7.56122 0.14748 7.21643C1.23065 3.07422 5.23085 0 10 0Z" fill="var(--fill-0, #0D0300)"/>
<path id="Vector_2" d="M12.2597 8.36546C10.5073 8.36546 9.08666 6.94483 9.08666 5.19239C9.08666 4.26305 8.42052 3.06029 7.59104 3.47936C5.81018 4.37908 4.56743 6.20755 4.56743 8.3172C4.56743 11.3176 6.99974 13.7499 10.0001 13.7499C13.0005 13.7499 15.4328 11.3176 15.4328 8.3172C15.4328 7.65599 14.5093 7.5253 13.9501 7.87809C13.4607 8.18682 12.8811 8.36546 12.2597 8.36546Z" fill="var(--fill-0, #0D0300)"/>
</g>
</svg>
