<svg preserveAspectRatio="xMidYMid meet" width="100%" height="100%" overflow="visible" style="display: block;" viewBox="0 0 347 236" fill="none" xmlns="http://www.w3.org/2000/svg">
<g id="179" opacity="0.08">
<path d="M79.801 236C62.9143 236 48.5307 231.401 36.6502 222.203C24.7697 212.931 15.6912 199.508 9.41473 181.935C3.13824 164.288 0 142.976 0 118C0 93.1736 3.13824 71.974 9.41473 54.4011C15.7659 36.7535 24.8818 23.2934 36.7623 14.0209C48.7175 4.67364 63.0637 0 79.801 0C96.5383 0 110.847 4.67364 122.728 14.0209C134.683 23.2934 143.799 36.7535 150.075 54.4011C156.426 71.974 159.602 93.1736 159.602 118C159.602 142.976 156.464 164.288 150.187 181.935C143.911 199.508 134.832 212.931 122.952 222.203C111.071 231.401 96.6878 236 79.801 236ZM79.801 211.323C96.5383 211.323 109.54 203.247 118.805 187.095C128.07 170.943 132.703 147.911 132.703 118C132.703 98.109 130.573 81.1717 126.314 67.1882C122.13 53.2047 116.078 42.5488 108.157 35.2205C100.312 27.8923 90.8596 24.2281 79.801 24.2281C63.2132 24.2281 50.2492 32.4164 40.9092 48.7928C31.5692 65.0944 26.8992 88.1635 26.8992 118C26.8992 137.891 28.9914 154.791 33.1757 168.7C37.36 182.608 43.375 193.189 51.2206 200.443C59.1409 207.696 68.6677 211.323 79.801 211.323Z" fill="#0D0300"/>
<path d="M202.193 232.859V212.669L277.959 129.665C286.85 119.944 294.173 111.494 299.926 104.316C305.68 97.0621 309.939 90.2573 312.704 83.9011C315.543 77.4702 316.963 70.7402 316.963 63.711C316.963 55.635 315.02 48.6432 311.134 42.7357C307.324 36.8283 302.093 32.2668 295.443 29.0513C288.793 25.8359 281.321 24.2281 273.027 24.2281C264.21 24.2281 256.514 26.0602 249.939 29.7243C243.438 33.3137 238.394 38.3612 234.808 44.8669C231.296 51.3726 229.54 59 229.54 67.749H203.089C203.089 54.289 206.19 42.474 212.392 32.3042C218.594 22.1343 227.037 14.2079 237.722 8.52471C248.482 2.84157 260.549 0 273.924 0C287.373 0 299.291 2.84157 309.677 8.52471C320.063 14.2079 328.208 21.8726 334.111 31.519C340.014 41.1654 342.965 51.8961 342.965 63.711C342.965 72.161 341.433 80.424 338.37 88.5C335.381 96.5013 330.151 105.437 322.679 115.308C315.281 125.104 305.007 137.068 291.857 151.202L240.3 206.388V208.183H347V232.859H202.193Z" fill="#0D0300"/>
</g>
</svg>
