<svg preserveAspectRatio="xMidYMid meet" width="100%" height="100%" overflow="visible" style="display: block;" viewBox="0 0 326 273" fill="none" xmlns="http://www.w3.org/2000/svg">
<g id="178" opacity="0.09">
<path d="M91.962 273C72.5019 273 55.9263 267.68 42.2353 257.04C28.5444 246.314 18.0824 230.787 10.8494 210.459C3.61648 190.045 0 165.392 0 136.5C0 107.781 3.61648 83.2581 10.8494 62.9301C18.1685 42.5157 28.6735 26.9453 42.3645 16.2191C56.1416 5.40637 72.6741 0 91.962 0C111.25 0 127.739 5.40637 141.43 16.2191C155.207 26.9453 165.712 42.5157 172.945 62.9301C180.264 83.2581 183.924 107.781 183.924 136.5C183.924 165.392 180.307 190.045 173.075 210.459C165.842 230.787 155.38 246.314 141.689 257.04C127.998 267.68 111.422 273 91.962 273ZM91.962 244.454C111.25 244.454 126.232 235.112 136.91 216.428C147.587 197.743 152.926 171.101 152.926 136.5C152.926 113.491 150.471 93.8978 145.563 77.722C140.741 61.5461 133.767 49.2196 124.639 40.7424C115.598 32.2652 104.706 28.0266 91.962 28.0266C72.8463 28.0266 57.9068 37.4986 47.1434 56.4425C36.3801 75.2999 30.9984 101.986 30.9984 136.5C30.9984 159.51 33.4094 179.059 38.2314 195.148C43.0534 211.238 49.9849 223.478 59.0262 231.868C68.1535 240.259 79.1321 244.454 91.962 244.454Z" fill="white"/>
<path d="M326 3.63308V269.367H293.968V37.3688H292.418L227.838 80.4468V47.749L293.968 3.63308H326Z" fill="white"/>
</g>
</svg>
