<svg preserveAspectRatio="xMidYMid meet" width="113" height="20" overflow="visible" style="display: block;" viewBox="0 0 113 20" fill="none" xmlns="http://www.w3.org/2000/svg">
<g id="Group 138 1" clip-path="url(#clip0_0_11)">
<path id="Vector" d="M47.9078 1.60878C46.9595 0.541673 45.7854 0 44.4166 0H30.2672C28.9162 0 27.745 0.540198 26.7892 1.60731C25.8453 2.65966 25.3673 3.94079 25.3673 5.41526V13.8858C25.3673 15.3602 25.8453 16.6398 26.7892 17.6937C27.745 18.7593 28.9146 19.301 30.2672 19.301H44.4166C45.7839 19.301 46.9595 18.7593 47.9078 17.6922C48.843 16.6398 49.3165 15.3587 49.3165 13.8858V5.41526C49.3165 3.94226 48.843 2.66262 47.9078 1.60878ZM45.2013 5.52005V13.7795C45.2013 14.0732 45.1114 14.3152 44.9255 14.5233C44.75 14.7196 44.5582 14.8097 44.3237 14.8097H30.3631C30.1271 14.8097 29.9368 14.7182 29.7613 14.5233C29.5755 14.3167 29.4855 14.0732 29.4855 13.7795V5.52005C29.4855 5.22634 29.5755 4.98429 29.7613 4.77617C29.9368 4.57987 30.1286 4.48984 30.3631 4.48984H44.3237C44.5597 4.48984 44.75 4.58135 44.9255 4.77617C45.1114 4.98281 45.2013 5.22634 45.2013 5.52005Z" fill="var(--fill-0, #0D0300)"/>
<path id="Vector_2" d="M103.255 1.60878C102.307 0.541673 101.133 0 99.7636 0H85.614C84.2634 0 83.0934 0.540198 82.1364 1.60731C81.1924 2.65966 80.7143 3.94079 80.7143 5.41526V13.8858C80.7143 15.3602 81.1924 16.6413 82.1364 17.6937C83.0919 18.7593 84.2619 19.301 85.614 19.301H99.7636C101.131 19.301 102.307 18.7593 103.255 17.6922C104.19 16.6398 104.663 15.3587 104.663 13.8858V5.41526C104.663 3.94226 104.19 2.66262 103.255 1.60878ZM100.548 5.52005V13.7795C100.548 14.0717 100.459 14.3152 100.273 14.5233C100.097 14.7196 99.9051 14.8097 99.6706 14.8097H85.7101C85.4741 14.8097 85.2835 14.7182 85.1082 14.5233C84.9222 14.3167 84.8323 14.0732 84.8323 13.7795V5.52005C84.8323 5.22634 84.9222 4.98429 85.1082 4.77617C85.2835 4.57987 85.4757 4.48984 85.7101 4.48984H99.6706C99.9051 4.48984 100.097 4.58135 100.273 4.77617C100.459 4.98281 100.548 5.22634 100.548 5.52005Z" fill="var(--fill-0, #0D0300)"/>
<path id="Vector_3" d="M107.356 7.03819C107.086 7.17805 106.91 7.50047 106.91 7.85531V11.6212C106.91 11.9775 107.086 12.2985 107.356 12.4383L111.975 14.8336C112.46 15.0854 113 14.6555 113 14.0165V5.45997C113 4.82102 112.459 4.39113 111.975 4.64288L107.356 7.03819Z" fill="var(--fill-0, #FF5C00)"/>
<path id="Vector_4" d="M58.602 2.38319C58.9246 0.987985 60.1666 0 61.5977 0H73.4116C75.1097 0 76.4864 1.37758 76.4864 3.07692V17.7615C76.4864 18.6112 75.7981 19.3 74.949 19.3H73.9147C73.0656 19.3 72.3773 18.6112 72.3773 17.7615V5.20116C72.3773 4.77633 72.0331 4.43194 71.6086 4.43194H62.8714C62.516 4.43194 62.2068 4.67584 62.1239 5.02175L59.2837 16.8715C58.952 18.2552 57.7155 19.2308 56.2937 19.2308H53.8214C52.9749 19.2308 52.2876 18.5461 52.2839 17.6991L52.2789 16.5452C52.2751 15.6929 52.9646 15 53.8163 15H55.0731C55.4309 15 55.7414 14.753 55.822 14.4042L58.602 2.38319Z" fill="var(--fill-0, #0D0300)"/>
<path id="Vector_5" d="M21.9735 2.95344C21.9735 3.80229 21.2864 4.49073 20.4382 4.4919L4.99585 4.51308C4.76133 4.51308 4.56931 4.60298 4.39379 4.79928C4.208 5.00737 4.1183 5.24931 4.11829 5.54298V13.8025C4.1183 14.0961 4.208 14.3395 4.39379 14.5461C4.56931 14.741 4.75985 14.8323 4.99585 14.8323L20.434 14.8111C21.2839 14.81 21.9735 15.4991 21.9735 16.3496V17.7641C21.9735 18.6129 21.2864 19.3014 20.4382 19.3025L4.89976 19.3238C3.54732 19.3238 2.37755 18.7825 1.42181 17.7169C0.477825 16.6631 0 15.3828 0 13.9084V5.43856C0 3.96409 0.477825 2.68232 1.42181 1.62996C2.37756 0.563001 3.54878 0.0231452 4.89976 0.0231452L20.4341 0.00264112C21.284 0.00151934 21.9735 0.69064 21.9735 1.5411V2.95344Z" fill="var(--fill-0, #0D0300)"/>
</g>
<defs>
<clipPath id="clip0_0_11">
<rect width="113" height="20" fill="white"/>
</clipPath>
</defs>
</svg>
