<svg preserveAspectRatio="xMidYMid meet" width="205" height="205" overflow="visible" style="display: block;" viewBox="0 0 205 205" fill="none" xmlns="http://www.w3.org/2000/svg">
<g id="CTA button">
<circle id="Ellipse 112" opacity="0.1" cx="102" cy="102" r="90" fill="var(--fill-0, white)"/>
<g id="Ellipse 110" filter="url(#filter0_f_0_7)">
<circle cx="102.5" cy="102.5" r="22.5" fill="var(--fill-0, #FF5C00)"/>
</g>
<circle id="Ellipse 111" cx="102" cy="102" r="4" fill="var(--fill-0, #FF5C00)"/>
<g id="Vector">
<path d="M176.539 108.159C176.492 108.841 176.302 109.432 175.968 109.931C175.644 110.432 175.211 110.807 174.669 111.058C174.127 111.318 173.519 111.425 172.844 111.378C172.151 111.33 171.546 111.126 171.029 110.765C170.521 110.405 170.139 109.924 169.882 109.32C169.626 108.716 169.524 108.042 169.576 107.297C169.663 106.05 170.144 105.114 171.019 104.49C171.894 103.865 173.11 103.607 174.666 103.715C176.115 103.815 177.24 104.205 178.042 104.882C178.845 105.56 179.337 106.545 179.518 107.838L180 111.225L178.472 111.363L178.062 108.292C177.943 107.409 177.683 106.737 177.281 106.276C176.879 105.816 176.289 105.522 175.512 105.396C175.876 105.746 176.146 106.157 176.321 106.629C176.505 107.102 176.578 107.612 176.539 108.159ZM170.936 107.432C170.893 108.051 171.056 108.563 171.426 108.967C171.804 109.381 172.303 109.609 172.924 109.653C173.544 109.696 174.057 109.537 174.462 109.178C174.866 108.827 175.089 108.342 175.133 107.723C175.176 107.095 175.023 106.575 174.672 106.163C174.321 105.751 173.835 105.524 173.214 105.48C172.585 105.437 172.059 105.594 171.636 105.952C171.213 106.32 170.979 106.813 170.936 107.432Z" fill="var(--fill-0, white)"/>
<path d="M171.232 120.241C171.117 120.218 170.955 120.175 170.747 120.114L171.894 114.578C171.353 114.568 170.886 114.733 170.493 115.075C170.107 115.427 169.851 115.907 169.725 116.514C169.564 117.289 169.688 117.981 170.096 118.588L168.893 119.263C168.579 118.868 168.375 118.408 168.281 117.884C168.187 117.359 168.203 116.793 168.329 116.185C168.489 115.41 168.785 114.76 169.217 114.233C169.648 113.707 170.171 113.337 170.786 113.124C171.408 112.921 172.068 112.892 172.766 113.036C173.454 113.178 174.041 113.459 174.524 113.88C175.015 114.312 175.357 114.837 175.552 115.456C175.746 116.074 175.771 116.732 175.627 117.428C175.484 118.115 175.203 118.695 174.782 119.168C174.369 119.653 173.853 119.987 173.235 120.172C172.623 120.367 171.956 120.39 171.232 120.241ZM174.302 117.155C174.411 116.626 174.345 116.144 174.104 115.709C173.87 115.284 173.5 114.978 172.996 114.791L172.167 118.795C172.693 118.83 173.153 118.699 173.546 118.404C173.939 118.108 174.191 117.692 174.302 117.155Z" fill="var(--fill-0, white)"/>
<path d="M165.956 124.583C166.198 123.876 166.564 123.293 167.055 122.833C167.546 122.373 168.11 122.075 168.746 121.941C169.392 121.809 170.052 121.858 170.726 122.087C171.4 122.317 171.948 122.679 172.369 123.174C172.791 123.669 173.056 124.244 173.165 124.899C173.272 125.562 173.203 126.251 172.958 126.966C172.728 127.639 172.39 128.18 171.945 128.589C171.498 129.007 170.974 129.256 170.375 129.337L170.077 127.867C170.46 127.779 170.779 127.612 171.035 127.367C171.296 127.132 171.486 126.841 171.605 126.492C171.809 125.896 171.782 125.335 171.523 124.81C171.273 124.288 170.824 123.917 170.175 123.696C169.527 123.475 168.941 123.489 168.417 123.739C167.899 123.999 167.537 124.432 167.33 125.036C167.21 125.385 167.178 125.731 167.233 126.072C167.293 126.426 167.447 126.754 167.696 127.057L166.56 128.039C166.138 127.6 165.874 127.078 165.767 126.472C165.666 125.876 165.729 125.247 165.956 124.583Z" fill="var(--fill-0, white)"/>
<path d="M167.673 138.647L161.199 135.451L161.944 133.952L167.132 136.513L168.71 133.334L163.522 130.772L164.272 129.261L170.745 132.457L167.673 138.647Z" fill="var(--fill-0, white)"/>
<path d="M162.272 146.9L156.295 142.856L157.244 141.46L162.035 144.701L163.553 142.468L162.405 141.61C161.639 141.038 161.025 140.514 160.564 140.039C160.105 139.576 159.807 139.108 159.671 138.636C159.537 138.176 159.622 137.723 159.926 137.276C160.068 137.068 160.283 136.839 160.573 136.589L161.703 137.451C161.609 137.54 161.538 137.622 161.487 137.696C161.295 137.979 161.262 138.267 161.39 138.56C161.525 138.858 161.737 139.131 162.025 139.381C162.315 139.642 162.745 139.987 163.315 140.416L165.552 142.077L162.272 146.9Z" fill="var(--fill-0, white)"/>
<path d="M158.543 151.49C157.841 152.288 157.113 152.728 156.358 152.809C155.603 152.903 154.84 152.612 154.067 151.936L150.884 149.151L151.936 147.955L152.597 148.533C152.497 148.17 152.51 147.786 152.637 147.383C152.765 146.992 153.007 146.594 153.364 146.188C153.72 145.783 154.1 145.487 154.503 145.301C154.913 145.122 155.315 145.054 155.707 145.098C156.101 145.156 156.454 145.32 156.765 145.593C157.254 146.02 157.486 146.54 157.462 147.154C157.439 147.78 157.086 148.482 156.402 149.259L155.172 150.659L155.253 150.73C155.633 151.062 156.025 151.202 156.431 151.15C156.83 151.105 157.226 150.859 157.619 150.413C157.886 150.109 158.104 149.766 158.27 149.386C158.431 149.012 158.516 148.65 158.525 148.298L159.887 148.611C159.854 149.085 159.72 149.571 159.485 150.071C159.249 150.571 158.935 151.044 158.543 151.49ZM154.057 147.262C153.778 147.579 153.602 147.922 153.53 148.29C153.46 148.671 153.515 149.031 153.697 149.369L154.328 149.921L155.478 148.612C156.12 147.882 156.201 147.306 155.719 146.885C155.489 146.684 155.226 146.615 154.929 146.679C154.633 146.743 154.343 146.937 154.057 147.262Z" fill="var(--fill-0, white)"/>
<path d="M148.645 159.051L150.522 157.36L146.642 153.075L147.897 151.945L151.777 156.23L153.664 154.53L154.625 155.592L149.606 160.113L148.645 159.051Z" fill="var(--fill-0, white)"/>
<path d="M147.666 161.617L146.281 162.584L144.598 160.186L141.617 162.267L143.3 164.665L141.915 165.632L137.773 159.73L139.159 158.763L140.795 161.095L143.776 159.014L142.14 156.682L143.525 155.715L147.666 161.617Z" fill="var(--fill-0, white)"/>
<path d="M136.767 168.56C135.824 169.052 134.986 169.2 134.252 169.004C133.515 168.82 132.908 168.274 132.431 167.366L130.469 163.624L131.884 162.886L132.291 163.663C132.328 163.289 132.479 162.936 132.744 162.605C133.004 162.287 133.374 162.002 133.853 161.752C134.333 161.502 134.794 161.363 135.237 161.335C135.684 161.315 136.083 161.396 136.433 161.578C136.78 161.773 137.049 162.054 137.241 162.421C137.542 162.994 137.571 163.563 137.327 164.127C137.079 164.702 136.496 165.23 135.577 165.709L133.923 166.572L133.974 166.668C134.208 167.114 134.523 167.386 134.92 167.483C135.309 167.585 135.767 167.498 136.295 167.223C136.654 167.035 136.981 166.794 137.274 166.499C137.559 166.208 137.769 165.901 137.904 165.576L139.062 166.358C138.86 166.788 138.559 167.194 138.159 167.575C137.758 167.957 137.294 168.285 136.767 168.56ZM134.112 163.003C133.737 163.198 133.449 163.455 133.249 163.773C133.045 164.102 132.967 164.458 133.014 164.839L133.403 165.58L134.949 164.773C135.812 164.323 136.095 163.815 135.798 163.249C135.656 162.978 135.436 162.82 135.136 162.773C134.837 162.726 134.496 162.802 134.112 163.003Z" fill="var(--fill-0, white)"/>
<path d="M124.866 173.509L122.354 166.755L123.775 166.23L124.532 168.266L126.32 167.605L126.945 165.057L128.644 164.428L127.884 167.271C128.437 167.258 128.909 167.376 129.299 167.625C129.685 167.885 129.973 168.272 130.164 168.787C130.453 169.562 130.401 170.263 130.008 170.888C129.615 171.513 128.937 172.003 127.973 172.36L124.866 173.509ZM127.429 171.051C128.452 170.672 128.82 170.099 128.535 169.332C128.253 168.573 127.617 168.377 126.628 168.742L124.941 169.367L125.793 171.656L127.429 171.051Z" fill="var(--fill-0, white)"/>
<path d="M113.606 171.702L114.899 171.482L114.411 168.636L116.078 168.352L117.295 175.453L115.628 175.737L115.136 172.865L113.803 173.092L112.189 176.324L110.402 176.628L112.403 172.77L109.011 169.557L110.971 169.223L113.606 171.702Z" fill="var(--fill-0, white)"/>
<path d="M104.468 169.622C105.197 169.594 105.861 169.726 106.459 170.018C107.057 170.31 107.533 170.728 107.888 171.273C108.235 171.826 108.422 172.458 108.449 173.168C108.477 173.878 108.339 174.518 108.036 175.088C107.724 175.658 107.282 176.111 106.708 176.448C106.135 176.786 105.483 176.968 104.753 176.996C104.014 177.025 103.346 176.893 102.748 176.601C102.15 176.309 101.678 175.891 101.332 175.346C100.977 174.801 100.786 174.174 100.759 173.464C100.731 172.754 100.873 172.11 101.185 171.531C101.487 170.961 101.926 170.508 102.499 170.171C103.073 169.834 103.729 169.651 104.468 169.622ZM104.523 171.065C103.902 171.089 103.396 171.315 103.007 171.744C102.617 172.173 102.435 172.725 102.462 173.399C102.488 174.073 102.711 174.609 103.133 175.006C103.554 175.404 104.076 175.591 104.698 175.567C105.319 175.543 105.825 175.317 106.215 174.888C106.595 174.459 106.772 173.908 106.746 173.234C106.72 172.56 106.501 172.024 106.088 171.625C105.667 171.228 105.145 171.041 104.523 171.065Z" fill="var(--fill-0, white)"/>
<path d="M97.6557 176.902L95.9728 176.74L96.2553 173.826L92.6337 173.476L92.3512 176.39L90.6683 176.228L91.3635 169.057L93.0464 169.22L92.7717 172.053L96.3933 172.402L96.668 169.569L98.3509 169.731L97.6557 176.902Z" fill="var(--fill-0, white)"/>
<path d="M85.7149 167.713C86.4435 167.884 87.0615 168.19 87.5688 168.632C88.0762 169.074 88.4284 169.604 88.6255 170.223C88.8206 170.851 88.8368 171.511 88.6741 172.202C88.5114 172.894 88.2038 173.473 87.7512 173.94C87.2987 174.407 86.7511 174.727 86.1084 174.9C85.4569 175.071 84.7624 175.07 84.025 174.897C83.3314 174.735 82.7586 174.453 82.3066 174.052C81.8457 173.648 81.5454 173.153 81.4056 172.566L82.8428 172.127C82.9685 172.498 83.1665 172.798 83.4367 173.028C83.696 173.264 84.0057 173.424 84.3656 173.508C84.9801 173.652 85.5367 173.57 86.0353 173.262C86.5318 172.962 86.8583 172.48 87.0148 171.814C87.1714 171.149 87.0995 170.568 86.7992 170.073C86.488 169.585 86.0208 169.267 85.3975 169.121C85.0375 169.037 84.6898 169.039 84.3542 169.127C84.0078 169.221 83.6956 169.407 83.4174 169.684L82.3263 168.652C82.722 168.191 83.2172 167.877 83.8119 167.711C84.3958 167.552 85.0301 167.553 85.7149 167.713Z" fill="var(--fill-0, white)"/>
<path d="M72.2959 171.025L78.1344 164.856C78.6984 164.227 79.2462 163.842 79.7776 163.699C80.3121 163.548 80.8803 163.581 81.4822 163.799C81.8213 163.921 82.1362 164.097 82.4269 164.327C82.7176 164.556 82.9336 164.806 83.0749 165.077L82.015 166.014C81.9147 165.815 81.7781 165.637 81.6054 165.479C81.4242 165.318 81.2276 165.199 81.0156 165.122C80.7359 165.021 80.4809 165.01 80.2506 165.09C80.0118 165.166 79.7547 165.346 79.4792 165.629L79.268 165.854L79.7606 173.723L78.1075 173.125L77.7915 167.343L73.8219 171.576L72.2959 171.025Z" fill="var(--fill-0, white)"/>
<path d="M64.5488 167.114L67.849 160.705L69.353 161.476L66.7078 166.612L69.1142 167.845L69.8294 166.604C70.3063 165.776 70.7532 165.105 71.1701 164.591C71.575 164.08 72.0043 163.729 72.458 163.537C72.8997 163.349 73.3611 163.378 73.8424 163.624C74.067 163.739 74.3211 163.925 74.6046 164.182L73.8835 165.405C73.7836 165.323 73.6935 165.262 73.6133 165.221C73.3085 165.065 73.0181 165.067 72.7421 165.229C72.4619 165.399 72.2153 165.642 72.0022 165.957C71.7769 166.277 71.4854 166.744 71.1279 167.36L69.7465 169.776L64.5488 167.114Z" fill="var(--fill-0, white)"/>
<path d="M60.0734 161.363C59.3141 160.845 58.8505 160.278 58.6826 159.663C58.5072 159.042 58.6333 158.42 59.0608 157.796C59.5086 157.143 60.078 156.79 60.7689 156.738C61.4598 156.687 62.2084 156.941 63.0148 157.502L65.7987 159.416L61.7224 165.363L60.3267 164.412L61.6625 162.463L60.0734 161.363ZM62.4353 158.61C62.031 158.323 61.6598 158.196 61.3218 158.227C60.9838 158.258 60.6977 158.444 60.4636 158.785C60.2346 159.12 60.1709 159.436 60.2725 159.734C60.374 160.032 60.6344 160.329 61.0537 160.626L62.319 161.505L63.7006 159.489L62.4353 158.61Z" fill="var(--fill-0, white)"/>
<path d="M50.9012 155.159L52.815 156.809L56.6004 152.44L57.8796 153.543L54.0942 157.912L56.0181 159.57L55.0806 160.652L49.9637 156.241L50.9012 155.159Z" fill="var(--fill-0, white)"/>
<path d="M46.5674 152.762C45.8485 151.98 45.4897 151.21 45.4909 150.452C45.4794 149.694 45.8526 148.969 46.6105 148.276L49.7318 145.423L50.8101 146.597L50.1619 147.189C50.5347 147.129 50.9153 147.184 51.3036 147.354C51.6791 147.523 52.0496 147.806 52.4152 148.204C52.7807 148.602 53.0341 149.011 53.1753 149.431C53.3098 149.857 53.3336 150.262 53.2465 150.647C53.1468 151.031 52.944 151.362 52.6382 151.642C52.1595 152.079 51.6158 152.253 51.007 152.163C50.3855 152.072 49.7245 151.645 49.0239 150.883L47.7628 149.51L47.683 149.583C47.3107 149.924 47.1284 150.298 47.1361 150.705C47.1377 151.106 47.3395 151.526 47.7416 151.963C48.0158 152.262 48.3334 152.514 48.6945 152.721C49.0496 152.921 49.4016 153.045 49.7506 153.092L49.2909 154.408C48.8223 154.324 48.3517 154.138 47.8793 153.85C47.4068 153.563 46.9695 153.2 46.5674 152.762ZM51.2701 148.775C50.9838 148.463 50.6611 148.252 50.3022 148.141C49.9305 148.029 49.566 148.045 49.2087 148.189L48.5905 148.754L49.7693 150.037C50.4273 150.753 50.9923 150.895 51.4643 150.464C51.6903 150.257 51.7876 150.004 51.756 149.703C51.7245 149.403 51.5625 149.093 51.2701 148.775Z" fill="var(--fill-0, white)"/>
<path d="M42.597 138.072L45.1283 136.292L46.0404 137.582L44.6808 138.538L48.3371 143.708L42.4346 147.861L41.4601 146.483L46.191 143.155L44.203 140.343L39.4722 143.671L38.4977 142.293L43.2285 138.965L42.597 138.072Z" fill="var(--fill-0, white)"/>
<path d="M36.5373 139.043L35.7704 137.541L40.0136 135.386L33.9604 133.994L33.2609 132.623L39.698 129.355L40.465 130.858L36.2218 133.012L42.2688 134.393L42.9744 135.776L36.5373 139.043Z" fill="var(--fill-0, white)"/>
<path d="M29.8912 123.527L36.7092 121.149L37.2093 122.575L35.1537 123.292L35.7833 125.088L38.3256 125.759L38.9239 127.465L36.0886 126.654C36.0911 127.205 35.9639 127.674 35.7072 128.059C35.439 128.438 35.0453 128.718 34.5261 128.899C33.743 129.172 33.0419 129.107 32.4228 128.704C31.8037 128.301 31.3245 127.615 30.9852 126.647L29.8912 123.527ZM32.3079 126.129C32.6681 127.156 33.2355 127.534 34.0101 127.264C34.7761 126.997 34.985 126.367 34.6368 125.373L34.0429 123.68L31.7319 124.486L32.3079 126.129Z" fill="var(--fill-0, white)"/>
<path d="M27.4487 95.5864C27.4989 94.9047 27.6915 94.3146 28.0266 93.8161C28.3527 93.3169 28.7871 92.9429 29.3298 92.6941C29.8732 92.4363 30.4822 92.3321 31.1566 92.3815C31.8491 92.4322 32.4533 92.6388 32.9691 93.0012C33.4759 93.3629 33.8563 93.8462 34.1101 94.451C34.364 95.0557 34.4635 95.7303 34.4087 96.4748C34.3169 97.7216 33.8322 98.6556 32.9547 99.2767C32.0771 99.8978 30.8604 100.151 29.3046 100.037C27.8567 99.9314 26.7329 99.538 25.9331 98.8571C25.1333 98.1763 24.6453 97.1892 24.4693 95.8957L24 92.5067L25.5287 92.3751L25.9264 95.4478C26.0422 96.3311 26.3001 97.0038 26.7 97.4659C27.1 97.9281 27.6886 98.2237 28.4657 98.3527C28.1028 98.0015 27.8347 97.5896 27.6615 97.117C27.4794 96.6437 27.4084 96.1335 27.4487 95.5864ZM33.0492 96.3347C33.0947 95.7158 32.9335 95.2035 32.5656 94.7978C32.1893 94.3824 31.6909 94.1521 31.0703 94.1066C30.4498 94.0612 29.9365 94.2175 29.5304 94.5755C29.1249 94.9246 28.8994 95.4086 28.8539 96.0275C28.8076 96.6553 28.9592 97.176 29.3085 97.5893C29.6578 98.0027 30.1428 98.2321 30.7633 98.2775C31.3928 98.3236 31.9196 98.1683 32.3437 97.8116C32.7685 97.4459 33.0036 96.9536 33.0492 96.3347Z" fill="var(--fill-0, white)"/>
<path d="M32.865 83.2925C32.9796 83.317 33.1408 83.3607 33.3486 83.4236L32.1595 88.9504C32.7005 88.965 33.1688 88.803 33.5645 88.4646C33.9531 88.1154 34.2128 87.6375 34.3433 87.0307C34.5098 86.2569 34.3913 85.5646 33.9878 84.9539L35.1962 84.2881C35.5072 84.6858 35.7077 85.1473 35.7976 85.6724C35.8875 86.1976 35.8672 86.7636 35.7366 87.3703C35.5702 88.1442 35.2692 88.7927 34.8339 89.3158C34.3985 89.8389 33.8726 90.2047 33.2559 90.413C32.6324 90.6107 31.9723 90.635 31.2758 90.4859C30.5881 90.3388 30.004 90.0528 29.5236 89.628C29.0363 89.1926 28.6979 88.6648 28.5085 88.0448C28.3191 87.4247 28.2992 86.7674 28.4486 86.0727C28.5962 85.3868 28.882 84.8086 29.306 84.3383C29.7231 83.8572 30.2415 83.5266 30.8613 83.3465C31.4741 83.1558 32.142 83.1377 32.865 83.2925ZM29.7711 86.3557C29.6576 86.8833 29.7198 87.3658 29.9578 87.803C30.1888 88.2296 30.5559 88.5381 31.059 88.7286L31.9189 84.7319C31.3924 84.6928 30.9317 84.8196 30.5367 85.1122C30.1417 85.4048 29.8866 85.8193 29.7711 86.3557Z" fill="var(--fill-0, white)"/>
<path d="M38.1452 79.0563C37.8982 79.7609 37.5274 80.3414 37.0331 80.7978C36.5387 81.2542 35.9726 81.5474 35.3347 81.6775C34.6883 81.8046 34.0289 81.7508 33.3564 81.5163C32.684 81.2817 32.139 80.9154 31.7214 80.4172C31.3038 79.919 31.0428 79.342 30.9383 78.6863C30.8369 78.022 30.9112 77.3334 31.1612 76.6202C31.3964 75.9495 31.738 75.4113 32.186 75.0054C32.637 74.591 33.1625 74.3455 33.7625 74.269L34.0488 75.7409C33.6654 75.8263 33.345 75.9909 33.0876 76.2346C32.8247 76.4668 32.6322 76.757 32.5102 77.105C32.3018 77.6993 32.3249 78.26 32.5795 78.7871C32.8256 79.3112 33.2721 79.6861 33.919 79.9117C34.5659 80.1374 35.1521 80.1275 35.6776 79.882C36.1976 79.6251 36.5633 79.1952 36.7746 78.5925C36.8967 78.2444 36.9317 77.8993 36.8797 77.5572C36.8221 77.2037 36.6701 76.8743 36.4237 76.5692L37.5673 75.5961C37.9857 76.0374 38.2461 76.5618 38.3484 77.1691C38.4451 77.765 38.3774 78.3941 38.1452 79.0563Z" fill="var(--fill-0, white)"/>
<path d="M36.4873 65.0412L42.9365 68.2852L42.1812 69.7788L37.0122 67.1788L35.4103 70.3467L40.5793 72.9468L39.818 74.4525L33.3688 71.2085L36.4873 65.0412Z" fill="var(--fill-0, white)"/>
<path d="M41.9115 56.8398L47.8593 60.9271L46.9001 62.3158L42.1329 59.0398L40.598 61.2616L41.7403 62.1285C42.5018 62.7064 43.1115 63.2346 43.5694 63.7131C44.025 64.1791 44.3192 64.6489 44.452 65.1224C44.5825 65.5834 44.4943 66.0361 44.1873 66.4805C44.0441 66.6879 43.8267 66.9153 43.5353 67.1628L42.4118 66.2925C42.5057 66.2041 42.5782 66.1229 42.6294 66.0488C42.8238 65.7674 42.8582 65.4798 42.7327 65.186C42.5997 64.8871 42.3901 64.6119 42.1038 64.3606C41.8152 64.0967 41.3878 63.7484 40.8216 63.3157L38.5962 61.639L41.9115 56.8398Z" fill="var(--fill-0, white)"/>
<path d="M45.6005 52.3224C46.3079 51.5296 47.0394 51.0954 47.7951 51.0197C48.55 50.9312 49.3114 51.2278 50.0793 51.9095L53.2418 54.7167L52.1807 55.9059L51.524 55.3229C51.6219 55.6867 51.6059 56.0699 51.4761 56.4724C51.3456 56.8622 51.1004 57.2586 50.7407 57.6617C50.381 58.0648 49.9989 58.3578 49.5945 58.5405C49.1832 58.7173 48.7814 58.782 48.3891 58.7347C47.9959 58.6747 47.6445 58.5072 47.3346 58.2321C46.8496 57.8016 46.6212 57.2798 46.6492 56.6666C46.6766 56.0407 47.035 55.3415 47.7244 54.5689L48.9653 53.1781L48.8845 53.1064C48.5073 52.7716 48.1157 52.6287 47.7098 52.6777C47.3099 52.72 46.9121 52.9629 46.5164 53.4063C46.2467 53.7087 46.027 54.0495 45.8576 54.4288C45.6941 54.8014 45.6066 55.1632 45.5952 55.5143L44.2351 55.1919C44.2713 54.7184 44.409 54.2326 44.6482 53.7346C44.8874 53.2365 45.2048 52.7658 45.6005 52.3224ZM50.0551 56.5835C50.3368 56.2678 50.5149 55.9262 50.5893 55.5587C50.6629 55.1786 50.6099 54.8186 50.4304 54.4786L49.804 53.9226L48.6439 55.2226C47.9965 55.9482 47.9119 56.5232 48.3902 56.9478C48.6192 57.151 48.882 57.2218 49.1786 57.16C49.4751 57.0982 49.7673 56.906 50.0551 56.5835Z" fill="var(--fill-0, white)"/>
<path d="M55.7252 44.6377L53.8357 46.3149L57.6845 50.6281L56.4215 51.7492L52.5727 47.436L50.6732 49.1221L49.72 48.0539L54.772 43.5694L55.7252 44.6377Z" fill="var(--fill-0, white)"/>
<path d="M56.6721 42.1104L58.0644 41.1536L59.7297 43.5643L62.7259 41.5053L61.0606 39.0946L62.4529 38.1379L66.5509 44.0702L65.1586 45.0269L63.5394 42.6829L60.5432 44.7419L62.1624 47.0859L60.7702 48.0427L56.6721 42.1104Z" fill="var(--fill-0, white)"/>
<path d="M67.426 35.3363C68.3725 34.8514 69.2118 34.7095 69.944 34.9108C70.68 35.0999 71.2829 35.6504 71.7526 36.5625L73.687 40.3185L72.2673 41.0459L71.8655 40.2659C71.8253 40.6404 71.6718 40.992 71.4052 41.3207C71.1425 41.6373 70.7705 41.9189 70.2892 42.1654C69.8079 42.412 69.3456 42.5477 68.9023 42.5726C68.4548 42.5896 68.0566 42.5054 67.7078 42.3201C67.3628 42.1227 67.0956 41.84 66.9061 41.472C66.6094 40.896 66.5851 40.3271 66.833 39.7653C67.0849 39.1914 67.672 38.6682 68.5944 38.1956L70.2548 37.345L70.2054 37.249C69.9746 36.801 69.6611 36.5268 69.2648 36.4265C68.8765 36.3221 68.4177 36.4055 67.8883 36.6768C67.5273 36.8617 67.1992 37.1005 66.904 37.3934C66.6167 37.6821 66.4043 37.9881 66.2667 38.3113L65.1147 37.5214C65.3198 37.0928 65.6239 36.6892 66.0271 36.3108C66.4303 35.9323 66.8966 35.6075 67.426 35.3363ZM70.0396 40.9131C70.4166 40.72 70.7062 40.4655 70.9085 40.1495C71.1146 39.8215 71.1954 39.4666 71.1509 39.085L70.7678 38.341L69.2157 39.1361C68.3494 39.5799 68.0625 40.0859 68.3551 40.6539C68.4951 40.9259 68.7147 41.0864 69.0136 41.1354C69.3126 41.1845 69.6546 41.1104 70.0396 40.9131Z" fill="var(--fill-0, white)"/>
<path d="M79.4669 30.3981L81.9281 37.171L80.5038 37.6859L79.7618 35.6438L77.9687 36.292L77.3246 38.8351L75.6206 39.451L76.4025 36.6142C75.8494 36.6228 75.3784 36.5013 74.9896 36.2496C74.6062 35.9864 74.3208 35.5969 74.1334 35.0811C73.8507 34.3032 73.9081 33.6033 74.3055 32.9813C74.703 32.3593 75.3849 31.8736 76.3514 31.5243L79.4669 30.3981ZM76.8862 32.8377C75.8604 33.2085 75.4872 33.7786 75.7668 34.5481C76.0434 35.3091 76.6776 35.5103 77.6695 35.1517L79.3608 34.5404L78.5266 32.2447L76.8862 32.8377Z" fill="var(--fill-0, white)"/>
<path d="M90.6964 32.2591L89.4015 32.4698L89.8674 35.3192L88.1987 35.5906L87.036 28.4805L88.7047 28.2091L89.175 31.0851L90.51 30.8679L92.1489 27.6488L93.9377 27.3578L91.9075 31.201L95.274 34.4396L93.3116 34.7589L90.6964 32.2591Z" fill="var(--fill-0, white)"/>
<path d="M99.9547 34.3783C99.2247 34.4008 98.5619 34.2638 97.9663 33.9672C97.3707 33.6706 96.8975 33.2488 96.5468 32.7017C96.2047 32.1454 96.0227 31.5121 96.0008 30.8019C95.9788 30.0918 96.1214 29.453 96.4286 28.8856C96.7448 28.318 97.191 27.8679 97.7671 27.5352C98.3432 27.2025 98.9963 27.0249 99.7263 27.0024C100.465 26.9797 101.133 27.1166 101.728 27.4132C102.324 27.7097 102.793 28.1317 103.134 28.6791C103.485 29.2261 103.671 29.8548 103.693 30.5649C103.715 31.2751 103.568 31.9185 103.252 32.4951C102.945 33.0625 102.504 33.5125 101.928 33.8452C101.351 34.1778 100.694 34.3556 99.9547 34.3783ZM99.9101 32.9355C100.532 32.9164 101.039 32.6938 101.432 32.2678C101.825 31.8418 102.011 31.2916 101.99 30.6174C101.969 29.9432 101.749 29.4056 101.331 29.0046C100.913 28.6035 100.392 28.4126 99.7706 28.4318C99.1487 28.4509 98.6413 28.6735 98.2486 29.0995C97.8648 29.5253 97.6833 30.0752 97.7042 30.7494C97.7251 31.4237 97.9402 31.9614 98.3496 32.3627C98.768 32.7637 99.2882 32.9547 99.9101 32.9355Z" fill="var(--fill-0, white)"/>
<path d="M106.406 27.0973L108.087 27.2725L107.782 30.1841L111.401 30.5612L111.706 27.6496L113.388 27.8248L112.637 34.9898L110.956 34.8146L111.252 31.9835L107.633 31.6064L107.337 34.4375L105.655 34.2623L106.406 27.0973Z" fill="var(--fill-0, white)"/>
<path d="M118.706 36.4163C117.978 36.2403 117.363 35.9293 116.859 35.4834C116.355 35.0376 116.007 34.5044 115.814 33.8841C115.624 33.255 115.613 32.5952 115.781 31.9047C115.949 31.2142 116.261 30.6373 116.717 30.1739C117.173 29.7104 117.723 29.3947 118.367 29.2266C119.02 29.0607 119.714 29.0668 120.45 29.245C121.143 29.4125 121.713 29.6987 122.162 30.1035C122.62 30.5104 122.917 31.0079 123.052 31.5959L121.611 32.0247C121.488 31.6526 121.293 31.3507 121.024 31.1192C120.767 30.881 120.458 30.7184 120.099 30.6315C119.486 30.483 118.929 30.561 118.428 30.8655C117.929 31.1613 117.599 31.6413 117.437 32.3055C117.275 32.9698 117.343 33.5507 117.639 34.0481C117.947 34.539 118.412 34.8597 119.034 35.0103C119.393 35.0973 119.741 35.0981 120.077 35.0129C120.424 34.9211 120.738 34.7378 121.018 34.4632L122.101 35.5028C121.702 35.9615 121.205 36.2714 120.609 36.4326C120.024 36.5871 119.389 36.5817 118.706 36.4163Z" fill="var(--fill-0, white)"/>
<path d="M131.75 33.0523L125.866 39.1775C125.297 39.8017 124.746 40.1831 124.214 40.3218C123.678 40.469 123.11 40.4316 122.51 40.2095C122.172 40.0844 121.858 39.906 121.569 39.6744C121.28 39.4428 121.066 39.1909 120.927 38.9187L121.994 37.9897C122.093 38.1893 122.228 38.3689 122.399 38.5282C122.579 38.6908 122.775 38.8111 122.986 38.8893C123.265 38.9926 123.52 39.0053 123.751 38.9277C123.991 38.8531 124.249 38.6754 124.527 38.3944L124.74 38.171L124.306 30.2982L125.955 30.9081L126.227 36.6925L130.229 32.4893L131.75 33.0523Z" fill="var(--fill-0, white)"/>
<path d="M139.624 37.0367L136.276 43.4203L134.778 42.6387L137.461 37.5223L135.064 36.2718L134.34 37.5076C133.857 38.3316 133.405 38.9992 132.984 39.5104C132.576 40.0179 132.144 40.3661 131.689 40.5549C131.246 40.7399 130.784 40.7074 130.305 40.4572C130.081 40.3405 129.828 40.1529 129.547 39.8943L130.277 38.6766C130.376 38.7589 130.466 38.8209 130.546 38.8626C130.849 39.021 131.14 39.0202 131.417 38.8603C131.698 38.6925 131.947 38.4516 132.162 38.1377C132.39 37.8201 132.685 37.3548 133.047 36.7419L134.446 34.3356L139.624 37.0367Z" fill="var(--fill-0, white)"/>
<path d="M144.096 42.8008C144.852 43.3241 145.311 43.8941 145.475 44.5109C145.645 45.1329 145.515 45.7541 145.083 46.3747C144.63 47.0248 144.058 47.3732 143.367 47.42C142.676 47.4668 141.929 47.207 141.127 46.6404L138.357 44.7056L142.477 38.7883L143.865 39.7502L142.515 41.6894L144.096 42.8008ZM141.714 45.5363C142.117 45.8258 142.487 45.9563 142.825 45.9278C143.163 45.8993 143.451 45.7151 143.687 45.3753C143.919 45.0428 143.985 44.7272 143.885 44.4285C143.786 44.1297 143.528 43.8304 143.111 43.5306L141.852 42.6424L140.455 44.648L141.714 45.5363Z" fill="var(--fill-0, white)"/>
<path d="M153.211 49.0183L151.309 47.3549L147.492 51.6959L146.221 50.584L150.038 46.243L148.126 44.5706L149.072 43.4955L154.156 47.9432L153.211 49.0183Z" fill="var(--fill-0, white)"/>
<path d="M157.756 51.6444C158.469 52.4321 158.822 53.2046 158.815 53.962C158.821 54.7201 158.443 55.4427 157.68 56.1299L154.538 58.96L153.468 57.7786L154.121 57.1909C153.747 57.2483 153.367 57.1908 152.98 57.0183C152.606 56.8465 152.237 56.5603 151.875 56.1598C151.512 55.7594 151.262 55.3487 151.124 54.9277C150.992 54.5008 150.971 54.0954 151.061 53.7115C151.164 53.3283 151.369 52.998 151.677 52.7207C152.159 52.2867 152.704 52.117 153.312 52.2115C153.933 52.3068 154.591 52.7382 155.286 53.5058L156.537 54.8874L156.617 54.8151C156.992 54.4775 157.177 54.1049 157.172 53.6971C157.173 53.296 156.975 52.8751 156.576 52.4346C156.304 52.1342 155.988 51.8794 155.628 51.6701C155.275 51.4675 154.924 51.3414 154.575 51.2919L155.044 49.9785C155.512 50.0659 155.981 50.2553 156.452 50.5466C156.922 50.838 157.357 51.2039 157.756 51.6444ZM153.024 55.5973C153.308 55.9111 153.629 56.1248 153.987 56.2385C154.358 56.3528 154.723 56.3395 155.081 56.1985L155.703 55.6379L154.534 54.3463C153.881 53.6255 153.317 53.479 152.842 53.907C152.615 54.112 152.516 54.3648 152.545 54.6656C152.574 54.9664 152.734 55.277 153.024 55.5973Z" fill="var(--fill-0, white)"/>
<path d="M161.519 66.2146L158.975 67.9767L158.072 66.6802L159.438 65.7337L155.82 60.5367L161.753 56.4277L162.717 57.8128L157.962 61.1062L159.929 63.9319L164.685 60.6385L165.649 62.0237L160.894 65.317L161.519 66.2146Z" fill="var(--fill-0, white)"/>
<path d="M167.691 65.4344L168.446 66.9429L164.187 69.0656L170.23 70.503L170.919 71.8787L164.458 75.0989L163.702 73.5904L167.961 71.4677L161.925 70.0424L161.229 68.6546L167.691 65.4344Z" fill="var(--fill-0, white)"/>
<path d="M174.195 80.9155L167.36 83.2424L166.87 81.8124L168.931 81.1108L168.315 79.3106L165.778 78.6205L165.193 76.9096L168.022 77.7427C168.023 77.1909 168.154 76.7236 168.414 76.3406C168.685 75.9632 169.081 75.6859 169.601 75.5087C170.386 75.2415 171.087 75.3119 171.703 75.7199C172.319 76.1279 172.793 76.8171 173.125 77.7874L174.195 80.9155ZM171.798 78.296C171.446 77.2661 170.881 76.8833 170.105 77.1477C169.337 77.4091 169.123 78.0378 169.464 79.0336L170.045 80.7317L172.362 79.943L171.798 78.296Z" fill="var(--fill-0, white)"/>
</g>
</g>
<defs>
<filter id="filter0_f_0_7" x="0" y="0" width="205" height="205" filterUnits="userSpaceOnUse" color-interpolation-filters="sRGB">
<feFlood flood-opacity="0" result="BackgroundImageFix"/>
<feBlend mode="normal" in="SourceGraphic" in2="BackgroundImageFix" result="shape"/>
<feGaussianBlur stdDeviation="40" result="effect1_foregroundBlur_0_7"/>
</filter>
</defs>
</svg>
