<svg preserveAspectRatio="none" width="100%" height="100%" overflow="visible" style="display: block;" viewBox="0 0 26 17.8752" fill="none" xmlns="http://www.w3.org/2000/svg">
<g id="Group 126">
<path id="Vector" d="M13 0C19.2 0 24.4002 3.99649 25.8083 9.38139C25.9255 9.82962 25.5739 10.25 25.1106 10.25C24.7575 10.25 24.4559 10.0005 24.3649 9.65935C23.0953 4.90078 18.4885 1.375 13 1.375C7.51144 1.375 2.9047 4.90079 1.63505 9.65937C1.54403 10.0005 1.24246 10.25 0.889377 10.25C0.426082 10.25 0.0745147 9.82962 0.191723 9.3814C1.59985 3.9965 6.8001 0 13 0Z" fill="var(--fill-0, white)"/>
<path id="Vector_2" d="M15.9373 10.8752C13.6592 10.8752 11.8123 9.02832 11.8123 6.75014C11.8123 5.542 10.9464 3.9784 9.86802 4.5232C7.55291 5.69284 5.93734 8.06986 5.93734 10.8124C5.93734 14.7129 9.09934 17.8749 12.9998 17.8749C16.9003 17.8749 20.0623 14.7129 20.0623 10.8124C20.0623 9.95284 18.8618 9.78293 18.1348 10.2416C17.4986 10.6429 16.7452 10.8752 15.9373 10.8752Z" fill="var(--fill-0, white)"/>
</g>
</svg>
