<svg preserveAspectRatio="none" width="100%" height="100%" overflow="visible" style="display: block;" viewBox="0 0 443.552 448.204" fill="none" xmlns="http://www.w3.org/2000/svg">
<g id="Vector">
<path d="M432.953 248.311C433.08 247.29 433.418 246.401 433.966 245.644C434.512 244.901 435.215 244.35 436.073 243.99C436.945 243.633 437.887 243.516 438.899 243.641C439.911 243.766 440.79 244.107 441.534 244.665C442.279 245.222 442.825 245.927 443.173 246.781C443.519 247.648 443.628 248.592 443.501 249.613C443.39 250.503 443.114 251.273 442.673 251.923C442.243 252.588 441.668 253.082 440.947 253.405L440.367 252.277C440.922 252 441.357 251.615 441.672 251.122C442 250.631 442.202 250.077 442.279 249.462C442.371 248.716 442.284 248.02 442.018 247.376C441.762 246.746 441.347 246.223 440.772 245.807C440.195 245.403 439.512 245.153 438.723 245.055C437.922 244.956 437.191 245.032 436.533 245.283C435.886 245.549 435.355 245.955 434.94 246.502C434.536 247.064 434.288 247.718 434.195 248.464C434.119 249.079 434.173 249.664 434.357 250.219C434.542 250.773 434.869 251.252 435.34 251.656L434.5 252.609C433.881 252.121 433.437 251.501 433.17 250.75C432.917 250.001 432.844 249.188 432.953 248.311Z" fill="var(--fill-0, white)"/>
<path d="M442.316 257.639L442.057 259.02L433.894 257.501L440.777 265.847L440.547 267.073L430.275 265.162L430.534 263.781L438.697 265.299L431.811 256.973L432.044 255.728L442.316 257.639Z" fill="var(--fill-0, white)"/>
<path d="M437.497 279.741L427.361 277.21L427.704 275.847L436.626 278.075L437.844 273.238L435.372 272.478C433.291 271.85 431.734 271.203 430.7 270.536C429.666 269.87 429.273 269.044 429.521 268.059C429.589 267.791 429.722 267.477 429.922 267.119L431.073 267.508C430.964 267.726 430.898 267.879 430.875 267.969C430.743 268.494 430.887 268.951 431.308 269.342C431.728 269.732 432.287 270.062 432.984 270.332C433.681 270.601 434.612 270.915 435.778 271.274L439.357 272.351L437.497 279.741Z" fill="var(--fill-0, white)"/>
<path d="M431.183 287.945C430.775 289.186 430.198 290.042 429.451 290.512C428.701 290.995 427.814 291.076 426.791 290.754C425.73 290.419 425.028 289.811 424.683 288.927C424.335 288.057 424.376 286.963 424.808 285.646L426.097 281.652L436.06 284.791L435.635 286.13L432.15 285.032L431.183 287.945ZM425.855 285.893C425.551 286.807 425.514 287.557 425.745 288.141C425.985 288.743 426.477 289.16 427.222 289.395C427.955 289.626 428.572 289.564 429.073 289.21C429.574 288.856 429.979 288.216 430.287 287.289L431.146 284.716L426.713 283.32L425.855 285.893Z" fill="var(--fill-0, white)"/>
<path d="M432.281 296.374L431.776 297.685L427.455 296.033L425.098 302.148L429.42 303.8L428.914 305.112L419.159 301.382L419.664 300.071L423.967 301.715L426.323 295.601L422.02 293.956L422.526 292.644L432.281 296.374Z" fill="var(--fill-0, white)"/>
<path d="M415.535 309.379C415.954 308.468 416.537 307.74 417.283 307.195C418.041 306.656 418.884 306.345 419.812 306.26C420.739 306.176 421.667 306.346 422.594 306.769C423.521 307.193 424.255 307.782 424.796 308.537C425.337 309.292 425.644 310.129 425.716 311.047C425.789 311.966 425.615 312.881 425.196 313.792C424.776 314.703 424.193 315.431 423.447 315.976C422.701 316.52 421.867 316.828 420.945 316.901C420.018 316.985 419.09 316.815 418.163 316.392C417.236 315.969 416.502 315.379 415.961 314.624C415.415 313.881 415.099 313.047 415.014 312.124C414.942 311.205 415.115 310.29 415.535 309.379ZM416.673 309.899C416.363 310.57 416.238 311.238 416.296 311.903C416.36 312.586 416.607 313.206 417.034 313.765C417.462 314.323 418.037 314.767 418.76 315.097C419.482 315.427 420.195 315.571 420.899 315.53C421.603 315.488 422.229 315.267 422.779 314.865C423.334 314.48 423.767 313.952 424.076 313.28C424.385 312.609 424.508 311.932 424.443 311.249C424.385 310.584 424.145 309.967 423.723 309.396C423.295 308.838 422.72 308.394 421.997 308.064C421.275 307.734 420.562 307.59 419.858 307.631C419.149 307.685 418.516 307.904 417.96 308.288C417.411 308.69 416.982 309.227 416.673 309.899Z" fill="var(--fill-0, white)"/>
<path d="M411.987 327.191L416.095 319.506C415.1 319.067 414.126 319.022 413.175 319.369C412.236 319.723 411.495 320.406 410.954 321.419C410.649 321.99 410.468 322.566 410.411 323.149C410.367 323.738 410.45 324.313 410.66 324.873L409.48 325.144C409.207 324.476 409.107 323.765 409.18 323.012C409.246 322.27 409.476 321.532 409.868 320.798C410.372 319.855 411.019 319.122 411.808 318.599C412.604 318.095 413.467 317.827 414.398 317.798C415.328 317.769 416.244 317.993 417.144 318.47C418.044 318.948 418.748 319.568 419.256 320.33C419.757 321.104 420.026 321.934 420.063 322.821C420.093 323.718 419.881 324.592 419.426 325.442C418.972 326.292 418.365 326.95 417.607 327.414C416.848 327.879 416.01 328.114 415.091 328.12C414.184 328.132 413.275 327.896 412.363 327.413L411.987 327.191ZM418.357 324.875C418.83 323.99 418.942 323.093 418.693 322.184C418.449 321.292 417.893 320.564 417.025 319.999L413.542 326.513C414.497 326.916 415.417 326.963 416.302 326.655C417.192 326.365 417.877 325.772 418.357 324.875Z" fill="var(--fill-0, white)"/>
<path d="M404.172 341.057C403.124 342.063 402.022 342.194 400.866 341.449C400.098 340.955 399.692 340.293 399.647 339.463C399.603 338.633 399.944 337.658 400.67 336.539L403.248 332.568L412.023 338.22L409.52 342.075C408.873 343.072 408.171 343.727 407.415 344.042C406.659 344.356 405.92 344.28 405.197 343.815C404.719 343.507 404.394 343.109 404.221 342.621C404.053 342.151 404.037 341.63 404.172 341.057ZM407.375 336.852L405.67 339.478C405.232 340.153 405.025 340.751 405.051 341.27C405.069 341.8 405.323 342.223 405.813 342.538C406.302 342.853 406.788 342.907 407.27 342.699C407.745 342.502 408.201 342.066 408.64 341.39L410.344 338.765L407.375 336.852ZM401.636 337.091C401.147 337.845 400.903 338.488 400.903 339.023C400.903 339.557 401.165 339.992 401.687 340.329C402.21 340.666 402.705 340.741 403.173 340.555C403.652 340.377 404.132 339.916 404.614 339.174L406.491 336.283L403.438 334.316L401.636 337.091Z" fill="var(--fill-0, white)"/>
<path d="M404.658 349.332L403.82 350.462L397.141 345.548L399.677 356.049L398.933 357.052L390.528 350.868L391.366 349.738L398.046 354.652L395.497 344.167L396.253 343.148L404.658 349.332Z" fill="var(--fill-0, white)"/>
<path d="M382.265 362.732L379.398 360.318L380.257 359.305L382.184 360.928L388.224 353.81L386.298 352.188L387.157 351.175L390.024 353.59L389.64 354.043C389.217 354.603 389.303 355.297 389.9 356.128C390.496 356.958 391.447 357.983 392.752 359.203L395.332 361.557L390.356 367.421L383.317 361.493L382.265 362.732ZM391.858 360.134C390.768 359.13 389.913 358.247 389.295 357.484C388.686 356.73 388.399 356.056 388.434 355.464L384.227 360.42L390.311 365.543L393.556 361.72L391.858 360.134Z" fill="var(--fill-0, white)"/>
<path d="M376.027 374.474L382.071 368.185C381.232 367.494 380.307 367.187 379.297 367.265C378.297 367.352 377.398 367.81 376.602 368.639C376.153 369.106 375.822 369.613 375.609 370.158C375.406 370.713 375.329 371.289 375.38 371.885L374.17 371.827C374.089 371.11 374.186 370.399 374.461 369.693C374.727 368.997 375.148 368.349 375.725 367.749C376.467 366.977 377.289 366.446 378.191 366.156C379.094 365.884 379.997 365.86 380.901 366.083C381.805 366.306 382.626 366.768 383.362 367.471C384.099 368.173 384.608 368.96 384.889 369.831C385.162 370.711 385.195 371.583 384.989 372.446C384.774 373.318 384.332 374.102 383.663 374.798C382.995 375.493 382.232 375.962 381.376 376.205C380.519 376.448 379.648 376.448 378.762 376.206C377.886 375.973 377.075 375.501 376.329 374.789L376.027 374.474ZM382.788 373.963C383.484 373.239 383.836 372.405 383.843 371.463C383.851 370.539 383.514 369.688 382.832 368.91L377.708 374.241C378.518 374.886 379.391 375.18 380.326 375.122C381.262 375.083 382.083 374.697 382.788 373.963Z" fill="var(--fill-0, white)"/>
<path d="M366.816 376.485C367.553 375.802 368.371 375.351 369.269 375.132C370.176 374.922 371.074 374.954 371.964 375.229C372.854 375.504 373.646 376.014 374.34 376.757C375.035 377.501 375.487 378.325 375.698 379.229C375.908 380.133 375.871 381.023 375.586 381.899C375.301 382.775 374.79 383.555 374.053 384.238C373.316 384.92 372.498 385.372 371.6 385.591C370.702 385.811 369.813 385.778 368.933 385.494C368.043 385.22 367.251 384.71 366.557 383.966C365.862 383.222 365.41 382.399 365.199 381.495C364.979 380.6 365.007 379.71 365.283 378.824C365.568 377.947 366.079 377.168 366.816 376.485ZM367.668 377.398C367.125 377.901 366.753 378.471 366.551 379.108C366.349 379.763 366.339 380.43 366.52 381.109C366.702 381.787 367.063 382.416 367.604 382.996C368.145 383.576 368.749 383.98 369.415 384.21C370.082 384.439 370.746 384.473 371.408 384.31C372.069 384.166 372.671 383.842 373.214 383.339C373.757 382.836 374.13 382.257 374.332 381.602C374.533 380.965 374.548 380.303 374.376 379.615C374.195 378.936 373.834 378.307 373.293 377.728C372.752 377.148 372.148 376.743 371.481 376.514C370.805 376.293 370.137 376.255 369.476 376.399C368.814 376.562 368.211 376.895 367.668 377.398Z" fill="var(--fill-0, white)"/>
<path d="M349.262 392.791L346.955 389.84L348.005 389.025L349.556 391.008L356.938 385.281L355.387 383.299L356.437 382.484L358.745 385.434L358.274 385.799C357.745 386.26 357.686 386.958 358.098 387.892C358.51 388.827 359.229 390.025 360.254 391.487L362.293 394.319L356.212 399.037L350.548 391.794L349.262 392.791ZM359.187 392.215C358.327 391.008 357.674 389.969 357.226 389.096C356.786 388.233 356.645 387.515 356.801 386.942L351.66 390.93L356.556 397.19L360.521 394.114L359.187 392.215Z" fill="var(--fill-0, white)"/>
<path d="M344.386 407.32L338.489 398.728L339.653 397.935L344.844 405.498L348.977 402.684L347.634 400.482C346.496 398.637 345.762 397.123 345.432 395.941C345.102 394.76 345.358 393.882 346.2 393.309C346.43 393.153 346.738 393.006 347.126 392.87L347.728 393.922C347.501 394.013 347.35 394.084 347.273 394.136C346.825 394.442 346.628 394.879 346.683 395.449C346.737 396.02 346.935 396.636 347.277 397.298C347.619 397.96 348.107 398.81 348.74 399.849L350.7 403.021L344.386 407.32Z" fill="var(--fill-0, white)"/>
<path d="M333.353 414.05L328.005 405.108L329.114 404.45L330.883 407.408L334.041 405.534L334.354 401.341L335.668 400.561L335.303 405.016C336.112 404.797 336.843 404.808 337.497 405.05C338.15 405.292 338.69 405.77 339.117 406.484C339.714 407.481 339.827 408.443 339.456 409.369C339.085 410.296 338.308 411.11 337.124 411.812L333.353 414.05ZM337.868 407.179C337.075 405.853 335.831 405.693 334.136 406.699L331.422 408.309L333.821 412.321L336.45 410.761C338.202 409.722 338.675 408.527 337.868 407.179Z" fill="var(--fill-0, white)"/>
<path d="M315.594 417.616C314.174 417.936 313.164 417.479 312.562 416.245C312.162 415.426 312.16 414.65 312.553 413.917C312.946 413.184 313.745 412.527 314.948 411.944L319.218 409.878L323.785 419.239L319.639 421.246C318.567 421.764 317.626 421.963 316.816 421.842C316.006 421.721 315.413 421.274 315.036 420.503C314.788 419.993 314.716 419.485 314.823 418.979C314.923 418.49 315.18 418.036 315.594 417.616ZM320.52 415.671L317.697 417.038C316.97 417.389 316.483 417.794 316.235 418.251C315.975 418.714 315.972 419.207 316.227 419.729C316.482 420.251 316.869 420.548 317.39 420.618C317.898 420.695 318.516 420.557 319.242 420.206L322.066 418.839L320.52 415.671ZM315.487 412.915C314.677 413.307 314.134 413.732 313.856 414.189C313.578 414.646 313.575 415.153 313.847 415.711C314.119 416.268 314.504 416.588 315 416.671C315.503 416.765 316.153 416.619 316.951 416.233L320.06 414.728L318.471 411.471L315.487 412.915Z" fill="var(--fill-0, white)"/>
<path d="M308.457 426.359C307.198 426.884 306.1 426.97 305.162 426.617C304.23 426.277 303.505 425.492 302.989 424.263L300.488 418.313L301.734 417.793L302.363 419.29C302.447 418.669 302.717 418.098 303.173 417.579C303.618 417.065 304.231 416.645 305.013 416.319C306.088 415.871 307.05 415.77 307.9 416.016C308.75 416.262 309.352 416.805 309.705 417.645C310.047 418.46 310.03 419.239 309.654 419.983C309.265 420.731 308.423 421.376 307.128 421.915L304.067 423.191L304.313 423.775C304.66 424.603 305.156 425.133 305.799 425.365C306.447 425.61 307.218 425.546 308.109 425.174C308.72 424.92 309.263 424.572 309.738 424.13C310.218 423.701 310.586 423.227 310.841 422.706L311.834 423.428C311.519 424.046 311.065 424.607 310.473 425.111C309.886 425.628 309.214 426.044 308.457 426.359ZM305.241 417.425C304.508 417.731 303.947 418.157 303.56 418.705C303.178 419.265 302.992 419.914 303.001 420.654L303.661 422.224L306.684 420.963C308.334 420.276 308.918 419.36 308.437 418.216C308.202 417.656 307.802 417.301 307.236 417.151C306.675 417.013 306.01 417.104 305.241 417.425Z" fill="var(--fill-0, white)"/>
<path d="M286.678 434.147L283.378 424.272L297.062 419.734L300.362 429.61L299.024 430.054L296.113 421.342L291.25 422.955L294.161 431.666L292.823 432.11L289.911 423.398L285.105 424.992L288.016 433.704L286.678 434.147Z" fill="var(--fill-0, white)"/>
<path d="M271.048 432.374L279.527 430.257C279.186 429.227 278.567 428.477 277.67 428.007C276.777 427.55 275.772 427.461 274.654 427.74C274.025 427.897 273.474 428.151 273.002 428.5C272.533 428.861 272.161 429.308 271.885 429.839L270.892 429.149C271.206 428.499 271.668 427.949 272.278 427.497C272.876 427.049 273.579 426.724 274.388 426.521C275.429 426.262 276.408 426.248 277.327 426.481C278.236 426.73 279.014 427.189 279.66 427.857C280.306 428.525 280.753 429.352 281.001 430.337C281.249 431.322 281.26 432.258 281.032 433.145C280.792 434.034 280.354 434.79 279.718 435.411C279.07 436.035 278.277 436.464 277.339 436.699C276.401 436.933 275.505 436.925 274.65 436.676C273.796 436.427 273.058 435.966 272.438 435.291C271.821 434.629 271.387 433.799 271.135 432.801L271.048 432.374ZM277.044 435.528C278.021 435.284 278.764 434.765 279.274 433.971C279.775 433.193 279.944 432.294 279.783 431.274L272.595 433.069C272.937 434.044 273.518 434.756 274.341 435.203C275.154 435.667 276.055 435.775 277.044 435.528Z" fill="var(--fill-0, white)"/>
<path d="M260.836 438.909L266.701 437.748L264.909 428.762L266.292 428.489L268.328 438.697L261.08 440.132L260.836 438.909Z" fill="var(--fill-0, white)"/>
<path d="M252.695 430.754C253.691 430.612 254.621 430.705 255.485 431.035C256.35 431.378 257.07 431.915 257.643 432.646C258.217 433.377 258.576 434.245 258.721 435.25C258.866 436.256 258.766 437.189 258.422 438.052C258.078 438.914 257.538 439.624 256.802 440.182C256.067 440.74 255.201 441.091 254.204 441.233C253.208 441.376 252.278 441.282 251.414 440.952C250.551 440.623 249.839 440.091 249.278 439.358C248.705 438.628 248.345 437.759 248.201 436.754C248.056 435.748 248.155 434.815 248.499 433.952C248.83 433.092 249.363 432.376 250.097 431.805C250.832 431.247 251.698 430.897 252.695 430.754ZM252.873 431.988C252.138 432.093 251.506 432.35 250.977 432.759C250.436 433.183 250.045 433.725 249.806 434.385C249.567 435.046 249.504 435.768 249.616 436.551C249.729 437.335 249.994 438.01 250.41 438.577C250.826 439.144 251.353 439.548 251.99 439.791C252.615 440.048 253.295 440.124 254.029 440.019C254.764 439.914 255.401 439.649 255.942 439.226C256.472 438.817 256.863 438.281 257.116 437.619C257.355 436.958 257.418 436.236 257.305 435.453C257.192 434.669 256.928 433.994 256.512 433.427C256.082 432.862 255.555 432.451 254.929 432.194C254.292 431.952 253.607 431.883 252.873 431.988Z" fill="var(--fill-0, white)"/>
<path d="M234.594 442.799C233.628 442.851 232.757 442.68 231.979 442.285C231.189 441.905 230.562 441.338 230.096 440.584C229.632 439.842 229.373 438.978 229.319 437.99C229.264 436.976 229.44 436.061 229.847 435.247C230.241 434.446 230.823 433.807 231.593 433.329C232.363 432.852 233.263 432.585 234.295 432.53C236.027 432.437 237.402 432.97 238.42 434.131C239.438 435.291 240.005 436.939 240.121 439.073C240.242 441.299 239.911 443.027 239.129 444.258C238.334 445.49 237.042 446.366 235.253 446.885L230.63 448.204L230.322 446.933L234.671 445.688C236.147 445.278 237.213 444.633 237.868 443.752C238.524 442.884 238.841 441.632 238.818 439.995C238.439 440.821 237.884 441.479 237.155 441.967C236.426 442.469 235.572 442.746 234.594 442.799ZM234.318 433.698C233.591 433.737 232.952 433.937 232.401 434.296C231.838 434.67 231.414 435.169 231.13 435.792C230.832 436.415 230.704 437.109 230.745 437.873C230.787 438.637 230.982 439.301 231.331 439.863C231.679 440.426 232.153 440.849 232.752 441.134C233.339 441.433 234.003 441.562 234.743 441.522C235.484 441.482 236.136 441.282 236.7 440.921C237.252 440.575 237.677 440.103 237.976 439.505C238.262 438.908 238.384 438.228 238.343 437.464C238.301 436.7 238.105 436.024 237.755 435.435C237.392 434.847 236.91 434.397 236.309 434.086C235.709 433.788 235.046 433.659 234.318 433.698Z" fill="var(--fill-0, white)"/>
<path d="M218.954 443.424C217.974 443.412 217.089 443.178 216.3 442.72C215.51 442.276 214.895 441.649 214.454 440.839C214.013 440.029 213.799 439.11 213.811 438.081C213.823 437.039 214.059 436.118 214.518 435.318C214.978 434.519 215.608 433.9 216.408 433.46C217.194 433.034 218.084 432.827 219.077 432.838C219.925 432.848 220.691 433.028 221.375 433.379C222.047 433.743 222.597 434.264 223.026 434.942L223.093 429.144L224.504 429.16L224.338 443.407L222.987 443.391L223.011 441.333C222.58 442.014 222.017 442.535 221.324 442.897C220.618 443.258 219.828 443.434 218.954 443.424ZM219.162 434.086C218.434 434.077 217.769 434.234 217.17 434.557C216.57 434.893 216.101 435.37 215.762 435.986C215.411 436.602 215.23 437.305 215.221 438.097C215.212 438.888 215.376 439.589 215.713 440.2C216.037 440.824 216.495 441.311 217.087 441.661C217.679 442.011 218.339 442.19 219.068 442.198C219.809 442.207 220.48 442.043 221.08 441.707C221.667 441.37 222.136 440.894 222.487 440.278C222.825 439.675 222.999 438.978 223.008 438.187C223.017 437.395 222.86 436.688 222.536 436.064C222.199 435.44 221.741 434.953 221.162 434.603C220.57 434.267 219.903 434.094 219.162 434.086Z" fill="var(--fill-0, white)"/>
<path d="M201.186 436.758L209.903 437.395C209.903 436.311 209.552 435.406 208.848 434.679C208.144 433.967 207.217 433.568 206.068 433.484C205.421 433.437 204.818 433.505 204.26 433.689C203.701 433.886 203.207 434.194 202.778 434.612L202.052 433.647C202.555 433.128 203.168 432.749 203.889 432.511C204.597 432.272 205.367 432.183 206.199 432.244C207.269 432.322 208.204 432.615 209.003 433.123C209.788 433.644 210.382 434.322 210.785 435.158C211.188 435.995 211.353 436.919 211.278 437.932C211.203 438.946 210.918 439.837 210.423 440.608C209.915 441.378 209.261 441.958 208.462 442.35C207.65 442.74 206.762 442.9 205.798 442.829C204.833 442.759 203.985 442.472 203.252 441.968C202.518 441.465 201.964 440.796 201.587 439.962C201.209 439.141 201.058 438.217 201.134 437.191L201.186 436.758ZM205.886 441.625C206.89 441.699 207.759 441.438 208.494 440.844C209.214 440.262 209.658 439.461 209.826 438.441L202.436 437.901C202.453 438.934 202.781 439.791 203.422 440.473C204.048 441.167 204.869 441.551 205.886 441.625Z" fill="var(--fill-0, white)"/>
<path d="M196.565 441.93L195.168 441.736L195.808 437.17L189.296 436.264L188.656 440.831L187.259 440.636L188.703 430.328L190.1 430.522L189.463 435.069L195.976 435.974L196.613 431.428L198.01 431.622L196.565 441.93Z" fill="var(--fill-0, white)"/>
<path d="M174.142 428.751L174.902 425.089L176.205 425.357L175.695 427.818L184.858 429.704L185.368 427.243L186.672 427.511L185.912 431.174L185.329 431.053C184.633 430.951 184.062 431.358 183.614 432.277C183.167 433.195 182.717 434.517 182.264 436.242L181.421 439.625L173.872 438.071L175.737 429.079L174.142 428.751ZM181.016 435.904C181.381 434.471 181.752 433.301 182.129 432.395C182.504 431.503 182.96 430.93 183.5 430.677L177.119 429.364L175.507 437.134L180.429 438.147L181.016 435.904Z" fill="var(--fill-0, white)"/>
<path d="M164.639 435.863C163.322 435.507 162.402 434.904 161.879 434.052C161.353 433.213 161.265 432.15 161.614 430.864L163.308 424.638L164.612 424.99L164.186 426.556C164.635 426.117 165.2 425.832 165.88 425.701C166.548 425.567 167.291 425.61 168.109 425.831C169.234 426.135 170.056 426.644 170.575 427.358C171.094 428.072 171.234 428.868 170.995 429.747C170.763 430.6 170.269 431.205 169.514 431.561C168.745 431.914 167.684 431.908 166.329 431.542L163.127 430.678L162.96 431.289C162.725 432.155 162.789 432.876 163.154 433.453C163.515 434.042 164.162 434.463 165.095 434.715C165.734 434.887 166.377 434.945 167.024 434.887C167.667 434.842 168.25 434.692 168.773 434.436L169.111 435.614C168.482 435.909 167.778 436.074 167 436.11C166.218 436.159 165.431 436.077 164.639 435.863ZM167.607 426.844C166.84 426.637 166.135 426.631 165.492 426.826C164.845 427.034 164.297 427.433 163.849 428.023L163.402 429.665L166.566 430.519C168.291 430.985 169.317 430.62 169.643 429.423C169.802 428.837 169.705 428.312 169.351 427.847C168.994 427.396 168.412 427.061 167.607 426.844Z" fill="var(--fill-0, white)"/>
<path d="M127.464 414.929C127.832 415.109 128.083 415.393 128.217 415.781C128.35 416.17 128.32 416.559 128.128 416.95C127.941 417.329 127.656 417.579 127.272 417.7C126.882 417.833 126.503 417.809 126.134 417.629C125.765 417.449 125.514 417.165 125.381 416.776C125.242 416.4 125.266 416.022 125.452 415.643C125.639 415.264 125.93 415.002 126.326 414.858C126.716 414.725 127.095 414.749 127.464 414.929Z" fill="var(--fill-0, white)"/>
<path d="M93.9932 389.593C94.8151 390.217 95.4163 390.954 95.7968 391.807C96.1668 392.651 96.2914 393.533 96.1708 394.453C96.0421 395.384 95.6689 396.253 95.0511 397.061C94.4333 397.869 93.6953 398.453 92.8371 398.814C91.9788 399.174 91.092 399.289 90.1764 399.159C89.2503 399.02 88.3763 398.639 87.5545 398.016C86.8379 397.472 86.3088 396.847 85.967 396.14C85.6066 395.436 85.4676 394.692 85.5502 393.909L86.8211 393.978C86.7822 394.595 86.8972 395.163 87.1663 395.682C87.4273 396.211 87.8054 396.664 88.3006 397.04C88.9012 397.495 89.5482 397.77 90.2415 397.865C90.9163 397.962 91.5792 397.868 92.2302 397.583C92.8707 397.289 93.4317 396.828 93.9131 396.198C94.4025 395.558 94.7041 394.891 94.8178 394.198C94.9129 393.507 94.8277 392.846 94.5621 392.213C94.278 391.583 93.8356 391.04 93.235 390.585C92.7398 390.209 92.2052 389.961 91.6313 389.841C91.0574 389.721 90.477 389.762 89.8901 389.963L89.4857 388.761C90.2215 388.473 90.9822 388.404 91.7679 388.552C92.5455 388.711 93.2873 389.058 93.9932 389.593Z" fill="var(--fill-0, white)"/>
<path d="M81.4552 393.17L80.3847 392.255L85.7916 385.977L75.0924 387.733L74.1425 386.921L80.9464 379.021L82.017 379.936L76.61 386.214L87.2941 384.446L88.2591 385.27L81.4552 393.17Z" fill="var(--fill-0, white)"/>
<path d="M64.4857 377.764L71.7664 370.298L72.7782 371.277L66.3695 377.848L69.9605 381.323L71.8596 379.574C73.449 378.096 74.7922 377.078 75.8893 376.521C76.9863 375.964 77.9006 376.04 78.6321 376.747C78.8316 376.94 79.0369 377.213 79.2481 377.564L78.3325 378.361C78.1984 378.158 78.0981 378.024 78.0316 377.959C77.6421 377.583 77.1723 377.477 76.6221 377.644C76.072 377.811 75.5053 378.127 74.922 378.592C74.3387 379.058 73.5989 379.703 72.7024 380.527L69.9719 383.072L64.4857 377.764Z" fill="var(--fill-0, white)"/>
<path d="M60.7956 368.499C59.9196 367.528 59.4633 366.602 59.4268 365.723C59.3814 364.834 59.7541 364.029 60.545 363.307C61.3652 362.558 62.2455 362.255 63.186 362.399C64.1175 362.533 65.0482 363.115 65.9779 364.145L68.8086 367.251L61.1047 374.283L60.1518 373.247L62.8467 370.787L60.7956 368.499ZM65.2407 364.925C64.5973 364.206 63.9636 363.801 63.3396 363.708C62.6969 363.615 62.0875 363.831 61.5114 364.357C60.9451 364.874 60.6907 365.437 60.7484 366.046C60.8061 366.656 61.1611 367.325 61.8135 368.053L63.6229 370.079L67.0502 366.951L65.2407 364.925Z" fill="var(--fill-0, white)"/>
<path d="M52.9906 365.317L52.0998 364.228L55.6885 361.316L51.5355 356.238L47.9467 359.15L47.0559 358.061L55.1575 351.487L56.0483 352.576L52.475 355.476L56.628 360.554L60.2014 357.654L61.0922 358.744L52.9906 365.317Z" fill="var(--fill-0, white)"/>
<path d="M50.0821 344.474C50.6682 345.289 51.0135 346.155 51.1179 347.07C51.2115 347.993 51.0649 348.876 50.678 349.72C50.2912 350.564 49.6832 351.282 48.8542 351.874C48.0252 352.465 47.1473 352.807 46.2206 352.901C45.2939 352.994 44.4123 352.844 43.5758 352.451C42.7392 352.058 42.0279 351.454 41.4418 350.639C40.8557 349.824 40.5104 348.959 40.406 348.043C40.3016 347.128 40.4467 346.254 40.8413 345.42C41.2281 344.577 41.8361 343.859 42.6651 343.267C43.4941 342.676 44.372 342.333 45.2987 342.24C46.2177 342.136 47.1008 342.277 47.9481 342.662C48.7846 343.055 49.496 343.659 50.0821 344.474ZM49.0646 345.2C48.6328 344.6 48.1126 344.159 47.504 343.88C46.8771 343.597 46.2141 343.502 45.5153 343.595C44.8165 343.688 44.144 343.965 43.498 344.426C42.852 344.886 42.3724 345.431 42.0592 346.061C41.7459 346.69 41.6283 347.342 41.7062 348.016C41.7656 348.688 42.0112 349.324 42.4431 349.925C42.875 350.525 43.4044 350.967 44.0314 351.25C44.6399 351.53 45.2975 351.628 46.004 351.546C46.7029 351.453 47.3753 351.176 48.0213 350.715C48.6673 350.254 49.1469 349.709 49.4601 349.08C49.7656 348.44 49.8887 347.785 49.8293 347.113C49.7514 346.438 49.4965 345.801 49.0646 345.2Z" fill="var(--fill-0, white)"/>
<path d="M36.1805 332.3L40.8186 339.68C41.6969 339.038 42.2221 338.221 42.394 337.226C42.5547 336.239 42.3294 335.259 41.718 334.286C41.3737 333.738 40.9621 333.295 40.4831 332.955C39.9929 332.623 39.4516 332.408 38.8591 332.31L39.212 331.157C39.9294 331.254 40.5979 331.522 41.2173 331.961C41.8297 332.388 42.3572 332.954 42.8 333.658C43.3692 334.564 43.6843 335.488 43.7454 336.431C43.7882 337.369 43.5901 338.247 43.1513 339.065C42.7125 339.884 42.0609 340.562 41.1965 341.101C40.3321 341.64 39.4416 341.939 38.5249 341.997C37.6012 342.044 36.7447 341.862 35.9555 341.451C35.1592 341.03 34.5045 340.411 33.9915 339.594C33.4786 338.778 33.2091 337.927 33.1832 337.04C33.1573 336.154 33.3708 335.312 33.8236 334.516C34.2653 333.727 34.9239 333.06 35.7995 332.514L36.1805 332.3ZM35.0187 338.954C35.5528 339.804 36.2776 340.348 37.1931 340.586C38.0903 340.82 39.0013 340.704 39.9261 340.236L35.9943 333.98C35.1679 334.604 34.668 335.375 34.4946 336.292C34.3029 337.206 34.4776 338.093 35.0187 338.954Z" fill="var(--fill-0, white)"/>
<path d="M28.0175 318.667C27.6645 317.261 28.1006 316.244 29.3258 315.617C30.1387 315.201 30.9174 315.181 31.6619 315.556C32.4063 315.932 33.0842 316.712 33.6954 317.897L35.8647 322.104L26.5698 326.86L24.464 322.776C23.9193 321.72 23.6989 320.787 23.8026 319.978C23.9063 319.168 24.341 318.568 25.1068 318.176C25.6133 317.917 26.1218 317.835 26.6323 317.929C27.1249 318.019 27.5866 318.264 28.0175 318.667ZM30.0785 323.53L28.6444 320.749C28.2752 320.033 27.8584 319.556 27.3938 319.32C26.9231 319.071 26.4286 319.079 25.9103 319.344C25.3919 319.61 25.103 320.002 25.0435 320.522C24.978 321.03 25.1298 321.642 25.4989 322.358L26.9331 325.139L30.0785 323.53ZM32.733 318.456C32.3215 317.658 31.8833 317.126 31.4184 316.86C30.9535 316.594 30.4442 316.602 29.8905 316.885C29.3368 317.169 29.0242 317.558 28.9526 318.055C28.8692 318.557 29.0303 319.202 29.4357 319.988L31.0151 323.05L34.2489 321.396L32.733 318.456Z" fill="var(--fill-0, white)"/>
<path d="M20.5494 314.93L19.9854 313.643L27.5967 310.336L17.1974 307.277L16.697 306.134L26.2748 301.972L26.8388 303.26L19.2275 306.567L29.6189 309.608L30.1272 310.769L20.5494 314.93Z" fill="var(--fill-0, white)"/>
<path d="M20.183 289.242L23.713 287.968L24.1665 289.215L21.7945 290.071L24.9827 298.833L27.3547 297.977L27.8083 299.223L24.2783 300.498L24.0752 299.94C23.7987 299.296 23.1506 299.024 22.131 299.126C21.1114 299.227 19.7454 299.538 18.0328 300.058L14.6983 301.115L12.0719 293.896L20.7381 290.768L20.183 289.242ZM17.6676 298.822C19.0847 298.381 20.2793 298.083 21.2514 297.928C22.2111 297.778 22.9403 297.866 23.4389 298.191L21.2187 292.089L13.7292 294.793L15.4417 299.499L17.6676 298.822Z" fill="var(--fill-0, white)"/>
<path d="M13.0411 277.858L15.4868 286.217C16.5072 285.838 17.2361 285.194 17.6733 284.284C18.0978 283.377 18.1489 282.373 17.8265 281.271C17.6449 280.651 17.3701 280.112 17.002 279.655C16.6212 279.203 16.1591 278.849 15.6156 278.595L16.2706 277.58C16.9343 277.868 17.5042 278.307 17.9804 278.897C18.4528 279.475 18.8057 280.162 19.0392 280.96C19.3393 281.986 19.39 282.961 19.1911 283.884C18.9759 284.799 18.5453 285.59 17.8994 286.258C17.2534 286.927 16.441 287.403 15.4619 287.687C14.4829 287.972 13.5444 288.017 12.6465 287.824C11.7449 287.619 10.9705 287.212 10.3232 286.603C9.67228 285.981 9.21155 285.208 8.94104 284.283C8.67053 283.359 8.64396 282.466 8.86134 281.606C9.07872 280.746 9.51408 279.995 10.1674 279.352C10.808 278.712 11.6242 278.249 12.616 277.961L13.0411 277.858ZM10.1045 283.946C10.3861 284.908 10.9348 285.628 11.7505 286.106C12.5498 286.575 13.4583 286.709 14.476 286.51L12.4027 279.424C11.4369 279.801 10.7451 280.407 10.3275 281.243C9.89348 282.069 9.81912 282.97 10.1045 283.946Z" fill="var(--fill-0, white)"/>
<path d="M15.8727 268.815C16.0951 269.793 16.076 270.724 15.8154 271.608C15.5418 272.494 15.0623 273.252 14.3768 273.88C13.6914 274.508 12.8513 274.934 11.8568 275.159C10.8622 275.383 9.91973 275.359 9.02939 275.087C8.13905 274.814 7.38503 274.335 6.76734 273.65C6.14966 272.964 5.7296 272.132 5.50717 271.154C5.28475 270.177 5.30385 269.246 5.56449 268.362C5.82513 267.478 6.29965 266.728 6.98805 266.113C7.67353 265.485 8.51355 265.059 9.50812 264.834C10.5027 264.61 11.4452 264.634 12.3355 264.906C13.2229 265.166 13.9819 265.637 14.6125 266.32C15.2302 267.005 15.6503 267.837 15.8727 268.815ZM14.6521 269.09C14.4882 268.37 14.1804 267.763 13.7287 267.27C13.2612 266.767 12.6873 266.423 12.0071 266.238C11.3268 266.054 10.5992 266.049 9.8242 266.224C9.04921 266.399 8.39476 266.715 7.86085 267.174C7.32694 267.633 6.96437 268.188 6.77316 268.84C6.5661 269.482 6.54452 270.163 6.70841 270.883C6.8723 271.604 7.18801 272.216 7.65554 272.719C8.10723 273.212 8.67466 273.557 9.35783 273.755C10.0381 273.939 10.7657 273.944 11.5407 273.769C12.3157 273.594 12.9701 273.278 13.504 272.819C14.035 272.348 14.404 271.791 14.6111 271.149C14.8023 270.497 14.816 269.811 14.6521 269.09Z" fill="var(--fill-0, white)"/>
<path d="M10.5133 245.548L14.2339 245.045L14.4128 246.359L11.9127 246.697L13.1706 255.932L15.6707 255.594L15.8496 256.908L12.129 257.411L12.0489 256.823C11.9152 256.135 11.3392 255.734 10.3211 255.618C9.30302 255.503 7.90189 255.519 6.11772 255.667L2.63436 255.998L1.59818 248.39L10.7323 247.156L10.5133 245.548ZM6.02287 254.382C7.50163 254.249 8.73249 254.209 9.71545 254.262C10.6853 254.318 11.3794 254.557 11.7979 254.98L10.9219 248.548L3.02798 249.615L3.70364 254.576L6.02287 254.382Z" fill="var(--fill-0, white)"/>
<path d="M0.340097 234.218L10.7615 233.456L10.8648 234.857L1.69158 235.528L2.05817 240.501L4.64399 240.451C6.81792 240.398 8.50061 240.526 9.69204 240.836C10.8835 241.146 11.5165 241.807 11.5912 242.82C11.6116 243.096 11.5835 243.436 11.5069 243.838L10.2911 243.828C10.3264 243.587 10.3407 243.421 10.3339 243.329C10.2942 242.789 10.0131 242.4 9.49086 242.16C8.96858 241.92 8.33421 241.782 7.58775 241.744C6.84129 241.706 5.85805 241.698 4.63803 241.721L0.900172 241.816L0.340097 234.218Z" fill="var(--fill-0, white)"/>
<path d="M0 221.76L10.4482 221.599L10.4682 222.885L7.01191 222.938L7.06865 226.599L10.5623 228.959L10.5859 230.483L6.89087 227.947C6.67822 228.755 6.30381 229.381 5.76762 229.825C5.23143 230.268 4.5462 230.497 3.71193 230.509C2.5466 230.527 1.65323 230.145 1.03181 229.363C0.410393 228.581 0.089051 227.504 0.0677851 226.132L0 221.76ZM3.72957 229.084C5.27893 229.06 6.03837 228.066 6.00791 226.1L5.95914 222.955L1.27134 223.027L1.31857 226.074C1.35006 228.105 2.15373 229.108 3.72957 229.084Z" fill="var(--fill-0, white)"/>
<path d="M5.8095 203.576C6.24348 202.192 7.1473 201.551 8.52098 201.651C9.43235 201.718 10.1077 202.105 10.5469 202.811C10.9862 203.518 11.1568 204.536 11.0589 205.865L10.7112 210.581L0.289762 209.819L0.627262 205.241C0.714546 204.056 1.01407 203.146 1.52582 202.509C2.03758 201.872 2.72273 201.584 3.58127 201.647C4.14923 201.689 4.6263 201.882 5.01249 202.228C5.38643 202.56 5.6521 203.009 5.8095 203.576ZM5.02628 208.796L5.25613 205.678C5.31529 204.876 5.20849 204.253 4.93573 203.81C4.66394 203.353 4.23747 203.104 3.6563 203.061C3.07513 203.019 2.62325 203.204 2.30066 203.617C1.97904 204.017 1.78865 204.618 1.72949 205.42L1.49964 208.538L5.02628 208.796ZM9.94499 205.843C10.0109 204.948 9.91511 204.266 9.6575 203.798C9.39989 203.329 8.96069 203.072 8.33989 203.027C7.7191 202.981 7.24838 203.152 6.92773 203.539C6.59387 203.924 6.39445 204.558 6.32947 205.439L6.07635 208.873L9.70205 209.138L9.94499 205.843Z" fill="var(--fill-0, white)"/>
<path d="M1.79896 192.921C1.97715 191.573 2.45521 190.585 3.23314 189.955C3.99795 189.324 5.04344 189.095 6.36961 189.269L12.7904 190.112L12.614 191.446L10.9989 191.234C11.4957 191.618 11.8545 192.138 12.0752 192.792C12.2976 193.433 12.3535 194.173 12.2427 195.01C12.0905 196.161 11.6937 197.04 11.0522 197.648C10.4108 198.255 9.63707 198.5 8.73106 198.381C7.85132 198.265 7.1838 197.858 6.72849 197.16C6.27491 196.448 6.13981 195.4 6.32318 194.013L6.75655 190.737L6.12628 190.654C5.23341 190.537 4.52432 190.697 3.99902 191.134C3.46058 191.569 3.12822 192.263 3.00193 193.218C2.91543 193.872 2.944 194.514 3.08764 195.145C3.21815 195.775 3.44525 196.33 3.76894 196.812L2.64203 197.302C2.26479 196.721 2.00644 196.048 1.86697 195.285C1.71437 194.519 1.6917 193.731 1.79896 192.921ZM11.1683 194.649C11.2721 193.864 11.184 193.168 10.9038 192.559C10.6106 191.948 10.1407 191.461 9.49425 191.096L7.80042 190.874L7.37225 194.111C7.1387 195.877 7.63906 196.84 8.87332 197.002C9.47732 197.082 9.98686 196.916 10.4019 196.504C10.8039 196.092 11.0593 195.473 11.1683 194.649Z" fill="var(--fill-0, white)"/>
<path d="M5.93629 170.295L16.1696 172.401L13.2513 186.47L3.01794 184.363L3.30335 182.988L12.3305 184.845L13.3676 179.846L4.34045 177.988L4.62585 176.612L13.653 178.47L14.678 173.529L5.65089 171.671L5.93629 170.295Z" fill="var(--fill-0, white)"/>
<path d="M15.337 157.592L12.9231 165.96C13.9888 166.183 14.9505 166.025 15.8082 165.489C16.6531 164.948 17.2346 164.126 17.5528 163.023C17.7321 162.402 17.7885 161.8 17.722 161.219C17.6429 160.633 17.4417 160.088 17.1187 159.584L18.2164 159.075C18.623 159.672 18.8694 160.346 18.9556 161.098C19.0455 161.838 18.9752 162.607 18.7448 163.406C18.4485 164.433 17.9688 165.283 17.3056 165.958C16.6333 166.617 15.8449 167.057 14.9404 167.279C14.036 167.5 13.0937 167.471 12.1135 167.19C11.1334 166.91 10.3155 166.449 9.6597 165.808C9.00759 165.155 8.57122 164.399 8.35057 163.54C8.13358 162.668 8.15858 161.769 8.42557 160.843C8.69257 159.918 9.14852 159.149 9.79344 158.538C10.4384 157.926 11.2094 157.522 12.1066 157.326C12.991 157.126 13.9296 157.169 14.9225 157.453L15.337 157.592ZM9.59027 161.177C9.3123 162.14 9.39008 163.041 9.82361 163.879C10.2481 164.7 10.9439 165.297 11.9112 165.67L13.9575 158.577C12.9391 158.381 12.0293 158.526 11.2281 159.01C10.4178 159.478 9.87189 160.2 9.59027 161.177Z" fill="var(--fill-0, white)"/>
<path d="M14.79 145.526L12.8374 151.156L21.531 154.147L21.0704 155.475L11.1938 152.076L13.6071 145.119L14.79 145.526Z" fill="var(--fill-0, white)"/>
<path d="M25.8841 142.725C25.5059 143.654 24.9563 144.407 24.2355 144.984C23.5024 145.556 22.6744 145.905 21.7515 146.031C20.8287 146.156 19.8947 146.028 18.9497 145.647C18.0046 145.265 17.2448 144.709 16.6703 143.979C16.0958 143.249 15.7516 142.426 15.6379 141.512C15.5242 140.598 15.6564 139.676 16.0346 138.747C16.4128 137.818 16.9623 137.065 17.6831 136.488C18.404 135.91 19.2234 135.565 20.1412 135.452C21.0641 135.326 21.998 135.454 22.9431 135.836C23.8882 136.218 24.648 136.774 25.2225 137.504C25.802 138.222 26.1547 139.04 26.2807 139.96C26.3945 140.874 26.2623 141.796 25.8841 142.725ZM24.7242 142.256C25.0029 141.572 25.0983 140.898 25.0104 140.237C24.9152 139.558 24.6414 138.949 24.189 138.41C23.7365 137.872 23.1421 137.454 22.4057 137.156C21.6693 136.859 20.9504 136.747 20.2492 136.819C19.5479 136.892 18.9319 137.141 18.4011 137.568C17.863 137.977 17.4547 138.523 17.176 139.208C16.8973 139.893 16.8056 140.574 16.9008 141.253C16.9887 141.915 17.2563 142.522 17.7038 143.072C18.1562 143.611 18.7507 144.029 19.4871 144.326C20.2235 144.624 20.9423 144.736 21.6436 144.663C22.3498 144.579 22.972 144.332 23.5101 143.923C24.0408 143.496 24.4455 142.941 24.7242 142.256Z" fill="var(--fill-0, white)"/>
<path d="M24.1542 121.745C24.5927 120.887 25.178 120.221 25.9099 119.748C26.636 119.258 27.4434 119.001 28.332 118.978C29.2089 118.949 30.0899 119.159 30.9751 119.608C31.8839 120.068 32.5903 120.678 33.0942 121.437C33.5924 122.178 33.8559 123 33.885 123.903C33.914 124.806 33.6943 125.715 33.2257 126.632C32.4387 128.173 31.286 129.091 29.7675 129.387C28.2491 129.682 26.5339 129.346 24.6218 128.376C22.6271 127.365 21.2908 126.214 20.613 124.923C19.9413 123.62 19.828 122.068 20.2734 120.266L21.444 115.619L22.703 115.991L21.6054 120.364C21.2216 121.842 21.2482 123.084 21.6852 124.09C22.1104 125.09 23.0397 125.99 24.4733 126.791C23.9455 126.05 23.6522 125.243 23.5933 124.369C23.5227 123.489 23.7096 122.615 24.1542 121.745ZM32.1991 126.068C32.5295 125.421 32.6764 124.77 32.6396 124.115C32.5971 123.442 32.3764 122.827 31.9777 122.27C31.5849 121.7 31.0463 121.242 30.3617 120.895C29.6771 120.548 29.0031 120.384 28.3396 120.403C27.676 120.422 27.0705 120.618 26.5229 120.992C25.9695 121.348 25.5246 121.855 25.1881 122.513C24.8517 123.172 24.6989 123.834 24.7296 124.501C24.7546 125.15 24.9516 125.753 25.3207 126.311C25.6959 126.856 26.2258 127.302 26.9103 127.649C27.5949 127.996 28.2808 128.166 28.9679 128.16C29.661 128.141 30.2932 127.951 30.8644 127.589C31.4238 127.221 31.8687 126.714 32.1991 126.068Z" fill="var(--fill-0, white)"/>
<path d="M31.1768 108.337C31.6784 107.499 32.3259 106.854 33.1195 106.404C33.9016 105.947 34.755 105.731 35.6795 105.758C36.604 105.784 37.51 106.061 38.3975 106.587C39.2964 107.121 39.9776 107.786 40.4412 108.583C40.9048 109.38 41.1267 110.234 41.1069 111.143C41.0824 112.035 40.816 112.905 40.3077 113.755C39.8739 114.481 39.3328 115.05 38.6845 115.464C38.0317 115.86 37.3032 116.072 36.4993 116.102L41.4999 119.069L40.7781 120.276L28.4898 112.985L29.1811 111.829L30.9561 112.882C30.5814 112.168 30.4109 111.422 30.4448 110.644C30.4854 109.854 30.7295 109.085 31.1768 108.337ZM39.1816 113.202C39.5544 112.579 39.7511 111.928 39.7717 111.249C39.7808 110.564 39.6028 109.921 39.2375 109.32C38.8789 108.708 38.3583 108.199 37.6756 107.794C36.9929 107.389 36.3018 107.179 35.6022 107.163C34.898 107.129 34.2454 107.279 33.6446 107.614C33.0437 107.948 32.5569 108.427 32.1841 109.05C31.8046 109.685 31.6102 110.345 31.601 111.031C31.5986 111.705 31.7766 112.348 32.1352 112.96C32.4891 113.554 33.0074 114.053 33.6901 114.458C34.3728 114.863 35.0662 115.083 35.7705 115.117C36.4815 115.14 37.134 114.989 37.7281 114.666C38.3175 114.325 38.802 113.837 39.1816 113.202Z" fill="var(--fill-0, white)"/>
<path d="M45.8121 96.381L40.8791 103.569C41.8205 104.114 42.783 104.266 43.7667 104.025C44.7394 103.776 45.5508 103.178 46.2011 102.231C46.5673 101.697 46.8107 101.144 46.9313 100.571C47.0409 99.9902 47.022 99.4101 46.8745 98.8302L48.0774 98.6905C48.275 99.3843 48.296 100.102 48.1404 100.843C47.9922 101.573 47.6827 102.281 47.2119 102.967C46.6065 103.849 45.8824 104.507 45.0398 104.94C44.1938 105.354 43.3065 105.525 42.3779 105.452C41.4494 105.379 40.5642 105.056 39.7223 104.483C38.8805 103.91 38.2494 103.216 37.8291 102.403C37.4163 101.578 37.2408 100.724 37.3025 99.8389C37.3718 98.9432 37.6792 98.0979 38.2248 97.3029C38.7704 96.5079 39.4459 95.9212 40.2511 95.5427C41.0563 95.1642 41.9158 95.0223 42.8293 95.117C43.732 95.2043 44.6097 95.5383 45.4625 96.119L45.8121 96.381ZM39.2252 97.9841C38.6572 98.8118 38.4467 99.6911 38.5938 100.622C38.7374 101.535 39.2095 102.32 40.0099 102.977L44.1918 96.8836C43.2866 96.3792 42.3773 96.2314 41.4639 96.4404C40.547 96.631 39.8007 97.1456 39.2252 97.9841Z" fill="var(--fill-0, white)"/>
<path d="M43.5416 89.8564L44.4083 88.748L48.06 91.5811L52.1007 86.4139L48.4489 83.5808L49.3156 82.4724L57.5595 88.8681L56.6928 89.9765L53.0567 87.1556L49.0161 92.3228L52.6522 95.1437L51.7855 96.2521L43.5416 89.8564Z" fill="var(--fill-0, white)"/>
<path d="M66.3747 76.8585L69.1795 79.3448L68.2946 80.3352L66.4099 78.6645L60.1893 85.6265L62.074 87.2972L61.1891 88.2876L58.3843 85.8013L58.7805 85.3578C59.2175 84.8092 59.1487 84.1124 58.574 83.2674C57.9993 82.4225 57.0749 81.3735 55.801 80.1205L53.2816 77.7018L58.406 71.9665L65.2917 78.0706L66.3747 76.8585ZM56.7188 79.2124C57.7828 80.2439 58.6143 81.1487 59.2132 81.9269C59.8023 82.6963 60.0719 83.3768 60.022 83.9684L64.354 79.1201L58.4032 73.8448L55.0618 77.5845L56.7188 79.2124Z" fill="var(--fill-0, white)"/>
<path d="M64.5127 65.4978C65.4772 64.537 66.4605 64.0426 67.4626 64.0146C68.4553 63.9773 69.4245 64.4297 70.3704 65.3718L74.9498 69.9332L73.9946 70.8847L72.8427 69.7373C73.0019 70.3437 72.9691 70.9733 72.7444 71.6262C72.529 72.2699 72.1216 72.8902 71.5223 73.4872C70.6982 74.308 69.846 74.7651 68.9657 74.8584C68.0854 74.9517 67.3221 74.6765 66.6759 74.0329C66.0485 73.4079 65.7676 72.6803 65.8331 71.8501C65.908 71.0106 66.4418 70.0965 67.4345 69.1077L69.7804 66.771L69.3309 66.3233C68.6941 65.689 68.0339 65.3858 67.3502 65.4138C66.6572 65.4325 65.9689 65.7823 65.2853 66.4632C64.817 66.9296 64.4471 67.4566 64.1755 68.0443C63.8946 68.6226 63.7354 69.201 63.6979 69.7793L62.5039 69.4855C62.5601 68.7952 62.7661 68.1049 63.122 67.4147C63.4685 66.7151 63.932 66.0761 64.5127 65.4978ZM70.8901 72.5497C71.452 71.99 71.8079 71.3837 71.9577 70.7308C72.0982 70.0685 72.0233 69.3969 71.733 68.7159L70.5249 67.5126L68.2071 69.8213C66.9428 71.0806 66.7509 72.1486 67.6312 73.0255C68.0619 73.4545 68.5676 73.6318 69.1483 73.5571C69.7195 73.4732 70.3002 73.1374 70.8901 72.5497Z" fill="var(--fill-0, white)"/>
<path d="M101.629 43.3597C101.289 43.588 100.916 43.6628 100.512 43.584C100.107 43.5053 99.7831 43.2853 99.5391 42.9242C99.3025 42.5739 99.2274 42.2029 99.3139 41.811C99.3929 41.4082 99.6028 41.0927 99.9434 40.8644C100.284 40.6361 100.657 40.5613 101.061 40.64C101.458 40.7078 101.775 40.9169 102.011 41.2671C102.248 41.6173 102.33 41.9993 102.259 42.413C102.18 42.8158 101.97 43.1314 101.629 43.3597Z" fill="var(--fill-0, white)"/>
<path d="M139.959 27.1253C139.007 27.5262 138.066 27.6793 137.134 27.5849C136.215 27.4852 135.384 27.1548 134.642 26.5935C133.896 26.0201 133.324 25.2656 132.926 24.3301C132.529 23.3946 132.387 22.4663 132.499 21.5453C132.611 20.6243 132.951 19.8006 133.52 19.074C134.101 18.3423 134.867 17.776 135.819 17.3752C136.648 17.0258 137.456 16.8789 138.241 16.9346C139.034 16.973 139.751 17.2223 140.392 17.6827L139.701 18.7473C139.183 18.407 138.631 18.2243 138.045 18.199C137.454 18.1616 136.872 18.2636 136.298 18.5051C135.603 18.7981 135.042 19.2206 134.615 19.7729C134.195 20.3079 133.948 20.9277 133.873 21.6324C133.811 22.3319 133.934 23.0461 134.244 23.7751C134.558 24.5162 134.99 25.1081 135.537 25.5506C136.091 25.9759 136.71 26.2309 137.393 26.3155C138.083 26.3829 138.776 26.2701 139.471 25.9772C140.045 25.7357 140.526 25.3967 140.916 24.9603C141.306 24.5239 141.559 24.002 141.675 23.3945L142.923 23.6421C142.808 24.421 142.491 25.1132 141.971 25.7188C141.447 26.3122 140.776 26.781 139.959 27.1253Z" fill="var(--fill-0, white)"/>
<path d="M142.94 14.5196L144.27 14.0509L147.041 21.8481L150.843 11.7334L152.023 11.3175L155.51 21.1293L154.18 21.5981L151.409 13.8009L147.625 23.9089L146.427 24.3315L142.94 14.5196Z" fill="var(--fill-0, white)"/>
<path d="M165.31 7.3615L168.157 17.3758L166.8 17.7587L164.294 8.9438L159.477 10.3027L160.047 12.8155C160.537 14.9258 160.75 16.5934 160.685 17.8182C160.62 19.0429 160.097 19.7937 159.116 20.0706C158.849 20.1461 158.509 20.187 158.098 20.1933L157.863 19.0049C158.107 18.991 158.274 18.9715 158.363 18.9463C158.885 18.7989 159.212 18.4463 159.342 17.8885C159.473 17.3307 159.481 16.6838 159.369 15.9479C159.256 15.2119 159.065 14.2511 158.797 13.0654L157.951 9.43762L165.31 7.3615Z" fill="var(--fill-0, white)"/>
<path d="M174.763 8.88027C176.046 8.60941 177.079 8.67774 177.862 9.08527C178.658 9.48993 179.173 10.2138 179.406 11.2568C179.647 12.3384 179.471 13.2492 178.876 13.9892C178.295 14.7262 177.324 15.2388 175.964 15.5269L171.848 16.419L169.578 6.25928L170.955 5.95405L171.749 9.508L174.763 8.88027ZM175.653 14.5011C176.6 14.3047 177.269 13.9604 177.661 13.468C178.063 12.9599 178.179 12.326 178.009 11.5663C177.843 10.8195 177.48 10.3188 176.921 10.0643C176.362 9.80978 175.603 9.78214 174.643 9.98135L171.978 10.5317L172.988 15.0514L175.653 14.5011Z" fill="var(--fill-0, white)"/>
<path d="M181.928 3.60415L183.321 3.38329L184.048 7.93649L190.542 6.90689L189.815 2.35369L191.208 2.13284L192.85 12.4117L191.457 12.6326L190.733 8.09893L184.239 9.12853L184.963 13.6622L183.571 13.883L181.928 3.60415Z" fill="var(--fill-0, white)"/>
<path d="M201.095 11.5563C200.093 11.6528 199.168 11.5166 198.321 11.1476C197.472 10.7655 196.778 10.1961 196.239 9.43962C195.7 8.6831 195.381 7.79931 195.283 6.78826C195.185 5.77721 195.328 4.84899 195.711 4.00359C196.095 3.15818 196.667 2.47354 197.428 1.94965C198.189 1.42576 199.07 1.11557 200.072 1.01907C201.074 0.922575 201.998 1.05882 202.846 1.42781C203.693 1.79679 204.38 2.36018 204.906 3.11797C205.445 3.87449 205.764 4.75828 205.862 5.76933C205.96 6.78038 205.817 7.7086 205.434 8.554C205.063 9.39813 204.498 10.0887 203.739 10.6257C202.978 11.1496 202.097 11.4598 201.095 11.5563ZM200.974 10.3155C201.713 10.2444 202.356 10.0168 202.904 9.63263C203.464 9.2341 203.879 8.71039 204.148 8.06152C204.418 7.41264 204.515 6.69429 204.438 5.90646C204.362 5.11862 204.129 4.43201 203.739 3.84662C203.35 3.26123 202.843 2.83297 202.217 2.56184C201.604 2.27632 200.929 2.16911 200.19 2.24021C199.452 2.31131 198.803 2.54613 198.243 2.94466C197.695 3.32879 197.279 3.84593 196.996 4.49607C196.727 5.14495 196.63 5.8633 196.707 6.65113C196.783 7.43896 197.016 8.12558 197.406 8.71097C197.808 9.29509 198.316 9.72991 198.929 10.0154C199.554 10.2866 200.236 10.3866 200.974 10.3155Z" fill="var(--fill-0, white)"/>
<path d="M219.402 5.59622L210.666 5.89859C210.784 6.97691 211.231 7.8392 212.009 8.48546C212.787 9.11854 213.751 9.41515 214.903 9.37529C215.551 9.35284 216.143 9.22016 216.678 8.97726C217.212 8.72117 217.67 8.36212 218.051 7.90013L218.877 8.78232C218.433 9.35208 217.866 9.79412 217.174 10.1084C216.496 10.4223 215.74 10.5937 214.906 10.6225C213.834 10.6596 212.873 10.4685 212.024 10.0491C211.187 9.61609 210.523 9.00548 210.032 8.21731C209.54 7.42913 209.277 6.52746 209.242 5.51231C209.206 4.49716 209.393 3.57992 209.802 2.76059C210.224 1.9408 210.811 1.29349 211.563 0.818674C212.328 0.343395 213.194 0.089034 214.16 0.0555908C215.126 0.0221476 216.001 0.216265 216.784 0.637943C217.568 1.05962 218.192 1.66501 218.657 2.4541C219.121 3.23001 219.371 4.13213 219.407 5.16047L219.402 5.59622ZM214.202 1.26191C213.196 1.29673 212.36 1.64905 211.695 2.31888C211.042 2.97507 210.687 3.81893 210.63 4.85047L218.035 4.59415C217.907 3.56902 217.487 2.75196 216.777 2.14296C216.08 1.52032 215.221 1.22663 214.202 1.26191Z" fill="var(--fill-0, white)"/>
<path d="M235.11 5.35213C236.509 5.75229 237.174 6.63748 237.105 8.0077C237.059 8.91678 236.687 9.5982 235.987 10.0519C235.288 10.5057 234.271 10.6992 232.935 10.6323L228.193 10.3952L228.717 0L233.32 0.230196C234.51 0.28973 235.431 0.56693 236.083 1.0618C236.734 1.55666 237.038 2.23229 236.995 3.08867C236.966 3.65521 236.783 4.13475 236.445 4.5273C236.121 4.90734 235.676 5.18229 235.11 5.35213ZM229.853 4.69295L232.987 4.84972C233.794 4.89007 234.417 4.76931 234.856 4.48745C235.307 4.20625 235.548 3.7758 235.577 3.19609C235.606 2.61638 235.41 2.17069 234.988 1.85901C234.579 1.54799 233.972 1.3723 233.165 1.33195L230.03 1.17518L229.853 4.69295ZM232.931 9.52266C233.83 9.56764 234.512 9.45645 234.977 9.18908C235.441 8.92172 235.689 8.47842 235.72 7.85919C235.751 7.23996 235.569 6.77516 235.174 6.4648C234.779 6.14126 234.138 5.95734 233.252 5.91302L229.8 5.74037L229.618 9.35695L232.931 9.52266Z" fill="var(--fill-0, white)"/>
<path d="M241.854 0.722303L243.255 0.879027L242.329 9.09863L250.185 1.65381L251.429 1.79288L250.263 12.1362L248.861 11.9795L249.788 3.75988L241.952 11.2069L240.688 11.0656L241.854 0.722303Z" fill="var(--fill-0, white)"/>
<path d="M264.704 13.2511L264.043 16.9325L262.733 16.6991L263.177 14.2253L253.967 12.5843L253.522 15.0581L252.212 14.8246L252.873 11.1432L253.46 11.2477C254.158 11.3319 254.718 10.909 255.141 9.97925C255.563 9.04945 255.978 7.71616 256.384 5.97935L257.136 2.57553L264.724 3.92738L263.101 12.9654L264.704 13.2511ZM257.641 6.28374C257.315 7.72651 256.975 8.90562 256.622 9.82106C256.272 10.7235 255.831 11.3082 255.298 11.5752L261.712 12.718L263.115 4.90715L258.168 4.02566L257.641 6.28374Z" fill="var(--fill-0, white)"/>
<path d="M278.883 12.9172L270.397 10.832C270.214 11.9012 270.408 12.8524 270.979 13.6857C271.553 14.5062 272.4 15.0539 273.519 15.3287C274.149 15.4835 274.754 15.5168 275.335 15.4286C275.92 15.3276 276.459 15.1068 276.952 14.7661L277.505 15.8394C276.922 16.2668 276.254 16.5376 275.503 16.6519C274.765 16.7694 273.99 16.7286 273.18 16.5296C272.139 16.2737 271.267 15.8285 270.565 15.194C269.879 14.5498 269.407 13.7818 269.151 12.8899C268.894 11.9981 268.888 11.059 269.132 10.0728C269.376 9.08664 269.807 8.25503 270.425 7.57801C271.056 6.90415 271.798 6.44111 272.652 6.18889C273.518 5.93983 274.421 5.93062 275.359 6.16126C276.298 6.3919 277.086 6.81657 277.724 7.43528C278.362 8.054 278.797 8.80612 279.027 9.69166C279.262 10.5644 279.255 11.5003 279.007 12.4993L278.883 12.9172ZM275.069 7.33318C274.092 7.09306 273.191 7.20465 272.367 7.66794C271.559 8.12159 270.986 8.83686 270.649 9.81375L277.843 11.5814C278.001 10.5603 277.821 9.66023 277.305 8.88116C276.804 8.09245 276.059 7.57645 275.069 7.33318Z" fill="var(--fill-0, white)"/>
<path d="M285.358 19.8888C284.397 19.5901 283.598 19.1068 282.961 18.4389C282.328 17.7585 281.911 16.9654 281.709 16.0597C281.507 15.154 281.558 14.2163 281.862 13.2467C282.166 12.277 282.659 11.4769 283.342 10.8463C284.025 10.2156 284.82 9.80611 285.725 9.61767C286.63 9.42924 287.563 9.48435 288.524 9.78302C289.485 10.0817 290.284 10.565 290.921 11.2328C291.558 11.9007 291.971 12.6855 292.16 13.5873C292.362 14.493 292.311 15.4307 292.007 16.4003C291.704 17.37 291.21 18.1701 290.527 18.8007C289.856 19.4353 289.067 19.8531 288.157 20.0541C287.252 20.2425 286.319 20.1874 285.358 19.8888ZM285.731 18.6987C286.439 18.9188 287.12 18.9579 287.775 18.816C288.447 18.6654 289.033 18.3433 289.535 17.8497C290.036 17.3561 290.405 16.7315 290.642 15.9759C290.879 15.2203 290.932 14.4975 290.801 13.8074C290.671 13.1173 290.37 12.5264 289.9 12.0347C289.446 11.5344 288.865 11.1742 288.157 10.9541C287.449 10.7341 286.76 10.6993 286.088 10.8499C285.433 10.9918 284.849 11.3076 284.334 11.7973C283.833 12.2909 283.464 12.9155 283.227 13.6711C282.99 14.4266 282.937 15.1495 283.068 15.8396C283.211 16.5336 283.51 17.1308 283.963 17.6311C284.434 18.1228 285.023 18.4787 285.731 18.6987Z" fill="var(--fill-0, white)"/>
<path d="M307.597 26.6405L306.173 30.1011L304.941 29.5984L305.898 27.273L297.24 23.7389L296.283 26.0642L295.052 25.5615L296.476 22.1009L297.027 22.326C297.692 22.5545 298.329 22.2586 298.938 21.4381C299.548 20.6177 300.234 19.401 300.998 17.7882L302.453 14.6182L309.585 17.5295L306.09 26.0253L307.597 26.6405ZM302.163 18.3491C301.539 19.6912 300.958 20.7728 300.42 21.5939C299.887 22.4027 299.332 22.8819 298.755 23.0314L304.784 25.4925L307.805 18.1503L303.154 16.2519L302.163 18.3491Z" fill="var(--fill-0, white)"/>
<path d="M322.888 23.6764L318.322 33.0383L317.053 32.4243L321.073 24.1838L316.57 22.0046L315.316 24.2578C314.271 26.1576 313.316 27.5432 312.449 28.4144C311.582 29.2856 310.691 29.4992 309.773 29.0553C309.523 28.9343 309.242 28.7398 308.931 28.4719L309.55 27.4295C309.742 27.5807 309.879 27.6765 309.962 27.7169C310.451 27.9532 310.93 27.9065 311.4 27.5767C311.87 27.2468 312.309 26.7699 312.716 26.1458C313.124 25.5217 313.624 24.6782 314.216 23.6154L316.009 20.3472L322.888 23.6764Z" fill="var(--fill-0, white)"/>
<path d="M333.832 29.5854L328.717 38.6617L327.591 38.0321L329.283 35.0297L326.079 33.2379L322.273 35.0587L320.939 34.3129L324.998 32.4067C324.403 31.8173 324.049 31.1802 323.933 30.4955C323.818 29.8108 323.964 29.1061 324.373 28.3814C324.943 27.369 325.724 26.792 326.715 26.6503C327.706 26.5085 328.803 26.7734 330.004 27.4449L333.832 29.5854ZM325.601 29.1132C324.842 30.4591 325.323 31.6131 327.044 32.5752L329.799 34.1152L332.094 30.0429L329.426 28.5514C327.647 27.557 326.372 27.7443 325.601 29.1132Z" fill="var(--fill-0, white)"/>
<path d="M345.693 43.0025C346.68 44.0677 346.786 45.1681 346.013 46.3035C345.5 47.0568 344.827 47.4466 343.993 47.4729C343.159 47.4992 342.188 47.1384 341.081 46.3905L337.152 43.7359L343.017 35.122L346.832 37.6989C347.818 38.3653 348.461 39.0784 348.76 39.8382C349.058 40.5979 348.966 41.3326 348.483 42.0423C348.163 42.5117 347.757 42.8268 347.263 42.9875C346.788 43.1448 346.265 43.1497 345.693 43.0025ZM341.542 39.7204L344.14 41.4754C344.809 41.9271 345.404 42.1459 345.926 42.1317C346.458 42.125 346.888 41.8814 347.215 41.401C347.542 40.9207 347.607 40.4382 347.409 39.9537C347.221 39.4765 346.794 39.0121 346.125 38.5604L343.527 36.8055L341.542 39.7204ZM341.656 45.4401C342.402 45.9437 343.042 46.2012 343.579 46.2128C344.115 46.2244 344.558 45.9736 344.907 45.4605C345.256 44.9474 345.343 44.4559 345.167 43.9862C344.998 43.5056 344.546 43.0172 343.812 42.521L340.951 40.5884L338.911 43.5852L341.656 45.4401Z" fill="var(--fill-0, white)"/>
<path d="M357.299 45.0687C358.381 45.8958 359.002 46.8023 359.161 47.7882C359.327 48.7636 359.004 49.7799 358.189 50.8369L354.247 55.9549L353.175 55.1359L354.167 53.8485C353.584 54.0849 352.953 54.1348 352.274 53.9981C351.605 53.8694 350.935 53.5481 350.262 53.0342C349.337 52.3276 348.771 51.5457 348.563 50.6885C348.356 49.8314 348.53 49.0417 349.086 48.3196C349.626 47.6183 350.314 47.2459 351.149 47.2022C351.994 47.1666 352.974 47.5743 354.087 48.4255L356.72 50.437L357.107 49.9347C357.655 49.2229 357.87 48.5314 357.753 47.8599C357.644 47.178 357.206 46.5439 356.439 45.9577C355.914 45.5562 355.341 45.2598 354.72 45.0683C354.108 44.8664 353.512 44.7847 352.931 44.8232L353.068 43.6057C353.762 43.5711 354.476 43.6844 355.209 43.9457C355.951 44.1965 356.648 44.5708 357.299 45.0687ZM351.113 52.2875C351.743 52.7693 352.393 53.0416 353.063 53.1043C353.74 53.1565 354.399 52.9948 355.039 52.6192L356.079 51.2691L353.478 49.2817C352.06 48.1976 350.971 48.1475 350.214 49.1313C349.843 49.6128 349.732 50.1353 349.882 50.6989C350.041 51.2521 350.451 51.7816 351.113 52.2875Z" fill="var(--fill-0, white)"/>
<path d="M375.142 60.1212L368.195 67.8963L357.421 58.3456L364.368 50.5705L365.422 51.5046L359.294 58.3631L363.123 61.7572L369.251 54.8986L370.304 55.8326L364.176 62.6912L367.96 66.0458L374.089 59.1872L375.142 60.1212Z" fill="var(--fill-0, white)"/>
<path d="M380.965 73.983L374.874 67.7377C374.151 68.5482 373.81 69.4575 373.851 70.4656C373.902 71.4646 374.329 72.3757 375.132 73.1989C375.584 73.6626 376.08 74.0102 376.62 74.242C377.169 74.4645 377.744 74.5614 378.344 74.5328L378.242 75.7348C377.52 75.7896 376.81 75.6674 376.112 75.3681C375.423 75.0782 374.788 74.6352 374.206 74.0391C373.459 73.2726 372.956 72.4351 372.698 71.5264C372.458 70.618 372.467 69.7179 372.723 68.8261C372.98 67.9342 373.474 67.1344 374.205 66.4266C374.937 65.7189 375.744 65.2408 376.628 64.9924C377.522 64.7535 378.397 64.7521 379.256 64.9885C380.123 65.2342 380.893 65.7025 381.567 66.3933C382.241 67.0841 382.684 67.8601 382.896 68.7214C383.108 69.5828 383.077 70.4499 382.802 71.3229C382.536 72.1866 382.033 72.977 381.292 73.6939L380.965 73.983ZM380.698 67.2343C379.997 66.5152 379.173 66.1347 378.228 66.0931C377.301 66.0517 376.435 66.3563 375.63 67.007L380.793 72.3013C381.469 71.5181 381.795 70.6599 381.771 69.7267C381.766 68.7937 381.408 67.9629 380.698 67.2343Z" fill="var(--fill-0, white)"/>
<path d="M392.371 80.1732L388.445 75.6811L381.507 81.6969L380.581 80.6373L388.462 73.8029L393.315 79.3547L392.371 80.1732Z" fill="var(--fill-0, white)"/>
<path d="M389.091 90.8935C388.47 90.1048 388.087 89.2555 387.942 88.3455C387.808 87.4275 387.916 86.5384 388.265 85.6784C388.615 84.8184 389.19 84.0749 389.993 83.4478C390.795 82.8207 391.657 82.4404 392.579 82.3068C393.5 82.1732 394.388 82.2845 395.241 82.6407C396.094 82.9968 396.831 83.5692 397.452 84.358C398.074 85.1467 398.456 85.996 398.601 86.9059C398.746 87.8159 398.639 88.6957 398.281 89.5453C397.932 90.4053 397.356 91.1488 396.554 91.7759C395.752 92.403 394.89 92.7833 393.968 92.9169C393.054 93.0608 392.166 92.9588 391.303 92.6108C390.45 92.2547 389.712 91.6822 389.091 90.8935ZM390.076 90.1239C390.534 90.7051 391.073 91.1221 391.693 91.3752C392.332 91.6304 392.998 91.6964 393.692 91.5731C394.386 91.4497 395.046 91.1438 395.671 90.6551C396.296 90.1665 396.751 89.6011 397.037 88.9588C397.322 88.3166 397.411 87.6602 397.303 86.9896C397.214 86.3213 396.941 85.6965 396.483 85.1153C396.025 84.5342 395.477 84.116 394.838 83.8607C394.218 83.6077 393.557 83.5377 392.854 83.6506C392.16 83.7739 391.501 84.0799 390.876 84.5686C390.25 85.0572 389.795 85.6226 389.51 86.2648C389.233 86.9174 389.139 87.5779 389.228 88.2463C389.335 88.9169 389.618 89.5428 390.076 90.1239Z" fill="var(--fill-0, white)"/>
<path d="M408.782 100.62C409.309 101.426 409.597 102.264 409.643 103.131C409.707 104.003 409.528 104.828 409.104 105.606C408.692 106.378 408.07 107.034 407.238 107.574C406.384 108.129 405.501 108.434 404.589 108.491C403.696 108.551 402.849 108.369 402.049 107.943C401.249 107.518 400.567 106.874 400.003 106.012C399.056 104.564 398.832 103.111 399.332 101.653C399.832 100.195 400.981 98.8818 402.778 97.7148C404.653 96.4974 406.321 95.9182 407.783 95.9771C409.251 96.0471 410.659 96.7239 412.004 98.0074L415.463 101.336L414.512 102.237L411.255 99.1083C410.16 98.0396 409.066 97.4429 407.973 97.3183C406.89 97.1864 405.643 97.5394 404.231 98.3774C405.14 98.2916 405.988 98.4412 406.778 98.8262C407.578 99.204 408.246 99.8018 408.782 100.62ZM401.007 105.408C401.404 106.016 401.897 106.467 402.486 106.762C403.093 107.061 403.738 107.178 404.422 107.111C405.113 107.056 405.78 106.82 406.424 106.402C407.067 105.984 407.546 105.484 407.861 104.902C408.176 104.32 408.307 103.699 408.255 103.04C408.221 102.385 408.002 101.748 407.597 101.129C407.192 100.51 406.692 100.047 406.096 99.7413C405.519 99.439 404.896 99.3081 404.227 99.3488C403.565 99.4005 402.912 99.6353 402.269 100.053C401.625 100.471 401.135 100.978 400.798 101.575C400.469 102.182 400.319 102.823 400.349 103.497C400.39 104.163 400.609 104.8 401.007 105.408Z" fill="var(--fill-0, white)"/>
<path d="M416.947 113.381C417.427 114.232 417.665 115.113 417.661 116.022C417.669 116.926 417.431 117.77 416.947 118.555C416.463 119.34 415.77 119.984 414.869 120.488C413.957 120.998 413.038 121.254 412.113 121.257C411.188 121.26 410.335 121.026 409.554 120.555C408.79 120.089 408.165 119.425 407.679 118.563C407.264 117.826 407.038 117.075 407.001 116.309C406.983 115.548 407.161 114.813 407.536 114.104L402.46 116.942L401.77 115.717L414.243 108.743L414.904 109.917L413.102 110.924C413.91 110.956 414.644 111.181 415.305 111.599C415.972 112.028 416.519 112.622 416.947 113.381ZM408.722 117.866C409.078 118.499 409.547 118.993 410.127 119.349C410.719 119.699 411.368 119.866 412.072 119.85C412.784 119.846 413.486 119.65 414.179 119.263C414.872 118.875 415.4 118.383 415.762 117.787C416.143 117.196 416.338 116.558 416.346 115.872C416.355 115.187 416.181 114.528 415.824 113.895C415.461 113.251 414.984 112.754 414.392 112.404C413.806 112.066 413.158 111.899 412.447 111.903C411.753 111.913 411.06 112.111 410.367 112.499C409.674 112.886 409.137 113.375 408.757 113.966C408.382 114.569 408.188 115.207 408.173 115.881C408.176 116.56 408.359 117.222 408.722 117.866Z" fill="var(--fill-0, white)"/>
<path d="M420.098 132.098L416.307 124.253C415.363 124.793 414.751 125.548 414.469 126.518C414.2 127.481 414.315 128.48 414.815 129.514C415.096 130.097 415.456 130.583 415.895 130.973C416.345 131.357 416.859 131.631 417.437 131.793L416.958 132.901C416.256 132.725 415.621 132.385 415.054 131.881C414.493 131.389 414.032 130.768 413.67 130.019C413.205 129.056 412.994 128.103 413.038 127.16C413.1 126.223 413.394 125.372 413.921 124.607C414.448 123.842 415.171 123.239 416.089 122.798C417.008 122.358 417.927 122.159 418.844 122.203C419.767 122.258 420.598 122.533 421.337 123.028C422.082 123.534 422.664 124.222 423.083 125.089C423.502 125.957 423.676 126.833 423.603 127.717C423.53 128.601 423.225 129.414 422.686 130.155C422.16 130.89 421.431 131.481 420.5 131.927L420.098 132.098ZM421.991 125.613C421.555 124.71 420.895 124.089 420.011 123.751C419.145 123.42 418.227 123.435 417.256 123.798L420.47 130.449C421.36 129.919 421.943 129.208 422.217 128.316C422.509 127.429 422.433 126.528 421.991 125.613Z" fill="var(--fill-0, white)"/>
<path d="M426.998 133.641L427.528 134.943L423.239 136.675L425.709 142.745L429.999 141.012L430.529 142.314L420.845 146.225L420.315 144.923L424.586 143.198L422.116 137.129L417.844 138.853L417.314 137.551L426.998 133.641Z" fill="var(--fill-0, white)"/>
<path d="M426.626 159.133L423.064 160.314L422.643 159.056L425.037 158.263L422.082 149.42L419.688 150.213L419.267 148.956L422.83 147.774L423.018 148.337C423.278 148.988 423.918 149.276 424.94 149.202C425.962 149.127 427.336 148.852 429.062 148.377L432.423 147.409L434.857 154.693L426.112 157.593L426.626 159.133ZM429.394 149.623C427.966 150.027 426.764 150.293 425.788 150.422C424.824 150.547 424.098 150.44 423.608 150.102L425.666 156.26L433.224 153.754L431.637 149.004L429.394 149.623Z" fill="var(--fill-0, white)"/>
<path d="M437.591 163.782C437.942 165.095 437.88 166.19 437.402 167.068C436.937 167.943 436.059 168.552 434.766 168.895L428.509 170.559L428.161 169.259L429.735 168.84C429.128 168.674 428.597 168.33 428.143 167.81C427.691 167.302 427.356 166.64 427.137 165.824C426.837 164.702 426.867 163.739 427.226 162.933C427.586 162.127 428.208 161.607 429.09 161.373C429.948 161.145 430.721 161.267 431.409 161.739C432.101 162.224 432.628 163.142 432.99 164.493L433.846 167.686L434.46 167.523C435.33 167.291 435.924 166.874 436.242 166.27C436.573 165.664 436.614 164.895 436.365 163.965C436.194 163.327 435.921 162.745 435.547 162.216C435.185 161.684 434.762 161.257 434.278 160.935L435.132 160.053C435.703 160.447 436.2 160.971 436.621 161.623C437.056 162.272 437.379 162.992 437.591 163.782ZM428.269 165.749C428.474 166.513 428.822 167.124 429.315 167.58C429.82 168.033 430.441 168.305 431.178 168.395L432.829 167.956L431.983 164.802C431.522 163.081 430.69 162.381 429.487 162.701C428.899 162.857 428.492 163.204 428.266 163.742C428.052 164.277 428.053 164.946 428.269 165.749Z" fill="var(--fill-0, white)"/>
<path d="M438.08 206.105C438.051 205.697 438.172 205.338 438.443 205.028C438.713 204.719 439.066 204.549 439.502 204.518C439.925 204.489 440.285 204.61 440.583 204.88C440.894 205.149 441.064 205.488 441.092 205.896C441.12 206.304 441 206.663 440.729 206.972C440.472 207.281 440.132 207.45 439.709 207.479C439.286 207.509 438.913 207.389 438.589 207.121C438.278 206.851 438.108 206.513 438.08 206.105Z" fill="var(--fill-0, white)"/>
</g>
</svg>
