<svg preserveAspectRatio="none" width="100%" height="100%" overflow="visible" style="display: block;" viewBox="0 0 40 40" fill="none" xmlns="http://www.w3.org/2000/svg">
<path id="Subtract" d="M20 0C31.0457 0 40 8.9543 40 20C40 31.0457 31.0457 40 20 40C8.95433 40 3.59035e-05 31.0457 0 20C0 8.9543 8.9543 1.03088e-06 20 0ZM20 2.03418C10.077 2.03418 2.03418 10.077 2.03418 20C2.03421 29.923 10.077 37.9658 20 37.9658C29.923 37.9658 37.9658 29.923 37.9658 20C37.9658 10.077 29.923 2.03418 20 2.03418ZM16.208 12.5342C16.4247 12.5362 16.6369 12.5955 16.8232 12.7061L27.3057 18.9453C27.488 19.0541 27.6392 19.208 27.7441 19.3926C27.8491 19.5773 27.9043 19.7866 27.9043 19.999C27.9043 20.2116 27.8491 20.4207 27.7441 20.6055C27.6392 20.7902 27.4882 20.9449 27.3057 21.0537L16.8232 27.293C16.6372 27.4039 16.4246 27.4635 16.208 27.4658C15.9914 27.468 15.7782 27.4127 15.5898 27.3057C15.4015 27.1986 15.2447 27.0437 15.1357 26.8564C15.0268 26.6691 14.9696 26.456 14.9697 26.2393V13.7607C14.9698 13.544 15.0268 13.3309 15.1357 13.1436C15.2447 12.9563 15.4016 12.8015 15.5898 12.6943C15.7781 12.5872 15.9914 12.5322 16.208 12.5342Z" fill="var(--fill-0, white)"/>
</svg>
