<svg preserveAspectRatio="none" width="100%" height="100%" overflow="visible" style="display: block;" viewBox="0 0 51 51" fill="none" xmlns="http://www.w3.org/2000/svg">
<g id="Group 318">
<circle id="Ellipse 134" cx="25.5" cy="25.5" r="25.5" fill="var(--fill-0, #FF5C00)"/>
<path id="Union" d="M36.3848 12.2938C39.1362 11.2918 41.1323 10.5444 40.3848 14.7908L34.8897 39.7762C33.1405 41.0243 32.1464 39.7766 31.1446 39.0291L25.1475 34.5291L20.9073 38.2703C20.4809 38.6966 20.0543 38.9363 19.628 38.9988C19.2879 39.1153 18.9092 39.1098 18.7022 38.7117C18.3729 38.0783 16.3442 31.7378 15.6055 28.4217L7.66214 25.534H7.65433C6.4059 25.2875 7.39948 24.0389 8.4014 23.5379L36.3848 12.2938ZM34.8985 17.0408C34.3976 17.0408 33.8964 17.2954 33.3955 17.5418L17.0821 27.7938L19.4209 36.6678L20.1592 30.785L20.1543 30.782C23.3988 27.0286 29.6501 22.2814 33.3955 19.0369C33.8966 18.5439 34.8985 17.7882 34.8985 17.0408Z" fill="var(--fill-0, white)"/>
</g>
</svg>
