<svg preserveAspectRatio="none" width="100%" height="100%" overflow="visible" style="display: block;" viewBox="0 0 26.1805 17.9991" fill="none" xmlns="http://www.w3.org/2000/svg">
<g id="Group 126">
<path id="Vector" d="M13.0902 1.8537e-05C19.3332 1.8537e-05 24.5695 4.02446 25.9874 9.447C26.1054 9.89834 25.7514 10.3217 25.2849 10.3217C24.9294 10.3217 24.6257 10.0704 24.5341 9.72688C23.2556 4.93505 18.6169 1.38463 13.0902 1.38463C7.56357 1.38463 2.92485 4.93506 1.6464 9.72689C1.55475 10.0704 1.25108 10.3217 0.895544 10.3217C0.429036 10.3217 0.0750278 9.89834 0.193042 9.44701C1.61092 4.02446 6.84729 1.8537e-05 13.0902 1.8537e-05Z" fill="var(--fill-0, #0D0300)"/>
<path id="Vector_2" d="M16.0483 10.9504C13.7544 10.9504 11.8947 9.09066 11.8947 6.79656C11.8947 5.57996 11.0227 4.00547 9.9368 4.55411C7.60567 5.73194 5.97893 8.12554 5.97893 10.8872C5.97893 14.815 9.16288 17.9991 13.0905 17.9991C17.018 17.9991 20.202 14.815 20.202 10.8872C20.202 10.0217 18.9931 9.85057 18.261 10.3124C17.6205 10.7165 16.8617 10.9504 16.0483 10.9504Z" fill="var(--fill-0, #0D0300)"/>
</g>
</svg>
