<svg preserveAspectRatio="none" width="100%" height="100%" overflow="visible" style="display: block;" viewBox="0 0 34 34" fill="none" xmlns="http://www.w3.org/2000/svg">
<g id="icon / arrow-right" opacity="0.3">
<path id="Ellipse 82" d="M34 17C34 26.3888 26.3888 34 17 34C7.61116 34 0 26.3888 0 17C0 7.61116 7.61116 0 17 0C26.3888 0 34 7.61116 34 17Z" fill="var(--fill-0, #FF5C00)"/>
<path id="Vector 1 (Stroke)" fill-rule="evenodd" clip-rule="evenodd" d="M12.2964 17.6351C11.9568 17.2653 11.9568 16.7347 12.2964 16.3649L18.5297 9.57867C18.9251 9.14822 19.639 9.0836 20.1242 9.43433C20.6094 9.78507 20.6823 10.4184 20.2869 10.8488L14.6369 17L20.2869 23.1512C20.6823 23.5816 20.6094 24.2149 20.1242 24.5657C19.639 24.9164 18.9251 24.8518 18.5297 24.4213L12.2964 17.6351Z" fill="var(--fill-0, white)"/>
</g>
</svg>
