<svg preserveAspectRatio="none" width="100%" height="100%" overflow="visible" style="display: block;" viewBox="0 0 124 22" fill="none" xmlns="http://www.w3.org/2000/svg">
<g id="Group 138 1" clip-path="url(#clip0_0_34)">
<path id="Vector" d="M52.5714 1.76966C51.5308 0.59584 50.2424 0 48.7403 0H33.2136C31.731 0 30.4459 0.594217 29.397 1.76804C28.3612 2.92563 27.8367 4.33486 27.8367 5.95679V15.2743C27.8367 16.8963 28.3612 18.3038 29.397 19.4631C30.4459 20.6352 31.7293 21.2311 33.2136 21.2311H48.7403C50.2407 21.2311 51.5308 20.6352 52.5714 19.4615C53.5976 18.3038 54.1172 16.8946 54.1172 15.2743V5.95679C54.1172 4.33649 53.5976 2.92888 52.5714 1.76966ZM49.6014 6.07206V15.1574C49.6014 15.4805 49.5027 15.7468 49.2988 15.9756C49.1062 16.1916 48.8957 16.2907 48.6384 16.2907H33.3188C33.0598 16.2907 32.851 16.19 32.6584 15.9756C32.4545 15.7484 32.3557 15.4805 32.3557 15.1574V6.07206C32.3557 5.74897 32.4545 5.48271 32.6584 5.25379C32.851 5.03786 33.0614 4.93882 33.3188 4.93882H48.6384C48.8973 4.93882 49.1062 5.03948 49.2988 5.25379C49.5027 5.48109 49.6014 5.74897 49.6014 6.07206Z" fill="var(--fill-0, #0D0300)"/>
<path id="Vector_2" d="M113.306 1.76966C112.266 0.59584 110.977 0 109.475 0H93.9481C92.466 0 91.1822 0.594217 90.132 1.76804C89.0961 2.92563 88.5714 4.33486 88.5714 5.95679V15.2743C88.5714 16.8963 89.0961 18.3054 90.132 19.4631C91.1805 20.6352 92.4644 21.2311 93.9481 21.2311H109.475C110.976 21.2311 112.266 20.6352 113.306 19.4615C114.332 18.3038 114.852 16.8946 114.852 15.2743V5.95679C114.852 4.33649 114.332 2.92888 113.306 1.76966ZM110.336 6.07206V15.1574C110.336 15.4789 110.238 15.7468 110.034 15.9756C109.841 16.1916 109.63 16.2907 109.373 16.2907H94.0536C93.7946 16.2907 93.5854 16.19 93.3931 15.9756C93.189 15.7484 93.0903 15.4805 93.0903 15.1574V6.07206C93.0903 5.74897 93.189 5.48271 93.3931 5.25379C93.5854 5.03786 93.7963 4.93882 94.0536 4.93882H109.373C109.63 4.93882 109.841 5.03948 110.034 5.25379C110.238 5.48109 110.336 5.74897 110.336 6.07206Z" fill="var(--fill-0, #0D0300)"/>
<path id="Vector_3" d="M117.807 7.74201C117.511 7.89586 117.318 8.25052 117.318 8.64084V12.7834C117.318 13.1753 117.511 13.5283 117.807 13.6821L122.875 16.317C123.408 16.5939 124 16.121 124 15.4182V6.00597C124 5.30313 123.406 4.83024 122.875 5.10717L117.807 7.74201Z" fill="var(--fill-0, #FF5C00)"/>
<path id="Vector_4" d="M64.3066 2.62151C64.6607 1.08678 66.0235 0 67.5939 0H80.5578C82.4213 0 83.932 1.51534 83.932 3.38462V19.5377C83.932 20.4724 83.1767 21.23 82.2449 21.23H81.1099C80.1782 21.23 79.4228 20.4724 79.4228 19.5377V5.72128C79.4228 5.25396 79.0452 4.87513 78.5793 4.87513H68.9917C68.6016 4.87513 68.2623 5.14342 68.1714 5.52393L65.0547 18.5586C64.6907 20.0807 63.3339 21.1538 61.7736 21.1538H59.0606C58.1317 21.1538 57.3776 20.4007 57.3735 19.469L57.368 18.1998C57.3638 17.2622 58.1204 16.5 59.055 16.5H60.4342C60.8268 16.5 61.1675 16.2283 61.256 15.8447L64.3066 2.62151Z" fill="var(--fill-0, #0D0300)"/>
<path id="Vector_5" d="M24.1125 3.24852C24.1125 4.18225 23.3586 4.93954 22.4277 4.94083L5.48217 4.96412C5.22482 4.96412 5.01411 5.06302 4.82151 5.27895C4.61763 5.50784 4.51919 5.77398 4.51918 6.09701V15.1824C4.51919 15.5054 4.61763 15.7732 4.82151 16.0005C5.01411 16.2148 5.2232 16.3153 5.48217 16.3153L22.4232 16.292C23.3558 16.2907 24.1125 17.0488 24.1125 17.9843V19.5402C24.1125 20.4739 23.3586 21.2313 22.4277 21.2325L5.37672 21.2559C3.89263 21.2559 2.60899 20.6604 1.56022 19.4883C0.524339 18.3292 0 16.9209 0 15.2989V5.98215C0 4.36023 0.524339 2.95028 1.56022 1.7927C2.609 0.619038 3.89423 0.0251958 5.37672 0.0251958L22.4232 0.00264126C23.3559 0.0014073 24.1125 0.75944 24.1125 1.69495V3.24852Z" fill="var(--fill-0, #0D0300)"/>
</g>
<defs>
<clipPath id="clip0_0_34">
<rect width="124" height="22" fill="white"/>
</clipPath>
</defs>
</svg>
