<svg preserveAspectRatio="none" width="100%" height="100%" overflow="visible" style="display: block;" viewBox="0 0 31.1551 25.0913" fill="none" xmlns="http://www.w3.org/2000/svg">
<path id="Vector" d="M29.3227 2.09142C28.0889 0.704175 26.5615 0 24.7809 0H6.37416C4.61657 0 3.09498 0.702257 1.8497 2.0895C0.621684 3.45756 0 5.12302 0 7.03984V18.0515C0 19.9683 0.621684 21.6337 1.8497 23.0018C3.09306 24.3871 4.61465 25.0913 6.37416 25.0913H24.7809C26.5596 25.0913 28.0889 24.3871 29.3227 22.9999C30.5392 21.6318 31.1551 19.9663 31.1551 18.0515V7.03984C31.1551 5.12494 30.5392 3.4614 29.3227 2.09142ZM25.8017 7.17607V17.9133C25.8017 18.2932 25.6847 18.6098 25.4429 18.8803C25.2146 19.1355 24.9651 19.2526 24.66 19.2526H6.49889C6.19188 19.2526 5.94436 19.1336 5.71602 18.8803C5.47426 18.6117 5.35722 18.2951 5.35722 17.9133V7.17607C5.35722 6.79424 5.47426 6.47957 5.71602 6.20902C5.94436 5.95383 6.1938 5.83679 6.49889 5.83679H24.66C24.9651 5.83679 25.2146 5.95575 25.4429 6.20902C25.6847 6.47765 25.8017 6.79424 25.8017 7.17607Z" fill="var(--fill-0, white)"/>
</svg>
