<svg preserveAspectRatio="none" width="100%" height="100%" overflow="visible" style="display: block;" viewBox="0 0 104 100" fill="none" xmlns="http://www.w3.org/2000/svg">
<g id="Vector">
<path d="M101.693 54.1059C101.661 54.5605 101.534 54.9544 101.312 55.2876C101.096 55.6212 100.808 55.8716 100.446 56.0389C100.085 56.2122 99.679 56.2832 99.2293 56.252C98.7675 56.22 98.3642 56.0838 98.0194 55.8435C97.6806 55.6036 97.4258 55.2824 97.255 54.8799C97.0842 54.4774 97.0161 54.0279 97.0507 53.5314C97.1087 52.7 97.4294 52.0761 98.0128 51.6598C98.5963 51.2435 99.4067 51.0714 100.444 51.1433C101.41 51.2103 102.16 51.4697 102.695 51.9215C103.23 52.3734 103.558 53.0302 103.678 53.892L104 56.1502L102.981 56.2418L102.708 54.1944C102.629 53.6058 102.455 53.158 102.187 52.851C101.919 52.5439 101.526 52.3483 101.008 52.2643C101.251 52.4975 101.43 52.7714 101.547 53.086C101.67 53.4011 101.718 53.741 101.693 54.1059ZM97.9574 53.6214C97.9286 54.0341 98.0374 54.3752 98.2838 54.6447C98.5357 54.9207 98.8686 55.073 99.2824 55.1017C99.6962 55.1304 100.038 55.0249 100.308 54.7851C100.577 54.5514 100.726 54.2282 100.755 53.8154C100.784 53.3967 100.682 53.0501 100.448 52.7754C100.214 52.5007 99.8901 52.349 99.4763 52.3203C99.0565 52.2912 98.7057 52.3961 98.4239 52.635C98.1417 52.8799 97.9862 53.2087 97.9574 53.6214Z" fill="var(--fill-0, white)"/>
<path d="M98.1544 62.1608C98.0779 62.1451 97.9702 62.1167 97.8313 62.0759L98.5958 58.3854C98.2351 58.3784 97.9237 58.4888 97.6617 58.7164C97.4044 58.9511 97.2337 59.2711 97.1498 59.6762C97.0428 60.1929 97.1253 60.6538 97.3974 61.0589L96.5952 61.5089C96.3858 61.2453 96.2498 60.9387 96.1872 60.5891C96.1246 60.2395 96.1353 59.862 96.2192 59.4569C96.3263 58.9402 96.5236 58.5063 96.8111 58.1554C97.0987 57.8044 97.4474 57.5579 97.8575 57.4159C98.2721 57.2809 98.712 57.2614 99.1771 57.3572C99.6363 57.4519 100.027 57.6396 100.35 57.9203C100.677 58.2081 100.905 58.5582 101.034 58.9706C101.164 59.383 101.18 59.8211 101.084 60.285C100.989 60.743 100.802 61.1299 100.522 61.4456C100.246 61.7684 99.9021 61.9914 99.4899 62.1146C99.0823 62.2449 98.6371 62.2603 98.1544 62.1608ZM100.201 60.103C100.274 59.7507 100.23 59.4294 100.069 59.1391C99.9133 58.8559 99.667 58.6521 99.3306 58.5277L98.7777 61.1964C99.1289 61.2198 99.4354 61.133 99.6972 60.9359C99.9591 60.7388 100.127 60.4612 100.201 60.103Z" fill="var(--fill-0, white)"/>
<path d="M94.6372 65.0553C94.7984 64.5843 95.0426 64.1954 95.3699 63.8887C95.6971 63.582 96.0731 63.3837 96.4977 63.2938C96.9279 63.2058 97.3678 63.2384 97.8173 63.3913C98.2667 63.5443 98.6319 63.7859 98.9128 64.1159C99.1937 64.4459 99.3706 64.8292 99.4435 65.2659C99.5145 65.7082 99.4684 66.1676 99.3053 66.6443C99.1519 67.0926 98.9269 67.4531 98.6303 67.726C98.3317 68.0045 97.9826 68.1707 97.583 68.2248L97.3847 67.245C97.6399 67.1861 97.8527 67.0748 98.023 66.911C98.1971 66.7549 98.324 66.5605 98.4036 66.3279C98.5395 65.9306 98.5213 65.557 98.3489 65.2069C98.1822 64.8587 97.8827 64.611 97.4503 64.4638C97.0179 64.3166 96.6271 64.3262 96.2781 64.4925C95.9327 64.6663 95.6911 64.9547 95.5533 65.3576C95.4736 65.5903 95.452 65.8205 95.4884 66.0483C95.5286 66.2837 95.6315 66.5025 95.7974 66.7046L95.0399 67.3591C94.7587 67.067 94.5825 66.7187 94.5113 66.3143C94.4438 65.9176 94.4857 65.4979 94.6372 65.0553Z" fill="var(--fill-0, white)"/>
<path d="M95.7817 74.4313L91.4663 72.3005L91.9624 71.3011L95.4212 73.0089L96.4734 70.8891L93.0146 69.1812L93.5147 68.1737L97.8301 70.3045L95.7817 74.4313Z" fill="var(--fill-0, white)"/>
<path d="M92.1816 79.9332L88.1965 77.2373L88.8292 76.3069L92.0232 78.4676L93.0356 76.979L92.2698 76.4066C91.7593 76.0251 91.3503 75.6759 91.0427 75.3591C90.7367 75.0507 90.5383 74.739 90.4474 74.4239C90.3582 74.1172 90.4148 73.815 90.6172 73.5173C90.7117 73.3784 90.8555 73.2257 91.0486 73.0592L91.8018 73.634C91.7396 73.6934 91.6917 73.7479 91.6579 73.7975C91.5297 73.9861 91.5082 74.178 91.5933 74.3732C91.6834 74.5718 91.8245 74.7542 92.0166 74.9204C92.2103 75.0949 92.4969 75.325 92.8764 75.6107L94.3682 76.7177L92.1816 79.9332Z" fill="var(--fill-0, white)"/>
<path d="M89.6951 82.9935C89.2274 83.5254 88.7418 83.8185 88.2384 83.8726C87.7356 83.9352 87.2266 83.7412 86.7113 83.2905L84.5894 81.4343L85.291 80.6364L85.7316 81.0219C85.6646 80.7798 85.6734 80.5243 85.758 80.2554C85.8431 79.9949 86.0046 79.7294 86.2424 79.4589C86.4802 79.1885 86.7335 78.9913 87.0023 78.8675C87.2756 78.7477 87.5431 78.7026 87.8049 78.7323C88.0673 78.7703 88.3024 78.8803 88.5103 79.0622C88.8357 79.3468 88.9906 79.6936 88.9748 80.1025C88.9596 80.5199 88.7241 80.9878 88.2683 81.5062L87.4478 82.4393L87.502 82.4868C87.7551 82.7081 88.0168 82.8015 88.2872 82.7669C88.5536 82.7367 88.8176 82.5729 89.0792 82.2754C89.2576 82.0725 89.4023 81.8442 89.5135 81.5905C89.6206 81.3414 89.6772 81.0997 89.6831 80.8657L90.5914 81.074C90.5695 81.3898 90.4801 81.7143 90.3231 82.0475C90.166 82.3807 89.9567 82.696 89.6951 82.9935ZM86.7047 80.1744C86.5184 80.3863 86.4014 80.6148 86.3536 80.8601C86.3064 81.1139 86.3434 81.3537 86.4648 81.5794L86.8851 81.9471L87.6521 81.0748C88.0802 80.588 88.1338 80.2042 87.8129 79.9235C87.6592 79.7891 87.4837 79.7432 87.2863 79.7859C87.0888 79.8285 86.895 79.958 86.7047 80.1744Z" fill="var(--fill-0, white)"/>
<path d="M83.0968 88.0342L84.3483 86.9069L81.7615 84.0501L82.5981 83.2967L85.1848 86.1535L86.443 85.0202L87.0836 85.7277L83.7375 88.7417L83.0968 88.0342Z" fill="var(--fill-0, white)"/>
<path d="M82.4443 89.745L81.5208 90.3896L80.3988 88.7906L78.4115 90.1778L79.5334 91.7767L78.61 92.4213L75.849 88.4865L76.7725 87.8419L77.8634 89.3967L79.8508 88.0095L78.7598 86.4547L79.6833 85.8101L82.4443 89.745Z" fill="var(--fill-0, white)"/>
<path d="M75.178 94.3733C74.5494 94.7012 73.9906 94.7999 73.5015 94.6694C73.0099 94.5469 72.6053 94.1829 72.2876 93.5772L70.9795 91.0827L71.9223 90.5909L72.194 91.1089C72.219 90.859 72.3196 90.6239 72.4957 90.4034C72.6692 90.1911 72.9158 90.0015 73.2355 89.8348C73.5551 89.668 73.8626 89.5753 74.158 89.5565C74.4563 89.543 74.7221 89.5972 74.9556 89.7189C75.1865 89.8488 75.3661 90.036 75.4942 90.2804C75.6949 90.6629 75.7139 91.042 75.5514 91.4178C75.3863 91.8016 74.9975 92.1533 74.3849 92.4729L73.2822 93.0482L73.3157 93.1119C73.4717 93.4094 73.6821 93.5907 73.9468 93.6556C74.2061 93.7233 74.5116 93.6654 74.8632 93.482C75.1029 93.3569 75.3205 93.1961 75.5158 92.9994C75.7059 92.8055 75.846 92.6005 75.9361 92.3843L76.708 92.9053C76.5734 93.192 76.3727 93.4625 76.1057 93.7168C75.8388 93.9711 75.5296 94.1899 75.178 94.3733ZM73.408 90.6684C73.1577 90.799 72.9659 90.9701 72.8326 91.1817C72.6968 91.4014 72.6447 91.6384 72.6762 91.8926L72.9353 92.3867L73.9661 91.849C74.5414 91.5488 74.7302 91.2102 74.5323 90.8329C74.4376 90.6523 74.2905 90.5464 74.0909 90.5151C73.8913 90.4839 73.6637 90.535 73.408 90.6684Z" fill="var(--fill-0, white)"/>
<path d="M67.2442 97.673L65.5695 93.1701L66.5164 92.8198L67.0213 94.1774L68.2134 93.7364L68.63 92.0378L69.7629 91.6187L69.2559 93.5137C69.6246 93.5052 69.9392 93.5839 70.1996 93.7497C70.4565 93.9233 70.6487 94.1815 70.7763 94.5244C70.9686 95.0416 70.9339 95.5085 70.6721 95.9251C70.4103 96.3417 69.9581 96.6689 69.3155 96.9066L67.2442 97.673ZM68.9524 96.0338C69.6344 95.7814 69.8803 95.3995 69.69 94.8879C69.5019 94.382 69.078 94.251 68.4186 94.495L67.2942 94.911L67.8618 96.4373L68.9524 96.0338Z" fill="var(--fill-0, white)"/>
<path d="M59.7371 96.4682L60.5992 96.3211L60.274 94.424L61.3851 94.2345L62.1966 98.9685L61.0856 99.158L60.7573 97.2431L59.8684 97.3947L58.7923 99.549L57.6013 99.7522L58.9351 97.1798L56.6742 95.0379L57.9808 94.8151L59.7371 96.4682Z" fill="var(--fill-0, white)"/>
<path d="M53.6451 95.0815C54.1316 95.0628 54.5742 95.1508 54.9728 95.3454C55.3714 95.5401 55.689 95.8189 55.9256 96.1818C56.1565 96.5509 56.2811 96.9721 56.2994 97.4454C56.3178 97.9188 56.226 98.3453 56.0241 98.7251C55.8162 99.1051 55.5211 99.4075 55.1388 99.6323C54.7564 99.857 54.322 99.9787 53.8354 99.9975C53.3428 100.016 52.8972 99.9286 52.4986 99.7339C52.1001 99.5393 51.7855 99.2604 51.5548 98.8972C51.3182 98.5343 51.1907 98.1162 51.1724 97.6429C51.154 97.1696 51.2487 96.7399 51.4563 96.3539C51.6582 95.9741 51.9503 95.6718 52.3327 95.4471C52.715 95.2223 53.1525 95.1005 53.6451 95.0815ZM53.6823 96.0431C53.2678 96.0591 52.9307 96.2101 52.6711 96.4961C52.4114 96.7821 52.2903 97.1498 52.3077 97.5992C52.3251 98.0485 52.4743 98.4058 52.7553 98.671C53.0363 98.9362 53.384 99.0608 53.7985 99.0448C54.213 99.0289 54.5501 98.8779 54.8097 98.5919C55.0634 98.3061 55.1815 97.9385 55.1641 97.4892C55.1467 97.0398 55.0005 96.6824 54.7255 96.417C54.4445 96.1518 54.0968 96.0272 53.6823 96.0431Z" fill="var(--fill-0, white)"/>
<path d="M49.1038 99.9346L47.9819 99.8264L48.1702 97.8838L45.7558 97.6509L45.5674 99.5935L44.4455 99.4853L44.909 94.7049L46.0309 94.8131L45.8478 96.702L48.2622 96.9349L48.4453 95.046L49.5673 95.1542L49.1038 99.9346Z" fill="var(--fill-0, white)"/>
<path d="M41.1432 93.8087C41.629 93.9224 42.041 94.1266 42.3792 94.4212C42.7175 94.7159 42.9523 95.0696 43.0837 95.4822C43.2137 95.9006 43.2245 96.3404 43.1161 96.8015C43.0076 97.2627 42.8025 97.6489 42.5008 97.9601C42.1992 98.2714 41.8341 98.4847 41.4056 98.5999C40.9713 98.7139 40.5083 98.7133 40.0166 98.5983C39.5543 98.4901 39.1724 98.3022 38.871 98.0346C38.5638 97.7656 38.3636 97.4355 38.2704 97.0442L39.2285 96.751C39.3124 96.9985 39.4443 97.1988 39.6245 97.3518C39.7974 97.5092 40.0038 97.616 40.2437 97.6722C40.6534 97.7681 41.0245 97.7132 41.3569 97.5077C41.6879 97.308 41.9055 96.9864 42.0099 96.5427C42.1142 96.0991 42.0663 95.7122 41.8661 95.382C41.6587 95.0563 41.3472 94.8449 40.9316 94.7477C40.6917 94.6915 40.4599 94.6927 40.2361 94.7512C40.0052 94.8142 39.797 94.9379 39.6116 95.1224L38.8842 94.4349C39.148 94.1271 39.4781 93.9179 39.8746 93.8075C40.2639 93.7015 40.6867 93.7019 41.1432 93.8087Z" fill="var(--fill-0, white)"/>
<path d="M32.1973 96.0165L36.0896 91.9037C36.4656 91.4848 36.8308 91.2277 37.1851 91.1326C37.5414 91.0318 37.9202 91.054 38.3215 91.199C38.5476 91.2807 38.7575 91.3981 38.9513 91.551C39.1451 91.704 39.2891 91.8708 39.3833 92.0516L38.6767 92.6762C38.6098 92.5436 38.5187 92.4246 38.4036 92.3192C38.2828 92.2118 38.1517 92.1325 38.0104 92.0815C37.8239 92.014 37.6539 92.0068 37.5004 92.0597C37.3412 92.1106 37.1698 92.2304 36.9861 92.4191L36.8453 92.5691L37.1737 97.8153L36.0716 97.4169L35.861 93.5621L33.2146 96.3842L32.1973 96.0165Z" fill="var(--fill-0, white)"/>
<path d="M27.0325 93.409L29.2327 89.137L30.2353 89.6506L28.4719 93.0747L30.0761 93.8966L30.553 93.0691C30.8708 92.5174 31.1688 92.0702 31.4468 91.7273C31.7166 91.3869 32.0028 91.1527 32.3054 91.0246C32.5998 90.8991 32.9074 90.9185 33.2283 91.0829C33.378 91.1596 33.5474 91.2834 33.7364 91.4544L33.2557 92.2698C33.189 92.2154 33.129 92.1745 33.0755 92.1472C32.8723 92.043 32.6787 92.045 32.4947 92.1529C32.308 92.2662 32.1435 92.428 32.0014 92.6383C31.8512 92.8512 31.657 93.1628 31.4186 93.5732L30.4976 95.1843L27.0325 93.409Z" fill="var(--fill-0, white)"/>
<path d="M24.0489 89.5752C23.5427 89.2301 23.2336 88.8523 23.1217 88.4419C23.0048 88.0281 23.0889 87.6133 23.3738 87.1975C23.6724 86.7619 24.052 86.5268 24.5126 86.4923C24.9732 86.4577 25.4723 86.6273 26.0098 87.0011L27.8658 88.2774L25.1483 92.2422L24.2178 91.6078L25.1083 90.3085L24.0489 89.5752ZM25.6235 87.74C25.354 87.5489 25.1065 87.4638 24.8812 87.4844C24.6558 87.5051 24.4651 87.6293 24.3091 87.857C24.1564 88.0797 24.1139 88.2904 24.1816 88.4891C24.2494 88.6878 24.423 88.8861 24.7024 89.0839L25.546 89.6699L26.4671 88.3261L25.6235 87.74Z" fill="var(--fill-0, white)"/>
<path d="M17.9342 85.4396L19.21 86.5393L21.7336 83.6269L22.5864 84.362L20.0628 87.2744L21.3454 88.38L20.7204 89.1013L17.3092 86.1609L17.9342 85.4396Z" fill="var(--fill-0, white)"/>
<path d="M15.045 83.8414C14.5657 83.3198 14.3265 82.8065 14.3273 82.3015C14.3196 81.7962 14.5684 81.3126 15.0737 80.8508L17.1545 78.9489L17.8734 79.7314L17.4413 80.1263C17.6898 80.0862 17.9435 80.1227 18.2024 80.2358C18.4527 80.3486 18.6998 80.5376 18.9435 80.8028C19.1871 81.068 19.356 81.3406 19.4502 81.6205C19.5399 81.9045 19.5557 82.1747 19.4977 82.431C19.4312 82.687 19.296 82.9082 19.0921 83.0945C18.773 83.3862 18.4105 83.502 18.0047 83.4419C17.5903 83.3814 17.1496 83.097 16.6826 82.5886L15.8418 81.6736L15.7887 81.7222C15.5405 81.949 15.4189 82.1984 15.4241 82.4702C15.4251 82.7376 15.5597 83.0172 15.8277 83.3089C16.0105 83.5079 16.2223 83.6762 16.463 83.814C16.6997 83.9474 16.9344 84.0297 17.167 84.0611L16.8606 84.9389C16.5482 84.8829 16.2345 84.7589 15.9195 84.567C15.6045 84.375 15.313 84.1332 15.045 83.8414ZM18.1801 81.1833C17.9892 80.9756 17.7741 80.8347 17.5348 80.7606C17.287 80.6861 17.044 80.6968 16.8058 80.7925L16.3936 81.1692L17.1795 82.0246C17.6182 82.502 17.9948 82.5969 18.3095 82.3093C18.4602 82.1716 18.525 82.0025 18.504 81.8022C18.483 81.6018 18.375 81.3955 18.1801 81.1833Z" fill="var(--fill-0, white)"/>
<path d="M12.398 74.0482L14.0855 72.8611L14.6936 73.721L13.7872 74.3586L16.2248 77.8056L12.2898 80.5737L11.6401 79.655L14.794 77.4364L13.4687 75.5622L10.3148 77.7809L9.66511 76.8622L12.819 74.6435L12.398 74.0482Z" fill="var(--fill-0, white)"/>
<path d="M8.35823 74.6956L7.84693 73.6937L10.6757 72.2576L6.64027 71.3292L6.17397 70.4154L10.4653 68.2369L10.9766 69.2388L8.14787 70.6748L12.1792 71.5953L12.6496 72.517L8.35823 74.6956Z" fill="var(--fill-0, white)"/>
<path d="M3.92747 64.3515L8.47282 62.766L8.80621 63.7169L7.4358 64.1949L7.85552 65.3919L9.5504 65.8393L9.94928 66.9769L8.05909 66.4357C8.0607 66.8035 7.97594 67.1157 7.8048 67.3724C7.626 67.6253 7.36353 67.8121 7.01738 67.9328C6.49531 68.1149 6.02792 68.0715 5.6152 67.8026C5.20248 67.5337 4.883 67.0766 4.65677 66.4314L3.92747 64.3515ZM5.53861 66.0857C5.77874 66.7705 6.15699 67.0229 6.67338 66.8428C7.18409 66.6646 7.32336 66.2445 7.09117 65.5823L6.69526 64.4532L5.15461 64.9906L5.53861 66.0857Z" fill="var(--fill-0, white)"/>
<path d="M2.29914 45.7242C2.3326 45.2698 2.46102 44.8764 2.6844 44.544C2.90179 44.2113 3.19139 43.9619 3.55322 43.7961C3.91548 43.6242 4.32144 43.5547 4.7711 43.5876C5.23275 43.6215 5.63551 43.7592 5.97939 44.0008C6.31728 44.242 6.57084 44.5641 6.74007 44.9673C6.90931 45.3705 6.97566 45.8202 6.93912 46.3166C6.87793 47.1477 6.55481 47.7704 5.96978 48.1844C5.38474 48.5985 4.57361 48.7676 3.5364 48.6916C2.57113 48.6209 1.8219 48.3586 1.2887 47.9048C0.755505 47.4509 0.430231 46.7928 0.312878 45.9305L0 43.6711L1.01912 43.5834L1.28423 45.6319C1.36144 46.2207 1.53337 46.6692 1.80002 46.9773C2.06667 47.2854 2.45904 47.4825 2.97712 47.5685C2.73517 47.3343 2.55647 47.0597 2.44102 46.7447C2.31958 46.4292 2.27229 46.089 2.29914 45.7242ZM6.03279 46.2231C6.06316 45.8105 5.9557 45.469 5.71038 45.1985C5.45952 44.9216 5.12724 44.768 4.71356 44.7377C4.29987 44.7074 3.95766 44.8116 3.68692 45.0503C3.41662 45.283 3.26629 45.6057 3.23591 46.0183C3.2051 46.4369 3.30613 46.784 3.53901 47.0595C3.77189 47.3351 4.09517 47.488 4.50886 47.5183C4.92854 47.5491 5.27974 47.4455 5.56247 47.2077C5.84564 46.9639 6.00241 46.6357 6.03279 46.2231Z" fill="var(--fill-0, white)"/>
<path d="M5.90999 37.5283C5.9864 37.5447 6.09388 37.5738 6.23243 37.6157L5.4397 41.3002C5.80036 41.31 6.11256 41.202 6.37631 40.9764C6.63543 40.7436 6.80851 40.425 6.89554 40.0205C7.00653 39.5046 6.92752 39.0431 6.65851 38.636L7.46415 38.1921C7.67149 38.4572 7.80513 38.7649 7.86507 39.115C7.92501 39.4651 7.91146 39.8424 7.82443 40.2469C7.71344 40.7628 7.51282 41.1951 7.22259 41.5439C6.93236 41.8926 6.5817 42.1364 6.17061 42.2754C5.75491 42.4071 5.31488 42.4233 4.85053 42.324C4.39207 42.2258 4.0027 42.0352 3.68242 41.752C3.35753 41.4617 3.13195 41.1099 3.00569 40.6965C2.87943 40.2831 2.86612 39.8449 2.96576 39.3818C3.06415 38.9245 3.25467 38.5391 3.53733 38.2255C3.81537 37.9048 4.16099 37.6844 4.57417 37.5644C4.98274 37.4372 5.42802 37.4252 5.90999 37.5283ZM3.84743 39.5705C3.77175 39.9222 3.81323 40.2438 3.97185 40.5354C4.12586 40.8197 4.37058 41.0254 4.70602 41.1524L5.27928 38.4879C4.92828 38.4619 4.62112 38.5464 4.35781 38.7415C4.0945 38.9365 3.92437 39.2129 3.84743 39.5705Z" fill="var(--fill-0, white)"/>
<path d="M9.43016 34.7042C9.26545 35.1739 9.0183 35.5609 8.68871 35.8652C8.35912 36.1695 7.9817 36.365 7.55645 36.4517C7.12553 36.5364 6.68592 36.5005 6.23762 36.3442C5.78933 36.1878 5.42598 35.9436 5.14759 35.6114C4.86919 35.2793 4.69518 34.8947 4.62556 34.4575C4.55793 34.0147 4.60746 33.5556 4.77415 33.0802C4.93093 32.633 5.15865 32.2742 5.45732 32.0036C5.75798 31.7273 6.10831 31.5637 6.50832 31.5127L6.69922 32.4939C6.44362 32.5509 6.23002 32.6606 6.05842 32.823C5.88313 32.9779 5.7548 33.1713 5.67344 33.4034C5.53452 33.7995 5.54994 34.1733 5.71968 34.5247C5.88375 34.8741 6.18142 35.1241 6.61269 35.2745C7.04396 35.4249 7.43476 35.4183 7.7851 35.2547C8.13174 35.0834 8.37551 34.7968 8.51641 34.395C8.59777 34.1629 8.62112 33.9329 8.58645 33.7048C8.54809 33.4691 8.44675 33.2496 8.28244 33.0462L9.04487 32.3974C9.32382 32.6916 9.4974 33.0412 9.56559 33.4461C9.63009 33.8433 9.58495 34.2627 9.43016 34.7042Z" fill="var(--fill-0, white)"/>
<path d="M8.32489 25.3608L12.6243 27.5235L12.1208 28.5192L8.67482 26.7858L7.60689 28.8978L11.0529 30.6312L10.5453 31.635L6.24587 29.4723L8.32489 25.3608Z" fill="var(--fill-0, white)"/>
<path d="M11.941 19.8932L15.9062 22.6181L15.2667 23.5439L12.0886 21.3599L11.0654 22.8411L11.8269 23.419C12.3346 23.8043 12.741 24.1564 13.0463 24.4754C13.35 24.7861 13.5461 25.0993 13.6347 25.4149C13.7217 25.7223 13.6629 26.0241 13.4582 26.3203C13.3627 26.4586 13.2178 26.6102 13.0235 26.7752L12.2745 26.195C12.3371 26.1361 12.3855 26.0819 12.4196 26.0325C12.5492 25.8449 12.5722 25.6532 12.4885 25.4573C12.3998 25.258 12.26 25.0746 12.0692 24.9071C11.8768 24.7312 11.5919 24.499 11.2144 24.2105L9.73082 23.0926L11.941 19.8932Z" fill="var(--fill-0, white)"/>
<path d="M14.4003 16.8816C14.8719 16.3531 15.3596 16.0636 15.8634 16.0131C16.3666 15.9542 16.8742 16.1519 17.3862 16.6063L19.4946 18.4778L18.7872 19.2706L18.3493 18.8819C18.4146 19.1245 18.4039 19.3799 18.3174 19.6482C18.2304 19.9081 18.067 20.1724 17.8272 20.4411C17.5874 20.7099 17.3326 20.9052 17.063 21.027C16.7888 21.1448 16.521 21.188 16.2594 21.1565C15.9973 21.1165 15.763 21.0048 15.5564 20.8214C15.2331 20.5344 15.0808 20.1865 15.0995 19.7777C15.1177 19.3605 15.3566 18.8943 15.8163 18.3792L16.6436 17.4521L16.5897 17.4043C16.3382 17.181 16.0771 17.0858 15.8065 17.1185C15.5399 17.1467 15.2747 17.3086 15.011 17.6042C14.8311 17.8058 14.6847 18.033 14.5717 18.2859C14.4627 18.5343 14.4044 18.7755 14.3968 19.0095L13.4901 18.7946C13.5142 18.4789 13.606 18.1551 13.7655 17.823C13.9249 17.491 14.1366 17.1772 14.4003 16.8816ZM17.37 19.7224C17.5579 19.5118 17.6766 19.2841 17.7262 19.0392C17.7753 18.7857 17.74 18.5457 17.6203 18.3191L17.2026 17.9484L16.4293 18.8151C15.9977 19.2988 15.9413 19.6821 16.2601 19.9652C16.4128 20.1007 16.588 20.1479 16.7857 20.1067C16.9834 20.0654 17.1782 19.9373 17.37 19.7224Z" fill="var(--fill-0, white)"/>
<path d="M21.1501 11.7584L19.8905 12.8766L22.4563 15.752L21.6143 16.4995L19.0485 13.624L17.7821 14.7481L17.1466 14.0359L20.5147 11.0463L21.1501 11.7584Z" fill="var(--fill-0, white)"/>
<path d="M21.7814 10.0736L22.7096 9.43574L23.8198 11.0429L25.8173 9.67022L24.7071 8.06309L25.6353 7.42525L28.3673 11.3801L27.4391 12.018L26.3596 10.4553L24.3621 11.8279L25.4416 13.3906L24.5134 14.0284L21.7814 10.0736Z" fill="var(--fill-0, white)"/>
<path d="M28.9507 5.55752C29.5817 5.23425 30.1412 5.13969 30.6293 5.27384C31.12 5.39992 31.5219 5.76696 31.8351 6.37497L33.1247 8.87901L32.1782 9.36391L31.9104 8.84391C31.8835 9.09359 31.7812 9.32799 31.6035 9.54713C31.4283 9.75819 31.1803 9.94591 30.8595 10.1103C30.5386 10.2747 30.2304 10.3652 29.9348 10.3818C29.6365 10.393 29.3711 10.3369 29.1385 10.2134C28.9086 10.0818 28.7304 9.89336 28.604 9.64803C28.4063 9.26402 28.3901 8.88475 28.5554 8.51022C28.7233 8.12761 29.1147 7.77878 29.7296 7.46373L30.8365 6.89664L30.8036 6.83264C30.6498 6.53397 30.4407 6.35121 30.1765 6.28435C29.9177 6.21475 29.6118 6.27036 29.2588 6.45117C29.0182 6.57445 28.7995 6.7337 28.6026 6.9289C28.4112 7.12137 28.2695 7.32537 28.1778 7.54089L27.4098 7.01424C27.5465 6.72851 27.7493 6.45949 28.0181 6.20719C28.2869 5.95489 28.5977 5.73833 28.9507 5.55752ZM30.6931 9.27543C30.9444 9.14667 31.1375 8.97698 31.2723 8.76635C31.4097 8.54765 31.4636 8.31109 31.434 8.05666L31.1785 7.56065L30.1438 8.09076C29.5663 8.38663 29.375 8.7239 29.57 9.10258C29.6634 9.28391 29.8098 9.39093 30.0091 9.42363C30.2084 9.45633 30.4364 9.40693 30.6931 9.27543Z" fill="var(--fill-0, white)"/>
<path d="M36.978 2.26538L38.6187 6.78067L37.6692 7.1239L37.1745 5.76255L35.9792 6.19465L35.5498 7.89003L34.4137 8.30068L34.935 6.40945C34.5662 6.41521 34.2523 6.33419 33.9931 6.1664C33.7375 5.99094 33.5472 5.73127 33.4223 5.38741C33.2338 4.8688 33.2721 4.40217 33.537 3.98752C33.802 3.57287 34.2566 3.24909 34.9009 3.01619L36.978 2.26538ZM35.2574 3.89177C34.5736 4.13898 34.3248 4.51906 34.5112 5.03204C34.6956 5.53937 35.1184 5.67353 35.7797 5.43449L36.9072 5.02691L36.3511 3.49645L35.2574 3.89177Z" fill="var(--fill-0, white)"/>
<path d="M44.4642 3.5061L43.601 3.64654L43.9116 5.54611L42.7991 5.72709L42.024 0.987033L43.1364 0.806053L43.45 2.72338L44.34 2.5786L45.4326 0.432511L46.6252 0.238501L45.2717 2.80064L47.516 4.95974L46.2078 5.17257L44.4642 3.5061Z" fill="var(--fill-0, white)"/>
<path d="M50.6365 4.91889C50.1498 4.93389 49.7079 4.84252 49.3108 4.6448C48.9138 4.44707 48.5983 4.16585 48.3645 3.80113C48.1365 3.43024 48.0152 3.00807 48.0005 2.53462C47.9858 2.06117 48.0809 1.63533 48.2857 1.2571C48.4965 0.878683 48.794 0.578582 49.1781 0.356795C49.5621 0.135007 49.9975 0.0166166 50.4842 0.00162319C50.9769 -0.0135553 51.4218 0.0777174 51.8189 0.275441C52.216 0.473165 52.5284 0.754478 52.7562 1.11938C52.99 1.4841 53.1143 1.90318 53.1289 2.37663C53.1436 2.85008 53.0456 3.27901 52.835 3.66342C52.6302 4.04165 52.3357 4.34166 51.9517 4.56344C51.5676 4.78523 51.1292 4.90371 50.6365 4.91889ZM50.6067 3.95701C51.0213 3.94424 51.3595 3.79585 51.6214 3.51184C51.8832 3.22783 52.0072 2.86109 51.9933 2.41162C51.9794 1.96214 51.833 1.60373 51.554 1.33638C51.2751 1.06903 50.9283 0.941741 50.5137 0.954513C50.0991 0.967285 49.7609 1.11568 49.499 1.39968C49.2432 1.68351 49.1222 2.05016 49.1361 2.49963C49.1501 2.94911 49.2935 3.30761 49.5664 3.57515C49.8453 3.8425 50.1921 3.96979 50.6067 3.95701Z" fill="var(--fill-0, white)"/>
<path d="M54.9372 0.0648518L56.0583 0.181666L55.855 2.12276L58.2675 2.37414L58.4708 0.433049L59.5919 0.549863L59.0916 5.32656L57.9705 5.20975L58.1682 3.32233L55.7556 3.07094L55.5579 4.95837L54.4369 4.84155L54.9372 0.0648518Z" fill="var(--fill-0, white)"/>
<path d="M63.1371 6.27752C62.6523 6.16017 62.2418 5.95287 61.9059 5.65562C61.5699 5.35837 61.3378 5.00295 61.2095 4.58938C61.0827 4.16998 61.0752 3.73012 61.1872 3.2698C61.2992 2.80949 61.5072 2.42485 61.8113 2.11591C62.1153 1.80696 62.482 1.59646 62.9114 1.48443C63.3466 1.3738 63.8095 1.37788 64.3003 1.49664C64.7618 1.60833 65.1422 1.79912 65.4415 2.06899C65.7467 2.34028 65.9444 2.67194 66.0346 3.06396L65.0742 3.34982C64.9923 3.10171 64.8619 2.90047 64.6829 2.7461C64.5112 2.58732 64.3056 2.47895 64.0661 2.42098C63.6572 2.32201 63.2857 2.37402 62.9518 2.57702C62.6192 2.77418 62.3991 3.09419 62.2914 3.53702C62.1836 3.97986 62.2286 4.36711 62.4263 4.69876C62.6312 5.026 62.9411 5.23982 63.3559 5.3402C63.5954 5.39817 63.8273 5.39875 64.0514 5.34194C64.2828 5.28071 64.4919 5.15857 64.6787 4.97549L65.4009 5.66854C65.1348 5.97432 64.803 6.18093 64.4057 6.28838C64.0157 6.39142 63.5928 6.3878 63.1371 6.27752Z" fill="var(--fill-0, white)"/>
<path d="M71.8336 4.03489L67.9104 8.11836C67.5312 8.53445 67.1642 8.78874 66.8092 8.88123C66.4521 8.97934 66.0735 8.95437 65.6733 8.80631C65.4478 8.7229 65.2388 8.60399 65.0461 8.44958C64.8535 8.29518 64.7108 8.12726 64.618 7.94583L65.3292 7.32645C65.3951 7.45955 65.4853 7.57924 65.5996 7.6855C65.7196 7.79385 65.8501 7.87409 65.991 7.92622C66.177 7.99504 66.3469 8.00356 66.5008 7.95178C66.6604 7.90209 66.8327 7.78358 67.0178 7.59626L67.1597 7.44733L66.8708 2.19877L67.9699 2.60541L68.1515 6.46168L70.819 3.65953L71.8336 4.03489Z" fill="var(--fill-0, white)"/>
<path d="M77.0828 6.69115L74.851 10.9469L73.8522 10.4258L75.6409 7.01486L74.0429 6.18117L73.5599 7.00509C73.2379 7.55437 72.9367 7.99944 72.6562 8.34029C72.3838 8.6786 72.0958 8.9107 71.7924 9.03658C71.497 9.15993 71.1895 9.13824 70.8699 8.9715C70.7208 8.89369 70.5523 8.76859 70.3646 8.59621L70.8513 7.78442C70.9176 7.83927 70.9773 7.88059 71.0306 7.90838C71.233 8.01398 71.4266 8.01348 71.6114 7.90689C71.799 7.79499 71.9646 7.63442 72.1083 7.42516C72.26 7.21338 72.4566 6.90318 72.6981 6.49457L73.6309 4.89038L77.0828 6.69115Z" fill="var(--fill-0, white)"/>
<path d="M80.0642 10.5339C80.5679 10.8827 80.8742 11.2627 80.9831 11.674C81.097 12.0886 81.0099 12.5028 80.7218 12.9165C80.4201 13.3498 80.0388 13.5821 79.578 13.6133C79.1171 13.6445 78.6193 13.4713 78.0845 13.0936L76.2379 11.8038L78.9845 7.8589L79.9103 8.50013L79.0102 9.79292L80.0642 10.5339ZM78.4762 12.3575C78.7443 12.5506 78.9912 12.6376 79.2167 12.6185C79.4421 12.5995 79.6338 12.4767 79.7915 12.2502C79.9458 12.0286 79.9898 11.8182 79.9235 11.619C79.8573 11.4198 79.6852 11.2203 79.4071 11.0204L78.5679 10.4282L77.637 11.7654L78.4762 12.3575Z" fill="var(--fill-0, white)"/>
<path d="M86.1407 14.6789L84.8729 13.5699L82.3281 16.4639L81.4807 15.7227L84.0255 12.8286L82.751 11.7138L83.3812 10.997L86.771 13.9621L86.1407 14.6789Z" fill="var(--fill-0, white)"/>
<path d="M89.1704 16.4296C89.6459 16.9547 89.8814 17.4697 89.8769 17.9747C89.8809 18.4801 89.6285 18.9618 89.1199 19.4199L87.0253 21.3067L86.3121 20.5191L86.7471 20.1272C86.4983 20.1656 86.2448 20.1272 85.9868 20.0122C85.7373 19.8977 85.4916 19.7069 85.2499 19.4399C85.0081 19.1729 84.8412 18.8991 84.7491 18.6185C84.6615 18.3339 84.6477 18.0636 84.7075 17.8077C84.7759 17.5522 84.9127 17.332 85.1179 17.1471C85.4392 16.8578 85.8025 16.7447 86.2079 16.8077C86.6218 16.8712 87.0604 17.1588 87.5237 17.6705L88.3578 18.5916L88.4113 18.5434C88.6611 18.3183 88.7845 18.0699 88.7814 17.798C88.7822 17.5306 88.6497 17.2501 88.3838 16.9564C88.2025 16.7562 87.9919 16.5863 87.7522 16.4467C87.5165 16.3117 87.2824 16.2276 87.05 16.1946L87.3629 15.319C87.6749 15.3773 87.9876 15.5035 88.3012 15.6978C88.6148 15.892 88.9045 16.1359 89.1704 16.4296ZM86.016 19.0649C86.2054 19.274 86.4195 19.4165 86.6582 19.4923C86.9054 19.5685 87.1485 19.5597 87.3874 19.4657L87.8023 19.0919L87.0227 18.2309C86.5875 17.7503 86.2116 17.6527 85.8948 17.938C85.7431 18.0746 85.677 18.2432 85.6966 18.4437C85.7161 18.6443 85.8226 18.8513 86.016 19.0649Z" fill="var(--fill-0, white)"/>
<path d="M91.6792 26.1431L89.983 27.3178L89.3812 26.4535L90.2923 25.8225L87.8801 22.3578L91.8353 19.6185L92.4782 20.5419L89.3081 22.7375L90.6196 24.6213L93.7897 22.4257L94.4326 23.3491L91.2626 25.5447L91.6792 26.1431Z" fill="var(--fill-0, white)"/>
<path d="M95.7937 25.623L96.2975 26.6286L93.4581 28.0437L97.4866 29.002L97.9461 29.9191L93.6386 32.0659L93.1348 31.0603L95.9742 29.6452L91.9498 28.6949L91.4862 27.7697L95.7937 25.623Z" fill="var(--fill-0, white)"/>
<path d="M100.13 35.9437L95.5731 37.4949L95.2469 36.5416L96.6209 36.0739L96.2102 34.8737L94.5187 34.4136L94.1285 33.2731L96.0145 33.8285C96.0157 33.4606 96.1028 33.149 96.2759 32.8937C96.4566 32.6422 96.7204 32.4573 97.0675 32.3392C97.5909 32.161 98.058 32.2079 98.4686 32.4799C98.8793 32.7519 99.1953 33.2114 99.4167 33.8583L100.13 35.9437ZM98.5323 34.1973C98.2973 33.5107 97.921 33.2555 97.4032 33.4318C96.8912 33.6061 96.7488 34.0252 96.976 34.6891L97.3633 35.8212L98.908 35.2954L98.5323 34.1973Z" fill="var(--fill-0, white)"/>
</g>
</svg>
