<svg preserveAspectRatio="none" width="100%" height="100%" overflow="visible" style="display: block;" viewBox="0 0 32 22" fill="none" xmlns="http://www.w3.org/2000/svg">
<g id="Group 126">
<path id="Vector" d="M16 1.8537e-05C23.6307 1.8537e-05 30.031 4.91876 31.764 11.5463C31.9083 12.098 31.4756 12.6154 30.9054 12.6154C30.4708 12.6154 30.0996 12.3083 29.9876 11.8884C28.425 6.03173 22.7551 1.69233 16 1.69233C9.24485 1.69233 3.57502 6.03174 2.01237 11.8884C1.90034 12.3083 1.52918 12.6154 1.09462 12.6154C0.524409 12.6154 0.0917108 12.098 0.235968 11.5463C1.96904 4.91877 8.36936 1.8537e-05 16 1.8537e-05Z" fill="var(--fill-0, #0D0300)"/>
<path id="Vector_2" d="M19.6155 13.3847C16.8117 13.3847 14.5386 11.1117 14.5386 8.30782C14.5386 6.82089 13.4728 4.89647 12.1456 5.56698C9.29621 7.00653 7.30781 9.93208 7.30781 13.3075C7.30781 18.1081 11.1995 21.9998 16.0001 21.9998C20.8007 21.9998 24.6924 18.1081 24.6924 13.3075C24.6924 12.2496 23.2148 12.0405 22.3201 12.605C21.5371 13.0989 20.6097 13.3847 19.6155 13.3847Z" fill="var(--fill-0, #0D0300)"/>
</g>
</svg>
