<svg preserveAspectRatio="none" width="113.143" height="35.9533" overflow="visible" style="display: block;" viewBox="0 0 113.143 35.9533" fill="none" xmlns="http://www.w3.org/2000/svg">
<g id="Group 341">
<path id="Vector" d="M78.9926 5.63075C75.6683 1.89586 71.5548 0 66.757 0H17.1708C12.4376 0 8.33755 1.89069 4.98367 5.62558C1.67559 9.30882 0 12.8393 0 18C0 23.1606 1.67559 26.6444 4.98367 30.3277C8.33216 34.0574 12.4322 35.9533 17.1708 35.9533H66.757C71.5494 35.9533 75.6683 34.0574 78.9926 30.3226C82.2683 26.6393 83.9278 23.1552 83.9278 18C83.9278 12.8445 82.2683 9.31915 78.9926 5.63075Z" fill="var(--fill-0, white)"/>
<path id="Vector_2" d="M93.3643 14.6336C92.4188 15.1231 91.8019 16.2516 91.8019 17.4935L91.8019 17.6742C91.8019 18.9213 92.4188 20.0445 93.3643 20.534L109.549 28.9176C111.252 29.7988 113.143 28.2941 113.143 26.0578V9.10982C113.143 6.87351 111.246 5.36889 109.549 6.25003L93.3643 14.6336Z" fill="var(--fill-0, #FF5C00)"/>
</g>
</svg>
