<svg preserveAspectRatio="none" width="113.143" height="67.5535" overflow="visible" style="display: block;" viewBox="0 0 113.143 67.5535" fill="none" xmlns="http://www.w3.org/2000/svg">
<g id="Group 340">
<path id="Vector" d="M78.9926 5.63075C75.6683 1.89586 71.5548 0 66.757 0H17.1708C12.4376 0 8.33755 1.89069 4.98367 5.62558C1.67559 9.30882 0 13.7927 0 18.9534V48.6002C0 53.7608 1.67559 58.2446 4.98367 61.9279C8.33216 65.6576 12.4322 67.5535 17.1708 67.5535H66.757C71.5494 67.5535 75.6683 65.6576 78.9926 61.9228C82.2683 58.2395 83.9278 53.7554 83.9278 48.6002V18.9534C83.9278 13.7979 82.2683 9.31915 78.9926 5.63075ZM69.5074 19.3202V48.2281C69.5074 49.2509 69.1922 50.1033 68.5403 50.8316C67.9261 51.5187 67.2527 51.8339 66.431 51.8339H17.5075C16.6805 51.8339 16.0124 51.5135 15.3982 50.8316C14.7463 50.1084 14.4311 49.256 14.4311 48.2281V19.3202C14.4311 18.2922 14.7463 17.445 15.3982 16.7166C16.0124 16.0295 16.6859 15.7144 17.5075 15.7144H66.431C67.2527 15.7144 67.9261 16.0347 68.5403 16.7166C69.1922 17.4398 69.5074 18.2922 69.5074 19.3202Z" fill="var(--fill-0, white)"/>
<path id="Vector_2" d="M93.3643 24.6336C92.4188 25.1231 91.8019 26.2516 91.8019 27.4935V40.6742C91.8019 41.9213 92.4188 43.0445 93.3643 43.534L109.549 51.9176C111.252 52.7988 113.143 51.294 113.143 49.0578V19.1098C113.143 16.8735 111.246 15.3689 109.549 16.25L93.3643 24.6336Z" fill="var(--fill-0, #FF5C00)"/>
</g>
</svg>
