<svg preserveAspectRatio="none" width="396" height="70" overflow="visible" style="display: block;" viewBox="0 0 396 70" fill="none" xmlns="http://www.w3.org/2000/svg">
<g id="Group 138 1">
<path id="Vector" d="M167.889 5.63075C164.566 1.89586 160.451 0 155.655 0H106.069C101.335 0 97.2304 1.89069 93.8808 5.62558C90.5728 9.30882 88.898 13.7927 88.898 18.9534V48.6002C88.898 53.7608 90.5728 58.2395 93.8808 61.9279C97.2304 65.6576 101.329 67.5535 106.069 67.5535H155.655C160.446 67.5535 164.566 65.6576 167.889 61.9228C171.167 58.2395 172.826 53.7554 172.826 48.6002V18.9534C172.826 13.7979 171.167 9.31915 167.889 5.63075ZM158.405 19.3202V48.2281C158.405 49.256 158.089 50.1033 157.438 50.8316C156.823 51.5187 156.151 51.8339 155.329 51.8339H106.405C105.578 51.8339 104.911 51.5135 104.296 50.8316C103.645 50.1084 103.33 49.256 103.33 48.2281V19.3202C103.33 18.2922 103.645 17.445 104.296 16.7166C104.911 16.0295 105.583 15.7144 106.405 15.7144H155.329C156.156 15.7144 156.823 16.0347 157.438 16.7166C158.089 17.4398 158.405 18.2922 158.405 19.3202Z" fill="var(--fill-0, white)"/>
<path id="Vector_2" d="M361.85 5.63075C358.525 1.89586 354.412 0 349.614 0H300.028C295.295 0 291.195 1.89069 287.841 5.62558C284.533 9.30882 282.857 13.7927 282.857 18.9534V48.6002C282.857 53.7608 284.533 58.2446 287.841 61.9279C291.189 65.6576 295.289 67.5535 300.028 67.5535H349.614C354.407 67.5535 358.525 65.6576 361.85 61.9228C365.125 58.2395 366.785 53.7554 366.785 48.6002V18.9534C366.785 13.7979 365.125 9.31915 361.85 5.63075ZM352.365 19.3202V48.2281C352.365 49.2509 352.049 50.1033 351.397 50.8316C350.783 51.5187 350.11 51.8339 349.288 51.8339H300.365C299.538 51.8339 298.87 51.5135 298.255 50.8316C297.603 50.1084 297.288 49.256 297.288 48.2281V19.3202C297.288 18.2922 297.603 17.445 298.255 16.7166C298.87 16.0295 299.543 15.7144 300.365 15.7144H349.288C350.11 15.7144 350.783 16.0347 351.397 16.7166C352.049 17.4398 352.365 18.2922 352.365 19.3202Z" fill="var(--fill-0, white)"/>
<path id="Vector_3" d="M376.222 24.6337C375.276 25.1232 374.659 26.2516 374.659 27.4936V40.6743C374.659 41.9214 375.276 43.0446 376.222 43.5341L392.406 51.9177C394.109 52.7989 396 51.2941 396 49.0579V19.1099C396 16.8736 394.103 15.369 392.406 16.2501L376.222 24.6337Z" fill="var(--fill-0, #FF5C00)"/>
<path id="Vector_4" d="M205.366 8.34117C206.497 3.45795 210.849 0 215.864 0H257.265C263.216 0 268.041 4.82155 268.041 10.7692V62.1654C268.041 65.1393 265.629 67.55 262.653 67.55H259.028C256.053 67.55 253.641 65.1393 253.641 62.1654V18.2041C253.641 16.7172 252.435 15.5118 250.947 15.5118H220.328C219.083 15.5118 217.999 16.3654 217.709 17.5761L207.755 59.0501C206.593 63.893 202.26 67.3077 197.277 67.3077H188.613C185.646 67.3077 183.238 64.9113 183.225 61.9468L183.207 57.9083C183.194 54.9252 185.61 52.5 188.595 52.5H193C194.253 52.5 195.341 51.6355 195.624 50.4148L205.366 8.34117Z" fill="var(--fill-0, white)"/>
<path id="Vector_5" d="M77.0045 10.3349C77.0045 13.3059 74.5967 15.7154 71.624 15.7195L17.5076 15.7936C16.6857 15.7936 16.0128 16.1083 15.3977 16.7954C14.7466 17.5237 14.4323 18.3705 14.4322 19.3983V48.3065C14.4323 49.3341 14.7466 50.1862 15.3977 50.9094C16.0128 51.5913 16.6805 51.9109 17.5076 51.9109L71.6095 51.8369C74.5878 51.8328 77.0045 54.2449 77.0045 57.2215V62.1721C77.0045 65.1431 74.5967 67.5527 71.624 67.5567L17.1708 67.631C12.4313 67.631 8.33195 65.7365 4.98262 62.0071C1.6745 58.3189 0 53.8378 0 48.6772V19.0328C0 13.8722 1.6745 9.38598 4.98262 5.70274C8.33197 1.96837 12.4364 0.0788763 17.1708 0.0788763L71.6097 0.00711181C74.5881 0.00318559 77.0045 2.41511 77.0045 5.39172V10.3349Z" fill="var(--fill-0, white)"/>
</g>
</svg>
