<svg xmlns="http://www.w3.org/2000/svg" fill="none" viewBox="0 0 31 22" width="31" height="22">
  <path d="M15.5 0C22.892 0 29.093 4.765 30.771 11.186c.14.534-.279 1.035-.831 1.035-.421 0-.78-.297-.889-.704-1.514-5.674-7.007-9.878-13.551-9.878S6.463 5.843 4.95 11.517c-.109.407-.468.704-.889.704-.552 0-.971-.501-.831-1.035C1.908 4.765 8.108 0 15.5 0Z" fill="#fff"/>
  <path d="M19.002 12.967c-2.716 0-4.918-2.202-4.918-4.919 0-1.44-1.032-3.304-2.318-2.655-2.76 1.395-4.687 4.229-4.687 7.499 0 4.65 3.77 8.421 8.421 8.421 4.65 0 8.421-3.77 8.421-8.421 0-1.025-1.432-1.228-2.299-.681-.758.479-1.656.756-2.62.756Z" fill="#fff"/>
</svg>
