<svg width="31" height="21.3126" viewBox="0 0 31 21.3126" fill="none" xmlns="http://www.w3.org/2000/svg" preserveAspectRatio="xMidYMid meet">
<g id="Group 126">
<path id="Vector" d="M15.5 0C22.8923 0 29.0925 4.76503 30.7714 11.1855C30.9112 11.7199 30.492 12.2212 29.9396 12.2212C29.5186 12.2212 29.159 11.9236 29.0505 11.5169C27.5367 5.84322 22.044 1.63942 15.5 1.63942C8.95595 1.63942 3.4633 5.84323 1.94949 11.5169C1.84096 11.9236 1.48139 12.2212 1.06041 12.2212C0.508022 12.2212 0.0888448 11.7199 0.228594 11.1855C1.90751 4.76504 8.10782 0 15.5 0Z" fill="var(--fill-0, white)"/>
<path id="Vector_2" d="M19.0024 12.9667C16.2862 12.9667 14.0842 10.7647 14.0842 8.04845C14.0842 6.60798 13.0517 4.7437 11.766 5.39326C9.00562 6.78782 7.07937 9.62195 7.07937 12.8919C7.07937 17.5425 10.8494 21.3126 15.5 21.3126C20.1506 21.3126 23.9207 17.5425 23.9207 12.8919C23.9207 11.867 22.4893 11.6645 21.6225 12.2113C20.864 12.6898 19.9656 12.9667 19.0024 12.9667Z" fill="var(--fill-0, white)"/>
</g>
</svg>
