<svg preserveAspectRatio="xMidYMid meet" width="187" height="180" overflow="visible" style="display: block;" viewBox="0 0 187 180" fill="none" xmlns="http://www.w3.org/2000/svg">
<g id="Vector">
<path d="M182.852 97.3906C182.795 98.2089 182.567 98.9179 182.167 99.5176C181.779 100.118 181.26 100.569 180.61 100.87C179.96 101.182 179.231 101.31 178.422 101.254C177.592 101.196 176.866 100.951 176.246 100.518C175.637 100.087 175.179 99.5084 174.872 98.7838C174.565 98.0593 174.442 97.2502 174.505 96.3566C174.609 94.86 175.186 93.7371 176.235 92.9877C177.284 92.2383 178.741 91.9284 180.606 92.058C182.343 92.1785 183.692 92.6455 184.653 93.4587C185.615 94.272 186.205 95.4543 186.422 97.0056L187 101.07L185.168 101.235L184.677 97.5499C184.534 96.4905 184.222 95.6845 183.74 95.1317C183.259 94.579 182.552 94.227 181.62 94.0757C182.057 94.4955 182.38 94.9886 182.59 95.5549C182.81 96.122 182.897 96.7339 182.852 97.3906ZM176.135 96.5185C176.083 97.2614 176.279 97.8754 176.722 98.3605C177.175 98.8572 177.773 99.1314 178.517 99.183C179.261 99.2347 179.876 99.0448 180.361 98.6133C180.846 98.1925 181.114 97.6107 181.165 96.8678C181.218 96.1141 181.034 95.4901 180.613 94.9957C180.192 94.5013 179.61 94.2282 178.866 94.1766C178.111 94.1242 177.48 94.313 176.974 94.743C176.466 95.1837 176.187 95.7756 176.135 96.5185Z" fill="var(--fill-0, white)"/>
<path d="M176.489 111.889C176.352 111.861 176.158 111.81 175.908 111.737L177.283 105.094C176.634 105.081 176.074 105.28 175.603 105.69C175.141 106.112 174.834 106.688 174.683 107.417C174.49 108.347 174.639 109.177 175.128 109.906L173.686 110.716C173.309 110.242 173.065 109.69 172.952 109.06C172.839 108.431 172.859 107.752 173.01 107.022C173.202 106.092 173.557 105.311 174.074 104.68C174.591 104.048 175.218 103.604 175.955 103.349C176.701 103.106 177.492 103.071 178.328 103.243C179.154 103.413 179.857 103.751 180.436 104.257C181.024 104.775 181.435 105.405 181.668 106.147C181.9 106.889 181.93 107.678 181.757 108.513C181.587 109.337 181.25 110.034 180.746 110.602C180.25 111.183 179.632 111.585 178.89 111.806C178.158 112.041 177.357 112.069 176.489 111.889ZM180.17 108.185C180.301 107.551 180.222 106.973 179.933 106.45C179.652 105.941 179.209 105.574 178.604 105.35L177.61 110.154C178.241 110.196 178.793 110.039 179.263 109.685C179.734 109.33 180.036 108.83 180.17 108.185Z" fill="var(--fill-0, white)"/>
<path d="M170.165 117.1C170.455 116.252 170.894 115.552 171.482 115C172.071 114.448 172.747 114.091 173.51 113.929C174.284 113.77 175.075 113.829 175.883 114.104C176.691 114.38 177.348 114.815 177.853 115.409C178.358 116.003 178.676 116.693 178.807 117.479C178.935 118.275 178.852 119.102 178.559 119.96C178.283 120.767 177.878 121.416 177.345 121.907C176.808 122.408 176.18 122.707 175.462 122.805L175.105 121.041C175.564 120.935 175.947 120.735 176.253 120.44C176.566 120.159 176.794 119.809 176.937 119.39C177.182 118.675 177.149 118.003 176.839 117.372C176.539 116.746 176.001 116.3 175.223 116.035C174.446 115.77 173.743 115.787 173.115 116.086C172.494 116.399 172.06 116.918 171.812 117.644C171.669 118.062 171.63 118.477 171.696 118.887C171.768 119.311 171.953 119.704 172.251 120.068L170.889 121.246C170.383 120.721 170.067 120.094 169.939 119.366C169.817 118.652 169.893 117.896 170.165 117.1Z" fill="var(--fill-0, white)"/>
<path d="M172.223 133.976L164.464 130.141L165.356 128.342L171.575 131.416L173.467 127.6L167.247 124.526L168.147 122.713L175.906 126.548L172.223 133.976Z" fill="var(--fill-0, white)"/>
<path d="M165.75 143.88L158.584 139.027L159.722 137.352L165.465 141.242L167.285 138.562L165.908 137.532C164.99 136.845 164.255 136.217 163.702 135.646C163.152 135.091 162.795 134.53 162.631 133.963C162.471 133.411 162.573 132.867 162.937 132.331C163.107 132.081 163.365 131.806 163.712 131.507L165.067 132.541C164.955 132.648 164.869 132.746 164.808 132.835C164.577 133.175 164.539 133.52 164.692 133.872C164.854 134.229 165.108 134.558 165.453 134.857C165.801 135.171 166.317 135.585 166.999 136.099L169.681 138.092L165.75 143.88Z" fill="var(--fill-0, white)"/>
<path d="M161.279 149.388C160.438 150.346 159.565 150.873 158.659 150.971C157.755 151.083 156.84 150.734 155.914 149.923L152.098 146.582L153.36 145.146L154.152 145.839C154.032 145.404 154.047 144.944 154.199 144.46C154.352 143.991 154.643 143.513 155.07 143.026C155.498 142.539 155.954 142.184 156.437 141.962C156.928 141.746 157.409 141.665 157.88 141.718C158.352 141.787 158.775 141.985 159.148 142.312C159.733 142.824 160.012 143.449 159.984 144.185C159.956 144.936 159.533 145.778 158.713 146.711L157.238 148.391L157.335 148.476C157.79 148.875 158.261 149.043 158.747 148.98C159.226 148.926 159.701 148.631 160.171 148.096C160.492 147.73 160.752 147.32 160.952 146.863C161.145 146.414 161.246 145.98 161.257 145.558L162.89 145.933C162.851 146.502 162.69 147.086 162.408 147.685C162.125 148.285 161.749 148.853 161.279 149.388ZM155.902 144.314C155.567 144.695 155.356 145.107 155.27 145.548C155.186 146.005 155.252 146.437 155.47 146.843L156.226 147.505L157.605 145.935C158.375 145.058 158.471 144.368 157.894 143.862C157.618 143.62 157.302 143.538 156.947 143.615C156.592 143.691 156.244 143.924 155.902 144.314Z" fill="var(--fill-0, white)"/>
<path d="M149.414 158.462L151.665 156.433L147.014 151.29L148.518 149.934L153.169 155.076L155.431 153.036L156.583 154.31L150.566 159.735L149.414 158.462Z" fill="var(--fill-0, white)"/>
<path d="M148.241 161.541L146.581 162.701L144.563 159.823L140.99 162.32L143.007 165.198L141.347 166.358L136.382 159.276L138.043 158.115L140.004 160.914L143.578 158.417L141.616 155.619L143.277 154.458L148.241 161.541Z" fill="var(--fill-0, white)"/>
<path d="M135.176 169.872C134.046 170.462 133.041 170.64 132.161 170.405C131.277 170.184 130.55 169.529 129.979 168.439L127.627 163.949L129.322 163.064L129.81 163.996C129.855 163.546 130.036 163.123 130.353 162.726C130.665 162.344 131.108 162.003 131.683 161.703C132.258 161.402 132.811 161.235 133.342 161.202C133.878 161.177 134.356 161.275 134.776 161.494C135.191 161.728 135.514 162.065 135.744 162.505C136.105 163.193 136.139 163.876 135.847 164.552C135.55 165.243 134.851 165.876 133.75 166.451L131.767 167.487L131.827 167.601C132.108 168.137 132.486 168.463 132.962 168.58C133.428 168.702 133.978 168.598 134.61 168.268C135.041 168.042 135.432 167.753 135.783 167.399C136.125 167.05 136.377 166.681 136.539 166.292L137.927 167.229C137.685 167.746 137.324 168.233 136.844 168.69C136.364 169.148 135.808 169.542 135.176 169.872ZM131.993 163.203C131.543 163.438 131.198 163.746 130.959 164.127C130.714 164.523 130.621 164.949 130.677 165.407L131.143 166.296L132.997 165.328C134.031 164.788 134.371 164.178 134.015 163.499C133.845 163.174 133.58 162.983 133.221 162.927C132.862 162.871 132.453 162.963 131.993 163.203Z" fill="var(--fill-0, white)"/>
<path d="M120.91 175.811L117.899 167.706L119.602 167.076L120.509 169.519L122.653 168.725L123.402 165.668L125.439 164.914L124.527 168.325C125.19 168.309 125.756 168.451 126.224 168.749C126.686 169.062 127.032 169.527 127.261 170.144C127.607 171.075 127.545 171.915 127.074 172.665C126.603 173.415 125.79 174.004 124.635 174.432L120.91 175.811ZM123.982 172.861C125.208 172.407 125.65 171.719 125.308 170.798C124.97 169.888 124.208 169.652 123.022 170.091L121 170.84L122.021 173.587L123.982 172.861Z" fill="var(--fill-0, white)"/>
<path d="M107.412 173.643L108.962 173.378L108.377 169.963L110.375 169.622L111.834 178.143L109.837 178.484L109.246 175.038L107.648 175.31L105.713 179.188L103.572 179.554L105.97 174.924L101.905 171.068L104.254 170.667L107.412 173.643Z" fill="var(--fill-0, white)"/>
<path d="M96.458 171.147C97.3329 171.113 98.1287 171.271 98.8453 171.622C99.562 171.972 100.133 172.474 100.559 173.127C100.974 173.792 101.198 174.55 101.231 175.402C101.264 176.254 101.099 177.022 100.736 177.705C100.362 178.389 99.8312 178.934 99.1437 179.338C98.4563 179.743 97.6751 179.962 96.8002 179.995C95.9145 180.03 95.1133 179.871 94.3966 179.521C93.6799 179.171 93.1142 178.669 92.6995 178.015C92.274 177.362 92.0448 176.609 92.0118 175.757C91.9789 174.905 92.1491 174.132 92.5225 173.437C92.8855 172.753 93.4107 172.209 94.0982 171.805C94.7857 171.4 95.5723 171.181 96.458 171.147ZM96.5249 172.878C95.7796 172.906 95.1735 173.178 94.7067 173.693C94.2398 174.208 94.022 174.87 94.0533 175.679C94.0846 176.487 94.3528 177.13 94.8581 177.608C95.3633 178.085 95.9886 178.309 96.7339 178.281C97.4791 178.252 98.0852 177.98 98.5521 177.465C99.0082 176.951 99.2206 176.289 99.1893 175.48C99.158 174.672 98.8951 174.028 98.4007 173.551C97.8955 173.073 97.2702 172.849 96.5249 172.878Z" fill="var(--fill-0, white)"/>
<path d="M88.2924 179.882L86.2751 179.688L86.6137 176.191L82.2724 175.772L81.9338 179.268L79.9164 179.074L80.7498 170.469L82.7671 170.664L82.4378 174.064L86.7791 174.483L87.1084 171.083L89.1258 171.278L88.2924 179.882Z" fill="var(--fill-0, white)"/>
<path d="M73.9787 168.856C74.8522 169.06 75.593 169.428 76.2011 169.958C76.8093 170.489 77.2315 171.125 77.4678 171.868C77.7016 172.621 77.721 173.413 77.526 174.243C77.3309 175.073 76.9622 175.768 76.4198 176.328C75.8773 176.888 75.2209 177.272 74.4504 177.48C73.6695 177.685 72.837 177.684 71.953 177.477C71.1216 177.282 70.435 176.944 69.8931 176.462C69.3407 175.978 68.9807 175.384 68.8132 174.679L70.5359 174.152C70.6866 174.597 70.9239 174.958 71.2478 175.233C71.5587 175.517 71.9299 175.709 72.3613 175.81C73.098 175.982 73.7651 175.884 74.3628 175.514C74.958 175.154 75.3494 174.575 75.537 173.777C75.7247 172.978 75.6385 172.282 75.2785 171.688C74.9055 171.101 74.3454 170.721 73.5983 170.546C73.1668 170.445 72.7499 170.447 72.3477 170.552C71.9325 170.666 71.5581 170.888 71.2248 171.22L69.9167 169.983C70.3911 169.429 70.9847 169.052 71.6976 168.853C72.3975 168.663 73.1579 168.663 73.9787 168.856Z" fill="var(--fill-0, white)"/>
<path d="M57.8932 172.83L64.8919 165.427C65.568 164.673 66.2246 164.21 66.8616 164.039C67.5023 163.857 68.1835 163.897 68.905 164.158C69.3115 164.305 69.689 164.517 70.0374 164.792C70.3859 165.067 70.6448 165.367 70.8141 165.693L69.5437 166.817C69.4234 166.579 69.2597 166.364 69.0526 166.175C68.8354 165.981 68.5997 165.839 68.3457 165.747C68.0103 165.625 67.7046 165.612 67.4286 165.707C67.1424 165.799 66.8342 166.015 66.5039 166.354L66.2507 166.624L66.8413 176.068L64.8596 175.35L64.4809 168.412L59.7225 173.492L57.8932 172.83Z" fill="var(--fill-0, white)"/>
<path d="M48.6066 168.136L52.5626 160.447L54.3654 161.371L51.1947 167.534L54.0792 169.014L54.9366 167.524C55.5082 166.531 56.0439 165.726 56.5437 165.109C57.029 164.496 57.5436 164.075 58.0875 163.844C58.6169 163.618 59.1701 163.653 59.747 163.949C60.0162 164.087 60.3208 164.31 60.6607 164.618L59.7962 166.086C59.6765 165.988 59.5685 165.914 59.4723 165.865C59.107 165.677 58.7589 165.681 58.428 165.875C58.0922 166.079 57.7966 166.37 57.5411 166.749C57.271 167.132 56.9216 167.693 56.493 168.432L54.8371 171.332L48.6066 168.136Z" fill="var(--fill-0, white)"/>
<path d="M43.2418 161.235C42.3316 160.614 41.7759 159.934 41.5746 159.195C41.3644 158.451 41.5156 157.704 42.028 156.956C42.5648 156.171 43.2473 155.748 44.0755 155.686C44.9038 155.624 45.8011 155.929 46.7677 156.602L50.1049 158.899L45.2186 166.036L43.5454 164.894L45.1467 162.555L43.2418 161.235ZM46.0731 157.932C45.5884 157.588 45.1435 157.435 44.7383 157.472C44.3331 157.509 43.9902 157.733 43.7096 158.143C43.4351 158.543 43.3587 158.923 43.4805 159.28C43.6022 159.638 43.9144 159.995 44.4169 160.351L45.9337 161.406L47.5899 158.987L46.0731 157.932Z" fill="var(--fill-0, white)"/>
<path d="M32.247 153.791L34.541 155.771L39.0787 150.528L40.6121 151.852L36.0744 157.094L38.3807 159.084L37.2569 160.382L31.1232 155.09L32.247 153.791Z" fill="var(--fill-0, white)"/>
<path d="M27.052 150.915C26.1902 149.976 25.7601 149.052 25.7616 148.143C25.7478 147.233 26.1951 146.363 27.1036 145.531L30.8452 142.108L32.1378 143.516L31.3608 144.227C31.8077 144.155 32.2638 144.221 32.7293 144.424C33.1794 144.627 33.6236 144.968 34.0618 145.445C34.5 145.922 34.8037 146.413 34.9729 146.917C35.1342 147.428 35.1627 147.914 35.0583 148.376C34.9388 148.837 34.6957 149.235 34.3291 149.57C33.7553 150.095 33.1035 150.304 32.3738 150.195C31.6288 150.087 30.8364 149.575 29.9966 148.66L28.4849 147.012L28.3892 147.1C27.9429 147.508 27.7244 147.957 27.7336 148.446C27.7356 148.928 27.9775 149.431 28.4595 149.956C28.7881 150.314 29.1689 150.617 29.6018 150.865C30.0274 151.105 30.4493 151.254 30.8677 151.31L30.3166 152.89C29.7549 152.789 29.1908 152.566 28.6245 152.221C28.0581 151.875 27.534 151.44 27.052 150.915ZM32.6892 146.13C32.3459 145.756 31.9592 145.502 31.5289 145.369C31.0834 145.235 30.6465 145.254 30.2182 145.427L29.477 146.105L30.8901 147.644C31.6788 148.504 32.3561 148.674 32.9219 148.157C33.1929 147.909 33.3095 147.605 33.2717 147.244C33.2339 146.883 33.0397 146.512 32.6892 146.13Z" fill="var(--fill-0, white)"/>
<path d="M22.2926 133.287L25.3268 131.15L26.4202 132.698L24.7905 133.846L29.1734 140.05L22.0979 145.033L20.9298 143.379L26.6007 139.386L24.2177 136.012L18.5468 140.006L17.3786 138.352L23.0496 134.358L22.2926 133.287Z" fill="var(--fill-0, white)"/>
<path d="M15.0287 134.452L14.1094 132.649L19.1957 130.064L11.9397 128.393L11.1013 126.748L18.8175 122.826L19.7368 124.63L14.6505 127.215L21.8992 128.872L22.745 130.531L15.0287 134.452Z" fill="var(--fill-0, white)"/>
<path d="M7.06189 115.833L15.2348 112.979L15.8342 114.69L13.3701 115.551L14.1248 117.705L17.1723 118.511L17.8896 120.558L14.4909 119.584C14.4938 120.246 14.3414 120.808 14.0336 121.27C13.7121 121.725 13.2402 122.062 12.6178 122.279C11.6791 122.607 10.8387 122.529 10.0966 122.045C9.35446 121.561 8.78001 120.738 8.37323 119.577L7.06189 115.833ZM9.95885 118.954C10.3906 120.187 11.0707 120.641 11.9992 120.317C12.9176 119.996 13.168 119.24 12.7505 118.048L12.0386 116.016L9.26839 116.983L9.95885 118.954Z" fill="var(--fill-0, white)"/>
<path d="M4.13404 82.3036C4.19419 81.4856 4.4251 80.7775 4.82676 80.1793C5.21764 79.5803 5.73837 79.1315 6.38896 78.8329C7.04033 78.5235 7.77028 78.3985 8.5788 78.4578C9.40888 78.5186 10.1331 78.7665 10.7514 79.2014C11.3589 79.6355 11.8149 80.2154 12.1192 80.9412C12.4235 81.6669 12.5428 82.4764 12.4771 83.3698C12.367 84.8659 11.7861 85.9867 10.7341 86.732C9.68217 87.4773 8.22371 87.7816 6.35872 87.6449C4.62309 87.5177 3.27592 87.0455 2.31719 86.2286C1.35846 85.4116 0.773588 84.227 0.562579 82.6749L0 78.608L1.83246 78.4502L2.30915 82.1374C2.44798 83.1973 2.75712 84.0045 3.23658 84.5591C3.71604 85.1137 4.42155 85.4684 5.3531 85.6233C4.91804 85.2018 4.59672 84.7075 4.38915 84.1404C4.17079 83.5725 4.08575 82.9602 4.13404 82.3036ZM10.8474 83.2016C10.902 82.4589 10.7088 81.8442 10.2677 81.3573C9.81663 80.8589 9.21918 80.5825 8.47534 80.5279C7.7315 80.4734 7.11617 80.661 6.62937 81.0906C6.14335 81.5095 5.87303 82.0903 5.81842 82.8329C5.76301 83.5864 5.94467 84.2111 6.36341 84.7072C6.78214 85.2032 7.36343 85.4785 8.10727 85.533C8.86189 85.5883 9.49338 85.402 10.0018 84.9739C10.5109 84.5351 10.7928 83.9443 10.8474 83.2016Z" fill="var(--fill-0, white)"/>
<path d="M10.6266 67.551C10.764 67.5804 10.9573 67.6328 11.2064 67.7083L9.78099 74.3404C10.4295 74.358 10.9909 74.1636 11.4651 73.7575C11.931 73.3385 12.2422 72.765 12.3987 72.0369C12.5983 71.1083 12.4562 70.2775 11.9725 69.5447L13.4211 68.7458C13.7939 69.223 14.0342 69.7767 14.142 70.4069C14.2498 71.0371 14.2254 71.7163 14.0689 72.4444C13.8694 73.373 13.5086 74.1512 12.9868 74.7789C12.4649 75.4067 11.8344 75.8456 11.0952 76.0956C10.3478 76.3329 9.55656 76.362 8.72163 76.1831C7.89727 76.0065 7.19715 75.6633 6.62127 75.1536C6.03709 74.6311 5.63148 73.9978 5.40446 73.2537C5.17743 72.5097 5.1535 71.7208 5.33267 70.8872C5.50957 70.0641 5.85214 69.3703 6.36039 68.8059C6.86034 68.2286 7.48178 67.832 8.22472 67.6158C8.95935 67.3869 9.75999 67.3653 10.6266 67.551ZM6.91798 71.2268C6.7819 71.86 6.85647 72.4389 7.14169 72.9636C7.41861 73.4755 7.85864 73.8458 8.46179 74.0743L9.49256 69.2783C8.86143 69.2314 8.30914 69.3835 7.83568 69.7346C7.36222 70.0857 7.05632 70.5832 6.91798 71.2268Z" fill="var(--fill-0, white)"/>
<path d="M16.9562 62.4675C16.66 63.3131 16.2156 64.0097 15.623 64.5574C15.0303 65.1051 14.3517 65.4569 13.5871 65.613C12.8122 65.7655 12.0218 65.701 11.2157 65.4195C10.4097 65.1381 9.75634 64.6984 9.25576 64.1006C8.75517 63.5028 8.44229 62.8104 8.31711 62.0235C8.1955 61.2264 8.28456 60.4 8.5843 59.5443C8.86619 58.7395 9.27565 58.0935 9.81269 57.6065C10.3533 57.1092 10.9832 56.8147 11.7025 56.7228L12.0457 58.4891C11.5861 58.5916 11.2021 58.789 10.8935 59.0815C10.5783 59.3602 10.3476 59.7083 10.2013 60.126C9.9515 60.8392 9.97922 61.512 10.2844 62.1445C10.5794 62.7735 11.1147 63.2233 11.8901 63.4941C12.6656 63.7648 13.3683 63.753 13.9982 63.4584C14.6215 63.1501 15.0598 62.6343 15.3132 61.911C15.4595 61.4933 15.5014 61.0792 15.4391 60.6687C15.3701 60.2444 15.1879 59.8492 14.8925 59.4831L16.2634 58.3153C16.765 58.8449 17.0771 59.4741 17.1997 60.203C17.3156 60.918 17.2345 61.6729 16.9562 62.4675Z" fill="var(--fill-0, white)"/>
<path d="M14.9688 45.6494L22.6995 49.5422L21.7942 51.3346L15.598 48.2145L13.6778 52.0161L19.8739 55.1362L18.9613 56.943L11.2306 53.0502L14.9688 45.6494Z" fill="var(--fill-0, white)"/>
<path d="M21.4708 35.8078L28.6006 40.7126L27.4507 42.3789L21.7362 38.4478L19.8964 41.114L21.2656 42.1542C22.1785 42.8477 22.9094 43.4816 23.4582 44.0558C24.0044 44.6149 24.357 45.1787 24.5162 45.7469C24.6726 46.3001 24.5669 46.8433 24.1989 47.3766C24.0272 47.6254 23.7666 47.8984 23.4173 48.1954L22.0706 47.151C22.1831 47.0449 22.2701 46.9475 22.3314 46.8586C22.5644 46.5209 22.6057 46.1757 22.4552 45.8232C22.2958 45.4645 22.0445 45.1343 21.7013 44.8327C21.3554 44.5161 20.8431 44.0981 20.1644 43.5788L17.4968 41.5668L21.4708 35.8078Z" fill="var(--fill-0, white)"/>
<path d="M25.8929 30.3869C26.7409 29.4356 27.6178 28.9145 28.5236 28.8236C29.4285 28.7175 30.3412 29.0734 31.2617 29.8914L35.0527 33.2601L33.7808 34.6871L32.9935 33.9875C33.1108 34.4241 33.0917 34.8838 32.9361 35.3668C32.7796 35.8346 32.4858 36.3103 32.0546 36.7941C31.6234 37.2778 31.1654 37.6293 30.6805 37.8486C30.1876 38.0607 29.7059 38.1384 29.2356 38.0816C28.7644 38.0096 28.343 37.8086 27.9716 37.4786C27.3902 36.962 27.1164 36.3358 27.1501 35.5999C27.1828 34.8489 27.6124 34.0098 28.4388 33.0826L29.9264 31.4138L29.8295 31.3277C29.3773 30.9259 28.9079 30.7544 28.4214 30.8133C27.942 30.864 27.4652 31.1555 26.9909 31.6876C26.6675 32.0504 26.4042 32.4594 26.2011 32.9146C26.0051 33.3617 25.9003 33.7959 25.8865 34.2171L24.2562 33.8303C24.2996 33.2621 24.4647 32.6791 24.7514 32.0815C25.0381 31.4838 25.4186 30.919 25.8929 30.3869ZM31.2327 35.5002C31.5704 35.1213 31.7839 34.7114 31.873 34.2705C31.9613 33.8143 31.8978 33.3823 31.6826 32.9744L30.9317 32.3071L29.5411 33.8671C28.765 34.7378 28.6636 35.4279 29.2369 35.9373C29.5114 36.1813 29.8265 36.2661 30.182 36.192C30.5375 36.1178 30.8877 35.8872 31.2327 35.5002Z" fill="var(--fill-0, white)"/>
<path d="M38.0295 21.1652L35.7646 23.1778L40.3782 28.3537L38.8642 29.699L34.2506 24.5232L31.9736 26.5465L30.831 25.2647L36.8869 19.8833L38.0295 21.1652Z" fill="var(--fill-0, white)"/>
<path d="M39.1647 18.1325L40.8336 16.9843L42.8299 19.8772L46.4214 17.4064L44.4252 14.5136L46.0942 13.3654L51.0066 20.4842L49.3376 21.6323L47.3966 18.8195L43.805 21.2902L45.746 24.1031L44.0771 25.2512L39.1647 18.1325Z" fill="var(--fill-0, white)"/>
<path d="M52.0555 10.0035C53.1901 9.42165 54.1962 9.25144 55.0739 9.49292C55.9562 9.71986 56.6789 10.3805 57.2419 11.475L59.5607 15.9822L57.8588 16.855L57.3773 15.919C57.329 16.3685 57.1451 16.7904 56.8254 17.1848C56.5105 17.5647 56.0646 17.9026 55.4877 18.1985C54.9108 18.4944 54.3566 18.6573 53.8252 18.6872C53.2888 18.7075 52.8115 18.6065 52.3933 18.3841C51.9798 18.1473 51.6595 17.8081 51.4323 17.3664C51.0767 16.6752 51.0475 15.9926 51.3447 15.3184C51.6466 14.6297 52.3504 14.0018 53.4562 13.4347L55.4465 12.414L55.3872 12.2988C55.1106 11.7611 54.7348 11.4322 54.2597 11.3118C53.7943 11.1866 53.2442 11.2866 52.6097 11.6121C52.177 11.834 51.7837 12.1207 51.4298 12.472C51.0855 12.8185 50.8308 13.1857 50.6658 13.5736L49.285 12.6256C49.5308 12.1113 49.8953 11.6271 50.3787 11.1729C50.862 10.7188 51.4209 10.329 52.0555 10.0035ZM55.1885 16.6958C55.6404 16.464 55.9876 16.1586 56.23 15.7794C56.4771 15.3858 56.574 14.96 56.5207 14.502L56.0614 13.6092L54.2009 14.5634C53.1624 15.0959 52.8186 15.703 53.1692 16.3846C53.3371 16.711 53.6003 16.9037 53.9587 16.9625C54.3171 17.0214 54.727 16.9325 55.1885 16.6958Z" fill="var(--fill-0, white)"/>
<path d="M66.4892 4.07768L69.4394 12.2052L67.7321 12.823L66.8427 10.3726L64.6933 11.1504L63.9212 14.2021L61.8786 14.9412L62.8159 11.537C62.1528 11.5474 61.5882 11.4015 61.1222 11.0995C60.6626 10.7837 60.3205 10.3163 60.0958 9.69734C59.757 8.76384 59.8257 7.92391 60.3021 7.17754C60.7785 6.43117 61.596 5.84837 62.7545 5.42914L66.4892 4.07768ZM63.3956 7.00519C62.1659 7.45016 61.7187 8.13432 62.0539 9.05767C62.3853 9.97087 63.1456 10.2123 64.3346 9.78209L66.362 9.04844L65.362 6.2936L63.3956 7.00519Z" fill="var(--fill-0, white)"/>
<path d="M79.9501 6.31097L78.3979 6.56377L78.9565 9.983L76.9562 10.3088L75.5623 1.77666L77.5627 1.4509L78.1264 4.90208L79.7267 4.64147L81.6913 0.77852L83.8356 0.429302L81.4019 5.04116L85.4375 8.92752L83.0851 9.31062L79.9501 6.31097Z" fill="var(--fill-0, white)"/>
<path d="M91.0483 8.85401C90.1732 8.881 89.3786 8.71654 88.6647 8.36064C87.9507 8.00473 87.3835 7.49854 86.9631 6.84204C86.5531 6.17443 86.335 5.41452 86.3086 4.56231C86.2822 3.7101 86.4532 2.94359 86.8214 2.26278C87.2005 1.58163 87.7353 1.04145 88.4259 0.64223C89.1165 0.243013 89.8994 0.0299099 90.7745 0.00292174C91.6605 -0.0243996 92.4604 0.139891 93.1743 0.495794C93.8883 0.851697 94.4501 1.35806 94.8597 2.01489C95.2802 2.67138 95.5036 3.42573 95.5299 4.27794C95.5563 5.13014 95.3801 5.90222 95.0014 6.59415C94.6331 7.27497 94.1037 7.81498 93.4131 8.2142C92.7225 8.61342 91.9343 8.82669 91.0483 8.85401ZM90.9948 7.12263C91.7402 7.09964 92.3484 6.83253 92.8192 6.32132C93.2901 5.8101 93.513 5.14997 93.488 4.34091C93.4629 3.53185 93.1996 2.88671 92.6981 2.40548C92.1966 1.92425 91.5731 1.69513 90.8276 1.71812C90.0821 1.74111 89.4739 2.00822 89.0031 2.51943C88.5431 3.03031 88.3256 3.69028 88.3506 4.49934C88.3756 5.3084 88.6335 5.95371 89.1242 6.43527C89.6258 6.9165 90.2493 7.14562 90.9948 7.12263Z" fill="var(--fill-0, white)"/>
<path d="M98.7813 0.116733L100.797 0.326998L100.432 3.82097L104.769 4.27346L105.135 0.779488L107.151 0.989754L106.251 9.58781L104.235 9.37755L104.591 5.98019L100.253 5.5277L99.8975 8.92506L97.8817 8.71479L98.7813 0.116733Z" fill="var(--fill-0, white)"/>
<path d="M113.525 11.2995C112.654 11.0883 111.916 10.7152 111.312 10.1801C110.707 9.64506 110.29 9.00532 110.059 8.26088C109.831 7.50596 109.818 6.71422 110.019 5.88565C110.221 5.05708 110.595 4.36474 111.141 3.80863C111.688 3.25252 112.347 2.87364 113.119 2.67197C113.902 2.47285 114.734 2.48018 115.617 2.69395C116.447 2.895 117.131 3.23841 117.669 3.72419C118.218 4.21251 118.573 4.80949 118.735 5.51513L117.008 6.02967C116.861 5.58307 116.627 5.22084 116.305 4.94298C115.996 4.65718 115.626 4.4621 115.196 4.35776C114.46 4.17962 113.793 4.27324 113.192 4.63863C112.594 4.99353 112.198 5.56954 112.005 6.36664C111.811 7.16375 111.892 7.86079 112.247 8.45777C112.616 9.04681 113.173 9.43167 113.919 9.61236C114.349 9.71671 114.766 9.71775 115.169 9.61549C115.585 9.50528 115.961 9.28542 116.297 8.95589L117.596 10.2034C117.117 10.7538 116.521 11.1257 115.806 11.3191C115.105 11.5046 114.345 11.498 113.525 11.2995Z" fill="var(--fill-0, white)"/>
<path d="M129.162 7.26279L122.108 14.6131C121.426 15.362 120.766 15.8197 120.128 15.9862C119.486 16.1628 118.805 16.1179 118.086 15.8514C117.68 15.7012 117.304 15.4872 116.958 15.2093C116.612 14.9313 116.355 14.6291 116.188 14.3025L117.467 13.1876C117.585 13.4272 117.748 13.6426 117.953 13.8339C118.169 14.0289 118.403 14.1734 118.657 14.2672C118.991 14.3911 119.297 14.4064 119.574 14.3132C119.86 14.2238 120.17 14.0104 120.503 13.6733L120.758 13.4052L120.239 3.95779L122.215 4.68973L122.542 11.631L127.338 6.58715L129.162 7.26279Z" fill="var(--fill-0, white)"/>
<path d="M138.601 12.0441L134.588 19.7043L132.792 18.7664L136.008 12.6267L133.135 11.1261L132.266 12.6092C131.687 13.5979 131.146 14.399 130.641 15.0125C130.152 15.6215 129.634 16.0393 129.088 16.2659C128.557 16.4879 128.004 16.4488 127.43 16.1487C127.161 16.0086 126.858 15.7835 126.521 15.4732L127.396 14.012C127.515 14.1107 127.623 14.1851 127.718 14.2351C128.082 14.4252 128.431 14.4243 128.763 14.2324C129.1 14.031 129.398 13.7419 129.656 13.3653C129.929 12.9841 130.283 12.4257 130.717 11.6902L132.394 8.80268L138.601 12.0441Z" fill="var(--fill-0, white)"/>
<path d="M143.962 18.961C144.867 19.5889 145.418 20.2729 145.614 21.0131C145.819 21.7595 145.662 22.505 145.144 23.2496C144.602 24.0297 143.916 24.4479 143.087 24.504C142.259 24.5602 141.364 24.2483 140.402 23.5685L137.082 21.2468L142.02 14.146L143.685 15.3002L142.066 17.6273L143.962 18.961ZM141.106 22.2436C141.588 22.591 142.032 22.7476 142.438 22.7134C142.843 22.6791 143.188 22.4581 143.471 22.0503C143.749 21.6514 143.828 21.2727 143.709 20.9142C143.59 20.5556 143.28 20.1965 142.78 19.8368L141.271 18.7708L139.597 21.1776L141.106 22.2436Z" fill="var(--fill-0, white)"/>
<path d="M154.888 26.422L152.608 24.4259L148.032 29.6351L146.509 28.3008L151.084 23.0915L148.793 21.0848L149.926 19.7946L156.021 25.1318L154.888 26.422Z" fill="var(--fill-0, white)"/>
<path d="M160.335 29.5733C161.19 30.5185 161.614 31.4455 161.606 32.3544C161.613 33.2641 161.159 34.1313 160.244 34.9559L156.478 38.352L155.196 36.9343L155.978 36.229C155.531 36.298 155.075 36.229 154.611 36.022C154.162 35.8158 153.721 35.4724 153.286 34.9918C152.851 34.5112 152.551 34.0184 152.385 33.5133C152.228 33.0009 152.203 32.5144 152.311 32.0538C152.434 31.5939 152.68 31.1976 153.049 30.8649C153.626 30.3441 154.279 30.1404 155.008 30.2539C155.753 30.3681 156.541 30.8858 157.374 31.8069L158.874 33.4649L158.97 33.3781C159.42 32.973 159.641 32.5258 159.636 32.0365C159.637 31.5552 159.399 31.0502 158.921 30.5215C158.595 30.1611 158.216 29.8553 157.785 29.6041C157.361 29.361 156.941 29.2097 156.523 29.1502L157.085 27.5741C157.646 27.6791 158.209 27.9064 158.772 28.256C159.336 28.6056 159.857 29.0447 160.335 29.5733ZM154.663 34.3168C155.004 34.6933 155.389 34.9497 155.818 35.0862C156.263 35.2234 156.7 35.2074 157.129 35.0382L157.875 34.3655L156.473 32.8156C155.691 31.9506 155.015 31.7748 154.445 32.2884C154.173 32.5343 154.054 32.8378 154.089 33.1987C154.124 33.5597 154.316 33.9324 154.663 34.3168Z" fill="var(--fill-0, white)"/>
<path d="M164.846 47.0575L161.796 49.172L160.714 47.6162L162.352 46.4805L158.015 40.2441L165.127 35.3133L166.283 36.9754L160.583 40.9274L162.941 44.3183L168.641 40.3662L169.797 42.0284L164.097 45.9804L164.846 47.0575Z" fill="var(--fill-0, white)"/>
<path d="M172.244 46.1213L173.15 47.9315L168.045 50.4787L175.288 52.2036L176.115 53.8545L168.369 57.7186L167.464 55.9085L172.569 53.3613L165.333 51.6509L164.499 49.9855L172.244 46.1213Z" fill="var(--fill-0, white)"/>
<path d="M180.042 64.6986L171.848 67.4908L171.261 65.7749L173.732 64.933L172.993 62.7727L169.952 61.9446L169.25 59.8915L172.641 60.8913C172.644 60.2291 172.8 59.6683 173.111 59.2087C173.436 58.7559 173.911 58.4231 174.535 58.2105C175.476 57.8898 176.316 57.9742 177.054 58.4639C177.793 58.9535 178.361 59.7805 178.759 60.9449L180.042 64.6986ZM177.169 61.5552C176.746 60.3193 176.069 59.86 175.139 60.1772C174.218 60.4909 173.962 61.2453 174.37 62.4404L175.067 64.4781L177.844 63.5316L177.169 61.5552Z" fill="var(--fill-0, white)"/>
</g>
</svg>
