<svg preserveAspectRatio="xMidYMid meet" width="100%" height="100%" overflow="visible" style="display: block;" viewBox="0 0 49.9972 50" fill="none" xmlns="http://www.w3.org/2000/svg">
<g id="Group">
<path id="Vector" fill-rule="evenodd" clip-rule="evenodd" d="M48.0991 1.61551e-06L1.89805 1.61551e-06C0.849738 1.61551e-06 0 0.849816 0 1.89815L0 48.1023C0 49.1507 0.849738 50 1.89805 50H48.0991C49.1474 50 49.9972 49.1507 49.9972 48.1023V1.89815C49.9972 0.849816 49.1474 1.61551e-06 48.0991 1.61551e-06Z" fill="var(--fill-0, white)"/>
<g id="Group_2">
<path id="Vector_2" d="M39.2043 34.2742H35.271C35.1025 34.2742 34.9661 34.1402 34.9661 33.9752V16.0276C34.9661 15.8639 35.1025 15.73 35.271 15.73H39.2043C39.3713 15.73 39.5096 15.864 39.5096 16.0276V33.9752C39.5096 34.1402 39.3713 34.2742 39.2043 34.2742ZM25.7741 34.2742H10.7913C10.6228 34.2742 10.4874 34.1402 10.4874 33.9752V16.0276C10.4874 15.8639 10.6228 15.73 10.7913 15.73H14.7256C14.8931 15.73 15.0318 15.864 15.0318 16.0276V30.1138C15.0318 30.2764 15.1672 30.4114 15.3356 30.4114H23.8105C26.1937 30.4114 26.8702 28.586 26.8702 27.4084V16.0276C26.8702 15.8639 27.007 15.73 27.1755 15.73H31.1074C31.2749 15.73 31.4122 15.864 31.4122 16.0276V28.7596C31.4122 29.8099 31.2859 31.32 29.9309 32.6493C28.5132 34.0369 27.22 34.2742 25.7741 34.2742Z" fill="var(--fill-0, #FF5C00)"/>
<path id="Vector_3" d="M23.018 27.1257H18.8875C18.7191 27.1257 18.5808 26.9917 18.5808 26.8276V16.0263C18.5808 15.8631 18.7191 15.7291 18.8875 15.7291H23.018C23.185 15.7291 23.3218 15.8631 23.3218 16.0263V26.8276C23.3218 26.9918 23.185 27.1257 23.018 27.1257Z" fill="var(--fill-0, #FF5C00)"/>
</g>
</g>
</svg>
