<svg preserveAspectRatio="xMidYMid meet" width="100%" height="100%" overflow="visible" style="display: block;" viewBox="0 0 272 40" fill="none" xmlns="http://www.w3.org/2000/svg">
<g id="Layer_1" clip-path="url(#clip0_0_89)">
<path id="Vector" d="M268.303 20.5875C267.487 22.1011 265.972 23.0431 264.351 23.0431C261.936 23.0431 259.944 21.0214 259.796 18.4493V18.3646C259.785 18.2906 259.785 18.227 259.785 18.153C259.785 17.3273 259.976 16.5123 260.347 15.7925C261.152 14.226 262.688 13.2522 264.351 13.2522C266.014 13.2522 267.529 14.2154 268.345 15.7608L268.419 15.8878L272.011 14.4271L271.936 14.2683C270.527 11.1352 267.487 9.10294 264.182 9.10294C260.442 9.10294 257.158 11.601 256.024 15.3268C255.759 16.2053 255.622 17.1156 255.622 18.0471C255.622 18.1635 255.622 18.28 255.622 18.3858C255.791 23.2125 259.552 26.9913 264.171 26.9913C267.434 26.9913 270.369 25.0966 271.831 22.0376L271.905 21.8788L268.366 20.4393L268.303 20.5663V20.5875Z" fill="var(--fill-0, white)"/>
<path id="Vector_2" d="M193.732 16.3112H185.574C185.638 16.1313 185.712 15.9725 185.797 15.8137C186.602 14.2472 188.138 13.2734 189.801 13.2734C190.405 13.2734 190.999 13.4004 191.549 13.6438C192.556 14.2048 193.34 15.168 193.732 16.3112ZM194.516 10.7542C194.367 10.6483 194.209 10.5319 194.039 10.426C194.007 10.4049 193.965 10.3837 193.933 10.3625C193.838 10.299 193.742 10.2461 193.647 10.1932L193.52 10.1191C193.34 10.0238 193.17 9.93914 193.011 9.87563C192.948 9.84387 192.895 9.8227 192.831 9.79095C192.736 9.74861 192.641 9.71686 192.545 9.67452C192.482 9.65335 192.429 9.63218 192.365 9.61101H192.323C192.185 9.5475 192.047 9.50516 191.899 9.46282C191.814 9.43106 191.719 9.4099 191.634 9.38873C191.549 9.36756 191.465 9.34639 191.38 9.32522C191.263 9.30405 191.147 9.27229 191.03 9.26171C190.946 9.25112 190.861 9.22995 190.776 9.21937C190.638 9.1982 190.501 9.18761 190.363 9.16644C190.299 9.16644 190.236 9.16644 190.172 9.15586C190.003 9.14527 189.823 9.13469 189.653 9.13469H189.621C189.399 9.13469 189.176 9.13469 188.943 9.16644H188.827C188.636 9.1982 188.456 9.21937 188.265 9.25112L188.128 9.27229C187.948 9.30405 187.778 9.34639 187.598 9.38873L187.481 9.42048C187.301 9.4734 187.121 9.52633 186.941 9.58984L186.856 9.62159C186.666 9.6851 186.475 9.76978 186.252 9.86504C184.388 10.7012 182.862 12.2043 181.962 14.099L181.898 14.2472C181.729 14.6176 181.591 14.9881 181.475 15.3691C181.21 16.2477 181.072 17.158 181.072 18.0894C181.072 18.2059 181.072 18.3223 181.072 18.4282C181.104 19.1797 181.22 19.9206 181.422 20.6298L181.453 20.7992C181.559 21.1273 181.686 21.4766 181.856 21.8576C181.888 21.9211 181.909 21.9741 181.941 22.0376L182.015 22.1858C182.184 22.5351 182.386 22.8738 182.598 23.1913L182.651 23.276C182.862 23.583 183.095 23.8793 183.35 24.1757L183.413 24.2498C183.498 24.3345 183.572 24.4297 183.657 24.5038L183.689 24.5356C183.848 24.6944 184.017 24.8531 184.197 25.0013C184.229 25.0331 184.271 25.0648 184.303 25.086C184.399 25.1601 184.483 25.2342 184.579 25.3083L184.653 25.3612C184.822 25.4882 184.992 25.6047 185.182 25.7211L185.31 25.8058C185.405 25.8587 185.5 25.9222 185.596 25.9751L185.723 26.0386C185.892 26.1233 186.062 26.208 186.231 26.2927C186.284 26.3138 186.348 26.3456 186.411 26.3668C186.507 26.4091 186.602 26.4409 186.697 26.4832C186.772 26.515 186.846 26.5361 186.92 26.5573C187.058 26.6102 187.206 26.6526 187.344 26.6949C187.439 26.7161 187.524 26.7478 187.608 26.769C187.693 26.7902 187.778 26.8113 187.863 26.8325C187.979 26.8537 188.096 26.8854 188.212 26.9066C188.297 26.9172 188.382 26.9383 188.467 26.9489C188.604 26.9701 188.742 26.9807 188.88 27.0019C188.943 27.0019 189.007 27.0124 189.07 27.0124C189.24 27.023 189.42 27.0336 189.621 27.0336H189.632C189.854 27.0336 190.066 27.0336 190.31 27.0019H190.426C190.617 26.9701 190.797 26.9489 190.988 26.9172L191.126 26.896C191.306 26.8642 191.475 26.8219 191.655 26.7796L191.772 26.7478C191.952 26.6949 192.132 26.642 192.302 26.589L192.397 26.5573C192.598 26.4832 192.789 26.4091 192.958 26.335L193.001 26.3138C194.855 25.4776 196.38 23.9852 197.291 22.1011L197.366 21.9423L193.478 20.3334L193.403 20.4604C192.588 21.9635 191.073 22.8949 189.452 22.8949C188.848 22.8949 188.255 22.7679 187.704 22.5245C186.327 21.7518 185.585 20.8415 185.341 19.5925H197.63V19.4443C197.779 18.0577 197.959 13.3157 194.526 10.7542" fill="var(--fill-0, white)"/>
<path id="Vector_3" d="M175.489 18.1424L175.415 18.28C174.038 20.8415 171.675 22.3657 169.122 22.3657C165.012 22.3657 161.664 18.4282 161.664 13.5909C161.664 8.75364 165.012 4.81609 169.122 4.81609C172.141 4.81609 174.843 6.93305 176.008 10.2143L176.061 10.3731L180.352 8.55253L180.299 8.40434C178.402 3.38714 174.006 0.148187 169.111 0.148187C162.427 0.148187 156.992 6.18153 156.992 13.5803C156.992 20.9791 162.427 27.023 169.111 27.023C173.391 27.023 177.385 24.4827 179.557 20.3863L179.684 20.1217L179.695 20.1006L175.478 18.1424H175.489Z" fill="var(--fill-0, white)"/>
<path id="Vector_4" d="M205.618 14.48C206.445 13.8238 207.44 13.4639 208.489 13.4639C210.205 13.4639 211.795 14.4377 212.631 16.0148C213.013 16.7346 213.214 17.5496 213.214 18.3858C213.214 18.4493 213.214 18.5128 213.214 18.5763V18.6928C213.129 20.0265 212.547 21.2543 211.561 22.1223C210.725 22.7785 209.739 23.1384 208.691 23.1384C206.964 23.1384 205.385 22.1646 204.548 20.5875C204.506 20.5028 204.464 20.4181 204.421 20.3334C204.114 19.6666 203.966 18.9574 203.966 18.227C203.966 18.1635 203.966 18.1 203.966 18.0259V17.9307C204.008 17.3168 204.156 16.7134 204.411 16.1524C204.697 15.5067 205.11 14.9563 205.608 14.5012M217.081 15.5597C215.894 11.7597 212.737 9.31464 209.051 9.31464H208.955C208.955 9.31464 208.892 9.31464 208.807 9.31464C208.796 9.31464 208.775 9.31464 208.765 9.31464C208.733 9.31464 206.095 9.3358 204.421 11.0717V9.74861H199.675V36.1683H204.432V25.5941C204.633 25.8481 204.824 26.0069 204.834 26.0175H204.855C205.978 27.0865 207.811 27.2665 208.807 27.2876C213.5 27.203 217.303 23.4136 217.483 18.6504C217.483 18.534 217.483 18.4176 217.483 18.3011C217.483 17.3697 217.346 16.4488 217.07 15.5703" fill="var(--fill-0, white)"/>
<path id="Vector_5" d="M229.582 15.6761C229.211 15.8243 228.999 15.856 228.914 15.8666H228.152C227.971 15.8666 227.823 15.8666 227.813 15.8666H227.463H224.306V13.1252H228.967C228.967 13.1252 229.179 13.1463 229.423 13.2522C229.9 13.4956 230.249 13.9825 230.249 14.4059C230.249 15.0516 230.048 15.4327 229.571 15.6761M230.705 21.4766C230.652 22.2069 230.048 22.7573 229.476 22.9161C229.402 22.9373 229.306 22.9585 229.179 22.969C228.766 23.0431 228.289 23.0749 227.971 23.0749H226.796C226.34 23.0749 225.895 23.0749 225.503 23.0749H224.327V19.1691H225.503C225.895 19.1691 226.34 19.1691 226.796 19.1691H227.834C227.982 19.1691 228.766 19.1691 229.359 19.3067H229.402C229.402 19.3067 229.455 19.3279 229.476 19.3385C229.539 19.349 229.592 19.3808 229.667 19.4125L229.709 19.4337C229.709 19.4337 229.804 19.4761 229.836 19.5078C230.323 19.7936 230.652 20.2805 230.684 20.778V20.8309C230.684 20.905 230.684 21.1273 230.684 21.1273C230.684 21.1273 230.684 21.4448 230.684 21.4872M235.324 20.8203V20.778C235.271 19.7089 234.879 18.8198 234.116 18.0577L234.084 18.0259C233.798 17.7507 233.449 17.4755 233.046 17.1897C233.131 17.0733 233.215 16.9463 233.311 16.8087C234.116 16.0995 234.55 15.1469 234.55 14.1413C234.55 12.2043 232.601 10.2143 230.366 9.87563C229.709 9.8227 229.222 9.81212 228.988 9.81212C228.861 9.81212 228.787 9.81212 228.787 9.81212L219.729 9.83329V26.3773H224.179L226.361 26.3456H229.762C232.188 26.1762 234.317 24.6732 235.059 22.6092C235.25 22.0799 235.345 21.5295 235.345 20.9685C235.345 20.9156 235.345 20.8627 235.345 20.7992" fill="var(--fill-0, white)"/>
<path id="Vector_6" d="M254.149 26.2397C254.117 26.1551 254.096 26.0598 254.075 25.9645C254.075 25.9222 254.054 25.8904 254.054 25.8481L254.022 25.6682C253.884 24.7579 253.821 22.9902 253.8 21.6671V9.88621H249.159V18.227C249.159 18.227 249.159 18.3858 249.149 18.6081V18.6716C249.096 19.3173 248.948 20.4922 248.471 21.2225C247.793 22.154 246.712 22.715 245.579 22.715C245.473 22.715 245.377 22.715 245.271 22.7044C244.668 22.6515 244.085 22.4398 243.576 22.1011C242.898 21.6354 242.39 20.9473 242.157 20.1535V20.1217C242.061 19.91 241.987 19.4337 241.934 18.7986V18.7669C241.924 18.6293 241.913 18.5234 241.903 18.4493V18.3752C241.669 15.1574 241.903 10.1402 241.903 10.0979V9.8968H237.411V10.0662C237.421 12.8711 237.432 17.7296 237.411 18.6504C237.442 19.6983 237.591 21.2331 238.078 22.6197C238.343 23.2548 238.65 23.8158 239 24.3133C239.085 24.4192 239.169 24.525 239.265 24.6414C239.371 24.7579 239.466 24.8637 239.561 24.959C240.123 25.5411 240.79 25.9857 241.553 26.3033H241.595C241.966 26.4832 243.015 26.8854 244.583 26.8854H244.657C244.869 26.8854 245.049 26.8748 245.208 26.8642C245.314 26.8642 247.835 26.8431 249.488 24.8955C249.573 25.6787 249.721 26.1868 249.965 26.4197L250.018 26.4726H254.287L254.202 26.2397H254.149Z" fill="var(--fill-0, white)"/>
<path id="Vector_7" d="M45.9566 9.50516H49.548L50.0671 9.49458L45.7871 9.47341L45.9566 9.50516Z" fill="var(--fill-0, white)"/>
<path id="Vector_8" d="M139.575 26.2397L142.711 15.8031L145.847 26.2397H150.169L144.872 10.3414L144.766 10.0238H140.656L140.55 10.3414L135.264 26.2397H139.575Z" fill="var(--fill-0, white)"/>
<path id="Vector_9" d="M115.252 9.96031L110.389 9.94972L104.891 15.348V9.96031H100.812V26.2186H104.891V20.9368L105.993 19.7089L111.353 26.2186H116.385L108.768 16.5864L115.252 9.96031Z" fill="var(--fill-0, white)"/>
<path id="Vector_10" d="M73.7022 20.0688C73.6598 20.1535 73.6174 20.2382 73.5751 20.3228C72.7699 21.8471 71.2126 22.8738 69.4328 22.8738C68.3523 22.8738 67.3564 22.4927 66.5619 21.8576C65.619 21.0108 64.994 19.7936 64.9198 18.4282C64.9198 18.3329 64.9092 18.227 64.9092 18.1318C64.9092 17.2744 65.1211 16.47 65.4919 15.7714C66.297 14.2472 67.8543 13.2204 69.6341 13.2204C70.7147 13.2204 71.7105 13.6015 72.5051 14.2366C73.0136 14.6917 73.4268 15.2527 73.7128 15.8878C73.9565 16.4382 74.1154 17.031 74.1577 17.666C74.1577 17.7613 74.1683 17.8672 74.1683 17.9624C74.1683 18.7139 74.0094 19.4337 73.7128 20.0688M69.3587 9.52633C69.3587 9.52633 69.3587 9.52633 69.3375 9.52633C69.3375 9.52633 69.3375 9.52633 69.3481 9.52633M73.7022 9.93914V11.4845C73.7022 11.4845 73.681 11.4422 73.6598 11.421C72.1131 9.52633 69.3057 9.50516 69.3057 9.51574C69.221 9.51574 69.168 9.51574 69.168 9.51574C65.3965 9.47341 62.5362 12.0032 61.4556 15.4538C61.2013 16.2689 61.0636 17.1474 61.0636 18.0471C61.0636 18.1529 61.0636 18.2694 61.0636 18.3752C61.2331 22.8844 64.8456 26.5044 69.3057 26.5785C70.4604 26.5573 72.0813 26.3138 73.0454 25.3824C73.0454 25.3824 73.4268 25.0648 73.7022 24.6097V26.1551H77.9822V9.92855H73.6916L73.7022 9.93914Z" fill="var(--fill-0, white)"/>
<path id="Vector_11" d="M128.346 20.1535C128.303 20.2382 128.261 20.3228 128.219 20.4075C127.414 21.9211 125.867 22.9479 124.087 22.9479C123.007 22.9479 122.021 22.5668 121.227 21.9423C120.284 21.1061 119.669 19.8889 119.585 18.5234C119.585 18.4282 119.574 18.3223 119.574 18.227C119.574 17.3697 119.786 16.5652 120.157 15.8772C120.962 14.3636 122.509 13.3369 124.288 13.3369C125.369 13.3369 126.354 13.7179 127.149 14.3424C127.657 14.7976 128.06 15.3586 128.346 15.9936C128.59 16.5335 128.748 17.1368 128.791 17.7613C128.791 17.8566 128.801 17.9624 128.801 18.0577C128.801 18.8092 128.643 19.5184 128.346 20.1535ZM128.346 10.0662V11.6115C128.346 11.6115 128.325 11.5798 128.303 11.5586C126.767 9.67452 123.971 9.65335 123.971 9.66393C123.886 9.66393 123.833 9.66393 123.833 9.66393C120.072 9.62159 117.222 12.1408 116.152 15.5808C115.898 16.3959 115.76 17.2638 115.76 18.1635C115.76 18.2694 115.76 18.3858 115.76 18.4917C115.93 22.9902 119.521 26.5785 123.971 26.6631C125.115 26.642 126.736 26.3985 127.7 25.4776C127.7 25.4776 128.081 25.1601 128.356 24.7049V26.2397H132.615V10.0767H128.346V10.0662Z" fill="var(--fill-0, white)"/>
<path id="Vector_12" d="M53.3512 19.8677C52.6838 20.9685 51.529 21.773 50.1412 22.0693H45.5011V13.4956L49.0077 13.4639H50.0883C50.2048 13.485 50.3319 13.5062 50.4485 13.538C51.0947 13.6862 51.6985 13.9614 52.2177 14.3212C53.2029 15.0834 53.8597 16.1948 53.9445 17.4438C53.9445 17.5284 53.9657 17.6237 53.9657 17.719C53.9657 18.5022 53.7432 19.2326 53.3512 19.8677ZM58.5634 17.4755C58.4575 14.8505 57.0803 12.543 55.0039 11.0823C52.9168 9.34639 49.781 9.42048 49.781 9.42048H49.2513H45.66H45.5011V4.30802H55.5124V0.243451H41.433V0.391638V26.1551H49.9188C50.0671 26.1551 50.2684 26.1551 50.4908 26.1339C54.1034 25.8587 57.1015 23.5089 58.1609 20.344C58.4257 19.5396 58.574 18.6928 58.574 17.8037C58.574 17.6978 58.574 17.592 58.574 17.4861" fill="var(--fill-0, white)"/>
<path id="Vector_13" d="M97.4433 25.6682C97.4433 25.6682 97.4221 25.5835 97.4115 25.5411C97.4115 25.4988 97.4009 25.4565 97.3903 25.4247C97.3903 25.4247 97.3903 25.4141 97.3903 25.4035C97.3903 25.3718 97.3903 25.3506 97.3903 25.3506C97.2632 24.4615 97.189 22.7785 97.1572 21.3284V9.71686H92.8561V17.8883C92.8561 17.8883 92.8561 18.0471 92.8349 18.2906C92.8349 18.2906 92.8349 18.3117 92.8349 18.3223C92.7925 18.9786 92.6336 20.1958 92.1357 20.9791C91.4471 21.9211 90.3559 22.5351 89.1058 22.5351C88.9999 22.5351 88.8939 22.5351 88.788 22.5245C88.1312 22.4716 87.5273 22.2493 87.0188 21.8894C86.309 21.4131 85.7793 20.6827 85.5251 19.8465C85.5251 19.8465 85.5251 19.8359 85.5251 19.8254C85.4191 19.529 85.345 18.8833 85.3026 18.4493C85.3026 18.4493 85.3026 18.4387 85.3026 18.4282C85.2814 18.1953 85.2708 18.0365 85.2708 18.0365C85.0377 14.7658 85.2708 9.73803 85.2708 9.73803L85.1437 9.71686H81.118C81.118 11.2728 81.1497 17.2744 81.118 18.2906C81.1497 19.2432 81.2769 20.8097 81.7642 22.2069C81.9973 22.7573 82.2833 23.3289 82.6647 23.8582C82.7388 23.964 82.8236 24.0699 82.9083 24.1651C83.0249 24.2816 83.1202 24.3874 83.205 24.4933C83.7135 25.0225 84.3491 25.4776 85.1331 25.7952C85.1543 25.7952 85.1649 25.8058 85.1861 25.8164C85.5039 25.9645 86.5527 26.3773 88.163 26.3668C88.3748 26.3668 88.5549 26.3562 88.7032 26.3456C88.7032 26.3456 91.5001 26.3879 93.1209 24.1016C93.1527 24.7155 93.2692 25.647 93.5765 25.9645H97.528C97.4962 25.8693 97.4645 25.7634 97.4433 25.6682Z" fill="var(--fill-0, white)"/>
<path id="Vector_14" d="M91.7331 5.32416C91.1822 6.03334 90.2923 6.56258 89.2753 6.59434C88.1524 6.63668 87.1353 6.07568 86.5527 5.2924L84.4021 6.45673C85.186 8.34083 87.1459 9.64276 89.3918 9.55808C91.4683 9.4734 93.2057 8.23498 93.9579 6.50966L91.7331 5.32416Z" fill="var(--fill-0, white)"/>
<path id="Vector_15" d="M178.868 37.7984C178.699 37.9571 178.487 38.0312 178.222 38.0312C178.042 38.0312 177.883 37.9889 177.777 37.9042C177.661 37.8195 177.608 37.7031 177.608 37.5655C177.608 37.2797 177.809 37.1315 178.201 37.1315H179.123V37.1844C179.123 37.4279 179.038 37.6396 178.868 37.7984ZM179.801 34.8875C179.472 34.57 179.027 34.4112 178.455 34.4112C177.703 34.4112 177.089 34.7076 176.591 35.2898L177.195 36.0095C177.385 35.7978 177.576 35.6496 177.746 35.565C177.915 35.4697 178.116 35.4274 178.328 35.4274C178.582 35.4274 178.784 35.4909 178.921 35.6179C179.059 35.7449 179.123 35.9354 179.123 36.1789V36.3694H178.053C177.555 36.3694 177.163 36.4753 176.877 36.7081C176.591 36.9304 176.442 37.2374 176.442 37.6184C176.442 37.9995 176.58 38.3064 176.845 38.5393C177.11 38.7722 177.47 38.8886 177.926 38.8886C178.466 38.8886 178.9 38.7192 179.229 38.3699V38.7827H180.299V36.2424C180.299 35.6602 180.14 35.2051 179.811 34.8875M171.061 38.2323C171.516 38.6769 172.057 38.8992 172.682 38.8886C173.095 38.8886 173.455 38.7933 173.773 38.6028C174.091 38.4123 174.345 38.1582 174.536 37.8195L173.72 37.195C173.434 37.6078 173.084 37.8089 172.692 37.8089C172.364 37.8089 172.088 37.6925 171.887 37.4808C171.675 37.2585 171.569 36.9833 171.569 36.634C171.569 36.2847 171.675 36.0201 171.887 35.7978C172.099 35.5755 172.364 35.4591 172.692 35.4591C173.095 35.4591 173.434 35.6708 173.72 36.0836L174.536 35.4485C174.133 34.7499 173.519 34.39 172.671 34.39C172.035 34.39 171.484 34.6017 171.05 35.0357C170.605 35.4697 170.383 35.9989 170.383 36.6129C170.372 37.2268 170.595 37.756 171.05 38.2112M166.251 36.5282C166.071 36.5282 165.923 36.4753 165.806 36.38C165.7 36.2847 165.637 36.1577 165.637 35.9989C165.637 35.8402 165.69 35.7237 165.806 35.6285C165.912 35.5332 166.06 35.4909 166.251 35.4909H166.982V36.5282H166.251ZM164.937 34.9087C164.62 35.1733 164.461 35.5332 164.461 35.9884C164.461 36.2953 164.545 36.5599 164.694 36.7928C164.853 37.0257 165.075 37.195 165.361 37.3115L164.153 38.7933H165.467L166.527 37.4808H166.982V38.7933H168.137V34.5171H166.198C165.668 34.5171 165.245 34.6547 164.927 34.9193M160.16 37.8089C159.842 37.8089 159.566 37.7031 159.365 37.4808C159.153 37.2585 159.058 36.9833 159.058 36.6552C159.058 36.3271 159.164 36.0307 159.365 35.8084C159.577 35.5861 159.842 35.4697 160.16 35.4697C160.477 35.4697 160.742 35.5861 160.954 35.8084C161.166 36.0307 161.272 36.3165 161.272 36.6446C161.272 36.9727 161.166 37.2585 160.954 37.4702C160.742 37.6925 160.477 37.7984 160.16 37.7984M158.528 38.2217C158.984 38.6663 159.524 38.8886 160.149 38.878C160.774 38.8886 161.325 38.6769 161.78 38.2217C162.236 37.7772 162.469 37.2479 162.458 36.634C162.469 36.0201 162.247 35.4909 161.791 35.0569C161.335 34.6123 160.785 34.4006 160.16 34.4112C159.534 34.4006 158.994 34.6123 158.539 35.0569C158.083 35.5015 157.861 36.0307 157.871 36.634C157.861 37.2479 158.083 37.7772 158.528 38.2217ZM152.934 38.7827V35.4909H154.46V38.7827H155.625V34.5065H151.78V38.7827H152.934ZM143.114 35.5861C143.294 35.4274 143.516 35.3533 143.76 35.3533C144.004 35.3533 144.237 35.4379 144.417 35.5967C144.597 35.7555 144.682 35.9672 144.692 36.2212H142.743C142.807 35.9566 142.934 35.7449 143.114 35.5861ZM145.826 36.4012C145.826 35.8402 145.635 35.3638 145.264 34.9828C144.883 34.6017 144.406 34.4112 143.813 34.4112C143.199 34.4006 142.669 34.6123 142.224 35.0569C141.779 35.5015 141.567 36.0307 141.578 36.6446C141.567 37.2691 141.79 37.7984 142.245 38.2429C142.701 38.6875 143.262 38.8992 143.919 38.8886C144.544 38.8886 145.116 38.6769 145.635 38.2535L145.148 37.4596C144.777 37.7454 144.375 37.8936 143.951 37.8936C143.644 37.8936 143.379 37.8195 143.167 37.6713C142.955 37.5232 142.817 37.3115 142.743 37.0468H145.741C145.794 36.8246 145.815 36.6129 145.815 36.4117M135.126 36.7293H135.868C136.058 36.7293 136.217 36.7822 136.334 36.8775C136.45 36.9727 136.503 37.1103 136.503 37.2797C136.503 37.629 136.291 37.8089 135.868 37.8089H135.126V36.7399V36.7293ZM139.332 34.5065H138.177V38.7827H139.332V34.5065ZM135.899 38.7827C136.408 38.7827 136.842 38.6451 137.181 38.3805C137.52 38.1159 137.679 37.7454 137.679 37.2585C137.679 36.7716 137.51 36.4223 137.181 36.1471C136.842 35.8719 136.418 35.7449 135.899 35.7449H135.126V34.5065H133.971V38.7827H135.91H135.899ZM130.03 37.9148H128.992V36.9833H130.03C130.21 36.9833 130.359 37.0257 130.465 37.1103C130.571 37.195 130.624 37.3009 130.624 37.4491C130.624 37.5972 130.571 37.7031 130.465 37.7984C130.359 37.883 130.21 37.9254 130.03 37.9254M129.808 35.3744C130.157 35.3744 130.327 35.5015 130.327 35.7767C130.327 36.0519 130.157 36.1789 129.808 36.1789H128.992V35.385H129.808V35.3744ZM131.037 36.4964C131.27 36.2847 131.386 36.0201 131.386 35.7131C131.386 35.3533 131.249 35.0569 130.963 34.8346C130.687 34.6123 130.316 34.5065 129.882 34.5065H127.89V38.7827H130.168C130.613 38.7827 130.984 38.6557 131.27 38.4123C131.566 38.1688 131.704 37.8513 131.704 37.4702C131.704 37.0045 131.482 36.6764 131.037 36.4858M123.356 37.8089C123.038 37.8089 122.763 37.7031 122.562 37.4808C122.36 37.2585 122.254 36.9833 122.254 36.6552C122.254 36.3271 122.36 36.0307 122.562 35.8084C122.773 35.5861 123.038 35.4697 123.356 35.4697C123.674 35.4697 123.939 35.5861 124.151 35.8084C124.363 36.0307 124.468 36.3165 124.468 36.6446C124.468 36.9727 124.363 37.2585 124.151 37.4702C123.939 37.6925 123.674 37.7984 123.356 37.7984M121.725 38.2217C122.18 38.6663 122.72 38.8886 123.346 38.878C123.971 38.8886 124.521 38.6769 124.977 38.2217C125.433 37.7772 125.666 37.2479 125.655 36.634C125.666 36.0201 125.443 35.4909 124.988 35.0569C124.532 34.6123 123.981 34.4006 123.356 34.4112C122.731 34.4006 122.18 34.6123 121.725 35.0569C121.269 35.5015 121.047 36.0307 121.057 36.634C121.047 37.2479 121.269 37.7772 121.714 38.2217M115.739 38.2323C116.195 38.6769 116.735 38.8992 117.371 38.8886C117.784 38.8886 118.144 38.7933 118.462 38.6028C118.78 38.4123 119.034 38.1582 119.224 37.8195L118.409 37.195C118.123 37.6078 117.773 37.8089 117.381 37.8089C117.053 37.8089 116.777 37.6925 116.576 37.4808C116.364 37.2585 116.258 36.9833 116.258 36.634C116.258 36.2847 116.364 36.0201 116.576 35.7978C116.788 35.5755 117.053 35.4591 117.381 35.4591C117.784 35.4591 118.123 35.6708 118.409 36.0836L119.224 35.4485C118.822 34.7499 118.207 34.39 117.36 34.39C116.724 34.39 116.173 34.6017 115.728 35.0357C115.284 35.4697 115.061 35.9989 115.061 36.6129C115.05 37.2268 115.273 37.756 115.728 38.2112M111.47 37.7984C111.3 37.9571 111.088 38.0312 110.823 38.0312C110.643 38.0312 110.495 37.9889 110.379 37.9042C110.262 37.8195 110.209 37.7031 110.209 37.5655C110.209 37.2797 110.41 37.1315 110.802 37.1315H111.713V37.1844C111.713 37.4279 111.629 37.6396 111.459 37.7984M112.402 34.8875C112.074 34.57 111.629 34.4112 111.057 34.4112C110.304 34.4112 109.679 34.7076 109.192 35.2898L109.796 36.0095C109.987 35.7978 110.177 35.6496 110.347 35.565C110.516 35.4697 110.718 35.4274 110.929 35.4274C111.184 35.4274 111.385 35.4909 111.523 35.6179C111.66 35.7449 111.724 35.9354 111.724 36.1789V36.3694H110.654C110.156 36.3694 109.764 36.4753 109.467 36.7081C109.181 36.9304 109.033 37.2374 109.033 37.6184C109.033 37.9995 109.171 38.3064 109.436 38.5393C109.7 38.7722 110.061 38.8886 110.516 38.8886C111.057 38.8886 111.491 38.7192 111.819 38.3699V38.7827H112.889V36.2424C112.889 35.6602 112.72 35.2051 112.391 34.8875M105.654 36.2636C105.463 36.3376 105.24 36.38 104.965 36.38C104.404 36.38 104.128 36.073 104.128 35.4697V34.5065H102.973V35.565C102.973 36.1471 103.132 36.6129 103.439 36.9304C103.747 37.2585 104.181 37.4173 104.732 37.4173C105.124 37.4173 105.431 37.375 105.654 37.2797V38.7827H106.819V34.5065H105.654V36.2741V36.2636ZM95.1126 36.5282C94.9325 36.5282 94.7842 36.4753 94.6677 36.38C94.5617 36.2847 94.4982 36.1577 94.4982 35.9989C94.4982 35.8402 94.5511 35.7237 94.6677 35.6285C94.7736 35.5332 94.9219 35.4909 95.1126 35.4909H95.8436V36.5282H95.1126ZM93.799 34.9087C93.4811 35.1733 93.3222 35.5332 93.3222 35.9884C93.3222 36.2953 93.407 36.5599 93.5553 36.7928C93.7142 37.0257 93.9367 37.195 94.2227 37.3115L93.015 38.7933H94.3287L95.388 37.4808H95.8436V38.7933H96.9983V34.5171H95.0596C94.5299 34.5171 94.1062 34.6547 93.7884 34.9193M89.0211 36.5282C88.841 36.5282 88.6927 36.4753 88.5761 36.38C88.4702 36.2847 88.4066 36.1577 88.4066 35.9989C88.4066 35.8402 88.4596 35.7237 88.5761 35.6285C88.6821 35.5332 88.8304 35.4909 89.0211 35.4909H89.7521V36.5282H89.0211ZM87.7074 34.9087C87.3896 35.1733 87.2307 35.5332 87.2307 35.9884C87.2307 36.2953 87.3049 36.5599 87.4638 36.7928C87.6227 37.0257 87.8451 37.195 88.1312 37.3115L86.9235 38.7933H88.2371L89.2965 37.4808H89.7521V38.7933H90.9068V34.5171H88.9681C88.4384 34.5171 88.0146 34.6547 87.6968 34.9193M82.0714 38.7827V37.068H83.6499V38.7827H84.8047V34.5065H83.6499V36.073H82.0714V34.5065H80.9167V38.7827H82.0714ZM75.6303 36.8351V34.5065H74.4756V38.8886H74.857L77.2406 36.4647V38.7827H78.4059V34.4112H78.0245L75.6303 36.8351ZM69.1786 35.7449V35.4909H70.4181V37.7984H68.7866C69.0197 37.3326 69.1574 36.6446 69.1892 35.7449M71.5834 34.5065H68.1616L68.1298 35.565C68.1086 36.1895 68.0556 36.6764 67.9815 37.0257C67.9073 37.375 67.7802 37.629 67.6001 37.7984H67.1445V40H68.2569V38.7827H71.1808V40H72.2932V37.7984H71.5834V34.5065ZM62.8646 35.5861C63.0447 35.4274 63.2672 35.3533 63.5108 35.3533C63.7545 35.3533 63.9875 35.4379 64.1676 35.5967C64.3477 35.7555 64.4325 35.9672 64.4431 36.2212H62.4938C62.5574 35.9566 62.6845 35.7449 62.8646 35.5861ZM65.566 36.4012C65.566 35.8402 65.3754 35.3638 64.994 34.9828C64.6126 34.6017 64.1359 34.4112 63.5426 34.4112C62.9281 34.4006 62.3985 34.6123 61.9535 35.0569C61.5086 35.5015 61.2967 36.0307 61.3073 36.6446C61.2967 37.2691 61.5192 37.7984 61.9747 38.2429C62.4302 38.6875 62.9917 38.8992 63.6485 38.8886C64.2736 38.8886 64.8457 38.6769 65.3648 38.2535L64.8774 37.4596C64.5067 37.7454 64.1041 37.8936 63.6803 37.8936C63.3731 37.8936 63.1082 37.8195 62.8964 37.6713C62.6845 37.5232 62.5468 37.3115 62.4726 37.0468H65.4707C65.5237 36.8246 65.5449 36.6129 65.5449 36.4117M56.7836 36.7293H57.5252C57.7159 36.7293 57.8642 36.7822 57.9808 36.8775C58.0973 36.9727 58.1503 37.1103 58.1503 37.2797C58.1503 37.4491 58.0973 37.5867 57.9808 37.6713C57.8642 37.756 57.7159 37.8089 57.5146 37.8089H56.7731V36.7399L56.7836 36.7293ZM57.5676 38.7827C58.0761 38.7827 58.5105 38.6451 58.8495 38.3805C59.1885 38.1053 59.3474 37.7348 59.3474 37.2585C59.3474 36.7822 59.1779 36.4223 58.8495 36.1471C58.5105 35.8719 58.0761 35.7449 57.5676 35.7449H56.7942V34.5065H54.6013V35.4909H55.6395V38.7827H57.5782H57.5676ZM51.3278 37.4914C51.1159 37.7031 50.8616 37.8089 50.5544 37.8089C50.2472 37.8089 49.9929 37.7031 49.7704 37.4914C49.5586 37.2797 49.4632 37.0151 49.4632 36.7081C49.4632 36.4012 49.5692 36.1471 49.7704 35.9354C49.9823 35.7237 50.2472 35.6179 50.5544 35.6179C50.8616 35.6179 51.1265 35.7237 51.3278 35.9354C51.5396 36.1471 51.6456 36.4012 51.6456 36.7081C51.6456 37.0151 51.5396 37.2691 51.3278 37.4914ZM52.26 35.1839C51.8786 34.7711 51.4019 34.57 50.8298 34.57C50.173 34.57 49.6751 34.8134 49.3255 35.3003C49.3361 34.9828 49.3679 34.7288 49.4208 34.5382C49.4738 34.3477 49.5692 34.1783 49.7069 34.0196C49.8446 33.8714 50.0247 33.7444 50.2578 33.6703C50.4908 33.5856 50.7981 33.5221 51.1794 33.4798C51.8257 33.4162 52.2494 33.3422 52.4613 33.2681V32.2096C52.2282 32.2943 51.7939 32.3683 51.1688 32.453C50.5862 32.5271 50.0989 32.6436 49.7175 32.8023C49.3361 32.9611 49.0395 33.1834 48.8276 33.4586C48.6157 33.7338 48.4674 34.0407 48.3826 34.39C48.2979 34.7393 48.2555 35.1627 48.2555 35.6814V36.3271C48.2555 37.0892 48.4674 37.7137 48.8911 38.1794C49.3149 38.6451 49.8658 38.878 50.565 38.878C51.2642 38.878 51.7621 38.6769 52.1965 38.2641C52.6308 37.8513 52.8427 37.3432 52.8427 36.7187C52.8427 36.0942 52.652 35.5967 52.26 35.1839ZM43.912 37.8089C43.5942 37.8089 43.3293 37.7031 43.1174 37.4808C42.9056 37.2585 42.8102 36.9833 42.8102 36.6552C42.8102 36.3271 42.9162 36.0307 43.1174 35.8084C43.3293 35.5861 43.5942 35.4697 43.912 35.4697C44.2298 35.4697 44.4947 35.5861 44.7065 35.8084C44.9184 36.0307 45.0244 36.3165 45.0244 36.6446C45.0244 36.9727 44.9184 37.2585 44.7065 37.4702C44.4947 37.6925 44.2298 37.7984 43.912 37.7984M42.2805 38.2217C42.7361 38.6663 43.2763 38.8886 43.9014 38.878C44.5264 38.8886 45.0773 38.6769 45.5329 38.2217C45.999 37.7772 46.2215 37.2479 46.2109 36.634C46.2215 36.0201 45.999 35.4909 45.5435 35.0569C45.0879 34.6123 44.537 34.4006 43.912 34.4112C43.2869 34.4006 42.7466 34.6123 42.2911 35.0569C41.8356 35.5015 41.6131 36.0307 41.6237 36.634C41.6131 37.2479 41.8356 37.7772 42.2805 38.2217Z" fill="var(--fill-0, white)"/>
<g id="Group">
<path id="Vector_16" d="M25.8069 38.7828H1.45137C0.656826 38.7828 0 38.1265 0 37.3326C0 36.5388 0.646232 35.8825 1.45137 35.8825H25.8069C26.612 35.8825 27.2583 36.5282 27.2583 37.3326C27.2583 38.1371 26.612 38.7828 25.8069 38.7828Z" fill="var(--fill-0, white)"/>
<path id="Vector_17" d="M26.5487 -0.000227589H25.0867C24.6889 -0.000227589 24.3664 0.322023 24.3664 0.71954V2.18024C24.3664 2.57776 24.6889 2.90001 25.0867 2.90001H26.5487C26.9466 2.90001 27.2691 2.57776 27.2691 2.18024V0.71954C27.2691 0.322023 26.9466 -0.000227589 26.5487 -0.000227589Z" fill="var(--fill-0, white)"/>
<path id="Vector_18" d="M2.18236 0.0211696H0.709796C0.317786 0.0211696 0 0.338681 0 0.730352V2.19106C0 2.58273 0.317786 2.90024 0.709796 2.90024H2.18236C2.57437 2.90024 2.89215 2.58273 2.89215 2.19106V0.730352C2.89215 0.338681 2.57437 0.0211696 2.18236 0.0211696Z" fill="var(--fill-0, white)"/>
<path id="Vector_19" d="M1.44078 23.2019C0.646232 23.2019 0 22.5456 0 21.7518V5.44059C0 4.64673 0.646232 4.00106 1.44078 4.00106C2.23533 4.00106 2.89215 4.64673 2.89215 5.44059V21.7518C2.89215 22.5456 2.24592 23.2019 1.44078 23.2019Z" fill="var(--fill-0, white)"/>
<path id="Vector_20" d="M25.8283 23.2017C25.0338 23.2017 24.377 22.556 24.377 21.7516V5.44036C24.377 4.6465 25.0232 4.00083 25.8283 4.00083C26.6335 4.00083 27.2691 4.6465 27.2691 5.44036V21.7516C27.2691 22.5454 26.6229 23.2017 25.8283 23.2017Z" fill="var(--fill-0, white)"/>
<path id="Vector_21" d="M21.7918 2.90024H5.46649C4.67194 2.90024 4.01511 2.25456 4.01511 1.4607C4.01511 0.666843 4.66134 0.0105848 5.46649 0.0105848H21.7918C22.5863 0.0105848 23.2432 0.656258 23.2432 1.4607C23.2432 2.26515 22.5969 2.90024 21.7918 2.90024Z" fill="var(--fill-0, white)"/>
<path id="Vector_22" d="M25.0973 24.3025H26.5593C26.9513 24.3025 27.2691 24.62 27.2691 25.0117V26.4724C27.2691 26.864 26.9513 27.1816 26.5593 27.1816H25.0973C24.7054 27.1816 24.3875 26.864 24.3875 26.4724V25.0117C24.3875 24.62 24.7054 24.3025 25.0973 24.3025Z" fill="var(--fill-0, white)"/>
<path id="Vector_23" d="M0.72039 24.2816H2.19295C2.58493 24.2816 2.91334 24.5991 2.91334 25.0013V26.4726C2.91334 26.8642 2.59552 27.1818 2.20354 27.1818H0.709796C0.317819 27.1818 0 26.8642 0 26.4726V25.0013C0 24.6097 0.317819 24.2816 0.72039 24.2816Z" fill="var(--fill-0, white)"/>
<path id="Vector_24" d="M21.7918 24.3027H5.46649C4.67194 24.3027 4.01511 24.9484 4.01511 25.7423C4.01511 26.5361 4.66134 27.1924 5.46649 27.1924H21.7918C22.5863 27.1924 23.2432 26.5467 23.2432 25.7423C23.2432 24.9378 22.5969 24.3027 21.7918 24.3027Z" fill="var(--fill-0, white)"/>
<path id="Vector_25" d="M21.8765 23.1172C21.5375 23.1172 21.1985 22.9902 20.9337 22.7256L4.43887 6.29796C3.89858 5.76872 3.89858 4.89018 4.41768 4.35036C4.93679 3.81053 5.7949 3.79995 6.33519 4.32919L22.83 20.7568C23.3597 21.2861 23.3703 22.1646 22.8512 22.7044C22.5863 22.9796 22.2367 23.1172 21.8871 23.1172" fill="var(--fill-0, white)"/>
<path id="Vector_26" d="M5.39233 23.1172C5.04273 23.1172 4.68253 22.9796 4.42828 22.7044C3.89858 22.154 3.90917 21.2861 4.44946 20.7568L20.9443 4.32919C21.4846 3.79995 22.3427 3.81053 22.8618 4.35036C23.3809 4.89018 23.3809 5.76872 22.8406 6.29796L6.34578 22.7256C6.08093 22.9902 5.74193 23.1172 5.40292 23.1172" fill="var(--fill-0, white)"/>
</g>
</g>
<defs>
<clipPath id="clip0_0_89">
<rect width="272" height="40" fill="white"/>
</clipPath>
</defs>
</svg>
