<svg preserveAspectRatio="xMidYMid meet" width="100%" height="100%" overflow="visible" style="display: block;" viewBox="0 0 90.4702 7.03323" fill="none" xmlns="http://www.w3.org/2000/svg">
<g id="Group">
<path id="Vector" d="M40.1744 6.82615L40.1105 1.55779L38.0274 6.47078C37.9734 6.59688 37.8554 6.76555 37.7883 6.84416C37.6999 6.94733 37.261 6.79503 37.1906 6.62798L35.0894 1.69862L35.0026 6.73772C34.8078 6.79503 34.4262 6.8196 34.1068 6.8196V0.209983L35.4808 0.229634L37.5934 5.19831L39.6749 0.273854C40.0548 0.224724 40.5183 0.206711 41.0636 0.203436V6.82451H40.176L40.1744 6.82615Z" fill="var(--fill-0, white)"/>
<path id="Vector_2" d="M18.3018 3.52191C18.3018 5.45926 16.7313 7.02978 14.7939 7.02978C12.8566 7.02978 11.286 5.45926 11.286 3.52191C11.286 1.58455 12.8566 0.014037 14.7939 0.014037C16.7313 0.014037 18.3018 1.58455 18.3018 3.52191ZM17.2881 3.51372C17.2799 1.90226 16.1024 0.854155 14.73 0.880357C13.3577 0.90656 12.2572 2.0955 12.2965 3.59069C12.3358 5.08587 13.4297 6.21095 14.8791 6.16837C16.1925 6.12906 17.2963 5.06786 17.2881 3.51372Z" fill="var(--fill-0, white)"/>
<path id="Vector_3" d="M51.3058 3.86877L48.3253 3.91462L48.3056 5.98299L51.7152 6.0092C51.7906 6.13694 51.8217 6.59057 51.8004 6.84604L47.4049 6.85259L47.3984 0.21023L51.6121 0.195497C51.7578 0.311771 51.7283 1.02742 51.481 1.02906L48.3466 1.04708L48.3154 3.00736L51.3435 3.05158C51.4991 3.10399 51.4729 3.77543 51.3091 3.87205L51.3058 3.86877Z" fill="var(--fill-0, white)"/>
<path id="Vector_4" d="M90.0232 6.19276C88.9882 7.36533 87.0853 7.25888 86.0716 6.18621C86.1567 5.94056 86.5563 5.58683 86.7807 5.56062C87.4243 6.17475 88.2382 6.38109 89.0063 5.91108C89.4321 5.65069 89.7563 4.86298 89.2224 4.48304C88.194 3.751 86.2124 3.82306 86.2009 2.03309C86.196 1.21262 86.6775 0.459305 87.5324 0.177627C88.4511 -0.123703 89.5876 -0.04674 90.3 0.713136C90.3278 0.903105 89.8627 1.33218 89.6433 1.31089C89.1061 1.02102 88.3643 0.686933 87.7289 1.03084C87.4488 1.18315 87.1754 1.61549 87.1639 1.88243C87.1508 2.20996 87.4914 2.69307 87.8042 2.8028L89.1553 3.27608C89.6711 3.45623 90.2099 3.88856 90.359 4.30453C90.567 4.88918 90.4982 5.65724 90.0249 6.19276H90.0232Z" fill="var(--fill-0, white)"/>
<path id="Vector_5" d="M26.9176 6.80013C25.7909 7.26195 24.5741 7.02449 23.7553 6.19419C23.847 5.96001 24.2237 5.62101 24.4595 5.53585C25.0998 6.11558 25.8793 6.42346 26.6671 5.93544C26.9111 5.78477 27.2075 5.30331 27.1862 5.03964C27.1027 3.99645 25.6845 4.19296 24.5397 3.36594C23.6488 2.72234 23.7013 1.22879 24.5365 0.578639C25.5829 -0.236917 26.9995 -0.187779 28.0574 0.70966L27.3647 1.44169C26.7244 0.768611 25.7762 0.668718 25.1031 1.30249C24.9213 1.47281 24.8214 2.00177 24.9213 2.21303C25.5584 3.56574 28.534 2.6945 28.0984 5.44086C28.023 5.91251 27.553 6.5381 26.9193 6.79849L26.9176 6.80013Z" fill="var(--fill-0, white)"/>
<path id="Vector_6" d="M75.8345 3.1338C75.6871 4.18518 76.0867 5.17924 76.8122 5.70656C78.5186 6.94791 79.7452 5.4167 80.1841 5.40196C80.3675 5.39541 80.7409 5.89162 80.5886 6.05867C79.7321 6.99541 77.9045 7.32786 76.7106 6.67771C75.4087 5.97024 74.6914 4.65519 74.8552 3.0863C74.9911 1.77945 75.8099 0.672388 76.9481 0.271161C78.2435 -0.185747 79.606 -0.0629207 80.5985 1.04086L79.8746 1.61569C79.1213 0.880375 78.2468 0.729711 77.3772 1.05397C76.5682 1.35694 75.9786 2.11517 75.8345 3.13707V3.1338Z" fill="var(--fill-0, white)"/>
<path id="Vector_7" d="M1.42165 5.10351C1.85891 5.77986 2.53035 6.08119 3.15757 6.1598C3.90762 6.25479 4.59053 5.8945 5.16699 5.37373C5.35368 5.37045 5.75654 5.69307 5.85972 5.91743C4.93607 7.03104 3.4065 7.31108 2.1062 6.75755C0.913979 6.24988 0.0132653 5.03801 0.000163963 3.59687C-0.0129373 2.15572 0.760038 0.829209 1.9801 0.336273C3.28204 -0.189417 4.77067 -0.133735 5.78275 1.03392L5.03434 1.61529C4.15819 0.68837 2.89064 0.658888 1.93752 1.41713C0.861574 2.27362 0.637214 3.89491 1.42002 5.10351H1.42165Z" fill="var(--fill-0, white)"/>
<path id="Vector_8" d="M60.1477 6.79379L59.2322 6.85111L59.1995 1.04724L57.249 1.0112C57.0623 1.00793 57.0705 0.370873 57.1688 0.200556L62.2472 0.195648C62.2701 0.406907 62.2439 0.893289 62.1751 1.02103L60.1673 1.06525L60.1477 6.79379Z" fill="var(--fill-0, white)"/>
<path id="Vector_9" d="M67.9337 0.198955L67.9302 6.85606L68.8456 6.85654L68.8491 0.199434L67.9337 0.198955Z" fill="var(--fill-0, white)"/>
<g id="Vector_10">
</g>
</g>
</svg>
