<svg preserveAspectRatio="xMidYMid meet" width="100%" height="100%" overflow="visible" style="display: block;" viewBox="0 0 333.054 29.9998" fill="none" xmlns="http://www.w3.org/2000/svg">
<g id="Group">
<path id="Vector" d="M104.884 29.741C101.343 30.5347 97.7546 29.451 94.827 27.1983L94.7795 23.3153C94.7795 23.1537 94.9743 22.7307 95.0361 22.6262C95.1169 22.4883 95.3783 22.783 95.5589 22.9541C97.5075 24.7934 98.4058 25.3827 100.891 26.2002C103.059 26.9131 105.459 26.0766 106.666 24.1803C108.092 21.937 105.958 19.0759 104.755 18.3202L99.1519 14.7984C97.9495 14.0428 96.6568 12.7928 95.8488 11.5856C94.0856 8.94312 94.48 5.3976 96.3954 3.1163C97.8307 1.40532 99.5179 0.606871 101.657 0.150611C104.551 -0.462488 109.76 1.32453 109.888 2.62202C110.026 4.05734 109.941 5.36433 109.879 6.76162C106.856 3.99555 101.847 2.38914 99.1187 5.43087C97.8782 6.81866 98.363 8.38705 99.4133 9.64652C100.464 10.906 101.547 11.5809 102.892 12.3365C104.565 13.2728 106.115 14.2757 107.697 15.3545C108.339 15.7918 108.824 16.5284 109.27 17.1083C110.558 18.7907 111.138 20.6158 110.986 22.7973C110.744 26.2049 108.339 28.9615 104.884 29.7362V29.741Z" fill="var(--fill-0, white)"/>
<path id="Vector_2" d="M78.8271 11.6764L77.0116 14.0955L76.9926 29.5513L72.6391 29.6274V14.2904L71.0422 12.1374L67.7201 7.88851L66.3608 6.14427L64.8257 4.16714C63.8657 2.92669 63.0149 1.96189 62.1594 0.488546L66.8646 0.431514L74.6258 10.474C75.8377 9.16223 76.8025 7.92178 77.8576 6.55775L79.1883 4.83252L80.6712 2.91243L82.6863 0.450525L87.4343 0.536074L81.4696 8.27823L78.8367 11.6812L78.8271 11.6764Z" fill="var(--fill-0, white)"/>
<path id="Vector_3" d="M133.317 29.4886C131.939 29.75 130.689 29.7214 129.429 29.441L129.458 4.30397L119.724 4.26595V0.416261L143.478 0.416261L143.431 4.25645L133.331 4.30397L133.317 29.4886Z" fill="var(--fill-0, white)"/>
<path id="Vector_4" d="M188.983 26.0059L201.211 26.0297L201.254 29.2472C201.007 29.3708 200.318 29.6655 199.999 29.6607L184.14 29.6417V0.483869L187.68 0.412578C188.593 0.393568 188.213 1.28232 188.213 1.75759L188.184 24.8938C188.184 25.236 188.56 26.0059 188.983 26.0059Z" fill="var(--fill-0, white)"/>
<path id="Vector_5" d="M289.513 0.402183L289.339 29.6451L293.341 29.6688L293.514 0.42593L289.513 0.402183Z" fill="var(--fill-0, white)"/>
<path id="Vector_6" d="M327.237 26.9745L324.67 23.9708L321.933 20.7865L319.09 17.4929L317.213 15.3019L315.688 13.5006L312.765 10.0121C312.042 9.12334 311.386 8.35815 310.246 7.44563L310.236 29.3651C308.943 29.8024 307.717 29.7263 306.405 29.3413V0.554212C307.418 0.397373 308.777 0.326083 309.628 0.525696L312.584 3.84308L315.298 7.04165L316.937 8.98551L329.114 23.0155L329.19 0.478169C330.544 0.406878 331.69 0.411631 333.054 0.492427V29.4126C329.204 30.1446 329.057 29.099 327.237 26.9697V26.9745Z" fill="var(--fill-0, white)"/>
<g id="Group_2">
<path id="Vector_7" d="M235.54 29.9837C232.698 29.9172 230.265 28.9857 228.24 27.3127L228.269 22.5505C230.246 24.3803 231.871 25.7871 234.21 26.1293C235.212 26.6188 236.063 26.4572 237.095 26.1768C239.404 25.5447 241.201 23.4393 240.122 21.0582C239.133 18.8814 237.014 17.7123 235.056 16.4861C231.724 14.4044 229.105 13.1734 228.06 9.1669C227.794 8.14982 227.789 7.33236 228.098 6.33904C228.407 5.34573 228.625 4.34291 229.186 3.57297C232.465 -0.932596 238.863 -0.899328 242.993 2.27073L243.016 6.15844C242.722 6.23448 242.056 6.10616 241.862 5.93031C239.808 4.08626 237.104 3.3686 234.476 4.072C232.912 4.49024 231.496 5.88753 231.7 7.58425C232.309 12.6031 242.422 13.2922 243.848 19.9746C244.129 21.2911 244.133 23.0353 243.848 24.29C243.007 28.0542 239.347 30.074 235.545 29.9837H235.54Z" fill="var(--fill-0, white)"/>
<path id="Vector_8" d="M266.455 11.5907C265.637 12.47 264.777 13.4585 264.035 14.4376C265.328 15.5782 266.203 16.4147 267.305 17.4983L270.875 20.9963L279.239 29.3041C277.932 29.8173 276.678 29.5845 275.599 29.6985C273.864 29.8839 273.446 29.0379 272.481 28.1064L269.13 24.8698L259.463 15.3596C258.812 15.4927 258.674 15.7161 259.344 16.025V29.4181C257.942 29.7651 256.517 29.7793 255.072 29.3991V0.526421C256.531 0.398098 257.705 0.388592 259.321 0.521668V12.7029C259.321 12.8835 259.14 13.2589 259.102 13.3967C259.064 13.5346 259.672 13.4585 259.801 13.316L263.527 9.16684L267.039 5.33616L271.511 0.450378L276.407 0.526421L273.688 3.61093L271.283 6.23917L269.639 8.15451L266.45 11.5907H266.455Z" fill="var(--fill-0, white)"/>
</g>
<path id="Vector_9" d="M168.662 25.4828C167.982 23.8621 167.321 22.6074 166.513 20.9202L155.121 20.8679C154.617 20.8679 154.166 21.3859 153.985 21.7899L152.289 25.5826C151.78 26.7185 151.599 28.4865 150.511 29.2992C149.423 30.1119 147.564 29.6224 146.414 29.4227L149.266 23.0351L151.999 16.619L154.256 11.2912L157.721 3.1498C158.044 2.39412 158.362 1.06336 158.942 0.564325C159.812 0.298174 160.834 0.426497 161.765 0.488282L163.685 4.82275L164.688 7.14682L166.49 11.2769L167.996 14.7416L169.374 17.8974L172.05 23.9334L174.526 29.5321C173.186 29.7032 171.575 29.7412 170.339 29.456L168.671 25.478L168.662 25.4828ZM164.893 17.2891L163.628 14.2569L160.791 7.85973C160.706 7.66487 160.687 7.08028 160.501 7.11355C160.283 7.15633 159.917 7.38446 159.822 7.61259L157.117 14.3329L155.967 17.3224L164.893 17.2843V17.2891Z" fill="var(--fill-0, white)"/>
<g id="Group_3">
<path id="Vector_10" d="M57.9682 27.1412L59.6506 29.6269L55.0168 29.6079L52.417 25.7582C50.1452 22.3932 47.3839 15.6492 41.6522 17.0322L41.6427 29.356C40.2549 29.6791 39.043 29.7504 37.5934 29.5176L37.5839 0.445255C42.9877 0.678137 48.1444 -0.733416 52.2935 3.17806C53.1632 3.99553 53.8904 5.45461 54.1328 6.65704C54.9645 10.7966 53.3296 13.9952 49.4989 15.7965C51.2621 17.2651 52.5454 18.5816 53.6195 20.2783L57.9634 27.1364L57.9682 27.1412ZM50.1072 9.24251C50.4684 6.54773 48.7575 4.48981 46.1197 4.18563C44.6179 4.01454 43.2063 3.58679 41.6617 4.09533L41.6474 12.6217C41.6474 13.2918 42.655 13.5295 43.2206 13.4059C45.9154 12.8165 49.5417 13.4772 50.1072 9.24251Z" fill="var(--fill-0, white)"/>
<path id="Vector_11" d="M6.25736 8.74843C3.61486 12.6314 3.61961 17.9164 6.35241 21.671C9.3276 25.7631 14.047 26.6614 18.7332 25.8867C21.3186 25.4589 23.3195 24.304 25.905 23.1016L25.9668 27.4266C21.8985 29.7744 16.4091 30.4445 12.0651 29.7079C7.10334 28.8619 3.26316 25.5397 1.26228 21.0247C-1.66063 14.4279 0.639673 6.75705 6.64233 2.78379C10.1973 0.426447 14.4415 -0.571622 18.6239 0.326639L20.2826 0.683092C22.1028 1.07757 24.0182 1.78097 25.6341 2.66972L25.4963 6.68101L22.6114 5.46431C21.7844 5.11737 20.9432 4.80369 20.0877 4.62309L17.8967 4.16207C13.8807 3.31609 8.7145 5.13638 6.25736 8.74368V8.74843Z" fill="var(--fill-0, white)"/>
</g>
</g>
</svg>
