<svg preserveAspectRatio="xMidYMid meet" width="100%" height="100%" overflow="visible" style="display: block;" viewBox="0 0 262.634 40" fill="none" xmlns="http://www.w3.org/2000/svg">
<g id="Group">
<path id="Vector" d="M234.338 29.4996L229.235 29.5642L223.456 18.803L220.507 29.5254L214.762 29.5039L220.162 9.3939L225.635 9.38528L231.074 19.6341L233.985 9.37667L239.717 9.41543L234.338 29.4996Z" fill="var(--fill-0, white)"/>
<path id="Vector_2" d="M120.909 29.4652L114.278 29.5599L111.81 23.6217C111.332 23.1738 109.967 23.1911 109.36 23.5614L107.676 29.5599L101.906 29.5384L107.302 9.38105L118.394 9.36813C118.997 9.36813 119.699 9.50593 120.229 9.65234C123.101 10.1734 124.673 12.6882 124.057 15.4743C123.342 18.7298 121.426 21.2145 117.994 22.4978L120.905 29.4609L120.909 29.4652ZM117.834 16.8566C118.097 16.2236 117.994 15.4011 117.675 14.9748C117.443 14.6605 116.745 14.2772 116.297 14.2815L111.81 14.303L110.566 19.0356C113.171 18.9925 116.672 19.6557 117.834 16.8609V16.8566Z" fill="var(--fill-0, white)"/>
<path id="Vector_3" d="M44.0428 18.8849C42.3548 25.9385 35.2625 30.6581 28.364 29.9045C23.4894 29.3705 20.4664 25.3227 21.375 20.4911C22.8348 12.7357 31.3482 7.31844 38.7979 9.35528C43.0136 10.5093 45.0591 14.6605 44.0471 18.8849H44.0428ZM37.9194 19.5653C38.406 18.0194 38.2596 16.3916 37.183 15.2505C36.1065 14.1093 34.4185 13.8165 32.851 14.2127C29.9443 14.9447 27.731 17.4983 27.3692 20.4696C27.2056 21.8218 27.6879 22.9801 28.5233 23.794C29.3587 24.6079 30.4568 24.961 31.7314 24.8361C34.6898 24.5433 37.0065 22.4634 37.9194 19.5696V19.5653Z" fill="var(--fill-0, white)"/>
<path id="Vector_4" d="M253.776 21.9034L249.904 21.757L251.084 17.7006L260.597 17.7522L258.146 26.847C254.641 29.1766 250.511 30.4599 246.36 29.8441C243.333 29.3962 240.564 27.6005 239.798 24.612C237.851 17.0073 245.271 9.11399 253.487 8.92883C256.519 8.85993 259.442 9.48002 261.441 11.9087L256.997 15.892C255.532 14.3977 253.793 13.7905 251.721 14.0877C248.229 14.5915 245.495 17.9546 245.615 21.4513C245.68 23.3202 246.933 24.612 248.699 24.935C250.197 25.2106 251.812 25.0556 253.186 24.2417C253.56 23.7723 253.72 22.769 253.771 21.8948L253.776 21.9034Z" fill="var(--fill-0, white)"/>
<path id="Vector_5" d="M195.793 29.5469L197.584 22.7043C197.627 22.5407 197.589 22.1273 197.502 22.0282C197.416 21.9292 197.098 21.8301 196.955 21.8301L191.293 21.8215C190.957 21.8215 190.505 22.2823 190.414 22.6225L188.511 29.5899L182.741 29.5081L188.136 9.38518L193.924 9.37657L191.999 16.8349L199.126 16.8866L201.206 9.36365L206.98 9.44547L201.598 29.5469H195.797H195.793Z" fill="var(--fill-0, white)"/>
<path id="Vector_6" d="M140.89 21.5847L131.055 21.6149L130.129 24.6206L139.284 24.6507C139.895 24.6507 140.481 24.7627 141.127 24.9306L139.87 29.5684H123.058L128.458 9.38522H145.123L143.904 14.0833L133.109 14.1177C132.635 15.0866 132.385 16.0125 132.368 17.089L141.984 17.1364L140.89 21.5847Z" fill="var(--fill-0, white)"/>
<path id="Vector_7" d="M79.4884 27.4285C75.3286 31.007 66.8067 30.8218 63.1119 26.5329L67.3105 22.7735C68.7703 24.0826 70.187 24.7329 71.9267 25.086C73.4812 25.4003 75.9099 25.1721 76.0606 23.652C76.0908 23.3592 75.6946 22.7132 75.4018 22.6271L71.0913 21.3439C68.2708 20.5042 66.2555 19.0702 66.9832 15.7975C67.6119 12.964 69.6358 10.8539 72.353 9.7817C75.9444 8.36496 81.9903 8.61472 84.6472 11.7798L80.7286 15.6338C78.864 14.3764 77.0295 13.5324 74.8463 13.7693C74.041 13.8554 72.9128 14.4152 73.0722 15.4099C73.3908 17.3994 81.8094 16.6501 82.2357 21.1759C82.4639 23.6003 81.2927 25.874 79.4927 27.4242L79.4884 27.4285Z" fill="var(--fill-0, white)"/>
<path id="Vector_8" d="M65.286 15.203C64.7779 20.6977 59.6062 23.8886 54.2493 23.7982C53.2761 23.781 52.3632 23.8886 51.3728 24.0609L49.8398 29.5858L44.0609 29.5341L49.4694 9.39824L60.4373 9.46714C62.0952 9.47575 63.4387 10.5394 64.5325 11.56C65.1655 12.7054 65.4109 13.8466 65.286 15.2073V15.203ZM59.2445 16.3872C59.8043 13.5667 55.5799 14.0662 54.0512 14.0963L52.6991 19.2293C55.2311 19.2982 58.5727 19.7461 59.2445 16.3829V16.3872Z" fill="var(--fill-0, white)"/>
<path id="Vector_9" d="M169.026 21.4256C169.146 23.6217 170.882 24.9351 172.815 24.8103C174.878 24.6768 176.355 23.7208 177.961 22.3256L181.484 25.3787C178.31 28.8236 173.999 30.4385 169.547 29.883C165.094 29.3275 162.429 25.7835 162.902 21.3438C163.281 17.8084 165.12 14.6777 167.855 12.3524C170.727 9.91076 174.202 8.72656 177.996 8.95479C180.842 9.12704 183.383 10.5093 184.528 13.2782L179.572 16.3787C178.9 15.75 178.426 15.1127 177.806 14.7251C175.976 13.5797 173.655 14.1093 171.963 15.3969C170.163 16.7619 168.888 19.0572 169.021 21.4342L169.026 21.4256Z" fill="var(--fill-0, white)"/>
<path id="Vector_10" d="M93.3154 29.5383L87.5021 29.5513L91.5757 14.3503L85.4394 14.2513L86.7442 9.37667H104.882L103.629 14.2642L97.4364 14.2987L93.3154 29.5383Z" fill="var(--fill-0, white)"/>
<path id="Vector_11" d="M11.9104 29.5123C9.9123 29.5942 8.15968 29.6071 6.12285 29.4607L10.1362 14.3588L4.04297 14.221L5.34774 9.3722H23.4337L22.2151 14.2684L16.0271 14.2985L11.919 29.508L11.9104 29.5123Z" fill="var(--fill-0, white)"/>
<path id="Vector_12" d="M153.542 29.5556L147.733 29.547L151.802 14.346L145.67 14.2513L146.962 9.37667L165.13 9.38098L163.843 14.2728L157.65 14.3202L153.542 29.5556Z" fill="var(--fill-0, white)"/>
<path id="Vector_13" d="M211.107 29.5126L205.264 29.4867L210.638 9.41981L216.503 9.42411L211.107 29.5126Z" fill="var(--fill-0, white)"/>
<path id="Vector_14" d="M40.0945 31.9672L45.2447 31.9285C45.3739 31.9285 45.7054 32.049 45.7959 32.1309C46.3514 32.6088 41.2744 40.2394 32.7051 39.9552C30.2032 39.8734 27.796 39.0768 26.2544 37.1605C25.0271 35.6361 24.2994 33.8189 24.7128 31.9457L30.5606 31.9586C31.2022 33.9567 32.8386 35.0849 34.9271 34.9213C37.0156 34.7576 38.6778 33.6553 40.0945 31.9672Z" fill="var(--fill-0, white)"/>
<path id="Vector_15" d="M262.634 32.0101L261.389 36.8503C257.247 39.6709 250.68 41.3288 246.124 38.603C243.816 37.2207 242.571 34.6972 242.817 31.9628L248.729 31.9456C249.311 33.668 250.335 34.8006 252.088 35.0632C253.557 35.2872 255.081 35.0331 256.459 34.4087L257.316 31.9757L262.634 32.0101Z" fill="var(--fill-0, white)"/>
<path id="Vector_16" d="M117.283 38.9864L115.057 33.4744L112.58 33.4486L110.94 39.5849L105.208 39.529L107.236 31.9716L121.692 31.95L121.275 32.8156L124.155 39.5591L118.166 39.6452C117.929 39.6452 117.373 39.2146 117.283 38.9907V38.9864Z" fill="var(--fill-0, white)"/>
<path id="Vector_17" d="M143.486 34.7015C143.796 34.7015 144.308 35.0718 144.248 35.2871L143.068 39.6105H126.356L128.393 31.9541H133.986L133.426 34.7058H143.481L143.486 34.7015Z" fill="var(--fill-0, white)"/>
<path id="Vector_18" d="M153.081 6.77138L147.504 6.81875L147.573 5.34172L141.652 5.25559L142.939 0.4068L160.995 0.393882L159.742 5.27282L153.726 5.32018C153.515 5.66899 153.348 6.06516 153.081 6.77999V6.77138Z" fill="var(--fill-0, white)"/>
<path id="Vector_19" d="M11.5406 6.77575L5.92531 6.8102L5.88225 5.32886L0 5.24705L1.26602 0.385337H19.2228C18.9817 2.12935 18.551 3.5504 18.0214 5.25997L12.2769 5.32456C11.8937 5.32456 11.6439 6.00494 11.5363 6.77575H11.5406Z" fill="var(--fill-0, white)"/>
<path id="Vector_20" d="M92.8462 6.78453L87.2611 6.80607L87.3257 5.33765L81.4176 5.24722L82.6922 0.402733L100.752 0.389813L99.5036 5.26444L93.4448 5.3075L92.8462 6.78453Z" fill="var(--fill-0, white)"/>
<path id="Vector_21" d="M114.071 6.80612C113.601 5.72526 112.736 5.2688 111.732 5.27311L107.715 5.29464L107.258 6.78889L101.527 6.79751L103.301 0.389868H113.468C114.549 0.385562 115.72 0.635323 116.745 0.941064C119.492 1.76786 120.289 4.02431 119.88 6.7932L114.071 6.80181V6.80612Z" fill="var(--fill-0, white)"/>
<path id="Vector_22" d="M181.203 32.4449L184.666 35.4205C181.681 38.7062 177.237 40.4717 172.841 39.8904C168.793 39.3564 165.779 36.144 166.239 31.9626H172.212C172.875 34.4215 175.093 35.3775 177.328 34.7014C178.77 34.2665 179.804 33.5861 181.203 32.4449Z" fill="var(--fill-0, white)"/>
<path id="Vector_23" d="M33.4806 6.77151C31.8356 4.28683 28.3046 4.80358 26.1945 6.46577C25.6864 6.86625 25.0103 6.88778 24.3644 6.86625L19.3262 6.71553C22.8486 1.28971 30.5179 -1.71603 36.1203 1.03995C38.4198 2.17248 39.7892 4.23515 40.0475 6.80166L33.4806 6.77151Z" fill="var(--fill-0, white)"/>
<path id="Vector_24" d="M66.4187 36.6135L70.5483 32.8499C72.6669 34.8222 76.8913 36.325 78.9798 34.4647C79.1994 34.2667 79.4449 33.6164 79.3544 33.3667C79.2511 33.0782 78.7343 32.7035 78.4114 32.5485L77.8903 32.2944C77.8214 32.26 77.8688 32.2212 77.9937 31.937L85.4175 31.9672C85.4649 33.8145 84.6597 35.3217 83.5099 36.6265C81.3396 39.0896 78.1789 39.9767 74.932 39.8992C71.6851 39.8217 68.7957 39.1973 66.4144 36.6222L66.4187 36.6135Z" fill="var(--fill-0, white)"/>
<path id="Vector_25" d="M55.4932 6.7843C54.21 4.60966 52.2033 5.09196 49.9339 5.16947L49.4258 6.80152L43.7158 6.7886L45.4254 0.393882H55.1487C56.0272 0.393882 57.108 0.742685 57.9219 1.00106C60.4669 1.81062 61.72 4.33406 61.0094 6.81875L55.4889 6.7843H55.4932Z" fill="var(--fill-0, white)"/>
<path id="Vector_26" d="M128.849 5.2815L128.276 6.8059L122.734 6.79298L124.457 0.385337L141.023 0.411173L139.714 5.23844L128.849 5.2815Z" fill="var(--fill-0, white)"/>
<path id="Vector_27" d="M174.843 6.58638C171.247 3.50314 168.78 6.12562 167.333 6.57777C165.4 7.18064 163.001 6.68543 160.921 6.72418C163.802 2.22419 168.72 -0.217426 173.749 0.0452527C176.69 0.200276 179.218 1.52228 180.372 4.27826L177.384 6.22466C176.759 6.62945 175.614 7.24954 174.843 6.58638Z" fill="var(--fill-0, white)"/>
<path id="Vector_28" d="M252.975 6.85752C250.12 4.38145 246.912 4.45466 244.178 6.7757L237.529 6.72403C240.875 1.76328 246.503 -0.708488 252.149 0.204429C254.211 0.536007 255.869 1.34558 257.286 2.97763L252.975 6.85752Z" fill="var(--fill-0, white)"/>
<path id="Vector_29" d="M76.8263 6.52618C74.2641 5.91901 74.9875 4.76495 71.0431 4.81231C69.8244 4.82954 68.8469 5.3549 68.8512 6.81039L63.068 6.79317C63.1886 5.07499 64.2048 3.78313 65.4278 2.65921C67.5335 0.730028 70.3455 -0.00202767 73.2005 0.0927089C75.8961 0.183139 78.454 0.674047 80.4521 2.75395L76.8263 6.52618Z" fill="var(--fill-0, white)"/>
<path id="Vector_30" d="M237.542 39.572H232.516L228.912 32.8026C228.835 32.6605 228.774 32.3376 228.774 32.2557C228.77 32.1352 229.11 31.9285 229.239 31.9285L239.531 31.9672L237.537 39.5677L237.542 39.572Z" fill="var(--fill-0, white)"/>
<path id="Vector_31" d="M54.6537 33.8533L53.0432 39.6236L47.3763 39.5848L49.1633 32.781C49.2839 32.316 49.6112 31.937 50.227 31.937H63.1886C63.3565 31.937 63.7828 32.1609 63.7053 32.2298C61.8795 33.8447 57.2676 33.9049 54.658 33.8576L54.6537 33.8533Z" fill="var(--fill-0, white)"/>
<path id="Vector_32" d="M224.761 6.7413L214.448 6.80159L216.179 0.385337L221.459 0.389643L224.761 6.7413Z" fill="var(--fill-0, white)"/>
<path id="Vector_33" d="M214.311 39.5717L208.55 39.5846L210.328 32.8109C210.44 32.3846 210.862 31.898 211.297 31.9066L216.309 32.0013L214.311 39.5673V39.5717Z" fill="var(--fill-0, white)"/>
<path id="Vector_34" d="M98.444 32.5483L96.5148 39.5889L90.8349 39.5717L92.8717 31.9713L97.7722 31.911C97.9961 31.911 98.5085 32.3244 98.444 32.544V32.5483Z" fill="var(--fill-0, white)"/>
<path id="Vector_35" d="M156.788 39.5375L151.035 39.5676L153.063 31.9586L158.752 31.9715L156.788 39.5375Z" fill="var(--fill-0, white)"/>
<path id="Vector_36" d="M191.764 39.5761L186.058 39.5201L187.841 32.6732C187.948 32.2598 188.482 31.8809 188.917 31.8938L193.775 32.0359L191.764 39.5761Z" fill="var(--fill-0, white)"/>
<path id="Vector_37" d="M15.1267 39.5761C13.0813 39.6277 11.432 39.632 9.41243 39.5244L11.1995 32.6861C11.3115 32.2641 11.8239 31.8809 12.2674 31.8938L17.1248 32.0402L15.1224 39.5761H15.1267Z" fill="var(--fill-0, white)"/>
<path id="Vector_38" d="M204.776 39.5718L199.066 39.5804L201.124 31.98L205.96 31.924C206.123 31.924 206.507 32.0144 206.528 32.1393L206.649 32.7551L204.771 39.5718H204.776Z" fill="var(--fill-0, white)"/>
<path id="Vector_39" d="M223.754 39.5718L218.083 39.5632L219.878 32.6345C219.973 32.2642 220.593 31.8809 220.963 31.8895L225.696 32.0273L223.749 39.5718H223.754Z" fill="var(--fill-0, white)"/>
<path id="Vector_40" d="M210.693 6.78877L204.945 6.79739L206.581 0.398358H212.338L210.693 6.78877Z" fill="var(--fill-0, white)"/>
<path id="Vector_41" d="M201.158 6.81875L195.431 6.7843L197.115 0.445559L202.829 0.462784L201.158 6.81875Z" fill="var(--fill-0, white)"/>
<path id="Vector_42" d="M188.141 6.78884L182.392 6.80176L184.089 0.402733L189.765 0.389813L188.141 6.78884Z" fill="var(--fill-0, white)"/>
<path id="Vector_43" d="M233.921 6.79294L228.237 6.79725L229.895 0.436979L235.575 0.415448L233.921 6.79294Z" fill="var(--fill-0, white)"/>
<g id="Vector_44">
</g>
<g id="Vector_45">
</g>
<g id="Vector_46">
</g>
</g>
</svg>
