<svg preserveAspectRatio="xMidYMid meet" width="100%" height="100%" overflow="visible" style="display: block;" viewBox="0 0 114.616 18.395" fill="none" xmlns="http://www.w3.org/2000/svg">
<g id="Group">
<path id="Vector" d="M43.0366 14.8354C41.1224 14.9247 39.7083 14.8469 38.7983 14.3958C38.1892 14.1001 37.7452 13.4155 37.7076 12.6335C37.6738 11.9723 37.685 11.6298 37.9859 11.237C38.659 10.3616 40.4192 10.1708 42.2318 10.1009C43.4539 10.0543 45.3231 10.1942 46.6956 10.3577C46.6844 11.6844 46.5978 13.0149 46.3195 13.5945C45.8308 14.629 44.0782 14.7883 43.0366 14.8354ZM49.7119 2.9285C47.9969 0.564965 44.8982 -0.146922 41.6827 0.024218C38.4222 0.199295 36.1469 0.887792 35.5678 1.1078C35.2067 1.24211 35.2555 1.55313 35.2519 1.73979C35.2369 2.36622 35.1879 3.97873 35.1879 4.63226C35.1917 4.92406 35.5489 5.05814 35.846 4.95115C37.0345 4.53291 39.2305 3.85993 40.9946 3.71612C42.8974 3.56443 45.4885 3.71612 46.1993 4.7997C46.5414 5.31312 46.5566 6.09911 46.598 6.90062C45.4095 6.79178 43.6495 6.64009 41.901 6.73712C40.5397 6.811 37.9333 6.92401 36.3954 7.74289C35.1431 8.40406 34.4135 9.01127 34.0222 10.1354C33.7064 11.0379 33.6238 12.1275 33.7214 13.0105C33.9508 15.0334 34.654 16.0451 35.6056 16.7455C37.1023 17.8503 38.9939 18.4379 42.905 18.3482C48.1061 18.2394 49.4786 16.5586 50.1668 15.3604C51.3402 13.3294 51.137 10.124 51.1032 8.15534C51.0884 7.33854 50.968 4.65195 49.7119 2.9285Z" fill="var(--fill-0, white)"/>
<path id="Vector_2" d="M68.5022 13.6642C67.577 14.7186 65.8998 14.9051 64.5236 14.9051C63.147 14.9051 61.4755 14.7223 60.5503 13.6719C59.6251 12.6138 59.5651 11.1666 59.5651 9.33016C59.5651 7.50968 59.6253 6.09332 60.5465 5.03707C61.4717 3.9829 62.959 3.80204 64.5238 3.80204C66.0955 3.80204 67.5775 3.9829 68.5024 5.03707C69.4203 6.09355 69.4876 7.50968 69.4876 9.33016C69.4876 11.159 69.42 12.6138 68.5022 13.6642ZM64.5236 0.284981C61.8984 0.284981 59.2792 0.615682 57.6206 2.2495C55.9585 3.87776 55.3191 6.32884 55.3191 9.33016C55.3191 12.3338 55.8906 14.7418 57.553 16.3721C59.2152 17.9981 61.9062 18.395 64.5236 18.395C67.1488 18.395 69.7585 18.0604 71.4207 16.4342C73.0754 14.7999 73.7298 12.3336 73.7298 9.32993C73.7298 6.32861 73.1504 3.93404 71.488 2.30392C69.8337 0.675893 67.1485 0.284981 64.5236 0.284981Z" fill="var(--fill-0, white)"/>
<path id="Vector_3" d="M114.33 0.605955H110.615C110.457 0.605955 110.336 0.734484 110.336 0.890108V17.804C110.336 17.9557 110.457 18.0842 110.615 18.0842H114.33C114.488 18.0842 114.616 17.9557 114.616 17.804V0.889876C114.616 0.734252 114.488 0.605955 114.33 0.605955Z" fill="var(--fill-0, white)"/>
<path id="Vector_4" d="M97.0687 0.316013C94.5266 0.316013 92.9094 0.858844 91.9316 1.36068H91.2546C90.2992 0.831517 88.6073 0.316013 85.9521 0.316013C83.9888 0.316013 81.5821 0.460058 80.093 1.7069C78.8669 2.73583 78.581 4.10518 78.581 6.92216V17.7961C78.581 17.9518 78.7089 18.0761 78.8669 18.0761H82.5747C82.7327 18.0761 82.8682 17.9518 82.8682 17.7961V17.7572C82.8682 17.7572 82.8682 10.8864 82.8682 8.848C82.8682 7.2334 82.8006 5.55072 83.1464 4.92243C83.4247 4.43611 83.846 3.88957 85.8616 3.88957C88.2686 3.88957 88.8325 4.05678 89.2086 5.1209C89.2988 5.37171 89.344 5.73182 89.3664 6.16951V9.77804V17.7964C89.3664 17.952 89.4944 18.0764 89.6522 18.0764H93.3605H93.3679C93.5257 18.0764 93.6535 17.952 93.6535 17.7964V9.77781V6.16928C93.6761 5.73159 93.7137 5.37171 93.8042 5.12067C94.1876 4.05654 94.7515 3.88934 97.1585 3.88934C99.1667 3.88934 99.5954 4.43588 99.8663 4.9222C100.22 5.55049 100.152 7.23317 100.152 8.84777C100.152 10.8862 100.152 17.757 100.152 17.757V17.7959C100.152 17.9515 100.28 18.0759 100.438 18.0759H104.146C104.303 18.0759 104.439 17.9515 104.439 17.7959V7.58749C104.439 4.66376 104.341 3.16588 102.972 1.88985C101.454 0.489237 99.0315 0.316013 97.0687 0.316013Z" fill="var(--fill-0, white)"/>
<path id="Vector_5" d="M28.197 0.605955H24.4849C24.3269 0.605955 24.1993 0.734484 24.1993 0.890108V17.804C24.1993 17.9557 24.3271 18.0842 24.4849 18.0842H28.197C28.355 18.0842 28.4826 17.9557 28.4826 17.804V0.889876C28.4826 0.734252 28.355 0.605955 28.197 0.605955Z" fill="var(--fill-0, white)"/>
<path id="Vector_6" d="M12.5973 9.20186L19.19 1.04735C19.3328 0.872276 19.205 0.60966 18.9793 0.60966H14.2259C14.1131 0.60966 14.0076 0.660146 13.9362 0.751621L9.58146 6.52152L5.33552 0.751853C5.2641 0.660377 5.15867 0.609892 5.04204 0.609892H0.273602C0.0479515 0.609892 -0.0798724 0.872507 0.0631739 1.04758L6.73464 9.35378L0.0555627 17.6482C-0.0798724 17.8269 0.0479515 18.084 0.27002 18.084H5.03465C5.15128 18.084 5.2603 18.0296 5.3279 17.936L9.77689 12.1858L13.9926 17.936C14.0604 18.0294 14.1695 18.084 14.2823 18.084H18.9905C19.2162 18.084 19.344 17.8272 19.205 17.6482L12.5973 9.20186Z" fill="var(--fill-0, white)"/>
</g>
</svg>
