<svg preserveAspectRatio="xMidYMid meet" width="100%" height="100%" overflow="visible" style="display: block;" viewBox="0 0 271.698 30" fill="none" xmlns="http://www.w3.org/2000/svg">
<g id="_&#208;&#161;&#208;&#187;&#208;&#190;&#208;&#185;_1" clip-path="url(#clip0_0_166)">
<g id="Vector">
</g>
<path id="Vector_2" d="M0 28.3189V0.560377H6.15566L6.18679 18.8519L19.6698 0.433019L25.3528 0.492453L25.3274 28.5368L19.2651 28.483L19.2906 10.0217L5.86132 28.5453H1.95C1.29623 28.5396 0.551887 28.4349 0 28.3189Z" fill="var(--fill-0, white)"/>
<path id="Vector_3" d="M93.8632 0C102.113 0 108.492 6.11321 108.419 14.6038C108.359 21.184 104.326 26.7962 97.7604 28.3811C94.6019 29.1425 91.3613 29.0519 88.2679 28.0896C82.1717 26.1906 78.6085 20.8358 78.5236 14.6038C78.4075 6.14717 84.7924 0.237736 93.017 0.00283019H93.866L93.8632 0ZM102.255 14.5217C102.255 9.71038 98.3207 5.80755 93.467 5.80755C88.6132 5.80755 84.6792 9.70755 84.6792 14.5217C84.6792 19.3358 88.6132 23.2358 93.467 23.2358C98.3207 23.2358 102.255 19.3358 102.255 14.5217Z" fill="var(--fill-0, white)"/>
<path id="Vector_4" d="M54.7981 28.3755C52.6189 28.5481 50.9519 28.5396 48.5943 28.5453L48.5377 17.25L36.0736 17.2613L36.0453 28.5142L29.8274 28.4745V0.537736L36.0538 0.543396L36.0481 11.6094L48.5264 11.5642L48.5802 0.546226L54.784 0.540566L54.7953 28.3783L54.7981 28.3755Z" fill="var(--fill-0, white)"/>
<path id="Vector_5" d="M234.824 22.0557L222.872 22.0443L220.2 28.4887L213.914 28.4604L225.968 0.322642L231.693 0.274528L243.756 28.4009L237.555 28.5651L234.824 22.0528V22.0557ZM232.63 16.517L228.872 7.78868L225.071 16.6726L232.63 16.517Z" fill="var(--fill-0, white)"/>
<path id="Vector_6" d="M271.636 28.4066L264.521 28.5311L258.096 19.3443L251.646 28.5L244.599 28.4349L254.536 14.2981L244.942 0.520755L252.238 0.486792L258.263 9.09906L264.269 0.472641L271.291 0.546226L261.832 14.1708L271.636 28.4066Z" fill="var(--fill-0, white)"/>
<path id="Vector_7" d="M143.527 14.1623C143.437 17.3321 144.541 20.3462 147.167 21.9509C150.733 24.133 155.193 23.6406 158.626 21.0708L162.43 24.8604C158.369 28.5764 153.17 29.6547 148.073 28.5226C141.311 27.017 137.083 21.3736 137.032 14.5981C136.97 6.25472 143.474 -0.0169811 151.851 0.178302C155.805 0.271698 159.532 1.13491 162.425 4.27076L158.615 7.98962C155.343 5.50189 150.996 4.94434 147.439 6.91981C144.852 8.35472 143.615 11.1028 143.527 14.1651V14.1623Z" fill="var(--fill-0, white)"/>
<path id="Vector_8" d="M65.4594 6.03396L65.4198 28.483L59.284 28.534L59.2613 0.500943L78.4104 0.515094L78.433 6.01981L65.4594 6.03396Z" fill="var(--fill-0, white)"/>
<g id="Vector_9">
</g>
<g id="Vector_10">
</g>
<g id="Vector_11">
</g>
<path id="Vector_12" d="M117.572 14.2104C117.49 17.4708 118.692 20.5698 121.525 22.1377C125.052 24.0906 129.314 23.5811 132.651 21.0821L136.449 24.8915C130.61 30.1557 121.913 30.3028 115.97 25.4915C112.497 22.6811 111.065 18.433 111.11 14.1255C111.198 5.98019 117.722 0.0169812 125.827 0.169811C129.824 0.246226 133.537 1.12359 136.469 4.2566L132.716 7.96698C129.481 5.60094 125.239 4.91887 121.625 6.82925C118.922 8.25849 117.651 11.0943 117.572 14.2047V14.2104Z" fill="var(--fill-0, white)"/>
<g id="Group">
<path id="Vector_13" d="M206.295 20.0123L198.86 20.1509L198.818 28.5226L192.608 28.4774L192.6 0.571698L206.754 0.614151C209.533 0.622642 211.967 1.95849 213.886 3.80943C216.875 7.51698 217.039 12.9934 213.838 16.6274C212.007 18.7075 209.205 19.9557 206.292 20.0094L206.295 20.0123ZM205.958 14.4594C208.636 14.4368 209.977 11.8896 209.754 9.6934C209.53 7.49717 207.685 6.01981 205.245 6.00849L198.764 5.97453V14.5217L205.956 14.4594H205.958Z" fill="var(--fill-0, white)"/>
<path id="Vector_14" d="M179.717 28.3953L173.508 28.5368L173.479 6.2151L164.383 6.17264L164.349 0.560377H188.779L188.791 6.15566L179.72 6.21227L179.717 28.3953Z" fill="var(--fill-0, white)"/>
</g>
</g>
<defs>
<clipPath id="clip0_0_166">
<rect width="271.698" height="30" fill="white"/>
</clipPath>
</defs>
</svg>
