<svg preserveAspectRatio="xMidYMid meet" width="100%" height="100%" overflow="visible" style="display: block;" viewBox="0 0 173.92 30" fill="none" xmlns="http://www.w3.org/2000/svg">
<g id="Group 261">
<g id="Group">
<g id="Group_2">
<path id="Vector" d="M146.801 15.0011C146.801 23.2814 140.084 29.9945 131.796 29.9945C123.509 29.9945 116.791 23.2814 116.791 15.0011C116.791 6.72079 123.509 0.00772671 131.796 0.00772671C140.084 0.00772671 146.801 6.72079 146.801 15.0011ZM139.469 15.0011C139.469 10.7657 136.033 7.33319 131.794 7.33319C127.555 7.33319 124.119 10.7669 124.119 15.0011C124.119 19.2353 127.555 22.669 131.794 22.669C136.033 22.669 139.469 19.2353 139.469 15.0011Z" fill="var(--fill-0, white)"/>
<path id="Vector_2" d="M168.893 19.532C166.89 20.6154 164.799 21.0338 162.576 21.2033L157.414 21.2138L157.407 29.5362L149.356 29.5327V0.465706L162.562 0.486742C164.798 0.490248 166.855 1.02201 168.807 1.96633C172.952 4.11324 174.476 8.35916 173.742 12.8108C173.262 15.7197 171.533 18.1027 168.896 19.532H168.893ZM165.006 13.5167C166.203 11.9588 166.123 9.83524 164.873 8.39539C164.043 7.72923 163.06 7.27694 161.963 7.26993L157.41 7.23954V14.9086L161.871 14.8771C163.068 14.8689 164.142 14.3628 165.006 13.5167Z" fill="var(--fill-0, white)"/>
</g>
<path id="Vector_3" d="M107.48 29.5253L99.4344 29.5417V7.53721L90.717 7.52553L90.7053 0.465356L116.198 0.464187L116.21 7.52436L107.477 7.53604L107.48 29.5253Z" fill="var(--fill-0, white)"/>
</g>
<path id="Vector_4" d="M90.1166 15.0012C90.1166 23.2815 83.3977 29.9945 75.1104 29.9945C66.823 29.9945 60.1041 23.2815 60.1041 15.0012C60.1041 6.72085 66.823 0.00779024 75.1104 0.00779024C83.3977 0.00779024 90.1166 6.72085 90.1166 15.0012ZM82.7888 15C82.7888 10.7646 79.3528 7.33092 75.1139 7.33092C70.875 7.33092 67.439 10.7646 67.439 15C67.439 19.2354 70.875 22.669 75.1139 22.669C79.3528 22.669 82.7888 19.2354 82.7888 15Z" fill="var(--fill-0, white)"/>
<path id="Vector_5" d="M12.5975 18.0256L12.5894 11.6456L21.5873 11.6339C20.2842 8.94941 17.6066 7.34828 14.7491 7.33776C11.818 7.32607 9.11244 8.92487 7.80115 11.6421L0.0771354 11.6445C1.76008 4.19861 8.88104 -0.771909 16.4216 0.0987787C24.0077 0.97531 29.7437 7.46047 29.7098 15.0664C29.6748 22.6934 23.8592 29.1073 16.3012 29.9149C8.66599 30.7306 1.55088 25.6023 0 18.0162L7.65039 18.0244C8.87753 20.903 11.6287 22.6443 14.6416 22.6689C17.6312 22.6934 20.4373 21.0117 21.7404 18.0466L12.5987 18.0244L12.5975 18.0256Z" fill="var(--fill-0, white)"/>
<path id="Vector_6" d="M52.7618 14.5719C56.7343 15.3643 58.8052 19.47 58.0549 23.2706C57.5944 25.9026 55.8718 27.9899 53.3766 28.9272C52.1856 29.3479 51.0274 29.5478 49.7208 29.5466L32.6752 29.5419V0.519386L49.4906 0.521723C50.7855 0.521723 51.9344 0.805719 53.0855 1.23464C56.3568 2.5506 58.1215 5.8487 57.5196 9.31392C57.0709 11.8979 55.2769 13.9478 52.7618 14.5719ZM47.5166 11.6642C48.9986 11.6642 50.02 10.5785 50.02 9.22276C50.02 7.95822 49.0289 6.8421 47.63 6.84093L40.1678 6.83275L40.1795 11.6595L47.5155 11.6642H47.5166ZM50.5494 20.3126C50.4232 18.9429 49.3562 18.1774 48.0928 18.022L40.1678 18.0266L40.1736 23.2332L48.1781 23.1982C49.7162 23.1912 50.7493 21.8226 50.5483 20.3138L50.5494 20.3126Z" fill="var(--fill-0, white)"/>
</g>
</svg>
