<svg preserveAspectRatio="xMidYMid meet" width="100%" height="100%" overflow="visible" style="display: block;" viewBox="0 0 171.181 60" fill="none" xmlns="http://www.w3.org/2000/svg">
<g id="_1" clip-path="url(#clip0_0_117)">
<path id="Vector" fill-rule="evenodd" clip-rule="evenodd" d="M22.3648 19.2313C18.6024 23.7367 14.9283 28.8746 12.5083 33.8029H16.0316C17.1681 31.5042 20.6289 26.907 22.3612 24.9062V19.235L22.3648 19.2313Z" fill="var(--fill-0, white)"/>
<path id="Vector_2" fill-rule="evenodd" clip-rule="evenodd" d="M22.3648 29.0254C21.7102 29.8897 19.5256 32.968 19.11 33.8029H22.3097C22.3685 33.7146 22.3685 29.0254 22.3685 29.0254H22.3648Z" fill="var(--fill-0, white)"/>
<path id="Vector_3" fill-rule="evenodd" clip-rule="evenodd" d="M22.3648 11.0482H0V33.8029H9.97426C13.288 27.5322 17.7676 21.8279 22.3685 16.8702V11.0445L22.3648 11.0482Z" fill="var(--fill-0, white)"/>
<path id="Vector_4" fill-rule="evenodd" clip-rule="evenodd" d="M3.52335 58.4075H5.52041C7.24899 51.6918 10.6583 42.854 14.6855 36.0132H11.3424C7.36668 43.1813 5.13056 50.8569 3.51968 58.4075H3.52335Z" fill="var(--fill-0, white)"/>
<path id="Vector_5" fill-rule="evenodd" clip-rule="evenodd" d="M8.27142 58.4075H10.5701C13.0158 51.1217 16.0942 43.0894 21.1401 36.0132H17.7639C13.196 43.2438 10.445 51.2468 8.26775 58.4075H8.27142Z" fill="var(--fill-0, white)"/>
<path id="Vector_6" fill-rule="evenodd" clip-rule="evenodd" d="M0 58.4075H0.331004C1.16587 53.3027 4.60096 43.2402 8.74954 36.0132H0V58.4075Z" fill="var(--fill-0, white)"/>
<path id="Vector_7" fill-rule="evenodd" clip-rule="evenodd" d="M12.9864 58.4075H16.3626C18.242 54.5274 19.9743 50.4965 22.3648 46.587V39.1504C18.0655 45.3328 15.3145 52.648 12.9864 58.4112V58.4075Z" fill="var(--fill-0, white)"/>
<path id="Vector_8" fill-rule="evenodd" clip-rule="evenodd" d="M18.9886 58.4075H22.306L22.3648 52.1993C20.7209 54.5862 19.8529 56.8591 18.9886 58.4075Z" fill="var(--fill-0, white)"/>
<path id="Vector_9" fill-rule="evenodd" clip-rule="evenodd" d="M39.2387 8.6907L38.3744 8.39279C36.8518 9.55866 35.057 10.9893 35.057 10.9893H32.3097C35.2078 7.58367 41.6844 2.74733 45.1821 0.297904L44.4318 -0.00367782C37.8632 4.35822 30.8165 9.19456 24.5752 16.7194V22.2141C28.7238 17.2269 33.8911 12.8687 39.2387 8.68702V8.6907Z" fill="var(--fill-0, white)"/>
<path id="Vector_10" fill-rule="evenodd" clip-rule="evenodd" d="M48.5215 8.87091L47.5395 8.63553C46.3148 9.26076 45.0864 10.125 44.0162 10.993H41.4748C42.4274 9.83082 46.9401 7.02096 46.9401 7.02096L45.9213 6.57227C37.352 12.1846 30.6326 18.3965 24.5715 26.0721V31.0555C31.2027 22.2177 38.1868 15.5572 48.5178 8.87091H48.5215Z" fill="var(--fill-0, white)"/>
<path id="Vector_11" fill-rule="evenodd" clip-rule="evenodd" d="M31.3534 8.66127L30.4266 8.242C30.4266 8.242 28.1905 10.0037 27.021 11.0482H24.5752V14.6304C26.1567 12.8687 28.3376 10.9268 31.3498 8.6576L31.3534 8.66127Z" fill="var(--fill-0, white)"/>
<path id="Vector_12" fill-rule="evenodd" clip-rule="evenodd" d="M49.6874 18.5767L49.0327 17.7124C48.4333 18.1611 47.4807 18.8452 46.8812 19.2939V15.4101C47.7786 14.6635 49.8088 13.1703 51.3902 12.1258L50.3457 11.6182C41.21 17.4991 31.7727 25.7411 26.2155 33.8065H31.9492C37.5947 27.1754 43.5086 22.6958 49.6874 18.5767Z" fill="var(--fill-0, white)"/>
<path id="Vector_13" fill-rule="evenodd" clip-rule="evenodd" d="M50.9121 24.7848C49.7168 25.502 48.0471 26.907 46.9695 27.683L46.9437 25.9544C46.9437 25.9544 50.32 23.4461 52.3796 22.1589L51.8978 21.3534C46.6716 24.6708 41.5373 28.9702 36.3442 33.8065H41.7801C45.0938 30.7613 47.7198 28.014 51.1585 25.6528L50.9195 24.7885L50.9121 24.7848Z" fill="var(--fill-0, white)"/>
<path id="Vector_14" fill-rule="evenodd" clip-rule="evenodd" d="M50.2244 30.548L49.4814 29.8014C48.1353 31.0886 46.5539 32.6076 45.2409 33.8029H47.0908C47.7786 32.8466 49.1504 31.416 50.2244 30.548Z" fill="var(--fill-0, white)"/>
<path id="Vector_15" fill-rule="evenodd" clip-rule="evenodd" d="M24.5458 36.0132L24.5752 43.1813C26.0978 41.004 27.7087 38.6429 30.125 36.0132H24.5458Z" fill="var(--fill-0, white)"/>
<path id="Vector_16" fill-rule="evenodd" clip-rule="evenodd" d="M24.5752 48.5252V58.2898C28.0397 50.9746 33.5932 42.1626 39.8051 36.0132H34.4024C30.8496 39.6837 26.8775 45.0349 24.5789 48.5252H24.5752Z" fill="var(--fill-0, white)"/>
<path id="Vector_17" fill-rule="evenodd" clip-rule="evenodd" d="M43.2659 36.0132C36.8481 43.2402 31.4123 50.4965 28.0949 58.4075H46.9401V36.0132C46.9695 35.925 43.2659 36.0132 43.2659 36.0132Z" fill="var(--fill-0, white)"/>
<path id="Vector_18" fill-rule="evenodd" clip-rule="evenodd" d="M54.0051 57.2527V46.4766H60.3751V47.3152H55.2041V57.2527H54.0051Z" fill="var(--fill-0, white)"/>
<path id="Vector_19" fill-rule="evenodd" clip-rule="evenodd" d="M63.1078 59.9816H62.0007V49.3196H63.071V50.0368C63.5712 49.4925 64.27 49.1173 65.1342 49.1173C67.9257 49.1173 68.2015 51.3865 68.2015 53.0857C68.2015 54.7849 68.2015 57.4513 65.2299 57.4513C64.3251 57.4513 63.641 57.1901 63.1041 56.6017V59.9779L63.1078 59.9816ZM65.1342 56.7231C67.1497 56.7231 67.1313 54.4097 67.1313 53.3615C67.1313 52.3134 67.1313 49.8566 65.171 49.8566C62.9386 49.8566 63.0673 52.0449 63.0673 53.2475C63.0673 54.4502 62.957 56.7231 65.1306 56.7231H65.1342Z" fill="var(--fill-0, white)"/>
<path id="Vector_20" fill-rule="evenodd" clip-rule="evenodd" d="M69.6433 59.224C70.3089 59.2534 71.1401 59.3086 71.4932 58.7385C71.7506 58.2788 71.9345 57.7749 72.0817 57.2858L69.441 49.327H70.5701L72.6738 55.7484H72.7106L74.9246 49.327H76.0169L73.2438 57.1534C72.9754 57.9882 72.6186 59.3086 71.644 59.7977C70.8827 60.125 70.125 59.9559 69.6433 59.9559V59.224Z" fill="var(--fill-0, white)"/>
<path id="Vector_21" fill-rule="evenodd" clip-rule="evenodd" d="M77.5101 57.2527V49.3233H83.3101V57.2527H82.2398V50.0552H78.5767V57.2527H77.5101Z" fill="var(--fill-0, white)"/>
<path id="Vector_22" fill-rule="evenodd" clip-rule="evenodd" d="M85.708 57.2527V49.3233H91.5116V57.2527H90.434V50.0552H86.7819V57.2527H85.708Z" fill="var(--fill-0, white)"/>
<path id="Vector_23" fill-rule="evenodd" clip-rule="evenodd" d="M93.4608 51.3203C93.4057 49.9264 94.4024 49.1247 96.1787 49.1247C97.0283 49.1247 97.8043 49.2681 98.2861 49.7278C98.7459 50.1913 98.7826 50.7209 98.7826 51.2799V56.153C98.7826 56.6274 98.8967 56.6973 99.5219 56.6826V57.2858C99.1541 57.3998 98.7312 57.3888 98.3413 57.3299C97.8632 57.1865 97.8816 56.9879 97.7712 56.6127H97.7492C97.2159 57.1865 96.3847 57.4623 95.4947 57.4623C93.6374 57.4623 93.1887 56.4693 93.1887 55.2188C93.1887 54.2994 93.5197 53.6116 94.5936 53.1776C95.4947 52.8466 96.4766 52.6149 97.3814 52.2876C97.5469 52.2324 97.6425 52.0706 97.6572 51.975C97.7308 51.644 97.694 50.982 97.6204 50.6473C97.4733 50.1765 97.1019 49.8602 96.164 49.8602C94.6451 49.8602 94.6635 50.6252 94.498 51.324H93.4608V51.3203ZM97.7124 52.9717C97.0099 53.2733 96.2891 53.4755 95.5866 53.7036C94.498 54.0787 94.2589 54.4097 94.2589 55.3439C94.2589 56.1199 94.5752 56.7231 95.6786 56.7231C96.3773 56.7231 96.8775 56.495 97.1938 56.1346C97.6388 55.6308 97.7124 54.9577 97.7124 54.3656V52.9717Z" fill="var(--fill-0, white)"/>
<path id="Vector_24" fill-rule="evenodd" clip-rule="evenodd" d="M105.226 57.2527V46.4766H106.425V51.8647L111.467 46.4766H112.85L108.753 50.8312L113.06 57.2527H111.769L107.977 51.5925L106.425 53.174V57.2527H105.226Z" fill="var(--fill-0, white)"/>
<path id="Vector_25" fill-rule="evenodd" clip-rule="evenodd" d="M114.127 53.1004C114.127 51.3203 114.553 49.121 117.359 49.121C120.166 49.121 120.537 51.5226 120.537 53.2622C120.537 55.0018 120.235 57.4549 117.3 57.4549C114.196 57.4549 114.127 54.9393 114.127 53.1004ZM119.463 53.2733C119.463 52.0412 119.426 49.8566 117.231 49.8566C115.311 49.8566 115.2 52.0265 115.2 53.1151C115.2 54.2957 115.086 56.7231 117.286 56.7231C119.485 56.7231 119.463 54.4649 119.463 53.2733Z" fill="var(--fill-0, white)"/>
<path id="Vector_26" fill-rule="evenodd" clip-rule="evenodd" d="M123.67 57.2527H122.619V49.3233H124.391L126.885 55.9875H126.925L129.492 49.3233H131.192V57.2527H130.14V50.2133H130.099L127.407 57.2527H126.403L123.707 50.2133H123.67V57.2527Z" fill="var(--fill-0, white)"/>
<path id="Vector_27" fill-rule="evenodd" clip-rule="evenodd" d="M133.568 57.2527V49.3233H139.367V57.2527H138.297V50.0552H134.641V57.2527H133.568Z" fill="var(--fill-0, white)"/>
<path id="Vector_28" fill-rule="evenodd" clip-rule="evenodd" d="M141.328 51.3203C141.269 49.9264 142.269 49.1247 144.042 49.1247C144.891 49.1247 145.668 49.2681 146.149 49.7278C146.616 50.1913 146.646 50.7209 146.646 51.2799V56.153C146.646 56.6274 146.76 56.6973 147.385 56.6826V57.2858C147.017 57.3998 146.591 57.3888 146.201 57.3299C145.723 57.1865 145.741 56.9879 145.631 56.6127H145.616C145.083 57.1865 144.248 57.4623 143.362 57.4623C141.497 57.4623 141.052 56.4693 141.052 55.2188C141.052 54.2994 141.383 53.6116 142.453 53.1776C143.358 52.8466 144.34 52.6149 145.245 52.2876C145.41 52.2324 145.502 52.0706 145.524 51.975C145.59 51.644 145.553 50.982 145.487 50.6473C145.336 50.1765 144.969 49.8602 144.031 49.8602C142.512 49.8602 142.527 50.6252 142.361 51.324H141.331L141.328 51.3203ZM145.572 52.9717C144.873 53.2733 144.149 53.4755 143.446 53.7036C142.354 54.0787 142.115 54.4097 142.115 55.3439C142.115 56.1199 142.431 56.7231 143.538 56.7231C144.241 56.7231 144.737 56.495 145.053 56.1346C145.495 55.6308 145.572 54.9577 145.572 54.3656V52.9717Z" fill="var(--fill-0, white)"/>
<path id="Vector_29" fill-rule="evenodd" clip-rule="evenodd" d="M148.948 57.2527V49.3233H150.022V52.6444H153.678V49.3233H154.752V57.2527H153.678V53.3762H150.022V57.2527H148.948Z" fill="var(--fill-0, white)"/>
<path id="Vector_30" fill-rule="evenodd" clip-rule="evenodd" d="M162.979 49.3233V57.2527H161.912V50.7319H161.876L158.441 57.2527H157.113V49.3233H158.179V55.8588H158.216L161.615 49.3233H162.979Z" fill="var(--fill-0, white)"/>
<path id="Vector_31" fill-rule="evenodd" clip-rule="evenodd" d="M171.181 49.3233V57.2527H170.11V50.7319H170.074L166.642 57.2527H165.311V49.3233H166.377V55.8588H166.414L169.82 49.3233H171.181ZM166.341 46.6532C166.51 47.4255 167.3 47.8154 168.282 47.8154C169.264 47.8154 170.037 47.4255 170.239 46.6532H170.923C170.776 47.8448 169.684 48.4627 168.191 48.4627C166.697 48.4627 165.752 47.7712 165.601 46.6532H166.341Z" fill="var(--fill-0, white)"/>
<path id="Vector_32" fill-rule="evenodd" clip-rule="evenodd" d="M60.9673 14.4207C63.2144 14.2847 64.4391 14.509 64.4391 17.4439V24.954C64.2773 26.4215 62.6186 26.3773 60.9673 26.3773V14.4207ZM60.9673 42.2839V30.1508C67.0063 30.4156 70.1618 28.8157 70.1067 23.6631V16.8224C70.2648 12.6039 67.4881 10.6473 61.2358 10.6473H55.3071V42.2839H60.9673Z" fill="var(--fill-0, white)"/>
<path id="Vector_33" fill-rule="evenodd" clip-rule="evenodd" d="M76.0647 10.6473C76.0647 10.6473 78.6833 20.7797 79.1651 24.1118H79.2681C79.4299 21.6219 82.2655 10.6473 82.2655 10.6473H87.5542L78.3597 42.2839H72.9643L76.3295 30.4671L70.2354 10.6473H76.0611H76.0647Z" fill="var(--fill-0, white)"/>
<path id="Vector_34" fill-rule="evenodd" clip-rule="evenodd" d="M97.1828 22.3317V15.8919C97.1828 14.2883 96.598 13.9389 95.4726 13.9389C94.3472 13.9389 93.7109 14.292 93.7109 15.8919V37.3042C93.7109 38.9077 94.2957 39.2608 95.4726 39.2608C96.6495 39.2608 97.1828 38.9077 97.1828 37.3042V30.4708H102.843V37.7124C102.843 41.8426 98.9481 43.0452 95.4211 43.0452C91.8941 43.0452 88.0471 41.8426 88.0471 37.7124V15.4947C88.0471 11.3571 91.9493 10.1618 95.4211 10.1618C98.893 10.1618 102.843 11.3608 102.843 15.4947V22.3354H97.1828V22.3317Z" fill="var(--fill-0, white)"/>
<path id="Vector_35" fill-rule="evenodd" clip-rule="evenodd" d="M111.394 29.5734L112.788 16.4215H113.163L114.336 29.5734H111.394ZM104.502 42.2839H109.632L110.861 33.7036H114.866L115.932 42.2839H121.655L117.33 10.6473H108.83L104.505 42.2839H104.502Z" fill="var(--fill-0, white)"/>
<path id="Vector_36" fill-rule="evenodd" clip-rule="evenodd" d="M124.115 42.2839V10.6473H136.723V14.7775H129.776V42.2839H124.115Z" fill="var(--fill-0, white)"/>
<path id="Vector_37" fill-rule="evenodd" clip-rule="evenodd" d="M144.52 14.4207C146.767 14.2847 147.996 14.509 147.996 17.4439V24.954C147.83 26.4215 146.179 26.3773 144.52 26.3773V14.4207ZM144.52 42.2839V30.1508C150.559 30.4156 153.715 28.8157 153.656 23.6631V16.8224C153.818 12.6039 151.041 10.6473 144.789 10.6473H138.86V42.2839H144.52Z" fill="var(--fill-0, white)"/>
<path id="Vector_38" fill-rule="evenodd" clip-rule="evenodd" d="M161.412 15.7521C161.412 14.1559 162.004 13.7992 163.181 13.7992C164.358 13.7992 164.884 14.1559 164.884 15.7521V37.1718C164.884 38.7679 164.303 39.1247 163.181 39.1247C162.004 39.1247 161.412 38.7679 161.412 37.1718V15.7521ZM155.752 37.5763C155.752 41.7028 159.654 42.9055 163.126 42.9055C166.598 42.9055 170.555 41.7028 170.555 37.5763V15.3549C170.555 11.221 166.657 10.0257 163.126 10.0257C159.595 10.0257 155.752 11.221 155.752 15.3549V37.5763Z" fill="var(--fill-0, white)"/>
</g>
<defs>
<clipPath id="clip0_0_117">
<rect width="171.181" height="60" fill="white"/>
</clipPath>
</defs>
</svg>
