<svg preserveAspectRatio="xMidYMid meet" width="100%" height="100%" overflow="visible" style="display: block;" viewBox="0 0 181.5 60" fill="none" xmlns="http://www.w3.org/2000/svg">
<g id="ek-logo-white 1" clip-path="url(#clip0_0_196)">
<path id="Vector" d="M176.958 37.8371C174.455 37.8371 172.415 35.794 172.415 33.2827C172.415 30.7714 174.452 28.7284 176.958 28.7284C179.462 28.7284 181.5 30.7714 181.5 33.2827C181.5 35.794 179.462 37.8371 176.958 37.8371ZM176.958 29.2297C174.72 29.2297 172.902 31.0474 172.902 33.2802C172.902 35.5156 174.72 37.3308 176.958 37.3308C179.195 37.3308 181.014 35.5131 181.014 33.2802C181.014 31.0474 179.195 29.2297 176.958 29.2297Z" fill="var(--fill-0, white)"/>
<path id="Vector_2" fill-rule="evenodd" clip-rule="evenodd" d="M81.3216 2.62782L82.8906 2.01012C86.437 0.197531 88.5225 0.210189 89.2102 0.410181C90.084 0.673464 91.0141 1.25572 89.3962 3.73665C89.4916 3.73665 90.0987 3.42273 90.1941 3.42273C94.5582 1.17471 96.1614 0.486127 96.6508 0.308919C97.1869 0.23044 97.5883 0.324108 97.9921 0.473471C98.2882 0.572202 98.5575 0.757005 98.7484 1.00003C99.5341 1.89621 99.8008 2.34429 97.9701 4.56952C98.1219 4.8961 96.739 6.53149 96.739 6.91629C99.3481 5.33659 99.4167 6.28339 99.7323 6.83781C99.9379 6.98716 100.119 7.24285 100.227 7.54158C100.579 8.70103 100.474 9.42506 98.6652 11.6857C98.6652 12.0402 97.3924 13.5414 97.3924 13.8831C99.3676 13.2224 99.4435 13.7262 99.7323 14.197C99.9453 14.3464 100.124 14.5743 100.234 14.8502C100.503 15.6957 100.53 15.9817 98.7484 18.207C99.4509 17.9235 100.036 19.1235 99.3187 19.7438C99.2305 19.8222 98.5062 20.3841 98.4376 20.4905C99.3261 20.0703 99.4851 21.1512 98.9809 21.3942C98.3274 21.7082 92.8131 24.3865 91.8708 24.5283C90.2724 24.7561 88.8774 23.1917 90.7131 21.3437C90.8305 21.2297 89.7144 21.7563 89.5552 21.7563C84.4471 24.1738 82.7119 24.5637 81.838 24.5637C81.7549 24.5637 81.6864 24.5485 81.6031 24.5359C81.2115 24.4777 80.9227 24.336 80.8174 24.1461C80.2056 23.5133 80.0734 23.379 81.6496 21.6727C81.4024 21.5943 82.4622 20.3082 82.2567 20.1588C78.3063 21.8499 77.8926 21.2322 77.4594 20.4424C77.239 20.2854 77.053 20.0373 76.9429 19.7386C76.5856 19.0905 76.6614 17.9969 78.7051 15.7134L80.1786 13.5388C77.824 14.478 77.7481 13.8173 77.4447 13.0983C77.2317 12.906 77.053 12.6376 76.9429 12.3085C76.6614 11.0351 76.6345 10.2681 78.8227 7.43778C77.7751 7.84284 77.7016 7.69347 77.4447 7.63018C77.2317 7.53651 77.058 7.35171 76.9479 7.12641C76.7838 6.43782 76.8867 6.08847 77.5474 3.82779C77.6233 3.67842 77.988 2.45568 78.0982 2.32657C78.7957 0.301324 81.4318 1.01269 81.3216 2.62782Z" fill="var(--fill-0, white)"/>
<path id="Vector_3" fill-rule="evenodd" clip-rule="evenodd" d="M105.668 5.09342C105.668 2.3568 107.814 0.13916 110.465 0.13916H123.655C126.306 0.13916 128.453 2.3568 128.453 5.09342V18.7158C128.453 21.4524 126.306 23.67 123.655 23.67H110.465C107.814 23.67 105.668 21.4524 105.668 18.7158V5.09342Z" fill="var(--fill-0, white)"/>
<path id="Vector_4" fill-rule="evenodd" clip-rule="evenodd" d="M173.551 43.6335C173.373 42.7246 173.076 41.9271 172.669 41.231C171.858 39.8513 170.817 38.7981 169.566 38.0589C168.306 37.3197 166.93 36.9501 165.415 36.9501C162.999 36.9501 160.995 37.7957 159.414 39.4893C157.83 41.1753 157.039 43.3144 157.039 45.9093C157.039 47.1118 157.245 48.2484 157.644 49.3294C158.05 50.4028 158.636 51.3699 159.407 52.2306C160.178 53.0838 161.079 53.7318 162.118 54.1849C163.152 54.6255 164.28 54.8457 165.484 54.8457C166.578 54.8457 167.612 54.6532 168.575 54.271C169.388 53.9445 171.313 52.9065 172.381 51.1851V54.5266H173.835V46.8915C173.832 45.6333 173.737 44.5447 173.551 43.6335ZM116.175 46.8915V59.8606H117.621V51.1876C118.689 52.909 120.615 53.947 121.428 54.2736C122.392 54.6583 123.425 54.8482 124.519 54.8482C125.723 54.8482 126.851 54.628 127.884 54.1875C128.924 53.7318 129.825 53.0862 130.596 52.2332C131.367 51.3725 131.952 50.4054 132.358 49.332C132.765 48.2509 132.963 47.1142 132.963 45.9118C132.963 43.317 132.172 41.1778 130.589 39.4918C129.005 37.8007 127.003 36.9526 124.585 36.9526C123.07 36.9526 121.694 37.3222 120.434 38.0614C119.181 38.8006 118.148 39.8538 117.328 41.2335C116.922 41.9296 116.625 42.7272 116.439 43.6359C116.263 44.5447 116.175 45.6333 116.175 46.8915ZM117.621 46.7851C117.621 44.1397 118.248 42.1297 119.501 40.6081C120.747 39.0715 122.419 38.3121 124.519 38.3121C126.487 38.3121 128.134 39.031 129.456 40.474C130.785 41.9094 131.445 43.7094 131.445 45.8764C131.445 48.0661 130.792 49.8712 129.482 51.3015C128.175 52.7319 126.523 53.4407 124.519 53.4407C123.41 53.4407 122.392 53.1774 121.42 52.7217C118.241 51.2053 117.621 48.3978 117.621 46.7851ZM137.046 46.8915V59.8606H138.499V51.1876C139.559 52.909 141.488 53.947 142.305 54.2736C143.27 54.6583 144.295 54.8482 145.389 54.8482C146.601 54.8482 147.722 54.628 148.762 54.1875C149.802 53.7318 150.703 53.0862 151.467 52.2332C152.245 51.3725 152.83 50.4054 153.229 49.332C153.634 48.2509 153.835 47.1142 153.835 45.9118C153.835 43.317 153.043 41.1778 151.467 39.4918C149.876 37.8007 147.874 36.9526 145.458 36.9526C143.95 36.9526 142.567 37.3222 141.314 38.0614C140.054 38.8006 139.021 39.8538 138.203 41.2335C137.804 41.9296 137.508 42.7272 137.322 43.6359C137.136 44.5447 137.046 45.6333 137.046 46.8915ZM138.499 46.7851C138.499 44.1397 139.126 42.1297 140.372 40.6081C141.618 39.0715 143.292 38.3121 145.389 38.3121C147.357 38.3121 149.004 39.031 150.331 40.474C151.653 41.9094 152.32 43.7094 152.32 45.8764C152.32 48.0661 151.66 49.8712 150.358 51.3015C149.051 52.7319 147.391 53.4407 145.387 53.4407C144.278 53.4407 143.26 53.1774 142.296 52.7217C139.119 51.2053 138.499 48.3978 138.499 46.7851ZM77.5986 54.5266V28.9757H79.0452V44.4106H80.6703C81.7105 44.4106 82.5624 44.2056 83.2575 43.7776C83.9379 43.3575 84.6892 42.5347 85.4946 41.3119L88.1722 37.2741H89.8096L87.0756 41.631C86.6277 42.355 86.1945 42.9474 85.7809 43.4157C85.3672 43.8765 84.934 44.2486 84.4861 44.5245C86.077 44.7372 87.2739 45.3067 88.0864 46.2232C88.8991 47.1472 89.3053 48.3901 89.3053 49.9623V54.5266H87.8883V50.4737C87.8883 48.9168 87.531 47.7447 86.8212 46.9473C86.1064 46.1448 85.0441 45.7447 83.6416 45.7447H79.0426V54.5242H77.5986V54.5266ZM110.881 43.6335C110.695 42.7246 110.406 41.9271 110 41.231C109.18 39.8513 108.147 38.7981 106.889 38.0589C105.636 37.3197 104.253 36.9501 102.745 36.9501C100.322 36.9501 98.3247 37.7957 96.7411 39.4893C95.1576 41.1753 94.3597 43.3144 94.3597 45.9093C94.3597 47.1118 94.5652 48.2484 94.9642 49.3294C95.3706 50.4028 95.9628 51.3699 96.7264 52.2306C97.4974 53.0838 98.4055 53.7318 99.4384 54.1849C100.479 54.6255 101.6 54.8457 102.811 54.8457C103.905 54.8457 104.931 54.6532 105.895 54.271C106.715 53.9445 108.641 52.9065 109.701 51.1851V54.5266H111.153V46.8915C111.157 45.6333 111.067 44.5447 110.881 43.6335ZM105.905 52.7217C104.941 53.1774 103.922 53.4407 102.814 53.4407C100.812 53.4407 99.1521 52.7293 97.8426 51.3015C96.5404 49.8736 95.8869 48.0661 95.8869 45.8764C95.8869 43.7068 96.5478 41.9094 97.8694 40.474C99.1986 39.031 100.843 38.3121 102.811 38.3121C104.904 38.3121 106.578 39.0715 107.829 40.6081C109.082 42.1297 109.701 44.1423 109.701 46.7851C109.704 48.3978 109.084 51.2053 105.905 52.7217ZM168.58 52.7217C167.608 53.1774 166.59 53.4407 165.481 53.4407C163.479 53.4407 161.827 52.7293 160.518 51.3015C159.211 49.8736 158.555 48.0661 158.555 45.8764C158.555 43.7068 159.216 41.9094 160.545 40.474C161.866 39.031 163.518 38.3121 165.481 38.3121C167.581 38.3121 169.252 39.0715 170.506 40.6081C171.751 42.1297 172.378 44.1423 172.378 46.7851C172.381 48.3978 171.762 51.2053 168.58 52.7217Z" fill="var(--fill-0, white)"/>
<path id="Vector_5" fill-rule="evenodd" clip-rule="evenodd" d="M52.5398 25.449C52.41 25.449 52.2999 25.4288 52.1751 25.3857C51.7566 25.2794 51.3894 24.9933 51.1765 24.6035C50.4667 23.3453 50.687 23.1453 54.3021 19.8897C55.0658 19.2012 55.9395 18.419 56.8842 17.5709C50.0286 21.7454 49.9258 21.7149 49.2306 21.5301C48.8097 21.4163 48.4524 21.1251 48.2394 20.7404C47.5173 19.4543 47.674 19.3125 51.7492 15.7709C52.6156 15.024 53.6215 14.1557 54.6961 13.2317C49.9942 16.0746 49.8499 16.0341 49.2306 15.8621C48.817 15.7557 48.4524 15.4697 48.2394 15.0873C47.6691 14.0646 47.6055 13.9507 51.9842 9.09263C49.9062 10.3305 49.7544 10.2951 49.2379 10.1457C48.8194 10.0394 48.4596 9.76095 48.2394 9.37869C47.8821 8.7458 47.8821 8.7458 48.8929 4.84973C49.0716 4.15355 49.2918 3.30801 49.4509 2.67512C49.1352 2.7612 48.4033 1.64478 49.6443 1.12581C50.5671 0.735948 51.8055 -0.195665 52.6377 1.21188C52.9877 1.85237 53.017 1.88781 52.1775 5.11554C52.8531 4.7105 53.5605 4.2776 54.2139 3.87255C60.1469 0.260016 60.1468 0.254952 60.8836 0.452414C61.3045 0.566334 61.6692 0.849869 61.8822 1.24226C62.4475 2.26502 62.5087 2.37387 58.0272 7.32813C58.3773 7.12307 58.7151 6.90789 59.0454 6.71043C69.6876 0.211915 69.6876 0.21951 70.5001 0.439756C70.9138 0.546081 71.2785 0.83721 71.4913 1.22201C72.2134 2.51564 72.0568 2.64981 67.9669 6.19905C67.1004 6.95346 66.0945 7.81419 65.02 8.73821C70.2456 5.57376 70.3753 5.6168 71.0166 5.79401C71.4303 5.90033 71.7876 6.18386 72.0078 6.57626C72.7102 7.84203 72.4974 8.03444 68.8896 11.2824C68.1333 11.9659 67.2645 12.7406 66.3367 13.571C70.2871 11.1963 70.4316 11.247 71.0239 11.3963C71.4448 11.5179 71.8023 11.7938 72.0152 12.1862C72.5513 13.1381 72.6075 13.2393 69.0414 17.6898C70.4047 16.9076 70.5343 17.0291 71.0166 17.0417C72.1449 17.0772 72.9991 19.3302 71.2564 20.234C70.926 20.4036 68.7648 21.72 67.1959 22.6719C62.4598 25.5654 62.4525 25.5654 61.7427 25.3731C61.3242 25.2591 60.9644 24.9756 60.7442 24.5984C60.2081 23.6313 60.1518 23.5326 63.7742 19.0037C63.3189 19.2872 62.8662 19.5657 62.4183 19.8366C54.4955 24.6668 53.2154 25.449 52.5398 25.449Z" fill="var(--fill-0, white)"/>
<path id="Vector_6" fill-rule="evenodd" clip-rule="evenodd" d="M54.9282 45.9096C54.9282 44.707 55.1412 43.5703 55.5696 42.4894C55.9955 41.416 56.6147 40.4337 57.4346 39.5401C58.2326 38.7072 59.1431 38.0692 60.1613 37.6212C61.1795 37.1806 62.2466 36.9529 63.3822 36.9529C64.5105 36.9529 65.5851 37.1806 66.6033 37.6212C67.6214 38.0692 68.5295 38.7097 69.3225 39.5401C70.1277 40.4008 70.7397 41.3679 71.1606 42.4489C71.5817 43.5375 71.7945 44.6893 71.7945 45.912C71.7945 47.1271 71.5817 48.2715 71.1606 49.3601C70.7421 50.441 70.1277 51.4082 69.3225 52.2689C68.5319 53.1068 67.6214 53.7549 66.6033 54.1953C65.5851 54.6282 64.5105 54.8484 63.3822 54.8484C62.2466 54.8484 61.1795 54.6282 60.1613 54.1953C59.1431 53.7549 58.235 53.1068 57.4346 52.2689C56.6147 51.3878 55.9955 50.4055 55.5696 49.3195C55.1412 48.2335 54.9282 47.0968 54.9282 45.9096ZM56.4507 45.8741C56.4507 47.993 57.1262 49.7853 58.4675 51.2485C59.8038 52.7067 61.4486 53.4384 63.3822 53.4384C65.3036 53.4384 66.9336 52.7067 68.2701 51.2334C69.6065 49.7676 70.2722 47.9778 70.2722 45.8741C70.2722 43.74 69.6039 41.9502 68.2701 40.492C66.9336 39.0337 65.3036 38.3098 63.3822 38.3098C61.4486 38.3098 59.8038 39.0414 58.4675 40.5072C57.1238 41.9628 56.4507 43.7552 56.4507 45.8741ZM16.8414 46.1222C16.6971 48.2969 15.9947 50.0689 14.7072 51.4131C13.4344 52.77 11.8435 53.4384 9.94416 53.4384C8.01057 53.4384 6.37068 52.7067 5.02941 51.2485C4.71857 50.9068 4.45913 50.5524 4.22417 50.1828L17.1669 41.2743C16.3349 39.8464 15.3215 38.7654 14.1173 38.039C12.9131 37.3124 11.5571 36.9579 10.0494 36.9579C8.87211 36.9579 7.77804 37.1706 6.75251 37.6112C5.72697 38.0516 4.81158 38.6921 4.00632 39.5376C3.18639 40.406 2.56715 41.3781 2.13393 42.4667C1.71294 43.5476 1.5 44.6919 1.5 45.9071C1.5 47.1095 1.71294 48.2538 2.13393 49.3398C2.56715 50.4283 3.18639 51.4005 4.00632 52.2612C4.7969 53.0991 5.7074 53.7472 6.72558 54.1878C7.74378 54.6205 8.81828 54.8409 9.94661 54.8409C12.2596 54.8409 14.2079 54.0308 15.7841 52.3955C17.3604 50.7677 18.2219 48.6765 18.359 46.117H16.8414V46.1222ZM5.049 40.4793C6.39761 39.0135 8.04974 38.2743 10.0127 38.2743C11.0725 38.2743 12.0368 38.5098 12.918 38.9629C13.7918 39.4312 14.5432 40.1148 15.1746 41.0034L3.60248 48.9802C3.2231 48.0411 3.01015 47.0108 3.01015 45.8741C3.01015 43.7426 3.69303 41.9502 5.049 40.4793ZM35.9424 37.2719H37.3889V47.0335C37.3889 49.4359 36.777 51.3423 35.5434 52.7422C34.3124 54.1497 32.6651 54.846 30.6018 54.846C28.5434 54.846 26.8913 54.1497 25.6601 52.7422C24.429 51.3423 23.8146 49.4359 23.8146 47.0335V37.2719H25.2318V47.517C25.2318 49.2867 25.7262 50.7295 26.7248 51.846C27.7161 52.9548 29.0108 53.5092 30.6018 53.5092C32.178 53.5092 33.4655 52.9624 34.4567 51.8536C35.448 50.7448 35.9424 49.3018 35.9424 47.517V37.2719ZM44.0733 54.5269V37.2719H45.4856V40.649C46.161 39.5048 46.9785 38.6439 47.9699 38.0692C48.9537 37.492 50.0699 37.2009 51.3279 37.2009C51.4454 37.2009 51.5751 37.2085 51.7268 37.2213C51.8712 37.2364 52.0719 37.2567 52.3118 37.2921V38.7351C52.2849 38.7351 52.2555 38.7351 52.209 38.7351C51.6657 38.6921 51.3083 38.6642 51.1149 38.6642C49.4825 38.6642 48.1338 39.2971 47.0739 40.5553C46.0215 41.8134 45.483 43.4261 45.483 45.3906V54.5269H44.0733Z" fill="var(--fill-0, white)"/>
<path id="Vector_7" fill-rule="evenodd" clip-rule="evenodd" d="M177.398 33.6312H176.024V35.6665H175.62V30.7731H177.158C177.662 30.7731 178.058 30.8997 178.34 31.1527C178.623 31.4059 178.766 31.7604 178.766 32.2161C178.766 32.5299 178.677 32.8059 178.499 33.0463C178.32 33.2869 178.083 33.4515 177.785 33.5425L178.968 35.6235V35.6665H178.542L177.398 33.6312ZM176.022 33.2767H177.246C177.581 33.2767 177.851 33.178 178.056 32.9806C178.259 32.7831 178.362 32.5275 178.362 32.2135C178.362 31.8693 178.256 31.6009 178.043 31.411C177.831 31.2211 177.534 31.125 177.15 31.125H176.024L176.022 33.2767Z" fill="var(--fill-0, white)"/>
</g>
<defs>
<clipPath id="clip0_0_196">
<rect width="181.5" height="60" fill="white"/>
</clipPath>
</defs>
</svg>
