<svg preserveAspectRatio="xMidYMid meet" width="100%" height="100%" overflow="visible" style="display: block;" viewBox="0 0 179.152 39.9997" fill="none" xmlns="http://www.w3.org/2000/svg">
<g id="Group">
<g id="Group_2">
<path id="Vector" d="M106.02 33.4023C103.408 39.2888 95.5945 39.3515 90.246 37.0899L90.1363 39.7276C90.1258 39.9731 89.2797 39.9104 89.2797 39.6545L89.2588 31.1511C89.2588 30.9422 89.4311 30.5661 89.5878 30.5191C89.7968 30.4564 90.1781 30.8691 90.1885 31.1198L90.2721 32.9322C91.8651 35.2252 94.3827 37.0063 97.2189 37.4398C99.3343 37.7637 101.178 36.7138 101.998 34.7865C105.054 27.5941 95.2184 23.0552 90.5437 18.8453C87.6918 16.2755 86.3077 12.6036 87.0598 8.74362C87.7179 5.36422 90.0475 2.08405 93.7246 0.856603C97.4017 -0.370847 101.267 0.313392 104.704 1.75499C104.808 1.00808 104.328 0.0992406 105.613 0L105.743 8.04372C105.743 8.19519 105.691 8.58693 105.56 8.59737L105.001 8.63916C104.693 8.66005 104.97 6.69613 104.683 6.23127C102.949 3.70324 99.8932 1.72365 96.7488 1.3058C93.8499 0.919282 91.4055 2.68994 90.7056 5.39033C88.4857 13.9616 97.8039 17.1739 103.685 22.6582C106.662 25.4369 107.681 29.6521 106.02 33.4023Z" fill="var(--fill-0, white)"/>
<path id="Vector_2" d="M128.714 33.4023C126.098 39.2941 118.284 39.3463 112.94 37.0899L112.831 39.7276C112.82 39.9679 111.974 39.9104 111.974 39.6597L111.953 31.1563C111.953 30.9422 112.126 30.5766 112.282 30.5243C112.486 30.4564 112.873 30.8847 112.888 31.1302L112.972 32.9374C114.565 35.2357 117.082 37.0115 119.919 37.4503C122.029 37.7793 123.878 36.719 124.698 34.7969C127.753 27.6098 117.929 23.0708 113.243 18.8557C110.339 16.2441 108.971 12.4782 109.796 8.57648C110.527 5.1344 113.003 1.84379 116.79 0.746916C120.321 -0.27683 124.087 0.360399 127.409 1.77066C127.513 1.0133 127.038 0.11491 128.317 0.010446L128.448 8.03849C128.448 8.18996 128.401 8.6026 128.265 8.61304L127.706 8.64961C127.398 8.6705 127.675 6.70658 127.383 6.24171C125.654 3.71369 122.593 1.7341 119.443 1.31102C116.544 0.924504 114.11 2.69517 113.405 5.39556C111.18 13.9616 120.504 17.1843 126.38 22.6634C129.357 25.4422 130.381 29.6521 128.714 33.4075V33.4023Z" fill="var(--fill-0, white)"/>
</g>
<path id="Vector_3" d="M150.937 33.1829L150.911 38.9858C150.906 39.1373 150.117 39.3149 150.107 39.1582L150.008 37.9203L132.719 37.9046C132.468 37.9046 132.045 37.727 131.982 37.5547C131.92 37.3823 132.275 37.0271 132.479 37.0167L135.367 36.8966V1.77059L132.343 1.65045C132.207 1.64523 131.888 1.18037 131.993 1.0968C132.134 0.987109 132.52 0.778181 132.703 0.778181L144.1 0.788627L144.085 1.65045L140.324 1.76536V36.9488C143.682 37.1786 146.9 36.2489 149.867 34.7707L150.07 33.5119L150.175 32.8695C150.201 32.6971 150.937 32.9948 150.937 33.1881V33.1829Z" fill="var(--fill-0, white)"/>
<path id="Vector_4" d="M172.259 10.3735L166.822 24.1575L166.806 36.9491L170.468 37.017C170.646 37.017 170.933 37.205 171.016 37.3043C171.126 37.4296 170.734 37.9102 170.494 37.9102H158.637C158.387 37.9102 157.995 37.6699 157.995 37.5236C157.995 37.3356 158.35 37.0013 158.538 37.0013L161.766 36.9491L161.808 24.8261L152.255 1.76045L149.199 1.65598C148.948 1.64554 148.943 0.788934 149.241 0.788934H161.207C161.463 0.788934 161.427 1.66643 161.145 1.67688L157.802 1.78134L166.472 22.4495C169.042 15.722 170.813 8.96323 171.962 1.79179L168.896 1.63509C168.77 1.69255 168.812 0.788934 169.073 0.788934H178.768C178.914 0.783711 179.243 1.36348 179.128 1.43139C178.966 1.52018 178.6 1.67688 178.386 1.6821L176.01 1.77089C174.688 4.6541 173.456 7.32315 172.249 10.3839L172.259 10.3735Z" fill="var(--fill-0, white)"/>
<g id="Group_3">
<path id="Vector_5" d="M48.3759 3.01416L38.7235 30.7284L27.9638 9.2611L28.0996 28.0228C28.298 31.094 28.5592 33.8728 29.0972 36.9336L31.9595 37.0276C32.1318 37.0328 32.4087 37.1947 32.5236 37.2679C32.6385 37.341 32.3356 37.9051 32.1266 37.9051H23.2368C23.0488 37.9103 22.7824 37.8163 22.704 37.7641C22.5839 37.6805 22.7458 37.0589 22.8921 37.0537L26.0364 36.9492C26.3707 34.0086 26.6997 31.4022 26.7311 28.5295L26.9661 7.16138L24.2501 1.70314H21.8526C21.6907 1.69792 21.2624 1.49421 21.3094 1.35841C21.3773 1.1756 21.6385 0.825646 21.7691 0.757744L29.4053 0.79953L40.4106 22.7996L48.0103 0.79953L56.3203 0.762966L56.7695 1.13381C56.9053 1.2435 56.4248 1.66658 56.2263 1.67703L53.3849 1.78149V36.9022L56.0435 37.0433C56.242 37.0537 56.6494 37.0224 56.6546 37.1582L56.6755 37.7432C56.6755 37.879 56.2211 37.9155 56.0122 37.9155H45.5867C45.4457 37.9155 45.0487 37.6648 45.0487 37.5238C45.0487 37.341 45.3883 37.0276 45.5815 37.0224L48.4281 36.9075L48.3602 3.01939L48.3759 3.01416Z" fill="var(--fill-0, white)"/>
<path id="Vector_6" d="M80.4469 10.3733L75.0096 24.1573L74.9887 36.9489L78.6501 37.0168C78.8382 37.0168 79.1254 37.2048 79.2038 37.3041C79.3135 37.4346 78.9165 37.9152 78.6971 37.9152H66.7935C66.5741 37.91 66.1772 37.6697 66.1824 37.5287C66.1876 37.3406 66.5376 37.0063 66.7256 37.0063L69.9535 36.9541L69.9953 24.8311L60.4421 1.76546L57.3918 1.65578C57.1307 1.64533 57.1254 0.783504 57.3448 0.783504L69.3842 0.783504C69.6506 0.783504 69.614 1.65578 69.3477 1.66622L65.9944 1.78113L74.6648 22.4493C77.2346 15.7218 79.0053 8.96302 80.1544 1.78636L77.0884 1.63488C76.963 1.69234 76.9996 0.788728 77.219 0.788728L86.9602 0.778281C87.1117 0.778281 87.4407 1.36328 87.3206 1.42596C87.1587 1.51475 86.7878 1.67145 86.5893 1.67667L84.2076 1.75502C82.8809 4.64867 81.6534 7.31249 80.4469 10.3733Z" fill="var(--fill-0, white)"/>
<path id="Vector_7" d="M19.157 33.4023C16.5402 39.2941 8.72631 39.3463 3.38823 37.0899L3.30988 39.4508C3.30466 39.6336 3.07484 39.9522 2.94948 39.994C2.77712 40.0515 2.40627 39.6597 2.40627 39.4665V31.1564C2.40627 30.9422 2.57341 30.5714 2.73011 30.5244C2.93903 30.4669 3.32033 30.8795 3.33077 31.0937L3.41957 32.9218C5.01263 35.2357 7.5302 37.0063 10.3612 37.4399C12.4765 37.7637 14.3203 36.7138 15.1404 34.7865C18.1959 27.5994 8.37113 23.0656 3.68595 18.8453C0.719186 16.171 -0.649284 12.3163 0.29611 8.30489C1.11092 4.85236 3.73818 1.56175 7.62944 0.621577C11.082 -0.214134 14.6598 0.386533 17.8512 1.76546C17.9557 0.997646 17.4751 0.0992579 18.76 0.0104636L18.8854 7.96538C18.8854 8.17431 18.7966 8.49293 18.7235 8.60261C18.6503 8.7123 18.1489 8.78543 18.128 8.65485L18.0131 7.99672C17.9504 7.62588 17.987 6.59169 17.8303 6.23129C16.0858 3.68759 13.0406 1.71845 9.89108 1.29537C7.09146 0.919299 4.67313 2.57505 3.92099 5.17098C2.94426 8.53471 3.89488 11.9089 6.41767 14.3272C10.0478 17.8059 13.3279 19.3781 16.8379 22.6478C19.8151 25.4265 20.8336 29.6416 19.1727 33.3919L19.157 33.4023Z" fill="var(--fill-0, white)"/>
</g>
</g>
</svg>
