<svg preserveAspectRatio="xMidYMid meet" width="100%" height="100%" overflow="visible" style="display: block;" viewBox="0 0 86.5336 33.2053" fill="none" xmlns="http://www.w3.org/2000/svg">
<g id="Group">
<path id="Vector" d="M22.6177 28.6722L11.4194 28.6657L9.97991 33.1922L0 33.1873L11.8583 0.0295176L22.0233 0.00822716L33.9618 33.1349L24.1555 33.2053L22.6177 28.6722ZM19.9991 20.8622L16.8843 11.6193L13.9168 20.8901L20.0008 20.8639L19.9991 20.8622Z" fill="var(--fill-0, white)"/>
<g id="Group_2">
<path id="Vector_2" d="M84.1873 18.8792C81.9387 21.6125 78.4358 22.7146 75.0802 22.7523L71.7623 22.7883L71.7361 33.1989H62.2098L62.2066 0.0149571L75.1015 0.000218748C76.7785 -0.00141892 78.3457 0.195096 79.9162 0.640541C82.6544 1.43644 84.7129 3.33613 85.7594 5.95803C86.4423 7.66939 86.4996 9.35291 86.5307 11.1887C86.5766 13.9711 86.0362 16.6323 84.1873 18.8792ZM77.445 11.4393C77.4909 9.75741 76.7965 8.41453 75.1556 8.01822C74.0731 7.75619 72.9234 7.69887 71.7525 7.77912L71.7558 14.9766C72.7695 14.9766 73.698 14.9816 74.5791 14.9161C76.4902 14.7752 77.3942 13.3013 77.4434 11.4409L77.445 11.4393Z" fill="var(--fill-0, white)"/>
<path id="Vector_3" d="M59.5594 14.0546C58.8569 18.2929 55.8681 21.3275 51.7838 22.297C49.5418 22.8276 47.3343 22.8128 44.9695 22.7752L44.9548 33.2038L35.4596 33.1923V0.00837621L49.062 0.00837621C50.5998 0.00837621 52.0131 0.327721 53.446 0.730586C59.168 2.64174 60.4651 8.59464 59.5594 14.0546ZM50.3279 9.43312C49.216 7.67591 46.8905 7.70703 44.9662 7.7578V14.9553C46.0897 14.9832 47.1509 15.0126 48.176 14.8522C50.7324 14.4493 50.9895 11.4294 50.3279 9.43149V9.43312Z" fill="var(--fill-0, white)"/>
</g>
<g id="Vector_4">
</g>
<g id="Vector_5">
</g>
<g id="Vector_6">
</g>
</g>
</svg>
