<svg preserveAspectRatio="none" width="100%" height="100%" overflow="visible" style="display: block;" viewBox="0 0 1011.33 633.399" fill="none" xmlns="http://www.w3.org/2000/svg">
<g id="Group">
<path id="Vector" d="M1011.33 633.399H5.0338e-05V0H1011.33V633.399ZM1.30691 632.092H1010.02V1.30686H1.30691V632.092Z" fill="var(--fill-0, #FF5C00)"/>
<path id="Vector_2" d="M1010.67 600.489H0.654482V601.796H1010.67V600.489Z" fill="var(--fill-0, #FF5C00)"/>
<path id="Vector_3" d="M1010.67 568.883H0.654482V570.19H1010.67V568.883Z" fill="var(--fill-0, #FF5C00)"/>
<path id="Vector_4" d="M1010.67 537.278H0.654482V538.585H1010.67V537.278Z" fill="var(--fill-0, #FF5C00)"/>
<path id="Vector_5" d="M1010.67 505.674H0.654482V506.981H1010.67V505.674Z" fill="var(--fill-0, #FF5C00)"/>
<path id="Vector_6" d="M1010.67 474.068H0.654482V475.375H1010.67V474.068Z" fill="var(--fill-0, #FF5C00)"/>
<path id="Vector_7" d="M1010.67 442.465H0.654482V443.772H1010.67V442.465Z" fill="var(--fill-0, #FF5C00)"/>
<path id="Vector_8" d="M1010.67 410.86H0.654482V412.167H1010.67V410.86Z" fill="var(--fill-0, #FF5C00)"/>
<path id="Vector_9" d="M1010.67 379.257H0.654482V380.563H1010.67V379.257Z" fill="var(--fill-0, #FF5C00)"/>
<path id="Vector_10" d="M1010.67 347.65H0.654482V348.957H1010.67V347.65Z" fill="var(--fill-0, #FF5C00)"/>
<path id="Vector_11" d="M1010.67 316.047H0.654482V317.354H1010.67V316.047Z" fill="var(--fill-0, #FF5C00)"/>
<path id="Vector_12" d="M1010.67 284.441H0.654482V285.748H1010.67V284.441Z" fill="var(--fill-0, #FF5C00)"/>
<path id="Vector_13" d="M1010.67 252.836H0.654482V254.143H1010.67V252.836Z" fill="var(--fill-0, #FF5C00)"/>
<path id="Vector_14" d="M1010.67 221.232H0.654482V222.539H1010.67V221.232Z" fill="var(--fill-0, #FF5C00)"/>
<path id="Vector_15" d="M1010.67 189.627H0.654482V190.934H1010.67V189.627Z" fill="var(--fill-0, #FF5C00)"/>
<path id="Vector_16" d="M1010.67 158.023H0.654482V159.33H1010.67V158.023Z" fill="var(--fill-0, #FF5C00)"/>
<path id="Vector_17" d="M1010.67 126.418H0.654482V127.725H1010.67V126.418Z" fill="var(--fill-0, #FF5C00)"/>
<path id="Vector_18" d="M1010.67 94.8143H0.654482V96.1211H1010.67V94.8143Z" fill="var(--fill-0, #FF5C00)"/>
<path id="Vector_19" d="M1010.67 63.2088H0.654482V64.5156H1010.67V63.2088Z" fill="var(--fill-0, #FF5C00)"/>
<path id="Vector_20" d="M1010.67 31.6055H0.654482V32.9124H1010.67V31.6055Z" fill="var(--fill-0, #FF5C00)"/>
<path id="Vector_21" d="M980.72 0.652187H979.413V632.744H980.72V0.652187Z" fill="var(--fill-0, #FF5C00)"/>
<path id="Vector_22" d="M950.113 0.652187H948.806V632.744H950.113V0.652187Z" fill="var(--fill-0, #FF5C00)"/>
<path id="Vector_23" d="M919.508 0.652187H918.201V632.744H919.508V0.652187Z" fill="var(--fill-0, #FF5C00)"/>
<path id="Vector_24" d="M888.9 0.652187H887.593V632.744H888.9V0.652187Z" fill="var(--fill-0, #FF5C00)"/>
<path id="Vector_25" d="M858.291 0.652187H856.984V632.744H858.291V0.652187Z" fill="var(--fill-0, #FF5C00)"/>
<path id="Vector_26" d="M827.684 0.652187H826.378V632.744H827.684V0.652187Z" fill="var(--fill-0, #FF5C00)"/>
<path id="Vector_27" d="M797.078 0.652187H795.771V632.744H797.078V0.652187Z" fill="var(--fill-0, #FF5C00)"/>
<path id="Vector_28" d="M766.471 0.652187H765.164V632.744H766.471V0.652187Z" fill="var(--fill-0, #FF5C00)"/>
<path id="Vector_29" d="M735.864 0.652187H734.558V632.744H735.864V0.652187Z" fill="var(--fill-0, #FF5C00)"/>
<path id="Vector_30" d="M705.26 0.652187H703.953V632.744H705.26V0.652187Z" fill="var(--fill-0, #FF5C00)"/>
<path id="Vector_31" d="M674.653 0.652187H673.346V632.744H674.653V0.652187Z" fill="var(--fill-0, #FF5C00)"/>
<path id="Vector_32" d="M644.046 0.652187H642.74V632.744H644.046V0.652187Z" fill="var(--fill-0, #FF5C00)"/>
<path id="Vector_33" d="M613.44 0.652187H612.133V632.744H613.44V0.652187Z" fill="var(--fill-0, #FF5C00)"/>
<path id="Vector_34" d="M582.833 0.652187H581.526V632.744H582.833V0.652187Z" fill="var(--fill-0, #FF5C00)"/>
<path id="Vector_35" d="M552.229 0.652187H550.922V632.744H552.229V0.652187Z" fill="var(--fill-0, #FF5C00)"/>
<path id="Vector_36" d="M521.62 0.652187H520.313V632.744H521.62V0.652187Z" fill="var(--fill-0, #FF5C00)"/>
<path id="Vector_37" d="M491.015 0.652187H489.708V632.744H491.015V0.652187Z" fill="var(--fill-0, #FF5C00)"/>
<path id="Vector_38" d="M460.407 0.652187H459.1V632.744H460.407V0.652187Z" fill="var(--fill-0, #FF5C00)"/>
<path id="Vector_39" d="M429.8 0.652187H428.493V632.744H429.8V0.652187Z" fill="var(--fill-0, #FF5C00)"/>
<path id="Vector_40" d="M399.193 0.652187H397.886V632.744H399.193V0.652187Z" fill="var(--fill-0, #FF5C00)"/>
<path id="Vector_41" d="M368.591 0.652187H367.284V632.744H368.591V0.652187Z" fill="var(--fill-0, #FF5C00)"/>
<path id="Vector_42" d="M337.98 0.652187H336.673V632.744H337.98V0.652187Z" fill="var(--fill-0, #FF5C00)"/>
<path id="Vector_43" d="M307.371 0.652187H306.065V632.744H307.371V0.652187Z" fill="var(--fill-0, #FF5C00)"/>
<path id="Vector_44" d="M276.765 0.652187H275.458V632.744H276.765V0.652187Z" fill="var(--fill-0, #FF5C00)"/>
<path id="Vector_45" d="M246.158 0.652187H244.851V632.744H246.158V0.652187Z" fill="var(--fill-0, #FF5C00)"/>
<path id="Vector_46" d="M215.551 0.652187H214.245V632.744H215.551V0.652187Z" fill="var(--fill-0, #FF5C00)"/>
<path id="Vector_47" d="M184.945 0.652187H183.638V632.744H184.945V0.652187Z" fill="var(--fill-0, #FF5C00)"/>
<path id="Vector_48" d="M154.34 0.652187H153.033V632.744H154.34V0.652187Z" fill="var(--fill-0, #FF5C00)"/>
<path id="Vector_49" d="M123.731 0.652187H122.425V632.744H123.731V0.652187Z" fill="var(--fill-0, #FF5C00)"/>
<path id="Vector_50" d="M93.1268 0.652187H91.82V632.744H93.1268V0.652187Z" fill="var(--fill-0, #FF5C00)"/>
<path id="Vector_51" d="M62.5202 0.652187H61.2133V632.744H62.5202V0.652187Z" fill="var(--fill-0, #FF5C00)"/>
<path id="Vector_52" d="M31.9136 0.652187H30.6067V632.744H31.9136V0.652187Z" fill="var(--fill-0, #FF5C00)"/>
</g>
</svg>
