<svg preserveAspectRatio="none" width="100%" height="100%" overflow="visible" style="display: block;" viewBox="0 0 60 60" fill="none" xmlns="http://www.w3.org/2000/svg">
<path id="Subtract" d="M30 0C46.5685 0 60 13.4315 60 30C60 46.5685 46.5685 60 30 60C13.4315 60 3.48726e-05 46.5685 0 30C0 13.4315 13.4315 2.06176e-06 30 0ZM30 3.05078C15.1154 3.05078 3.05078 15.1154 3.05078 30C3.05082 44.8845 15.1155 56.9492 30 56.9492C44.8845 56.9492 56.9492 44.8845 56.9492 30C56.9492 15.1154 44.8846 3.05078 30 3.05078ZM24.3125 18.8008C24.6375 18.8038 24.9559 18.8927 25.2354 19.0586L40.959 28.418C41.2326 28.5812 41.4589 28.8128 41.6162 29.0898C41.7736 29.367 41.8564 29.6803 41.8564 29.999C41.8564 30.3178 41.7736 30.631 41.6162 30.9082C41.4588 31.1852 41.2326 31.4169 40.959 31.5801L25.2354 40.9395C24.9562 41.106 24.6375 41.1948 24.3125 41.1982C23.9875 41.2016 23.6673 41.1195 23.3848 40.959C23.1021 40.7984 22.8666 40.5652 22.7031 40.2842C22.5398 40.0032 22.4539 39.6834 22.4541 39.3584V20.6406C22.4543 20.3157 22.5407 19.9967 22.7041 19.7158C22.8676 19.4349 23.1023 19.2018 23.3848 19.041C23.6672 18.8803 23.9875 18.7978 24.3125 18.8008Z" fill="var(--fill-0, white)"/>
</svg>
