<svg preserveAspectRatio="none" width="100%" height="100%" overflow="visible" style="display: block;" viewBox="0 0 136 24" fill="none" xmlns="http://www.w3.org/2000/svg">
<g id="Group 138 1" clip-path="url(#clip0_0_113)">
<path id="Vector" d="M57.659 1.93054C56.5176 0.650008 55.1045 0 53.4572 0H36.4278C34.8017 0 33.3923 0.648237 32.2419 1.92877C31.1058 3.19159 30.5306 4.72894 30.5306 6.49831V16.6629C30.5306 18.4323 31.1058 19.9678 32.2419 21.2324C33.3923 22.5112 34.7999 23.1612 36.4278 23.1612H53.4572C55.1028 23.1612 56.5176 22.5112 57.659 21.2307C58.7845 19.9678 59.3544 18.4304 59.3544 16.6629V6.49831C59.3544 4.73071 58.7845 3.19514 57.659 1.93054ZM54.4016 6.62406V16.5354C54.4016 16.8878 54.2933 17.1783 54.0696 17.428C53.8584 17.6635 53.6276 17.7716 53.3453 17.7716H36.5432C36.2592 17.7716 36.0301 17.6618 35.8189 17.428C35.5953 17.18 35.4869 16.8878 35.4869 16.5354V6.62406C35.4869 6.27161 35.5953 5.98114 35.8189 5.7314C36.0301 5.49584 36.2609 5.38781 36.5432 5.38781H53.3453C53.6293 5.38781 53.8584 5.49762 54.0696 5.7314C54.2933 5.97937 54.4016 6.27161 54.4016 6.62406Z" fill="var(--fill-0, white)"/>
<path id="Vector_2" d="M124.272 1.93054C123.13 0.650008 121.717 0 120.07 0H103.04C101.414 0 100.006 0.648237 98.8544 1.92877C97.7183 3.19159 97.1429 4.72894 97.1429 6.49831V16.6629C97.1429 18.4323 97.7183 19.9696 98.8544 21.2324C100.004 22.5112 101.413 23.1612 103.04 23.1612H120.07C121.715 23.1612 123.13 22.5112 124.272 21.2307C125.397 19.9678 125.967 18.4304 125.967 16.6629V6.49831C125.967 4.73071 125.397 3.19514 124.272 1.93054ZM121.014 6.62406V16.5354C121.014 16.886 120.906 17.1783 120.682 17.428C120.471 17.6635 120.24 17.7716 119.958 17.7716H103.156C102.872 17.7716 102.642 17.6618 102.431 17.428C102.207 17.18 102.099 16.8878 102.099 16.5354V6.62406C102.099 6.27161 102.207 5.98114 102.431 5.7314C102.642 5.49584 102.873 5.38781 103.156 5.38781H119.958C120.24 5.38781 120.471 5.49762 120.682 5.7314C120.906 5.97937 121.014 6.27161 121.014 6.62406Z" fill="var(--fill-0, white)"/>
<path id="Vector_3" d="M129.207 8.44583C128.883 8.61366 128.671 9.00056 128.671 9.42637V13.9455C128.671 14.373 128.883 14.7582 129.207 14.926L134.766 17.8003C135.351 18.1025 136 17.5866 136 16.8198V6.55196C136 5.78523 135.349 5.26936 134.766 5.57146L129.207 8.44583Z" fill="var(--fill-0, #FF5C00)"/>
<path id="Vector_4" d="M70.5299 2.85983C70.9182 1.18558 72.4129 0 74.1353 0H88.3537C90.3975 0 92.0544 1.6531 92.0544 3.69231V21.3138C92.0544 22.3335 91.226 23.16 90.2041 23.16H88.9593C87.9374 23.16 87.1089 22.3335 87.1089 21.3138V6.24139C87.1089 5.7316 86.6947 5.31833 86.1837 5.31833H75.6683C75.2405 5.31833 74.8684 5.61101 74.7686 6.0261L71.3503 20.2458C70.9511 21.9062 69.463 23.0769 67.7517 23.0769H64.7761C63.7574 23.0769 62.9302 22.2553 62.9258 21.2389L62.9197 19.8543C62.9152 18.8315 63.7449 18 64.77 18H66.2827C66.7133 18 67.0869 17.7036 67.184 17.2851L70.5299 2.85983Z" fill="var(--fill-0, white)"/>
<path id="Vector_5" d="M26.446 3.5436C26.446 4.56222 25.6191 5.38835 24.5981 5.38975L6.0127 5.41517C5.73045 5.41517 5.49935 5.52305 5.28811 5.75861C5.06449 6.00832 4.95653 6.29864 4.95652 6.65105V16.5624C4.95653 16.9148 5.06449 17.2069 5.28811 17.4548C5.49935 17.6887 5.72867 17.7982 6.0127 17.7982L24.5931 17.7728C25.616 17.7715 26.446 18.5984 26.446 19.619V21.3164C26.446 22.335 25.6191 23.1611 24.5981 23.1625L5.89705 23.188C4.26934 23.188 2.86148 22.5384 1.7112 21.2598C0.575082 19.9952 0 18.4589 0 16.6895V6.52575C0 4.75638 0.575082 3.21825 1.7112 1.95543C2.86149 0.675074 4.27109 0.0272463 5.89705 0.0272463L24.5932 0.00264139C25.6161 0.00129526 26.446 0.82824 26.446 1.84879V3.5436Z" fill="var(--fill-0, white)"/>
</g>
<defs>
<clipPath id="clip0_0_113">
<rect width="136" height="24" fill="white"/>
</clipPath>
</defs>
</svg>
