<svg preserveAspectRatio="none" width="100%" height="100%" overflow="visible" style="display: block;" viewBox="0 0 490.621 490.621" fill="none" xmlns="http://www.w3.org/2000/svg">
<g id="Group 306">
<path id="Vector" d="M245.311 0C380.791 0 490.621 109.829 490.621 245.311C490.621 380.791 380.791 490.621 245.311 490.621C109.829 490.621 0 380.791 0 245.311C0 109.829 109.829 0 245.311 0ZM245.311 57.2391C141.442 57.2391 57.2391 141.442 57.2391 245.311C57.2391 349.179 141.442 433.382 245.311 433.382C349.179 433.382 433.382 349.179 433.382 245.311C433.382 141.442 349.179 57.2391 245.311 57.2391Z" fill="var(--fill-0, #FF5C00)"/>
<g id="Vector_2">
<path d="M451.653 269.212C451.777 268.211 452.107 267.341 452.642 266.6C453.175 265.872 453.861 265.332 454.699 264.98C455.55 264.63 456.47 264.516 457.458 264.638C458.446 264.76 459.303 265.094 460.03 265.64C460.757 266.186 461.29 266.877 461.63 267.713C461.967 268.562 462.074 269.487 461.95 270.487C461.842 271.359 461.572 272.113 461.142 272.75C460.722 273.401 460.161 273.885 459.457 274.201L458.891 273.096C459.432 272.825 459.857 272.448 460.164 271.965C460.485 271.484 460.682 270.942 460.757 270.339C460.847 269.608 460.763 268.927 460.502 268.296C460.253 267.679 459.847 267.167 459.286 266.759C458.722 266.364 458.056 266.118 457.286 266.023C456.503 265.926 455.791 266 455.148 266.246C454.516 266.507 453.998 266.905 453.593 267.44C453.199 267.99 452.957 268.631 452.866 269.362C452.791 269.964 452.844 270.537 453.024 271.08C453.204 271.624 453.524 272.093 453.983 272.488L453.164 273.422C452.559 272.943 452.126 272.336 451.865 271.601C451.617 270.867 451.547 270.071 451.653 269.212Z" fill="var(--fill-0, white)"/>
<path d="M460.794 278.348L460.541 279.701L452.572 278.213L459.291 286.388L459.067 287.588L449.039 285.716L449.292 284.364L457.261 285.851L450.538 277.696L450.766 276.476L460.794 278.348Z" fill="var(--fill-0, white)"/>
<path d="M456.089 299.996L446.194 297.517L446.529 296.182L455.239 298.365L456.427 293.627L454.015 292.883C451.983 292.267 450.463 291.633 449.454 290.981C448.444 290.328 448.061 289.52 448.303 288.555C448.369 288.291 448.499 287.984 448.694 287.633L449.818 288.015C449.711 288.228 449.647 288.378 449.625 288.466C449.496 288.98 449.637 289.428 450.047 289.811C450.458 290.193 451.003 290.517 451.683 290.78C452.364 291.044 453.273 291.352 454.411 291.703L457.905 292.759L456.089 299.996Z" fill="var(--fill-0, white)"/>
<path d="M449.925 308.032C449.527 309.247 448.964 310.086 448.235 310.547C447.502 311.02 446.636 311.098 445.638 310.783C444.602 310.456 443.916 309.859 443.58 308.994C443.24 308.141 443.28 307.07 443.702 305.78L444.96 301.869L454.686 304.942L454.271 306.254L450.869 305.179L449.925 308.032ZM444.724 306.022C444.427 306.917 444.391 307.652 444.617 308.224C444.851 308.813 445.331 309.222 446.059 309.452C446.774 309.678 447.376 309.618 447.865 309.271C448.355 308.924 448.75 308.297 449.051 307.389L449.889 304.869L445.562 303.502L444.724 306.022Z" fill="var(--fill-0, white)"/>
<path d="M450.997 316.287L450.504 317.572L446.285 315.954L443.985 321.943L448.204 323.561L447.71 324.846L438.187 321.193L438.68 319.908L442.881 321.52L445.181 315.53L440.98 313.919L441.474 312.635L450.997 316.287Z" fill="var(--fill-0, white)"/>
<path d="M434.649 329.026C435.059 328.133 435.628 327.42 436.356 326.887C437.096 326.359 437.919 326.054 438.825 325.971C439.73 325.889 440.635 326.055 441.54 326.47C442.445 326.884 443.162 327.461 443.69 328.201C444.218 328.941 444.518 329.76 444.588 330.66C444.659 331.559 444.49 332.455 444.08 333.348C443.671 334.241 443.102 334.954 442.373 335.487C441.645 336.02 440.831 336.322 439.931 336.393C439.025 336.476 438.12 336.309 437.215 335.895C436.31 335.48 435.594 334.903 435.065 334.163C434.532 333.435 434.224 332.619 434.141 331.714C434.07 330.814 434.24 329.918 434.649 329.026ZM435.76 329.535C435.458 330.192 435.336 330.847 435.392 331.498C435.455 332.167 435.696 332.775 436.113 333.321C436.531 333.868 437.092 334.303 437.797 334.626C438.502 334.949 439.198 335.091 439.886 335.05C440.573 335.01 441.184 334.793 441.721 334.399C442.263 334.022 442.686 333.505 442.987 332.847C443.289 332.189 443.409 331.526 443.346 330.858C443.289 330.206 443.054 329.601 442.642 329.043C442.225 328.496 441.663 328.061 440.958 327.738C440.253 327.415 439.557 327.273 438.87 327.314C438.177 327.366 437.56 327.581 437.017 327.957C436.481 328.351 436.062 328.877 435.76 329.535Z" fill="var(--fill-0, white)"/>
<path d="M431.186 346.472L435.196 338.945C434.224 338.515 433.274 338.47 432.346 338.811C431.429 339.157 430.706 339.827 430.177 340.819C429.879 341.378 429.703 341.942 429.648 342.513C429.604 343.09 429.685 343.653 429.891 344.202L428.739 344.467C428.472 343.813 428.374 343.116 428.445 342.378C428.51 341.652 428.734 340.929 429.117 340.211C429.609 339.287 430.241 338.569 431.012 338.057C431.788 337.562 432.63 337.301 433.539 337.272C434.448 337.243 435.342 337.463 436.22 337.93C437.099 338.398 437.786 339.005 438.282 339.752C438.771 340.51 439.034 341.323 439.069 342.191C439.099 343.071 438.892 343.927 438.448 344.759C438.004 345.592 437.412 346.236 436.672 346.691C435.931 347.146 435.113 347.376 434.216 347.382C433.331 347.394 432.443 347.163 431.553 346.689L431.186 346.472ZM437.404 344.204C437.866 343.337 437.975 342.458 437.732 341.568C437.494 340.694 436.951 339.981 436.104 339.427L432.704 345.808C433.636 346.202 434.535 346.248 435.398 345.947C436.267 345.663 436.936 345.082 437.404 344.204Z" fill="var(--fill-0, white)"/>
<path d="M423.557 360.053C422.534 361.039 421.458 361.167 420.329 360.437C419.58 359.953 419.183 359.305 419.14 358.492C419.096 357.679 419.429 356.724 420.138 355.629L422.655 351.739L431.221 357.274L428.778 361.05C428.146 362.027 427.461 362.669 426.723 362.977C425.985 363.284 425.263 363.21 424.557 362.754C424.09 362.453 423.773 362.063 423.605 361.585C423.441 361.125 423.425 360.614 423.557 360.053ZM426.683 355.935L425.02 358.506C424.591 359.168 424.39 359.753 424.415 360.262C424.433 360.781 424.681 361.195 425.158 361.504C425.636 361.813 426.11 361.865 426.581 361.662C427.044 361.469 427.49 361.041 427.918 360.379L429.582 357.808L426.683 355.935ZM421.081 356.169C420.604 356.907 420.365 357.537 420.366 358.061C420.366 358.584 420.621 359.01 421.131 359.34C421.642 359.67 422.125 359.744 422.581 359.562C423.049 359.387 423.518 358.936 423.988 358.209L425.82 355.377L422.84 353.451L421.081 356.169Z" fill="var(--fill-0, white)"/>
<path d="M424.031 368.159L423.213 369.265L416.693 364.452L419.169 374.737L418.443 375.72L410.238 369.663L411.056 368.556L417.576 373.369L415.088 363.099L415.826 362.102L424.031 368.159Z" fill="var(--fill-0, white)"/>
<path d="M402.171 381.283L399.372 378.919L400.211 377.927L402.092 379.516L407.989 372.545L406.108 370.956L406.946 369.964L409.746 372.329L409.37 372.773C408.957 373.321 409.042 374.001 409.624 374.814C410.206 375.627 411.134 376.632 412.408 377.827L414.927 380.133L410.07 385.875L403.198 380.07L402.171 381.283ZM411.535 378.739C410.471 377.755 409.637 376.89 409.033 376.143C408.439 375.404 408.159 374.744 408.193 374.164L404.087 379.019L410.026 384.036L413.193 380.292L411.535 378.739Z" fill="var(--fill-0, white)"/>
<path d="M396.081 392.784L401.982 386.624C401.162 385.947 400.26 385.647 399.274 385.723C398.297 385.808 397.42 386.257 396.642 387.069C396.204 387.526 395.881 388.022 395.673 388.557C395.475 389.1 395.4 389.664 395.45 390.248L394.269 390.191C394.19 389.489 394.284 388.793 394.552 388.102C394.812 387.42 395.223 386.785 395.787 386.197C396.511 385.441 397.313 384.921 398.194 384.636C399.075 384.37 399.957 384.347 400.84 384.565C401.722 384.783 402.523 385.237 403.242 385.925C403.961 386.613 404.458 387.383 404.733 388.236C404.999 389.099 405.031 389.952 404.83 390.797C404.62 391.652 404.189 392.42 403.536 393.101C402.883 393.782 402.139 394.242 401.303 394.479C400.467 394.717 399.616 394.717 398.752 394.48C397.896 394.252 397.104 393.79 396.376 393.093L396.081 392.784ZM402.681 392.284C403.361 391.574 403.704 390.758 403.712 389.835C403.719 388.93 403.39 388.096 402.724 387.334L397.722 392.556C398.513 393.188 399.365 393.475 400.278 393.419C401.192 393.381 401.993 393.002 402.681 392.284Z" fill="var(--fill-0, white)"/>
<path d="M387.089 394.754C387.809 394.085 388.607 393.643 389.484 393.428C390.37 393.223 391.247 393.255 392.115 393.524C392.983 393.793 393.757 394.292 394.435 395.021C395.112 395.749 395.554 396.556 395.76 397.441C395.965 398.326 395.929 399.198 395.651 400.057C395.373 400.915 394.874 401.679 394.154 402.347C393.435 403.016 392.636 403.458 391.76 403.673C390.883 403.888 390.015 403.856 389.156 403.578C388.287 403.309 387.514 402.81 386.836 402.081C386.158 401.353 385.717 400.546 385.511 399.661C385.296 398.784 385.323 397.912 385.592 397.044C385.871 396.186 386.37 395.422 387.089 394.754ZM387.921 395.648C387.391 396.141 387.028 396.699 386.831 397.323C386.634 397.965 386.624 398.618 386.801 399.283C386.978 399.947 387.331 400.563 387.859 401.131C388.387 401.699 388.976 402.095 389.627 402.32C390.277 402.545 390.926 402.577 391.572 402.418C392.217 402.277 392.805 401.96 393.336 401.467C393.866 400.975 394.229 400.407 394.427 399.765C394.623 399.142 394.638 398.493 394.47 397.819C394.293 397.155 393.94 396.539 393.412 395.971C392.884 395.403 392.294 395.007 391.644 394.782C390.984 394.566 390.331 394.529 389.686 394.67C389.039 394.829 388.451 395.155 387.921 395.648Z" fill="var(--fill-0, white)"/>
<path d="M369.953 410.725L367.701 407.835L368.726 407.037L370.24 408.979L377.446 403.369L375.933 401.427L376.958 400.629L379.21 403.519L378.751 403.877C378.234 404.328 378.177 405.011 378.579 405.927C378.981 406.842 379.683 408.016 380.684 409.447L382.674 412.222L376.737 416.843L371.208 409.748L369.953 410.725ZM379.641 410.16C378.803 408.979 378.165 407.961 377.728 407.105C377.298 406.26 377.16 405.557 377.313 404.996L372.294 408.902L377.073 415.034L380.944 412.021L379.641 410.16Z" fill="var(--fill-0, white)"/>
<path d="M365.193 424.956L359.436 416.54L360.573 415.763L365.64 423.171L369.675 420.415L368.364 418.258C367.253 416.451 366.536 414.968 366.214 413.811C365.892 412.653 366.142 411.794 366.964 411.232C367.188 411.079 367.49 410.936 367.868 410.802L368.456 411.833C368.234 411.922 368.086 411.991 368.012 412.043C367.574 412.342 367.382 412.77 367.435 413.329C367.488 413.887 367.682 414.491 368.015 415.139C368.349 415.787 368.825 416.62 369.443 417.638L371.357 420.745L365.193 424.956Z" fill="var(--fill-0, white)"/>
<path d="M354.422 431.547L349.201 422.789L350.284 422.144L352.011 425.042L355.094 423.207L355.399 419.099L356.682 418.335L356.326 422.699C357.116 422.484 357.83 422.495 358.468 422.732C359.106 422.969 359.633 423.437 360.05 424.136C360.632 425.113 360.742 426.055 360.38 426.963C360.018 427.87 359.259 428.668 358.104 429.355L354.422 431.547ZM358.83 424.817C358.056 423.518 356.842 423.362 355.187 424.347L352.537 425.924L354.88 429.854L357.446 428.326C359.156 427.308 359.618 426.138 358.83 424.817Z" fill="var(--fill-0, white)"/>
<path d="M337.086 435.04C335.7 435.353 334.714 434.906 334.126 433.697C333.736 432.895 333.733 432.135 334.117 431.417C334.501 430.699 335.281 430.055 336.455 429.485L340.624 427.461L345.082 436.63L341.035 438.595C339.988 439.103 339.07 439.298 338.279 439.179C337.488 439.06 336.909 438.623 336.542 437.868C336.299 437.368 336.229 436.87 336.333 436.375C336.431 435.896 336.682 435.451 337.086 435.04ZM341.895 433.135L339.139 434.474C338.43 434.818 337.954 435.214 337.712 435.662C337.458 436.116 337.455 436.598 337.704 437.11C337.953 437.621 338.331 437.911 338.839 437.981C339.335 438.056 339.938 437.921 340.648 437.577L343.404 436.238L341.895 433.135ZM336.982 430.436C336.191 430.82 335.66 431.235 335.389 431.683C335.118 432.131 335.115 432.628 335.381 433.174C335.646 433.72 336.022 434.034 336.506 434.114C336.997 434.207 337.632 434.064 338.411 433.685L341.446 432.211L339.895 429.021L336.982 430.436Z" fill="var(--fill-0, white)"/>
<path d="M330.118 443.604C328.89 444.118 327.818 444.202 326.903 443.857C325.992 443.523 325.285 442.755 324.78 441.551L322.339 435.722L323.556 435.214L324.17 436.68C324.251 436.071 324.515 435.513 324.961 435.004C325.395 434.5 325.993 434.089 326.756 433.77C327.806 433.331 328.746 433.232 329.575 433.473C330.405 433.714 330.992 434.246 331.337 435.068C331.671 435.867 331.655 436.63 331.287 437.358C330.907 438.091 330.085 438.722 328.821 439.251L325.833 440.501L326.073 441.073C326.413 441.884 326.896 442.403 327.524 442.63C328.157 442.87 328.909 442.807 329.779 442.443C330.376 442.194 330.906 441.853 331.37 441.421C331.838 441.001 332.197 440.535 332.446 440.025L333.415 440.733C333.108 441.338 332.665 441.887 332.087 442.381C331.514 442.887 330.858 443.295 330.118 443.604ZM326.979 434.853C326.263 435.153 325.717 435.57 325.339 436.107C324.965 436.655 324.784 437.291 324.793 438.016L325.437 439.553L328.388 438.319C329.998 437.645 330.569 436.748 330.1 435.628C329.87 435.08 329.479 434.732 328.927 434.585C328.38 434.449 327.73 434.539 326.979 434.853Z" fill="var(--fill-0, white)"/>
<path d="M308.858 451.232L305.636 441.559L318.995 437.115L322.217 446.788L320.91 447.222L318.068 438.69L313.321 440.269L316.163 448.802L314.857 449.236L312.014 440.704L307.322 442.265L310.164 450.797L308.858 451.232Z" fill="var(--fill-0, white)"/>
<path d="M293.6 449.495L301.877 447.421C301.544 446.412 300.94 445.678 300.065 445.218C299.193 444.77 298.211 444.683 297.12 444.956C296.505 445.11 295.968 445.358 295.507 445.7C295.05 446.055 294.686 446.492 294.417 447.012L293.447 446.336C293.754 445.7 294.205 445.161 294.801 444.718C295.384 444.279 296.07 443.961 296.86 443.763C297.876 443.508 298.833 443.495 299.73 443.723C300.617 443.967 301.376 444.416 302.007 445.071C302.638 445.725 303.074 446.535 303.316 447.5C303.558 448.465 303.568 449.382 303.346 450.25C303.112 451.121 302.684 451.861 302.064 452.469C301.431 453.081 300.657 453.501 299.741 453.731C298.826 453.96 297.951 453.953 297.116 453.709C296.282 453.465 295.562 453.013 294.957 452.352C294.354 451.704 293.93 450.891 293.685 449.913L293.6 449.495ZM299.453 452.584C300.406 452.345 301.132 451.837 301.63 451.06C302.119 450.298 302.284 449.417 302.127 448.417L295.11 450.176C295.443 451.131 296.011 451.828 296.814 452.266C297.608 452.72 298.488 452.826 299.453 452.584Z" fill="var(--fill-0, white)"/>
<path d="M283.631 455.896L289.356 454.759L287.606 445.958L288.957 445.689L290.945 455.689L283.869 457.093L283.631 455.896Z" fill="var(--fill-0, white)"/>
<path d="M275.683 447.908C276.656 447.769 277.564 447.861 278.407 448.184C279.252 448.519 279.954 449.045 280.514 449.761C281.074 450.477 281.425 451.327 281.566 452.312C281.707 453.297 281.61 454.212 281.274 455.056C280.938 455.9 280.411 456.596 279.693 457.143C278.975 457.69 278.129 458.033 277.157 458.172C276.184 458.312 275.276 458.22 274.433 457.897C273.59 457.574 272.895 457.054 272.348 456.336C271.788 455.62 271.437 454.77 271.296 453.785C271.154 452.8 271.252 451.886 271.588 451.041C271.911 450.199 272.43 449.497 273.147 448.938C273.865 448.391 274.711 448.048 275.683 447.908ZM275.857 449.117C275.14 449.22 274.523 449.471 274.006 449.872C273.478 450.287 273.097 450.818 272.863 451.465C272.63 452.112 272.568 452.819 272.678 453.587C272.788 454.354 273.046 455.015 273.453 455.571C273.859 456.126 274.373 456.522 274.995 456.759C275.606 457.011 276.269 457.086 276.986 456.983C277.703 456.88 278.325 456.621 278.853 456.206C279.37 455.806 279.752 455.281 279.999 454.632C280.232 453.985 280.294 453.278 280.184 452.51C280.074 451.743 279.816 451.082 279.409 450.526C278.99 449.973 278.475 449.57 277.864 449.319C277.243 449.081 276.573 449.014 275.857 449.117Z" fill="var(--fill-0, white)"/>
<path d="M258.013 459.706C257.07 459.756 256.22 459.589 255.461 459.203C254.689 458.831 254.077 458.275 253.622 457.536C253.169 456.81 252.916 455.963 252.864 454.996C252.81 454.002 252.981 453.106 253.378 452.309C253.763 451.524 254.332 450.898 255.083 450.431C255.835 449.963 256.714 449.702 257.721 449.648C259.412 449.556 260.755 450.079 261.748 451.216C262.742 452.353 263.295 453.966 263.409 456.056C263.527 458.237 263.204 459.93 262.44 461.135C261.664 462.342 260.403 463.199 258.656 463.708L254.143 465L253.842 463.755L258.088 462.535C259.529 462.134 260.57 461.502 261.209 460.639C261.85 459.789 262.159 458.563 262.137 456.959C261.766 457.769 261.225 458.413 260.513 458.891C259.801 459.382 258.968 459.654 258.013 459.706ZM257.744 450.792C257.034 450.83 256.41 451.025 255.872 451.378C255.322 451.744 254.909 452.232 254.631 452.843C254.34 453.454 254.215 454.133 254.256 454.881C254.296 455.63 254.487 456.279 254.827 456.83C255.168 457.381 255.63 457.796 256.215 458.075C256.788 458.368 257.436 458.494 258.159 458.455C258.882 458.416 259.518 458.22 260.069 457.867C260.607 457.527 261.022 457.065 261.315 456.48C261.594 455.895 261.713 455.229 261.672 454.481C261.632 453.732 261.441 453.07 261.099 452.493C260.744 451.917 260.273 451.477 259.687 451.172C259.102 450.88 258.454 450.753 257.744 450.792Z" fill="var(--fill-0, white)"/>
<path d="M242.745 460.318C241.788 460.307 240.925 460.077 240.154 459.629C239.383 459.193 238.783 458.579 238.352 457.786C237.922 456.993 237.713 456.092 237.724 455.085C237.736 454.064 237.966 453.162 238.415 452.379C238.864 451.596 239.478 450.989 240.259 450.559C241.027 450.141 241.896 449.938 242.865 449.949C243.693 449.959 244.44 450.136 245.109 450.479C245.764 450.836 246.301 451.346 246.72 452.01L246.786 446.332L248.163 446.348L248.001 460.301L246.683 460.286L246.706 458.27C246.284 458.937 245.735 459.448 245.059 459.802C244.37 460.156 243.598 460.328 242.745 460.318ZM242.948 451.172C242.237 451.163 241.589 451.317 241.003 451.634C240.418 451.963 239.96 452.429 239.629 453.033C239.286 453.636 239.11 454.325 239.101 455.1C239.092 455.876 239.252 456.562 239.582 457.161C239.898 457.772 240.345 458.248 240.923 458.591C241.5 458.934 242.145 459.109 242.856 459.117C243.58 459.126 244.235 458.965 244.82 458.636C245.393 458.307 245.851 457.84 246.194 457.237C246.524 456.647 246.694 455.964 246.703 455.188C246.712 454.413 246.558 453.72 246.242 453.109C245.913 452.498 245.466 452.021 244.901 451.679C244.323 451.349 243.672 451.18 242.948 451.172Z" fill="var(--fill-0, white)"/>
<path d="M225.399 453.789L233.91 454.413C233.91 453.351 233.567 452.464 232.88 451.753C232.192 451.055 231.288 450.665 230.166 450.582C229.534 450.536 228.946 450.603 228.401 450.783C227.855 450.976 227.373 451.278 226.954 451.688L226.246 450.742C226.737 450.234 227.334 449.863 228.038 449.629C228.73 449.395 229.482 449.308 230.294 449.367C231.338 449.444 232.251 449.731 233.031 450.229C233.797 450.739 234.377 451.403 234.771 452.222C235.164 453.041 235.324 453.947 235.252 454.939C235.179 455.932 234.901 456.805 234.417 457.56C233.921 458.314 233.283 458.882 232.503 459.266C231.71 459.648 230.843 459.805 229.902 459.736C228.96 459.666 228.132 459.385 227.416 458.892C226.701 458.399 226.159 457.744 225.791 456.927C225.422 456.123 225.275 455.218 225.349 454.213L225.399 453.789ZM229.988 458.557C230.968 458.628 231.817 458.373 232.534 457.791C233.237 457.221 233.67 456.436 233.834 455.438L226.62 454.908C226.636 455.92 226.957 456.76 227.582 457.428C228.193 458.107 228.995 458.484 229.988 458.557Z" fill="var(--fill-0, white)"/>
<path d="M220.889 458.855L219.525 458.665L220.15 454.192L213.792 453.305L213.168 457.778L211.804 457.588L213.214 447.491L214.578 447.681L213.956 452.135L220.314 453.021L220.935 448.568L222.299 448.758L220.889 458.855Z" fill="var(--fill-0, white)"/>
<path d="M198.999 445.947L199.741 442.359L201.013 442.622L200.515 445.033L209.46 446.88L209.958 444.469L211.231 444.732L210.489 448.319L209.92 448.202C209.241 448.101 208.683 448.5 208.246 449.4C207.809 450.299 207.37 451.594 206.928 453.284L206.105 456.597L198.736 455.075L200.556 446.268L198.999 445.947ZM205.709 452.953C206.066 451.549 206.428 450.403 206.796 449.516C207.162 448.641 207.608 448.08 208.134 447.833L201.905 446.547L200.331 454.158L205.136 455.15L205.709 452.953Z" fill="var(--fill-0, white)"/>
<path d="M189.722 452.912C188.436 452.564 187.539 451.973 187.028 451.138C186.514 450.316 186.428 449.276 186.77 448.016L188.423 441.918L189.696 442.262L189.28 443.796C189.718 443.366 190.27 443.087 190.934 442.959C191.586 442.828 192.311 442.87 193.109 443.087C194.208 443.384 195.01 443.882 195.517 444.582C196.024 445.281 196.161 446.061 195.927 446.922C195.701 447.757 195.219 448.35 194.481 448.699C193.731 449.045 192.694 449.038 191.372 448.68L188.246 447.834L188.083 448.432C187.853 449.28 187.916 449.987 188.272 450.552C188.625 451.129 189.256 451.541 190.167 451.788C190.791 451.957 191.419 452.013 192.05 451.956C192.679 451.912 193.248 451.765 193.758 451.515L194.088 452.669C193.474 452.958 192.787 453.12 192.027 453.155C191.264 453.202 190.495 453.122 189.722 452.912ZM192.619 444.078C191.871 443.876 191.182 443.87 190.555 444.061C189.923 444.265 189.389 444.656 188.951 445.233L188.515 446.842L191.603 447.679C193.288 448.135 194.289 447.777 194.607 446.604C194.762 446.031 194.667 445.516 194.322 445.061C193.973 444.619 193.406 444.291 192.619 444.078Z" fill="var(--fill-0, white)"/>
<path d="M153.431 432.408C153.791 432.584 154.036 432.863 154.166 433.243C154.296 433.623 154.268 434.005 154.08 434.388C153.897 434.759 153.619 435.004 153.244 435.122C152.863 435.252 152.493 435.229 152.133 435.053C151.773 434.877 151.528 434.598 151.398 434.218C151.263 433.849 151.286 433.479 151.468 433.108C151.65 432.737 151.934 432.48 152.321 432.338C152.701 432.208 153.071 432.232 153.431 432.408Z" fill="var(--fill-0, white)"/>
<path d="M120.757 407.593C121.559 408.203 122.146 408.926 122.518 409.761C122.879 410.588 123.001 411.452 122.883 412.353C122.757 413.264 122.393 414.116 121.79 414.907C121.187 415.699 120.466 416.271 119.628 416.624C118.791 416.977 117.925 417.09 117.031 416.962C116.127 416.826 115.274 416.453 114.472 415.842C113.772 415.31 113.255 414.698 112.922 414.005C112.57 413.315 112.434 412.587 112.515 411.82L113.756 411.887C113.718 412.492 113.83 413.048 114.093 413.556C114.347 414.075 114.716 414.518 115.2 414.886C115.786 415.332 116.418 415.602 117.095 415.695C117.753 415.79 118.4 415.698 119.036 415.418C119.661 415.131 120.209 414.679 120.679 414.062C121.157 413.435 121.451 412.782 121.562 412.103C121.655 411.427 121.572 410.779 121.312 410.159C121.035 409.542 120.603 409.01 120.017 408.564C119.534 408.196 119.012 407.953 118.451 407.836C117.891 407.718 117.325 407.758 116.752 407.955L116.357 406.778C117.075 406.496 117.818 406.428 118.585 406.573C119.344 406.728 120.068 407.068 120.757 407.593Z" fill="var(--fill-0, white)"/>
<path d="M108.517 411.096L107.472 410.2L112.751 404.051L102.306 405.77L101.379 404.975L108.021 397.238L109.066 398.134L103.787 404.283L114.217 402.551L115.159 403.359L108.517 411.096Z" fill="var(--fill-0, white)"/>
<path d="M91.9516 396.006L99.0591 388.694L100.047 389.652L93.7905 396.089L97.2961 399.492L99.1501 397.779C100.702 396.331 102.013 395.335 103.084 394.789C104.155 394.244 105.047 394.318 105.761 395.011C105.956 395.2 106.157 395.466 106.363 395.811L105.469 396.591C105.338 396.392 105.24 396.261 105.175 396.198C104.795 395.829 104.336 395.726 103.799 395.889C103.262 396.052 102.709 396.362 102.14 396.818C101.57 397.274 100.848 397.906 99.9728 398.713L97.3073 401.205L91.9516 396.006Z" fill="var(--fill-0, white)"/>
<path d="M88.3493 386.932C87.4941 385.98 87.0486 385.074 87.013 384.213C86.9687 383.342 87.3326 382.553 88.1047 381.846C88.9053 381.113 89.7647 380.816 90.6828 380.957C91.5922 381.088 92.5007 381.658 93.4083 382.667L96.1717 385.709L88.651 392.597L87.7207 391.582L90.3515 389.173L88.3493 386.932ZM92.6886 383.431C92.0605 382.727 91.4419 382.33 90.8327 382.239C90.2053 382.148 89.6104 382.36 89.048 382.875C88.4952 383.381 88.2469 383.933 88.3032 384.53C88.3595 385.126 88.7061 385.782 89.3429 386.495L91.1093 388.479L94.455 385.415L92.6886 383.431Z" fill="var(--fill-0, white)"/>
<path d="M80.73 383.815L79.8603 382.748L83.3637 379.896L79.3094 374.923L75.8061 377.775L74.9364 376.708L82.8453 370.269L83.7149 371.336L80.2266 374.176L84.2809 379.15L87.7692 376.31L88.6388 377.377L80.73 383.815Z" fill="var(--fill-0, white)"/>
<path d="M77.8906 363.4C78.4628 364.199 78.7999 365.046 78.9018 365.943C78.9932 366.847 78.85 367.712 78.4724 368.539C78.0948 369.365 77.5013 370.068 76.692 370.648C75.8826 371.227 75.0257 371.562 74.121 371.654C73.2163 371.745 72.3557 371.598 71.5391 371.213C70.7225 370.828 70.0281 370.237 69.4559 369.438C68.8837 368.64 68.5467 367.793 68.4448 366.896C68.3429 366 68.4845 365.143 68.8697 364.327C69.2473 363.501 69.8408 362.798 70.6501 362.218C71.4594 361.639 72.3164 361.303 73.2211 361.212C74.1182 361.11 74.9803 361.248 75.8074 361.626C76.6241 362.01 77.3185 362.602 77.8906 363.4ZM76.8974 364.111C76.4758 363.523 75.968 363.092 75.3739 362.818C74.7618 362.541 74.1147 362.448 73.4325 362.539C72.7503 362.63 72.0938 362.901 71.4632 363.353C70.8326 363.804 70.3644 364.338 70.0586 364.954C69.7528 365.57 69.6379 366.209 69.714 366.87C69.772 367.528 70.0118 368.151 70.4334 368.739C70.855 369.327 71.3718 369.76 71.9839 370.037C72.5779 370.311 73.2198 370.408 73.9096 370.327C74.5918 370.236 75.2482 369.965 75.8788 369.513C76.5095 369.062 76.9777 368.528 77.2835 367.912C77.5817 367.285 77.7018 366.643 77.6439 365.985C77.5678 365.324 77.319 364.7 76.8974 364.111Z" fill="var(--fill-0, white)"/>
<path d="M64.3198 351.476L68.8475 358.704C69.7049 358.076 70.2176 357.275 70.3855 356.301C70.5424 355.334 70.3224 354.374 69.7256 353.422C69.3894 352.885 68.9876 352.45 68.52 352.118C68.0415 351.792 67.513 351.582 66.9346 351.486L67.2792 350.356C67.9795 350.451 68.6321 350.714 69.2367 351.144C69.8346 351.562 70.3496 352.117 70.7818 352.807C71.3374 353.694 71.6451 354.599 71.7047 355.522C71.7464 356.441 71.5531 357.301 71.1248 358.103C70.6964 358.904 70.0603 359.569 69.2165 360.097C68.3726 360.625 67.5033 360.917 66.6084 360.974C65.7067 361.02 64.8706 360.842 64.1001 360.439C63.3228 360.026 62.6837 359.42 62.1829 358.621C61.6821 357.821 61.4191 356.987 61.3938 356.119C61.3685 355.251 61.5769 354.427 62.019 353.647C62.4501 352.874 63.0931 352.22 63.9478 351.686L64.3198 351.476ZM63.1856 357.993C63.707 358.826 64.4145 359.359 65.3082 359.592C66.1841 359.822 67.0735 359.707 67.9763 359.249L64.138 353.122C63.3312 353.733 62.8432 354.488 62.6739 355.387C62.4868 356.281 62.6574 357.15 63.1856 357.993Z" fill="var(--fill-0, white)"/>
<path d="M56.3509 338.123C56.0064 336.745 56.4321 335.75 57.6281 335.136C58.4217 334.728 59.1818 334.709 59.9086 335.076C60.6354 335.444 61.2971 336.208 61.8938 337.369L64.0115 341.489L54.9377 346.147L52.882 342.148C52.3503 341.113 52.1351 340.2 52.2363 339.407C52.3376 338.614 52.762 338.026 53.5095 337.642C54.004 337.388 54.5004 337.308 54.9987 337.401C55.4796 337.488 55.9303 337.729 56.3509 338.123ZM58.3629 342.886L56.9629 340.162C56.6026 339.461 56.1956 338.994 55.7421 338.762C55.2826 338.519 54.7999 338.527 54.2939 338.787C53.7879 339.046 53.5058 339.431 53.4477 339.94C53.3838 340.438 53.532 341.037 53.8923 341.738L55.2923 344.462L58.3629 342.886ZM60.9543 337.917C60.5526 337.135 60.1248 336.614 59.671 336.353C59.2171 336.092 58.7199 336.101 58.1794 336.378C57.6389 336.655 57.3337 337.037 57.2638 337.523C57.1824 338.016 57.3396 338.647 57.7354 339.417L59.2772 342.416L62.4341 340.796L60.9543 337.917Z" fill="var(--fill-0, white)"/>
<path d="M49.0605 334.463L48.51 333.202L55.9402 329.963L45.7883 326.967L45.2997 325.847L54.6497 321.771L55.2003 323.032L47.7701 326.272L57.9142 329.25L58.4105 330.387L49.0605 334.463Z" fill="var(--fill-0, white)"/>
<path d="M48.7029 309.303L52.1489 308.055L52.5916 309.276L50.276 310.114L53.3884 318.697L55.704 317.858L56.1467 319.079L52.7007 320.327L52.5025 319.78C52.2325 319.15 51.5999 318.884 50.6045 318.983C49.6092 319.083 48.2756 319.387 46.6038 319.896L43.3486 320.931L40.7847 313.861L49.2447 310.797L48.7029 309.303ZM46.2473 318.686C47.6307 318.253 48.7969 317.961 49.7459 317.81C50.6827 317.663 51.3945 317.749 51.8813 318.067L49.7139 312.091L42.4025 314.739L44.0744 319.349L46.2473 318.686Z" fill="var(--fill-0, white)"/>
<path d="M41.7309 298.152L44.1184 306.339C45.1145 305.968 45.826 305.337 46.2529 304.446C46.6673 303.558 46.7171 302.574 46.4024 301.495C46.2252 300.887 45.9569 300.36 45.5975 299.913C45.2258 299.469 44.7746 299.123 44.2441 298.874L44.8835 297.88C45.5314 298.162 46.0878 298.592 46.5526 299.17C47.0138 299.736 47.3583 300.409 47.5862 301.191C47.8793 302.195 47.9287 303.15 47.7346 304.055C47.5244 304.95 47.1041 305.725 46.4735 306.38C45.843 307.035 45.0498 307.501 44.0941 307.78C43.1383 308.058 42.2222 308.103 41.3456 307.914C40.4655 307.713 39.7095 307.314 39.0776 306.717C38.4422 306.108 37.9924 305.351 37.7283 304.445C37.4643 303.54 37.4383 302.666 37.6505 301.824C37.8627 300.981 38.2877 300.245 38.9255 299.615C39.5509 298.989 40.3477 298.535 41.3158 298.253L41.7309 298.152ZM38.8641 304.115C39.139 305.057 39.6746 305.763 40.4709 306.231C41.2512 306.69 42.1381 306.822 43.1316 306.627L41.1076 299.686C40.1648 300.055 39.4895 300.649 39.0818 301.467C38.6581 302.277 38.5855 303.16 38.8641 304.115Z" fill="var(--fill-0, white)"/>
<path d="M44.4951 289.295C44.7122 290.252 44.6936 291.164 44.4391 292.03C44.1721 292.899 43.704 293.641 43.0348 294.256C42.3656 294.871 41.5456 295.288 40.5747 295.508C39.6038 295.728 38.6837 295.705 37.8146 295.438C36.9454 295.171 36.2093 294.702 35.6063 294.03C35.0034 293.358 34.5933 292.544 34.3762 291.586C34.159 290.628 34.1777 289.717 34.4321 288.851C34.6865 287.985 35.1498 287.251 35.8218 286.648C36.491 286.033 37.311 285.616 38.2819 285.396C39.2528 285.176 40.1729 285.199 41.042 285.466C41.9083 285.721 42.6493 286.182 43.2649 286.851C43.8679 287.522 44.2779 288.337 44.4951 289.295ZM43.3035 289.565C43.1435 288.859 42.843 288.265 42.4021 287.781C41.9457 287.289 41.3855 286.952 40.7214 286.771C40.0573 286.59 39.347 286.585 38.5905 286.757C37.8339 286.928 37.195 287.238 36.6738 287.687C36.1526 288.137 35.7987 288.681 35.612 289.319C35.4099 289.948 35.3888 290.615 35.5488 291.321C35.7088 292.026 36.017 292.626 36.4734 293.118C36.9144 293.601 37.4683 293.94 38.1352 294.133C38.7993 294.314 39.5096 294.319 40.2661 294.147C41.0227 293.976 41.6616 293.666 42.1828 293.217C42.7011 292.755 43.0614 292.209 43.2635 291.581C43.4502 290.942 43.4635 290.27 43.3035 289.565Z" fill="var(--fill-0, white)"/>
<path d="M39.2632 266.506L42.8953 266.013L43.0699 267.3L40.6293 267.631L41.8573 276.677L44.2978 276.346L44.4725 277.632L40.8405 278.125L40.7622 277.549C40.6317 276.875 40.0695 276.482 39.0756 276.369C38.0817 276.256 36.7139 276.272 34.9722 276.417L31.5717 276.741L30.5602 269.289L39.477 268.08L39.2632 266.506ZM34.8796 275.158C36.3232 275.028 37.5247 274.989 38.4843 275.041C39.4311 275.095 40.1087 275.329 40.5172 275.743L39.6621 269.444L31.9559 270.489L32.6155 275.348L34.8796 275.158Z" fill="var(--fill-0, white)"/>
<path d="M29.332 255.409L39.5055 254.662L39.6063 256.034L30.6513 256.692L31.0092 261.563L33.5335 261.513C35.6557 261.461 37.2984 261.587 38.4615 261.89C39.6246 262.194 40.2425 262.841 40.3154 263.834C40.3353 264.104 40.3079 264.437 40.2331 264.831L39.0462 264.821C39.0808 264.585 39.0947 264.422 39.0881 264.332C39.0493 263.803 38.7749 263.422 38.2651 263.187C37.7552 262.953 37.1359 262.817 36.4072 262.779C35.6785 262.742 34.7187 262.735 33.5277 262.757L29.8788 262.85L29.332 255.409Z" fill="var(--fill-0, white)"/>
<path d="M29 243.206L39.1997 243.049L39.2191 244.308L35.8451 244.36L35.9005 247.945L39.311 250.258L39.3341 251.75L35.7269 249.266C35.5193 250.058 35.1538 250.671 34.6304 251.105C34.107 251.54 33.438 251.763 32.6236 251.776C31.486 251.793 30.6139 251.419 30.0073 250.653C29.4006 249.887 29.0869 248.832 29.0662 247.489L29 243.206ZM32.6408 250.38C34.1533 250.357 34.8947 249.382 34.865 247.457L34.8174 244.376L30.2411 244.447L30.2872 247.431C30.3179 249.421 31.1025 250.404 32.6408 250.38Z" fill="var(--fill-0, white)"/>
<path d="M34.6713 225.395C35.0949 224.04 35.9773 223.412 37.3183 223.51C38.208 223.576 38.8672 223.954 39.296 224.646C39.7248 225.339 39.8914 226.336 39.7958 227.637L39.4564 232.257L29.2829 231.51L29.6123 227.026C29.6975 225.866 29.9899 224.974 30.4895 224.35C30.9891 223.726 31.658 223.445 32.4961 223.506C33.0505 223.547 33.5162 223.737 33.8932 224.075C34.2583 224.4 34.5176 224.84 34.6713 225.395ZM33.9067 230.509L34.1311 227.455C34.1888 226.669 34.0846 226.058 33.8183 225.624C33.553 225.177 33.1367 224.933 32.5693 224.891C32.002 224.85 31.5608 225.031 31.2459 225.436C30.932 225.827 30.7461 226.416 30.6883 227.202L30.464 230.256L33.9067 230.509ZM38.7084 227.616C38.7728 226.739 38.6792 226.072 38.4277 225.613C38.1763 225.154 37.7475 224.902 37.1415 224.858C36.5355 224.813 36.0759 224.98 35.7629 225.359C35.437 225.737 35.2423 226.357 35.1789 227.221L34.9318 230.584L38.4712 230.844L38.7084 227.616Z" fill="var(--fill-0, white)"/>
<path d="M30.7562 214.959C30.9301 213.639 31.3968 212.671 32.1562 212.054C32.9028 211.436 33.9235 211.212 35.2181 211.382L41.4861 212.208L41.3139 213.514L39.7372 213.307C40.2223 213.683 40.5725 214.192 40.7879 214.833C41.005 215.461 41.0596 216.185 40.9515 217.005C40.8029 218.132 40.4155 218.994 39.7893 219.589C39.1631 220.184 38.4078 220.423 37.5234 220.307C36.6645 220.194 36.0129 219.795 35.5684 219.111C35.1256 218.414 34.9937 217.387 35.1728 216.029L35.5958 212.82L34.9805 212.739C34.1089 212.624 33.4167 212.781 32.9039 213.209C32.3783 213.635 32.0538 214.315 31.9305 215.25C31.8461 215.891 31.874 216.52 32.0142 217.138C32.1416 217.754 32.3633 218.298 32.6793 218.77L31.5792 219.251C31.2109 218.681 30.9587 218.022 30.8226 217.274C30.6736 216.525 30.6515 215.753 30.7562 214.959ZM39.9026 216.652C40.004 215.883 39.9179 215.201 39.6444 214.604C39.3581 214.006 38.8995 213.529 38.2684 213.172L36.6148 212.954L36.1969 216.125C35.9689 217.854 36.4573 218.798 37.6622 218.957C38.2519 219.035 38.7493 218.872 39.1545 218.469C39.5468 218.065 39.7962 217.459 39.9026 216.652Z" fill="var(--fill-0, white)"/>
<path d="M34.7951 192.798L44.7849 194.861L41.936 208.64L31.9461 206.578L32.2248 205.23L41.0371 207.05L42.0495 202.153L33.2372 200.333L33.5158 198.985L42.3282 200.805L43.3288 195.965L34.5165 194.145L34.7951 192.798Z" fill="var(--fill-0, white)"/>
<path d="M43.9722 180.356L41.6157 188.552C42.656 188.77 43.5948 188.616 44.4321 188.09C45.2569 187.561 45.8246 186.756 46.1353 185.675C46.3102 185.067 46.3653 184.478 46.3004 183.908C46.2231 183.335 46.0268 182.801 45.7114 182.307L46.7831 181.808C47.18 182.393 47.4205 183.053 47.5047 183.79C47.5924 184.514 47.5238 185.268 47.2988 186.05C47.0096 187.056 46.5413 187.889 45.8939 188.55C45.2376 189.195 44.468 189.626 43.585 189.843C42.702 190.06 41.7822 190.031 40.8254 189.757C39.8686 189.482 39.0701 189.031 38.4299 188.403C37.7933 187.763 37.3673 187.023 37.1519 186.181C36.9401 185.327 36.9645 184.447 37.2251 183.54C37.4858 182.634 37.9309 181.881 38.5605 181.282C39.19 180.683 39.9427 180.288 40.8185 180.095C41.6819 179.9 42.5982 179.941 43.5675 180.219L43.9722 180.356ZM38.3621 183.867C38.0908 184.811 38.1667 185.693 38.5899 186.513C39.0043 187.318 39.6836 187.903 40.6278 188.268L42.6255 181.32C41.6312 181.129 40.7431 181.27 39.961 181.745C39.17 182.203 38.637 182.911 38.3621 183.867Z" fill="var(--fill-0, white)"/>
<path d="M43.4382 168.538L41.532 174.051L50.0188 176.982L49.5692 178.282L39.9275 174.953L42.2834 168.139L43.4382 168.538Z" fill="var(--fill-0, white)"/>
<path d="M54.2683 165.794C53.8991 166.704 53.3626 167.442 52.6589 168.007C51.9432 168.567 51.1349 168.909 50.234 169.032C49.3332 169.155 48.4214 169.03 47.4988 168.656C46.5763 168.282 45.8346 167.737 45.2737 167.022C44.7129 166.307 44.3769 165.502 44.2659 164.606C44.1548 163.711 44.2839 162.808 44.6531 161.898C45.0223 160.988 45.5588 160.25 46.2625 159.685C46.9662 159.119 47.766 158.781 48.6621 158.67C49.563 158.547 50.4747 158.673 51.3973 159.047C52.3199 159.42 53.0616 159.965 53.6224 160.68C54.1881 161.383 54.5325 162.185 54.6555 163.086C54.7666 163.981 54.6375 164.884 54.2683 165.794ZM53.136 165.335C53.4081 164.664 53.5012 164.005 53.4154 163.357C53.3225 162.692 53.0552 162.095 52.6135 161.568C52.1718 161.04 51.5915 160.631 50.8726 160.34C50.1537 160.048 49.452 159.938 48.7674 160.01C48.0829 160.081 47.4815 160.325 46.9634 160.743C46.4381 161.143 46.0394 161.679 45.7674 162.349C45.4953 163.02 45.4058 163.688 45.4987 164.353C45.5845 165.001 45.8458 165.595 46.2826 166.134C46.7243 166.662 47.3046 167.071 48.0235 167.363C48.7424 167.654 49.4441 167.764 50.1287 167.693C50.8181 167.61 51.4255 167.368 51.9507 166.967C52.4689 166.55 52.864 166.006 53.136 165.335Z" fill="var(--fill-0, white)"/>
<path d="M52.5795 145.245C53.0077 144.404 53.579 143.752 54.2935 143.289C55.0024 142.809 55.7905 142.558 56.658 142.535C57.514 142.506 58.374 142.712 59.2382 143.151C60.1254 143.603 60.815 144.2 61.3069 144.943C61.7932 145.669 62.0505 146.474 62.0789 147.358C62.1072 148.243 61.8927 149.134 61.4352 150.032C60.667 151.54 59.5417 152.44 58.0594 152.73C56.5771 153.019 54.9026 152.69 53.036 151.74C51.0888 150.75 49.7843 149.622 49.1227 148.358C48.4669 147.082 48.3563 145.561 48.7911 143.796L49.9339 139.245L51.1629 139.609L50.0914 143.892C49.7167 145.34 49.7427 146.556 50.1693 147.542C50.5844 148.521 51.4916 149.403 52.891 150.188C52.3759 149.462 52.0895 148.671 52.0321 147.815C51.9631 146.954 52.1456 146.097 52.5795 145.245ZM60.4331 149.479C60.7557 148.845 60.899 148.208 60.8631 147.566C60.8216 146.907 60.6062 146.305 60.2169 145.759C59.8335 145.201 59.3077 144.753 58.6394 144.413C57.9711 144.073 57.3131 143.912 56.6654 143.93C56.0176 143.949 55.4265 144.141 54.8919 144.507C54.3517 144.856 53.9173 145.352 53.5889 145.997C53.2605 146.642 53.1113 147.291 53.1413 147.944C53.1656 148.58 53.358 149.171 53.7184 149.717C54.0846 150.251 54.6018 150.688 55.2701 151.028C55.9384 151.368 56.608 151.535 57.2787 151.528C57.9554 151.51 58.5725 151.323 59.1301 150.969C59.6762 150.609 60.1105 150.112 60.4331 149.479Z" fill="var(--fill-0, white)"/>
<path d="M59.4351 132.113C59.9248 131.291 60.5569 130.66 61.3316 130.219C62.0951 129.771 62.9282 129.56 63.8307 129.586C64.7332 129.612 65.6176 129.883 66.484 130.399C67.3615 130.921 68.0265 131.573 68.4791 132.353C68.9317 133.134 69.1483 133.97 69.1289 134.861C69.1051 135.734 68.845 136.587 68.3488 137.419C67.9253 138.13 67.3971 138.688 66.7642 139.093C66.1269 139.481 65.4158 139.689 64.631 139.718L69.5126 142.624L68.8079 143.806L56.812 136.665L57.4869 135.532L59.2197 136.564C58.8538 135.865 58.6874 135.134 58.7205 134.372C58.7602 133.598 58.9984 132.845 59.4351 132.113ZM67.2495 136.878C67.6134 136.267 67.8054 135.63 67.8255 134.965C67.8344 134.293 67.6606 133.663 67.304 133.075C66.954 132.476 66.4458 131.978 65.7793 131.581C65.1129 131.184 64.4382 130.978 63.7552 130.962C63.0677 130.929 62.4307 131.076 61.8442 131.404C61.2576 131.731 60.7824 132.2 60.4185 132.811C60.0479 133.433 59.8582 134.079 59.8492 134.75C59.8469 135.411 60.0207 136.041 60.3707 136.64C60.7162 137.222 61.2222 137.711 61.8886 138.108C62.5551 138.505 63.232 138.72 63.9195 138.753C64.6136 138.775 65.2506 138.628 65.8305 138.311C66.4059 137.977 66.8789 137.499 67.2495 136.878Z" fill="var(--fill-0, white)"/>
<path d="M73.7222 120.402L68.9066 127.442C69.8256 127.976 70.7652 128.125 71.7254 127.889C72.675 127.645 73.4672 127.059 74.102 126.131C74.4595 125.609 74.6971 125.067 74.8148 124.505C74.9218 123.937 74.9034 123.369 74.7594 122.801L75.9336 122.664C76.1265 123.343 76.147 124.046 75.9951 124.772C75.8505 125.487 75.5484 126.18 75.0887 126.852C74.4977 127.716 73.7909 128.361 72.9683 128.785C72.1424 129.191 71.2762 129.358 70.3698 129.287C69.4633 129.215 68.5992 128.899 67.7773 128.337C66.9555 127.776 66.3394 127.097 65.9291 126.3C65.5262 125.492 65.3548 124.655 65.4151 123.789C65.4827 122.911 65.7828 122.083 66.3155 121.305C66.8481 120.526 67.5075 119.951 68.2935 119.581C69.0796 119.21 69.9186 119.071 70.8104 119.164C71.6916 119.249 72.5485 119.576 73.381 120.145L73.7222 120.402ZM67.2921 121.972C66.7375 122.783 66.5321 123.644 66.6756 124.556C66.8158 125.45 67.2767 126.219 68.0581 126.862L72.1404 120.894C71.2568 120.4 70.3692 120.255 69.4775 120.46C68.5823 120.647 67.8539 121.151 67.2921 121.972Z" fill="var(--fill-0, white)"/>
<path d="M71.5057 114.011L72.3518 112.926L75.9167 115.7L79.8612 110.639L76.2963 107.864L77.1424 106.779L85.1902 113.043L84.3441 114.129L80.7945 111.366L76.85 116.427L80.3996 119.19L79.5535 120.276L71.5057 114.011Z" fill="var(--fill-0, white)"/>
<path d="M93.7957 101.28L96.5337 103.715L95.6698 104.685L93.83 103.049L87.7574 109.868L89.5972 111.505L88.7334 112.475L85.9954 110.039L86.3822 109.605C86.8087 109.068 86.7415 108.385 86.1805 107.558C85.6194 106.73 84.7171 105.702 83.4734 104.475L81.014 102.106L86.0165 96.4887L92.7384 102.467L93.7957 101.28ZM84.3694 103.586C85.4082 104.596 86.2199 105.482 86.8046 106.245C87.3796 106.998 87.6428 107.665 87.5941 108.244L91.823 103.495L86.0138 98.3284L82.7518 101.991L84.3694 103.586Z" fill="var(--fill-0, white)"/>
<path d="M91.9779 90.1527C92.9195 89.2117 93.8794 88.7275 94.8577 88.7001C95.8267 88.6635 96.7729 89.1066 97.6963 90.0294L102.167 94.4971L101.234 95.429L100.11 94.3053C100.265 94.8991 100.233 95.5158 100.014 96.1554C99.8035 96.7858 99.4058 97.3934 98.8208 97.9781C98.0162 98.7821 97.1843 99.2298 96.325 99.3211C95.4656 99.4125 94.7205 99.143 94.0897 98.5126C93.4772 97.9004 93.2029 97.1878 93.2669 96.3747C93.3401 95.5524 93.8612 94.657 94.8302 93.6885L97.1203 91.3999L96.6815 90.9613C96.0598 90.34 95.4153 90.0431 94.7479 90.0705C94.0714 90.0888 93.3995 90.4314 92.7321 91.0984C92.275 91.5552 91.9139 92.0714 91.6488 92.647C91.3745 93.2135 91.2191 93.7799 91.1825 94.3464L90.0169 94.0586C90.0718 93.3825 90.2729 92.7064 90.6203 92.0303C90.9586 91.3451 91.4111 90.7192 91.9779 90.1527ZM98.2037 97.0599C98.7522 96.5117 99.0996 95.9178 99.2459 95.2783C99.383 94.6296 99.3099 93.9718 99.0264 93.3048L97.8471 92.1262L95.5844 94.3875C94.3503 95.6209 94.1629 96.667 95.0222 97.5258C95.4427 97.9461 95.9364 98.1197 96.5032 98.0466C97.0609 97.9644 97.6277 97.6355 98.2037 97.0599Z" fill="var(--fill-0, white)"/>
<path d="M128.211 68.4693C127.879 68.6929 127.515 68.7662 127.121 68.689C126.726 68.6119 126.409 68.3964 126.171 68.0427C125.94 67.6997 125.867 67.3362 125.951 66.9524C126.028 66.5579 126.233 66.2488 126.566 66.0252C126.898 65.8016 127.262 65.7283 127.657 65.8055C128.044 65.8719 128.354 66.0766 128.584 66.4196C128.815 66.7627 128.896 67.1368 128.826 67.5421C128.749 67.9366 128.544 68.2457 128.211 68.4693Z" fill="var(--fill-0, white)"/>
<path d="M165.629 52.5683C164.7 52.9609 163.781 53.1109 162.872 53.0184C161.974 52.9208 161.163 52.5972 160.439 52.0474C159.71 51.4858 159.152 50.7468 158.764 49.8305C158.376 48.9142 158.237 48.005 158.347 47.1029C158.456 46.2008 158.789 45.394 159.344 44.6823C159.911 43.9656 160.659 43.411 161.587 43.0184C162.397 42.6761 163.185 42.5323 163.953 42.5868C164.727 42.6244 165.427 42.8687 166.053 43.3195L165.378 44.3623C164.872 44.0291 164.333 43.85 163.761 43.8253C163.184 43.7886 162.615 43.8886 162.056 44.1251C161.377 44.412 160.829 44.8259 160.412 45.3669C160.003 45.8909 159.761 46.498 159.688 47.1882C159.627 47.8733 159.748 48.5729 160.05 49.2869C160.357 50.0128 160.778 50.5925 161.313 51.026C161.854 51.4425 162.458 51.6922 163.125 51.7751C163.798 51.8411 164.474 51.7306 165.153 51.4437C165.713 51.2072 166.183 50.8752 166.564 50.4477C166.944 50.0203 167.191 49.5091 167.304 48.9141L168.523 49.1566C168.411 49.9195 168.101 50.5975 167.594 51.1906C167.082 51.7718 166.427 52.2311 165.629 52.5683Z" fill="var(--fill-0, white)"/>
<path d="M168.54 40.2215L169.838 39.7623L172.542 47.3994L176.255 37.4925L177.406 37.0851L180.81 46.6954L179.512 47.1546L176.807 39.5175L173.113 49.4179L171.943 49.8318L168.54 40.2215Z" fill="var(--fill-0, white)"/>
<path d="M190.377 33.2103L193.157 43.019L191.832 43.394L189.385 34.7601L184.683 36.0911L185.239 38.5523C185.718 40.6193 185.925 42.2526 185.862 43.4523C185.799 44.6519 185.289 45.3873 184.331 45.6584C184.07 45.7324 183.738 45.7724 183.337 45.7786L183.108 44.6147C183.346 44.601 183.508 44.5819 183.595 44.5572C184.105 44.4129 184.424 44.0675 184.551 43.5211C184.679 42.9748 184.687 42.3412 184.577 41.6204C184.467 40.8995 184.281 39.9585 184.019 38.7971L183.193 35.2438L190.377 33.2103Z" fill="var(--fill-0, white)"/>
<path d="M199.606 34.6979C200.858 34.4326 201.866 34.4995 202.631 34.8987C203.408 35.295 203.91 36.004 204.138 37.0256C204.373 38.085 204.201 38.9771 203.621 39.7019C203.053 40.4238 202.105 40.9259 200.778 41.208L196.76 42.0818L194.544 32.1307L195.888 31.8318L196.663 35.3128L199.606 34.6979ZM200.474 40.2033C201.398 40.011 202.052 39.6737 202.434 39.1914C202.827 38.6938 202.94 38.0729 202.775 37.3288C202.612 36.5973 202.257 36.1069 201.712 35.8576C201.166 35.6083 200.425 35.5813 199.488 35.7764L196.887 36.3154L197.872 40.7423L200.474 40.2033Z" fill="var(--fill-0, white)"/>
<path d="M206.6 29.5301L207.96 29.3138L208.67 33.7735L215.009 32.7651L214.299 28.3054L215.659 28.089L217.262 38.1568L215.903 38.3732L215.195 33.9326L208.856 34.9411L209.563 39.3816L208.203 39.5979L206.6 29.5301Z" fill="var(--fill-0, white)"/>
<path d="M225.311 37.319C224.333 37.4135 223.43 37.2801 222.603 36.9187C221.774 36.5444 221.097 35.9868 220.57 35.2458C220.044 34.5048 219.733 33.6391 219.637 32.6489C219.541 31.6586 219.681 30.7494 220.055 29.9214C220.43 29.0933 220.988 28.4227 221.731 27.9096C222.474 27.3965 223.334 27.0927 224.312 26.9981C225.29 26.9036 226.193 27.0371 227.02 27.3985C227.847 27.7599 228.518 28.3117 229.031 29.0539C229.558 29.7949 229.869 30.6606 229.964 31.6509C230.06 32.6411 229.921 33.5503 229.546 34.3783C229.185 35.2051 228.633 35.8815 227.892 36.4075C227.149 36.9207 226.289 37.2245 225.311 37.319ZM225.193 36.1036C225.914 36.034 226.542 35.8111 227.077 35.4348C227.624 35.0445 228.029 34.5315 228.292 33.896C228.555 33.2604 228.649 32.5568 228.575 31.7852C228.5 31.0135 228.273 30.341 227.892 29.7676C227.512 29.1943 227.017 28.7748 226.407 28.5092C225.808 28.2296 225.148 28.1246 224.428 28.1942C223.707 28.2638 223.073 28.4938 222.527 28.8842C221.992 29.2604 221.586 29.7669 221.31 30.4037C221.047 31.0393 220.952 31.7429 221.027 32.5145C221.102 33.2862 221.329 33.9587 221.709 34.5321C222.102 35.1042 222.598 35.5301 223.197 35.8098C223.807 36.0753 224.472 36.1733 225.193 36.1036Z" fill="var(--fill-0, white)"/>
<path d="M243.183 31.4813L234.655 31.7775C234.769 32.8336 235.206 33.6782 235.965 34.3112C236.724 34.9313 237.666 35.2218 238.79 35.1828C239.423 35.1608 240.001 35.0308 240.523 34.7929C241.045 34.5421 241.492 34.1904 241.864 33.7379L242.67 34.602C242.237 35.16 241.683 35.593 241.008 35.9009C240.346 36.2083 239.608 36.3761 238.794 36.4044C237.747 36.4407 236.809 36.2535 235.98 35.8428C235.163 35.4186 234.515 34.8206 234.035 34.0486C233.555 33.2766 233.298 32.3934 233.264 31.3991C233.229 30.4048 233.411 29.5064 233.81 28.7039C234.222 27.9009 234.795 27.2669 235.53 26.8019C236.277 26.3363 237.122 26.0872 238.065 26.0544C239.008 26.0217 239.862 26.2118 240.627 26.6248C241.392 27.0379 242.001 27.6308 242.455 28.4037C242.908 29.1637 243.152 30.0473 243.187 31.0545L243.183 31.4813ZM238.106 27.236C237.124 27.2701 236.308 27.6152 235.658 28.2713C235.021 28.914 234.674 29.7405 234.619 30.7509L241.848 30.4998C241.723 29.4957 241.313 28.6954 240.62 28.099C239.939 27.4891 239.101 27.2014 238.106 27.236Z" fill="var(--fill-0, white)"/>
<path d="M258.517 31.2422C259.883 31.6342 260.532 32.5012 260.464 33.8433C260.419 34.7337 260.056 35.4011 259.373 35.8455C258.691 36.2899 257.697 36.4794 256.393 36.414L251.764 36.1817L252.276 26L256.769 26.2255C257.931 26.2838 258.83 26.5553 259.466 27.04C260.102 27.5247 260.399 28.1864 260.357 29.0252C260.329 29.5801 260.15 30.0498 259.82 30.4343C259.503 30.8066 259.069 31.0759 258.517 31.2422ZM253.384 30.5966L256.445 30.7501C257.232 30.7896 257.84 30.6714 258.268 30.3953C258.709 30.1199 258.944 29.6983 258.973 29.1305C259.001 28.5627 258.81 28.1261 258.398 27.8208C257.999 27.5162 257.405 27.3441 256.618 27.3046L253.558 27.151L253.384 30.5966ZM256.39 35.3271C257.268 35.3712 257.933 35.2623 258.387 35.0004C258.84 34.7385 259.082 34.3043 259.112 33.6978C259.143 33.0913 258.965 32.636 258.579 32.332C258.193 32.0152 257.568 31.835 256.703 31.7916L253.333 31.6225L253.155 35.1648L256.39 35.3271Z" fill="var(--fill-0, white)"/>
<path d="M265.1 26.7075L266.468 26.861L265.564 34.9118L273.233 27.6199L274.447 27.7561L273.309 37.887L271.941 37.7335L272.845 29.6827L265.196 36.9768L263.962 36.8384L265.1 26.7075Z" fill="var(--fill-0, white)"/>
<path d="M287.407 38.979L286.762 42.5848L285.483 42.3562L285.916 39.9332L276.925 38.3259L276.491 40.7488L275.212 40.5202L275.857 36.9144L276.43 37.0167C277.112 37.0992 277.658 36.685 278.071 35.7743C278.484 34.8636 278.888 33.5577 279.284 31.8566L280.019 28.5226L287.426 29.8467L285.842 38.6991L287.407 38.979ZM280.512 32.1547C280.193 33.5678 279.862 34.7227 279.517 35.6194C279.175 36.5033 278.744 37.076 278.225 37.3375L284.486 38.4569L285.856 30.8064L281.026 29.943L280.512 32.1547Z" fill="var(--fill-0, white)"/>
<path d="M301.249 38.6519L292.964 36.6095C292.785 37.6568 292.975 38.5885 293.533 39.4047C294.093 40.2083 294.92 40.7447 296.012 41.0139C296.627 41.1656 297.218 41.1982 297.785 41.1118C298.356 41.0129 298.882 40.7966 299.364 40.4629L299.903 41.5142C299.334 41.9327 298.682 42.198 297.949 42.31C297.228 42.425 296.472 42.3851 295.681 42.1901C294.665 41.9395 293.813 41.5034 293.128 40.8819C292.458 40.251 291.998 39.4988 291.747 38.6252C291.497 37.7517 291.491 36.8319 291.729 35.866C291.968 34.9 292.389 34.0855 292.992 33.4224C293.607 32.7624 294.332 32.3088 295.165 32.0618C296.011 31.8179 296.892 31.8088 297.809 32.0347C298.725 32.2606 299.494 32.6766 300.117 33.2826C300.74 33.8886 301.164 34.6253 301.389 35.4926C301.618 36.3474 301.611 37.2641 301.37 38.2426L301.249 38.6519ZM297.525 33.1826C296.571 32.9474 295.692 33.0567 294.888 33.5105C294.099 33.9548 293.54 34.6554 293.21 35.6122L300.233 37.3436C300.387 36.3435 300.212 35.4618 299.708 34.6988C299.219 33.9263 298.492 33.4209 297.525 33.1826Z" fill="var(--fill-0, white)"/>
<path d="M307.569 45.4803C306.631 45.1878 305.851 44.7145 305.23 44.0603C304.611 43.3938 304.204 42.617 304.007 41.7299C303.81 40.8428 303.86 39.9244 304.156 38.9746C304.453 38.0249 304.935 37.2412 305.601 36.6235C306.268 36.0059 307.044 35.6047 307.928 35.4202C308.811 35.2356 309.722 35.2896 310.66 35.5821C311.598 35.8747 312.378 36.348 313 37.0022C313.622 37.6563 314.025 38.425 314.21 39.3083C314.407 40.1954 314.357 41.1138 314.061 42.0635C313.764 43.0133 313.282 43.797 312.615 44.4147C311.961 45.0362 311.19 45.4454 310.302 45.6423C309.418 45.8268 308.507 45.7729 307.569 45.4803ZM307.933 44.3147C308.624 44.5303 309.29 44.5686 309.929 44.4296C310.585 44.2821 311.157 43.9666 311.647 43.4831C312.136 42.9997 312.497 42.3879 312.728 41.6478C312.959 40.9078 313.011 40.1998 312.883 39.5239C312.755 38.8479 312.462 38.2692 312.003 37.7876C311.56 37.2976 310.993 36.9448 310.302 36.7292C309.611 36.5137 308.938 36.4796 308.282 36.6271C307.643 36.7661 307.072 37.0754 306.57 37.555C306.081 38.0385 305.72 38.6503 305.489 39.3903C305.258 40.1304 305.206 40.8384 305.334 41.5143C305.474 42.1941 305.765 42.779 306.208 43.2691C306.667 43.7506 307.242 44.0992 307.933 44.3147Z" fill="var(--fill-0, white)"/>
<path d="M329.279 52.0935L327.889 55.483L326.687 54.9905L327.621 52.713L319.169 49.2514L318.235 51.529L317.033 51.0366L318.422 47.6471L318.961 47.8676C319.61 48.0914 320.231 47.8015 320.826 46.9979C321.421 46.1943 322.092 45.0026 322.837 43.4229L324.257 40.318L331.22 43.1696L327.808 51.4908L329.279 52.0935ZM323.974 43.9723C323.365 45.2869 322.798 46.3462 322.273 47.1504C321.752 47.9427 321.211 48.412 320.648 48.5584L326.534 50.969L329.482 43.7776L324.942 41.9182L323.974 43.9723Z" fill="var(--fill-0, white)"/>
<path d="M344.207 49.1902L339.749 58.3598L338.51 57.7584L342.434 49.6871L338.038 47.5527L336.815 49.7597C335.795 51.6205 334.862 52.9775 334.016 53.8309C333.17 54.6842 332.299 54.8935 331.404 54.4587C331.16 54.3401 330.886 54.1496 330.582 53.8872L331.186 52.8662C331.373 53.0143 331.507 53.1082 331.588 53.1477C332.065 53.3792 332.533 53.3334 332.992 53.0104C333.451 52.6873 333.879 52.2202 334.277 51.6089C334.675 50.9976 335.163 50.1714 335.741 49.1305L337.491 45.9294L344.207 49.1902Z" fill="var(--fill-0, white)"/>
<path d="M354.89 54.9778L349.897 63.8677L348.798 63.2511L350.45 60.3103L347.321 58.5554L343.606 60.3388L342.304 59.6083L346.266 57.7413C345.686 57.1639 345.339 56.5399 345.227 55.8693C345.114 55.1986 345.257 54.5084 345.656 53.7985C346.213 52.807 346.975 52.2418 347.943 52.103C348.91 51.9642 349.98 52.2236 351.153 52.8813L354.89 54.9778ZM346.855 54.5154C346.114 55.8336 346.584 56.9639 348.264 57.9063L350.953 59.4146L353.193 55.426L350.589 53.9651C348.852 52.9911 347.608 53.1746 346.855 54.5154Z" fill="var(--fill-0, white)"/>
<path d="M366.469 68.1194C367.432 69.1628 367.536 70.2405 366.782 71.3526C366.281 72.0905 365.623 72.4723 364.809 72.498C363.995 72.5238 363.048 72.1704 361.967 71.4379L358.131 68.8378L363.857 60.4008L367.58 62.9247C368.543 63.5775 369.171 64.2759 369.462 65.0201C369.754 65.7643 369.664 66.4839 369.192 67.1789C368.88 67.6387 368.483 67.9474 368.002 68.1048C367.538 68.2588 367.027 68.2636 366.469 68.1194ZM362.417 64.9048L364.953 66.6237C365.606 67.0661 366.187 67.2804 366.696 67.2665C367.216 67.2599 367.636 67.0214 367.955 66.5509C368.274 66.0804 368.337 65.6078 368.144 65.1332C367.961 64.6659 367.543 64.211 366.891 63.7686L364.355 62.0497L362.417 64.9048ZM362.528 70.507C363.256 71.0002 363.881 71.2525 364.405 71.2638C364.928 71.2751 365.361 71.0295 365.702 70.5269C366.043 70.0244 366.127 69.543 365.955 69.0829C365.79 68.6122 365.35 68.1338 364.633 67.6479L361.84 65.7549L359.848 68.6902L362.528 70.507Z" fill="var(--fill-0, white)"/>
<path d="M377.799 70.1432C378.855 70.9533 379.461 71.8412 379.616 72.8068C379.779 73.7622 379.463 74.7576 378.668 75.793L374.82 80.8059L373.773 80.0036L374.741 78.7427C374.172 78.9743 373.556 79.0231 372.893 78.8892C372.24 78.7632 371.586 78.4485 370.929 77.9451C370.027 77.253 369.474 76.4872 369.271 75.6476C369.068 74.8081 369.238 74.0346 369.781 73.3273C370.309 72.6405 370.98 72.2757 371.795 72.2329C372.62 72.198 373.576 72.5974 374.664 73.4311L377.233 75.4013L377.611 74.9092C378.146 74.2121 378.357 73.5348 378.242 72.8771C378.136 72.2092 377.708 71.5881 376.959 71.014C376.446 70.6207 375.887 70.3303 375.282 70.1428C374.684 69.945 374.101 69.865 373.535 69.9028L373.668 68.7103C374.346 68.6763 375.043 68.7873 375.759 69.0432C376.483 69.2889 377.163 69.6556 377.799 70.1432ZM371.76 77.2138C372.375 77.6857 373.01 77.9524 373.663 78.0138C374.325 78.0649 374.968 77.9066 375.592 77.5387L376.608 76.2163L374.069 74.2696C372.684 73.2079 371.622 73.1588 370.882 74.1224C370.52 74.594 370.412 75.1058 370.559 75.6578C370.713 76.1996 371.113 76.7183 371.76 77.2138Z" fill="var(--fill-0, white)"/>
<path d="M395.218 84.8866L388.436 92.502L377.918 83.1474L384.7 75.5321L385.729 76.4469L379.746 83.1646L383.484 86.489L389.466 79.7712L390.495 80.6861L384.512 87.4038L388.207 90.6895L394.189 83.9718L395.218 84.8866Z" fill="var(--fill-0, white)"/>
<path d="M400.901 98.4637L394.956 92.3467C394.25 93.1405 393.917 94.0312 393.957 95.0186C394.007 95.997 394.424 96.8894 395.207 97.6957C395.649 98.1499 396.133 98.4904 396.66 98.7174C397.196 98.9353 397.757 99.0303 398.343 99.0022L398.243 100.18C397.539 100.233 396.845 100.114 396.164 99.8204C395.491 99.5365 394.872 99.1026 394.304 98.5187C393.574 97.768 393.083 96.9476 392.831 96.0576C392.597 95.1679 392.606 94.2862 392.856 93.4127C393.106 92.5391 393.589 91.7558 394.303 91.0625C395.017 90.3693 395.805 89.9011 396.668 89.6578C397.54 89.4237 398.395 89.4224 399.233 89.6539C400.08 89.8946 400.832 90.3533 401.49 91.0299C402.147 91.7065 402.58 92.4666 402.787 93.3102C402.994 94.1539 402.963 95.0032 402.695 95.8582C402.436 96.7042 401.944 97.4783 401.221 98.1806L400.901 98.4637ZM400.641 91.8536C399.956 91.1492 399.153 90.7766 398.23 90.7358C397.325 90.6953 396.48 90.9937 395.693 91.631L400.733 96.8166C401.394 96.0495 401.712 95.2089 401.689 94.2948C401.684 93.381 401.335 92.5673 400.641 91.8536Z" fill="var(--fill-0, white)"/>
<path d="M412.036 104.527L408.203 100.127L401.431 106.019L400.527 104.981L408.221 98.2873L412.958 103.725L412.036 104.527Z" fill="var(--fill-0, white)"/>
<path d="M408.835 115.027C408.228 114.254 407.854 113.423 407.713 112.531C407.582 111.632 407.687 110.761 408.028 109.919C408.369 109.077 408.931 108.348 409.715 107.734C410.498 107.12 411.339 106.747 412.239 106.617C413.139 106.486 414.005 106.595 414.838 106.944C415.67 107.292 416.39 107.853 416.997 108.626C417.603 109.398 417.977 110.23 418.118 111.121C418.259 112.013 418.155 112.874 417.806 113.706C417.465 114.549 416.903 115.277 416.12 115.891C415.337 116.505 414.495 116.878 413.595 117.009C412.704 117.15 411.836 117.05 410.993 116.709C410.161 116.36 409.441 115.799 408.835 115.027ZM409.796 114.273C410.243 114.842 410.769 115.251 411.374 115.499C411.998 115.749 412.649 115.813 413.326 115.693C414.004 115.572 414.648 115.272 415.258 114.793C415.868 114.315 416.313 113.761 416.591 113.132C416.87 112.503 416.956 111.86 416.851 111.203C416.765 110.549 416.498 109.937 416.051 109.367C415.604 108.798 415.069 108.389 414.445 108.139C413.839 107.891 413.194 107.822 412.508 107.933C411.831 108.054 411.187 108.353 410.577 108.832C409.966 109.311 409.522 109.864 409.244 110.493C408.973 111.133 408.881 111.779 408.968 112.434C409.073 113.091 409.349 113.704 409.796 114.273Z" fill="var(--fill-0, white)"/>
<path d="M428.057 124.553C428.572 125.344 428.852 126.164 428.897 127.013C428.96 127.867 428.785 128.675 428.372 129.438C427.97 130.193 427.362 130.836 426.55 131.365C425.716 131.908 424.854 132.208 423.964 132.263C423.092 132.322 422.266 132.143 421.485 131.727C420.703 131.31 420.038 130.679 419.487 129.835C418.562 128.417 418.344 126.994 418.832 125.565C419.32 124.137 420.441 122.851 422.196 121.708C424.026 120.516 425.655 119.948 427.082 120.006C428.515 120.075 429.889 120.738 431.203 121.995L434.579 125.255L433.651 126.138L430.471 123.073C429.402 122.026 428.334 121.442 427.267 121.32C426.211 121.191 424.993 121.536 423.615 122.357C424.501 122.273 425.33 122.42 426.101 122.797C426.882 123.167 427.534 123.752 428.057 124.553ZM420.467 129.243C420.855 129.839 421.336 130.281 421.911 130.57C422.503 130.863 423.133 130.977 423.801 130.912C424.475 130.858 425.127 130.626 425.755 130.217C426.383 129.808 426.851 129.318 427.158 128.748C427.465 128.178 427.593 127.57 427.543 126.924C427.51 126.282 427.296 125.658 426.9 125.052C426.505 124.446 426.017 123.993 425.435 123.693C424.872 123.397 424.263 123.269 423.61 123.309C422.964 123.359 422.327 123.589 421.699 123.998C421.071 124.408 420.592 124.905 420.263 125.489C419.942 126.084 419.795 126.711 419.824 127.371C419.864 128.024 420.078 128.648 420.467 129.243Z" fill="var(--fill-0, white)"/>
<path d="M436.028 137.053C436.496 137.886 436.728 138.749 436.725 139.64C436.732 140.525 436.5 141.351 436.027 142.12C435.555 142.889 434.879 143.52 433.999 144.013C433.109 144.513 432.212 144.764 431.309 144.767C430.406 144.77 429.573 144.54 428.81 144.079C428.065 143.623 427.455 142.973 426.98 142.128C426.575 141.407 426.355 140.671 426.319 139.921C426.3 139.175 426.474 138.455 426.841 137.761L421.886 140.541L421.212 139.341L433.388 132.51L434.033 133.66L432.274 134.646C433.063 134.678 433.78 134.898 434.425 135.307C435.076 135.727 435.61 136.309 436.028 137.053ZM427.998 141.446C428.346 142.065 428.804 142.55 429.37 142.899C429.948 143.241 430.581 143.405 431.269 143.389C431.964 143.385 432.649 143.193 433.326 142.814C434.002 142.434 434.517 141.952 434.871 141.369C435.243 140.79 435.433 140.164 435.441 139.493C435.45 138.821 435.28 138.176 434.932 137.556C434.577 136.925 434.111 136.438 433.533 136.096C432.962 135.765 432.329 135.601 431.634 135.605C430.958 135.615 430.281 135.809 429.605 136.188C428.928 136.568 428.404 137.047 428.032 137.626C427.667 138.216 427.477 138.841 427.462 139.501C427.465 140.167 427.644 140.815 427.998 141.446Z" fill="var(--fill-0, white)"/>
<path d="M439.104 155.386L435.403 147.701C434.482 148.231 433.884 148.97 433.609 149.92C433.346 150.863 433.459 151.842 433.946 152.855C434.221 153.425 434.572 153.901 435 154.284C435.44 154.66 435.942 154.928 436.506 155.086L436.039 156.172C435.353 155.999 434.734 155.666 434.18 155.173C433.632 154.691 433.182 154.083 432.829 153.349C432.374 152.406 432.169 151.473 432.212 150.549C432.272 149.631 432.559 148.797 433.073 148.048C433.588 147.298 434.294 146.708 435.191 146.277C436.088 145.845 436.984 145.651 437.88 145.693C438.781 145.747 439.592 146.016 440.314 146.501C441.04 146.998 441.609 147.671 442.018 148.521C442.427 149.371 442.596 150.228 442.525 151.094C442.455 151.96 442.156 152.756 441.631 153.482C441.117 154.202 440.405 154.781 439.497 155.218L439.104 155.386ZM440.952 149.033C440.526 148.149 439.882 147.541 439.019 147.21C438.174 146.885 437.277 146.9 436.33 147.256L439.467 153.77C440.336 153.252 440.905 152.555 441.172 151.681C441.457 150.812 441.384 149.93 440.952 149.033Z" fill="var(--fill-0, white)"/>
<path d="M445.84 156.896L446.357 158.172L442.17 159.868L444.582 165.813L448.769 164.117L449.286 165.392L439.833 169.222L439.316 167.947L443.485 166.258L441.073 160.313L436.904 162.002L436.386 160.727L445.84 156.896Z" fill="var(--fill-0, white)"/>
<path d="M445.477 181.865L441.999 183.022L441.589 181.79L443.925 181.013L441.04 172.351L438.703 173.129L438.293 171.897L441.771 170.74L441.954 171.291C442.208 171.929 442.833 172.211 443.831 172.138C444.828 172.065 446.169 171.796 447.854 171.33L451.135 170.382L453.512 177.517L444.974 180.357L445.477 181.865ZM448.179 172.55C446.784 172.946 445.611 173.207 444.658 173.333C443.718 173.456 443.009 173.351 442.53 173.02L444.539 179.052L451.918 176.597L450.368 171.944L448.179 172.55Z" fill="var(--fill-0, white)"/>
<path d="M456.18 186.419C456.524 187.705 456.462 188.777 455.996 189.637C455.543 190.494 454.685 191.09 453.423 191.427L447.315 193.056L446.975 191.783L448.511 191.373C447.919 191.21 447.401 190.874 446.957 190.364C446.516 189.866 446.189 189.218 445.976 188.419C445.682 187.32 445.711 186.376 446.063 185.587C446.414 184.798 447.02 184.289 447.882 184.059C448.719 183.835 449.474 183.955 450.146 184.418C450.822 184.893 451.336 185.792 451.69 187.115L452.525 190.242L453.124 190.082C453.974 189.856 454.554 189.447 454.864 188.856C455.187 188.262 455.227 187.509 454.984 186.598C454.817 185.973 454.551 185.402 454.185 184.885C453.832 184.364 453.419 183.946 452.947 183.63L453.78 182.766C454.338 183.152 454.823 183.665 455.234 184.304C455.658 184.94 455.974 185.645 456.18 186.419ZM447.08 188.345C447.28 189.094 447.621 189.692 448.101 190.139C448.594 190.582 449.201 190.848 449.92 190.937L451.532 190.507L450.706 187.418C450.256 185.732 449.444 185.046 448.27 185.359C447.695 185.513 447.298 185.853 447.077 186.38C446.869 186.903 446.87 187.558 447.08 188.345Z" fill="var(--fill-0, white)"/>
<path d="M456.658 227.872C456.63 227.473 456.748 227.121 457.012 226.818C457.276 226.515 457.621 226.348 458.046 226.319C458.459 226.29 458.811 226.408 459.101 226.673C459.405 226.936 459.571 227.268 459.598 227.668C459.626 228.067 459.508 228.419 459.244 228.722C458.993 229.025 458.661 229.19 458.248 229.219C457.836 229.247 457.471 229.13 457.155 228.867C456.851 228.603 456.686 228.272 456.658 227.872Z" fill="var(--fill-0, white)"/>
</g>
</g>
</svg>
