<svg preserveAspectRatio="none" width="100%" height="100%" overflow="visible" style="display: block;" viewBox="0 0 34 34" fill="none" xmlns="http://www.w3.org/2000/svg">
<g id="icon / arrow-left">
<path id="Ellipse 82" d="M34 17C34 26.3888 26.3888 34 17 34C7.61116 34 0 26.3888 0 17C0 7.61116 7.61116 0 17 0C26.3888 0 34 7.61116 34 17Z" fill="var(--fill-0, #FF5C00)"/>
<path id="Vector 1 (Stroke)" fill-rule="evenodd" clip-rule="evenodd" d="M21.7036 16.3649C22.0432 16.7347 22.0432 17.2653 21.7036 17.6351L15.4703 24.4213C15.0749 24.8518 14.361 24.9164 13.8758 24.5657C13.3906 24.2149 13.3177 23.5816 13.7131 23.1512L19.3631 17L13.7131 10.8488C13.3177 10.4184 13.3906 9.78507 13.8758 9.43433C14.361 9.0836 15.0749 9.14822 15.4703 9.57867L21.7036 16.3649Z" fill="var(--fill-0, white)"/>
</g>
</svg>
