<svg preserveAspectRatio="none" width="100%" height="100%" overflow="visible" style="display: block;" viewBox="0 0 51 51" fill="none" xmlns="http://www.w3.org/2000/svg">
<g id="Group 318">
<circle id="Ellipse 134" cx="25.5" cy="25.5" r="25.5" fill="var(--fill-0, #FF5C00)"/>
<path id="Union" d="M36.3846 12.2938C39.1361 11.2919 41.1321 10.5445 40.3846 14.7909L34.8895 39.7762C33.1403 41.0243 32.1463 39.7767 31.1444 39.0292L25.1473 34.5292L20.9071 38.2704C20.4808 38.6966 20.0541 38.9363 19.6278 38.9989C19.2877 39.1153 18.909 39.1099 18.702 38.7118C18.3727 38.0784 16.344 31.7379 15.6053 28.4218L7.66198 25.5341H7.65417C6.40574 25.2876 7.39931 24.039 8.40124 23.538L36.3846 12.2938ZM34.8983 17.0409C34.3975 17.0409 33.8962 17.2954 33.3954 17.5419L17.0819 27.7938L19.4208 36.6679L20.159 30.785L20.1542 30.7821C23.3986 27.0287 29.6499 22.2815 33.3954 19.037C33.8965 18.544 34.8983 17.7883 34.8983 17.0409Z" fill="var(--fill-0, white)"/>
</g>
</svg>
