<svg preserveAspectRatio="none" width="100%" height="100%" overflow="visible" style="display: block;" viewBox="0 0 22.6667 22.6667" fill="none" xmlns="http://www.w3.org/2000/svg">
<path id="Vector (Stroke)" fill-rule="evenodd" clip-rule="evenodd" d="M0.321238 0.321238C0.749555 -0.107079 1.44399 -0.107079 1.87231 0.321238L11.3334 9.7823L20.7944 0.321321C21.2227 -0.106996 21.9171 -0.106996 22.3454 0.32132C22.7737 0.749637 22.7737 1.44408 22.3454 1.87239L12.8844 11.3334L22.3453 20.7943C22.7737 21.2226 22.7737 21.917 22.3453 22.3453C21.917 22.7737 21.2226 22.7737 20.7943 22.3453L11.3334 12.8844L1.8724 22.3454C1.44408 22.7737 0.749642 22.7737 0.321325 22.3454C-0.106992 21.9171 -0.106992 21.2227 0.321324 20.7944L9.7823 11.3334L0.321238 1.87231C-0.107079 1.44399 -0.107079 0.749555 0.321238 0.321238Z" fill="var(--fill-0, white)"/>
</svg>
