<svg preserveAspectRatio="none" width="100%" height="100%" overflow="visible" style="display: block;" viewBox="0 0 16.0526 11.036" fill="none" xmlns="http://www.w3.org/2000/svg">
<g id="Group 126">
<path id="Vector" d="M8.02637 0C11.8543 0 15.0649 2.46745 15.9343 5.7921C16.0066 6.06884 15.7896 6.32841 15.5035 6.32841C15.2855 6.32841 15.0993 6.17435 15.0431 5.96372C14.2593 3.02576 11.415 0.848933 8.02637 0.848933C4.6377 0.848933 1.79347 3.02577 1.00958 5.96373C0.953382 6.17435 0.767189 6.32841 0.549196 6.32841C0.263155 6.32841 0.0460948 6.06885 0.11846 5.79211C0.987845 2.46745 4.19851 0 8.02637 0Z" fill="var(--fill-0, #0D0300)"/>
<path id="Vector_2" d="M9.84008 6.71433C8.43355 6.71433 7.29328 5.57409 7.29328 4.16753C7.29328 3.42162 6.75862 2.45625 6.09285 2.7926C4.66348 3.51474 3.66602 4.98232 3.66602 6.67558C3.66602 9.08378 5.61826 11.036 8.02645 11.036C10.4346 11.036 12.3869 9.08378 12.3869 6.67558C12.3869 6.14489 11.6456 6.03998 11.1968 6.32315C10.804 6.57094 10.3388 6.71433 9.84008 6.71433Z" fill="var(--fill-0, #0D0300)"/>
</g>
</svg>
